<svg width="60" height="25" viewBox="0 0 60 25" fill="none" xmlns="http://www.w3.org/2000/svg">
<rect x="16.1537" y="20" width="2.3077" height="2.49991" fill="#BC8C61"/>
<rect x="18.4615" y="20" width="2.3077" height="2.49991" fill="#BC8C61"/>
<rect x="20.7692" y="20" width="2.3077" height="2.49991" fill="#BC8C61"/>
<rect x="23.077" y="20" width="2.3077" height="2.49991" fill="#BC8C61"/>
<rect x="25.3847" y="20" width="2.3077" height="2.49991" fill="#BC8C61"/>
<rect x="27.6923" y="20" width="2.3077" height="2.49991" fill="#BC8C61"/>
<rect x="30" y="20" width="2.3077" height="2.49991" fill="#BC8C61"/>
<rect x="32.3077" y="20" width="2.3077" height="2.49991" fill="#BC8C61"/>
<rect x="34.6154" y="20" width="2.3077" height="2.49991" fill="#BC8C61"/>
<rect x="36.9232" y="20" width="2.3077" height="2.49991" fill="#BC8C61"/>
<rect x="39.2308" y="20" width="2.3077" height="2.49991" fill="#BC8C61"/>
<rect x="41.5385" y="20" width="2.3077" height="2.49991" fill="#BC8C61"/>
<rect x="43.8461" y="20" width="2.3077" height="2.49991" fill="#BC8C61"/>
<rect x="46.1539" y="20" width="2.3077" height="2.49991" fill="#BC8C61"/>
<rect x="48.4615" y="20" width="2.3077" height="2.49991" fill="#BC8C61"/>
<rect x="50.7693" y="20" width="2.3077" height="2.49991" fill="#BC8C61"/>
<rect x="53.077" y="20" width="2.3077" height="2.49991" fill="#BC8C61"/>
<rect x="55.3846" y="17.499" width="2.3077" height="2.49991" fill="#BC8C61"/>
<rect x="57.6923" y="14.999" width="2.3077" height="2.49991" fill="#BC8C61"/>
<rect x="57.6923" y="12.5" width="2.3077" height="2.49991" fill="#BC8C61"/>
<rect x="57.6923" y="9.99902" width="2.3077" height="2.49991" fill="#BC8C61"/>
<rect x="57.6923" y="7.49902" width="2.3077" height="2.49991" fill="#BC8C61"/>
<rect x="57.6923" y="5" width="2.3077" height="2.49991" fill="#BC8C61"/>
<rect x="55.3846" y="2.49902" width="2.3077" height="2.49991" fill="#BC8C61"/>
<rect x="2.30762" y="5" width="2.3077" height="2.49991" fill="#BC8C61"/>
<path d="M2.30762 7.49902H4.61531V9.99893H2.30762V7.49902Z" fill="#BC8C61"/>
<path d="M2.30762 9.99893H4.61531V12.4988H2.30762V9.99893Z" fill="#BC8C61"/>
<path d="M2.30762 12.4988H4.61531V14.9987H2.30762V12.4988Z" fill="#BC8C61"/>
<path d="M2.30762 14.9987H4.61531V17.4987H2.30762V14.9987Z" fill="#BC8C61"/>
<rect x="4.61536" y="2.49902" width="2.3077" height="2.49991" fill="#BC8C61"/>
<path d="M6.92297 0H9.23067V2.49991H6.92297V0Z" fill="#BC8C61"/>
<rect x="9.23077" width="2.3077" height="2.49991" fill="#BC8C61"/>
<rect x="9.23077" y="20" width="2.3077" height="2.49991" fill="#BC8C61"/>
<rect x="11.5385" y="20" width="2.3077" height="2.49991" fill="#BC8C61"/>
<rect x="6.92297" y="20" width="2.3077" height="2.49991" fill="#BC8C61"/>
<rect x="4.61536" y="17.499" width="2.3077" height="2.49991" fill="#BC8C61"/>
<rect x="13.8463" y="20" width="2.3077" height="2.49991" fill="#BC8C61"/>
<rect x="16.1538" width="2.3077" height="2.49991" fill="#BC8C61"/>
<rect x="18.4615" width="2.3077" height="2.49991" fill="#BC8C61"/>
<rect x="20.7692" width="2.3077" height="2.49991" fill="#BC8C61"/>
<rect x="23.077" width="2.3077" height="2.49991" fill="#BC8C61"/>
<rect x="25.3847" width="2.3077" height="2.49991" fill="#BC8C61"/>
<rect x="27.6923" width="2.3077" height="2.49991" fill="#BC8C61"/>
<rect x="30" width="2.3077" height="2.49991" fill="#BC8C61"/>
<rect x="32.3077" width="2.3077" height="2.49991" fill="#BC8C61"/>
<rect x="34.6154" width="2.3077" height="2.49991" fill="#BC8C61"/>
<rect x="36.9232" width="2.3077" height="2.49991" fill="#BC8C61"/>
<rect x="39.2308" width="2.3077" height="2.49991" fill="#BC8C61"/>
<rect x="41.5385" width="2.3077" height="2.49991" fill="#BC8C61"/>
<rect x="43.8461" width="2.3077" height="2.49991" fill="#BC8C61"/>
<rect x="46.1539" width="2.3077" height="2.49991" fill="#BC8C61"/>
<rect x="48.4615" width="2.3077" height="2.49991" fill="#BC8C61"/>
<rect x="50.7693" width="2.3077" height="2.49991" fill="#BC8C61"/>
<rect x="53.077" width="2.3077" height="2.49991" fill="#BC8C61"/>
<rect x="13.8463" width="2.3077" height="2.49991" fill="#BC8C61"/>
<rect x="11.5385" width="2.3077" height="2.49991" fill="#BC8C61"/>
<rect x="11.5385" y="7.49902" width="2.3077" height="2.49991" fill="#FCBD80"/>
<rect x="13.8463" y="7.49902" width="2.3077" height="2.49991" fill="#FCBD80"/>
<rect x="13.8463" y="5" width="2.3077" height="2.49991" fill="#FCBD80"/>
<rect x="11.5385" y="5" width="2.3077" height="2.49991" fill="#FCBD80"/>
<rect x="30" y="7.49902" width="2.3077" height="2.49991" fill="#FCBD80"/>
<rect x="30" y="9.99902" width="2.3077" height="2.49991" fill="#FCBD80"/>
<rect x="30" y="14.999" width="2.3077" height="2.49991" fill="#FCBD80"/>
<rect x="6.92297" y="2.49902" width="2.3077" height="2.49991" fill="#FCBD80"/>
<rect x="6.92297" y="17.499" width="2.3077" height="2.49991" fill="#FCBD80"/>
<rect x="6.92297" y="14.999" width="2.3077" height="2.49991" fill="#FCBD80"/>
<rect x="6.92297" y="12.5" width="2.3077" height="2.49991" fill="#FCBD80"/>
<rect x="9.23077" y="12.5" width="2.3077" height="2.49991" fill="#FCBD80"/>
<rect x="6.92297" y="9.99902" width="2.3077" height="2.49991" fill="#FCBD80"/>
<rect x="6.92297" y="7.49902" width="2.3077" height="2.49991" fill="#FCBD80"/>
<rect x="6.92297" y="5" width="2.3077" height="2.49991" fill="#FCBD80"/>
<rect x="4.61536" y="14.999" width="2.3077" height="2.49991" fill="#FCBD80"/>
<rect x="4.61536" y="12.5" width="2.3077" height="2.49991" fill="#FCBD80"/>
<rect x="4.61536" y="9.99902" width="2.3077" height="2.49991" fill="#FCBD80"/>
<rect x="4.61536" y="7.49902" width="2.3077" height="2.49991" fill="#FCBD80"/>
<rect x="9.23077" y="5" width="2.3077" height="2.49991" fill="#FCBD80"/>
<rect x="9.23077" y="7.49902" width="2.3077" height="2.49991" fill="#FCBD80"/>
<rect x="9.23077" y="9.99902" width="2.3077" height="2.49991" fill="#FCBD80"/>
<rect x="11.5385" y="9.99902" width="2.3077" height="2.49991" fill="#FCBD80"/>
<rect x="13.8463" y="9.99902" width="2.3077" height="2.49991" fill="#FCBD80"/>
<rect x="13.8463" y="12.5" width="2.3077" height="2.49991" fill="#FCBD80"/>
<rect x="13.8463" y="14.999" width="2.3077" height="2.49991" fill="#FCBD80"/>
<rect x="11.5385" y="14.999" width="2.3077" height="2.49991" fill="#FCBD80"/>
<rect x="9.23077" y="14.999" width="2.3077" height="2.49991" fill="#FCBD80"/>
<rect x="4.61536" y="5" width="2.3077" height="2.49991" fill="#FCBD80"/>
<rect x="53.077" y="14.999" width="2.3077" height="2.49991" fill="#FCBD80"/>
<rect x="53.077" y="12.5" width="2.3077" height="2.49991" fill="#FCBD80"/>
<rect x="53.077" y="9.99902" width="2.3077" height="2.49991" fill="#FCBD80"/>
<rect x="53.077" y="7.49902" width="2.3077" height="2.49991" fill="#FCBD80"/>
<rect x="50.7693" y="14.999" width="2.3077" height="2.49991" fill="#FCBD80"/>
<rect x="50.7693" y="12.5" width="2.3077" height="2.49991" fill="#FCBD80"/>
<rect x="48.4615" y="9.99902" width="2.3077" height="2.49991" fill="#FCBD80"/>
<rect x="48.4615" y="12.5" width="2.3077" height="2.49991" fill="#FCBD80"/>
<rect x="50.7693" y="9.99902" width="2.3077" height="2.49991" fill="#FCBD80"/>
<rect x="50.7693" y="5" width="2.3077" height="2.49991" fill="#FCBD80"/>
<rect x="50.7693" y="7.49902" width="2.3077" height="2.49991" fill="#FCBD80"/>
<rect x="46.1539" y="14.999" width="2.3077" height="2.49991" fill="#FCBD80"/>
<rect x="46.1539" y="12.5" width="2.3077" height="2.49991" fill="#FCBD80"/>
<rect x="48.4615" y="14.999" width="2.3077" height="2.49991" fill="#FCBD80"/>
<rect x="46.1539" y="9.99902" width="2.3077" height="2.49991" fill="#FCBD80"/>
<rect x="46.1539" y="7.49902" width="2.3077" height="2.49991" fill="#FCBD80"/>
<rect x="48.4615" y="5" width="2.3077" height="2.49991" fill="#FCBD80"/>
<rect x="48.4615" y="7.49902" width="2.3077" height="2.49991" fill="#FCBD80"/>
<rect x="23.077" y="14.999" width="2.3077" height="2.49991" fill="#FCBD80"/>
<rect x="20.7692" y="14.999" width="2.3077" height="2.49991" fill="#FCBD80"/>
<rect x="23.077" y="12.5" width="2.3077" height="2.49991" fill="#FCBD80"/>
<rect x="20.7692" y="12.5" width="2.3077" height="2.49991" fill="#FCBD80"/>
<rect x="23.077" y="9.99902" width="2.3077" height="2.49991" fill="#FCBD80"/>
<rect x="20.7692" y="9.99902" width="2.3077" height="2.49991" fill="#FCBD80"/>
<rect x="23.077" y="7.49902" width="2.3077" height="2.49991" fill="#FCBD80"/>
<rect x="20.7692" y="7.49902" width="2.3077" height="2.49991" fill="#FCBD80"/>
<rect x="23.077" y="5" width="2.3077" height="2.49991" fill="#FCBD80"/>
<rect x="18.4615" y="14.999" width="2.3077" height="2.49991" fill="#FCBD80"/>
<rect x="18.4615" y="12.5" width="2.3077" height="2.49991" fill="#FCBD80"/>
<rect x="18.4615" y="9.99902" width="2.3077" height="2.49991" fill="#FCBD80"/>
<rect x="18.4615" y="7.49902" width="2.3077" height="2.49991" fill="#FCBD80"/>
<rect x="20.7692" y="5" width="2.3077" height="2.49991" fill="#FCBD80"/>
<rect x="18.4615" y="5" width="2.3077" height="2.49991" fill="#FCBD80"/>
<rect x="53.077" y="5" width="2.3077" height="2.49991" fill="#FCBD80"/>
<rect x="16.1537" y="14.999" width="2.3077" height="2.49991" fill="#FCBD80"/>
<rect x="16.1537" y="12.5" width="2.3077" height="2.49991" fill="#FCBD80"/>
<rect x="16.1537" y="9.99902" width="2.3077" height="2.49991" fill="#FCBD80"/>
<rect x="16.1537" y="7.49902" width="2.3077" height="2.49991" fill="#FCBD80"/>
<rect x="16.1537" y="5" width="2.3077" height="2.49991" fill="#FCBD80"/>
<rect x="25.3847" y="14.999" width="2.3077" height="2.49991" fill="#FCBD80"/>
<rect x="27.6923" y="14.999" width="2.3077" height="2.49991" fill="#FCBD80"/>
<rect x="25.3847" y="12.5" width="2.3077" height="2.49991" fill="#FCBD80"/>
<rect x="27.6923" y="12.5" width="2.3077" height="2.49991" fill="#FCBD80"/>
<rect x="25.3847" y="9.99902" width="2.3077" height="2.49991" fill="#FCBD80"/>
<rect x="27.6923" y="9.99902" width="2.3077" height="2.49991" fill="#FCBD80"/>
<rect x="25.3847" y="7.49902" width="2.3077" height="2.49991" fill="#FCBD80"/>
<rect x="27.6923" y="7.49902" width="2.3077" height="2.49991" fill="#FCBD80"/>
<rect x="25.3847" y="5" width="2.3077" height="2.49991" fill="#FCBD80"/>
<rect x="30" y="5" width="2.3077" height="2.49991" fill="#FCBD80"/>
<rect x="32.3077" y="5" width="2.3077" height="2.49991" fill="#FCBD80"/>
<rect x="32.3077" y="7.49902" width="2.3077" height="2.49991" fill="#FCBD80"/>
<rect x="32.3077" y="9.99902" width="2.3077" height="2.49991" fill="#FCBD80"/>
<rect x="32.3077" y="12.5" width="2.3077" height="2.49991" fill="#FCBD80"/>
<rect x="41.5385" y="14.999" width="2.3077" height="2.49991" fill="#FCBD80"/>
<rect x="32.3077" y="14.999" width="2.3077" height="2.49991" fill="#FCBD80"/>
<rect x="30" y="12.5" width="2.3077" height="2.49991" fill="#FCBD80"/>
<rect x="27.6923" y="5" width="2.3077" height="2.49991" fill="#FCBD80"/>
<rect x="34.6154" y="14.999" width="2.3077" height="2.49991" fill="#FCBD80"/>
<rect x="34.6154" y="12.5" width="2.3077" height="2.49991" fill="#FCBD80"/>
<rect x="34.6154" y="9.99902" width="2.3077" height="2.49991" fill="#FCBD80"/>
<rect x="34.6154" y="7.49902" width="2.3077" height="2.49991" fill="#FCBD80"/>
<rect x="36.9232" y="7.49902" width="2.3077" height="2.49991" fill="#FCBD80"/>
<rect x="36.9232" y="9.99902" width="2.3077" height="2.49991" fill="#FCBD80"/>
<rect x="36.9232" y="12.5" width="2.3077" height="2.49991" fill="#FCBD80"/>
<rect x="36.9232" y="14.999" width="2.3077" height="2.49991" fill="#FCBD80"/>
<rect x="36.9232" y="5" width="2.3077" height="2.49991" fill="#FCBD80"/>
<rect x="39.2308" y="5" width="2.3077" height="2.49991" fill="#FCBD80"/>
<rect x="41.5385" y="5" width="2.3077" height="2.49991" fill="#FCBD80"/>
<rect x="41.5385" y="7.49902" width="2.3077" height="2.49991" fill="#FCBD80"/>
<rect x="41.5385" y="12.5" width="2.3077" height="2.49991" fill="#FCBD80"/>
<rect x="46.1539" y="5" width="2.3077" height="2.49991" fill="#FCBD80"/>
<rect x="39.2308" y="9.99902" width="2.3077" height="2.49991" fill="#FCBD80"/>
<rect x="34.6154" y="5" width="2.3077" height="2.49991" fill="#FCBD80"/>
<rect x="39.2308" y="7.49902" width="2.3077" height="2.49991" fill="#FCBD80"/>
<rect x="39.2308" y="12.5" width="2.3077" height="2.49991" fill="#FCBD80"/>
<rect x="39.2308" y="14.999" width="2.3077" height="2.49991" fill="#FCBD80"/>
<rect x="43.8461" y="14.999" width="2.3077" height="2.49991" fill="#FCBD80"/>
<rect x="41.5385" y="9.99902" width="2.3077" height="2.49991" fill="#FCBD80"/>
<rect x="43.8461" y="9.99902" width="2.3077" height="2.49991" fill="#FCBD80"/>
<rect x="43.8461" y="12.5" width="2.3077" height="2.49991" fill="#FCBD80"/>
<rect x="43.8461" y="7.49902" width="2.3077" height="2.49991" fill="#FCBD80"/>
<rect x="43.8461" y="5" width="2.3077" height="2.49991" fill="#FCBD80"/>
<rect x="55.3846" y="14.999" width="2.3077" height="2.49991" fill="#FCBD80"/>
<rect x="55.3846" y="12.5" width="2.3077" height="2.49991" fill="#FCBD80"/>
<rect x="55.3846" y="9.99902" width="2.3077" height="2.49991" fill="#FCBD80"/>
<rect x="55.3846" y="7.49902" width="2.3077" height="2.49991" fill="#FCBD80"/>
<rect x="55.3846" y="5" width="2.3077" height="2.49991" fill="#FCBD80"/>
<rect x="11.5385" y="12.5" width="2.3077" height="2.49991" fill="#FCBD80"/>
<rect x="9.23077" y="2.49902" width="2.3077" height="2.49991" fill="#FCBD80"/>
<rect x="11.5385" y="2.49902" width="2.3077" height="2.49991" fill="#FCBD80"/>
<rect x="13.8463" y="2.49902" width="2.3077" height="2.49991" fill="#FCBD80"/>
<rect x="16.1537" y="2.49902" width="2.3077" height="2.49991" fill="#FCBD80"/>
<rect x="18.4615" y="2.49902" width="2.3077" height="2.49991" fill="#FCBD80"/>
<rect x="20.7692" y="2.49902" width="2.3077" height="2.49991" fill="#FCBD80"/>
<rect x="23.077" y="2.49902" width="2.3077" height="2.49991" fill="#FCBD80"/>
<rect x="25.3847" y="2.49902" width="2.3077" height="2.49991" fill="#FCBD80"/>
<rect x="27.6923" y="2.49902" width="2.3077" height="2.49991" fill="#FCBD80"/>
<rect x="30" y="2.49902" width="2.3077" height="2.49991" fill="#FCBD80"/>
<rect x="32.3077" y="2.49902" width="2.3077" height="2.49991" fill="#FCBD80"/>
<rect x="32.3077" y="2.49902" width="2.3077" height="2.49991" fill="#FCBD80"/>
<rect x="34.6154" y="2.49902" width="2.3077" height="2.49991" fill="#FCBD80"/>
<rect x="36.9232" y="2.49902" width="2.3077" height="2.49991" fill="#FCBD80"/>
<rect x="39.2308" y="2.49902" width="2.3077" height="2.49991" fill="#FCBD80"/>
<rect x="41.5385" y="2.49902" width="2.3077" height="2.49991" fill="#FCBD80"/>
<rect x="43.8461" y="2.49902" width="2.3077" height="2.49991" fill="#FCBD80"/>
<rect x="46.1539" y="2.49902" width="2.3077" height="2.49991" fill="#FCBD80"/>
<rect x="48.4615" y="2.49902" width="2.3077" height="2.49991" fill="#FCBD80"/>
<rect x="50.7693" y="2.49902" width="2.3077" height="2.49991" fill="#FCBD80"/>
<rect x="53.077" y="2.49902" width="2.3077" height="2.49991" fill="#FCBD80"/>
<rect x="9.23077" y="17.499" width="2.3077" height="2.49991" fill="#FCBD80"/>
<rect x="11.5385" y="17.499" width="2.3077" height="2.49991" fill="#FCBD80"/>
<rect x="13.8463" y="17.499" width="2.3077" height="2.49991" fill="#FCBD80"/>
<rect x="16.1537" y="17.499" width="2.3077" height="2.49991" fill="#FCBD80"/>
<rect x="18.4615" y="17.499" width="2.3077" height="2.49991" fill="#FCBD80"/>
<rect x="20.7692" y="17.499" width="2.3077" height="2.49991" fill="#FCBD80"/>
<rect x="23.077" y="17.499" width="2.3077" height="2.49991" fill="#FCBD80"/>
<rect x="25.3847" y="17.499" width="2.3077" height="2.49991" fill="#FCBD80"/>
<rect x="27.6923" y="17.499" width="2.3077" height="2.49991" fill="#FCBD80"/>
<rect x="30" y="17.499" width="2.3077" height="2.49991" fill="#FCBD80"/>
<rect x="32.3077" y="17.499" width="2.3077" height="2.49991" fill="#FCBD80"/>
<rect x="32.3077" y="17.499" width="2.3077" height="2.49991" fill="#FCBD80"/>
<rect x="34.6154" y="17.499" width="2.3077" height="2.49991" fill="#FCBD80"/>
<rect x="36.9232" y="17.499" width="2.3077" height="2.49991" fill="#FCBD80"/>
<rect x="39.2308" y="17.499" width="2.3077" height="2.49991" fill="#FCBD80"/>
<rect x="41.5385" y="17.499" width="2.3077" height="2.49991" fill="#FCBD80"/>
<rect x="43.8461" y="17.499" width="2.3077" height="2.49991" fill="#FCBD80"/>
<rect x="46.1539" y="17.499" width="2.3077" height="2.49991" fill="#FCBD80"/>
<rect x="48.4615" y="17.499" width="2.3077" height="2.49991" fill="#FCBD80"/>
<rect x="50.7693" y="17.499" width="2.3077" height="2.49991" fill="#FCBD80"/>
<rect x="53.077" y="17.499" width="2.3077" height="2.49991" fill="#FCBD80"/>
<rect x="2.30762" y="2.66602" width="2.3077" height="2.49991" fill="#451B0B"/>
<rect y="5.16602" width="2.3077" height="2.49991" fill="#451B0B"/>
<rect y="7.66699" width="2.3077" height="2.49991" fill="#451B0B"/>
<rect y="10.166" width="2.3077" height="2.49991" fill="#451B0B"/>
<rect y="12.666" width="2.3077" height="2.49991" fill="#451B0B"/>
<rect y="14.999" width="2.3077" height="2.49991" fill="#451B0B"/>
<rect x="2.30762" y="17.499" width="2.3077" height="2.49991" fill="#451B0B"/>
<rect x="4.61536" y="20" width="2.3077" height="2.49991" fill="#451B0B"/>
<rect x="6.92297" y="22.5" width="2.3077" height="2.49991" fill="#451B0B"/>
<rect x="4.61536" y="22.5" width="2.3077" height="2.49991" fill="#451B0B"/>
<rect x="2.30762" y="20" width="2.3077" height="2.49991" fill="#451B0B"/>
<rect y="17.499" width="2.3077" height="2.49991" fill="#451B0B"/>
<rect x="9.23077" y="22.5" width="2.3077" height="2.49991" fill="#451B0B"/>
<rect x="11.5385" y="22.5" width="2.3077" height="2.49991" fill="#451B0B"/>
<rect x="13.8463" y="22.5" width="2.3077" height="2.49991" fill="#451B0B"/>
<rect x="16.1537" y="22.5" width="2.3077" height="2.49991" fill="#451B0B"/>
<rect x="18.4615" y="22.5" width="2.3077" height="2.49991" fill="#451B0B"/>
<rect x="20.7692" y="22.5" width="2.3077" height="2.49991" fill="#451B0B"/>
<rect x="23.077" y="22.5" width="2.3077" height="2.49991" fill="#451B0B"/>
<rect x="25.3847" y="22.5" width="2.3077" height="2.49991" fill="#451B0B"/>
<rect x="27.6923" y="22.5" width="2.3077" height="2.49991" fill="#451B0B"/>
<rect x="30" y="22.5" width="2.3077" height="2.49991" fill="#451B0B"/>
<rect x="32.3077" y="22.5" width="2.3077" height="2.49991" fill="#451B0B"/>
<rect x="34.6154" y="22.5" width="2.3077" height="2.49991" fill="#451B0B"/>
<rect x="36.9232" y="22.5" width="2.3077" height="2.49991" fill="#451B0B"/>
<rect x="39.2308" y="22.5" width="2.3077" height="2.49991" fill="#451B0B"/>
<rect x="41.5385" y="22.5" width="2.3077" height="2.49991" fill="#451B0B"/>
<rect x="43.8461" y="22.5" width="2.3077" height="2.49991" fill="#451B0B"/>
<rect x="46.1539" y="22.5" width="2.3077" height="2.49991" fill="#451B0B"/>
<rect x="48.4615" y="22.5" width="2.3077" height="2.49991" fill="#451B0B"/>
<rect x="50.7693" y="22.5" width="2.3077" height="2.49991" fill="#451B0B"/>
<rect x="53.077" y="22.5" width="2.3077" height="2.49991" fill="#451B0B"/>
<rect x="55.3846" y="20" width="2.3077" height="2.49991" fill="#451B0B"/>
<rect x="57.6923" y="17.499" width="2.3077" height="2.49991" fill="#451B0B"/>
<rect x="4.61536" y="0.166992" width="2.3077" height="2.49991" fill="#451B0B"/>
<mask id="path-248-outside-1_276_4676" maskUnits="userSpaceOnUse" x="17.2889" y="5.11133" width="26" height="13" fill="black">
<rect fill="white" x="17.2889" y="5.11133" width="26" height="13"/>
<path d="M18.3904 6.17383H24.8904V6.98633H20.0154V11.0488H24.8904V11.8613H19.2029V11.0488H18.3904V6.17383ZM28.1404 8.61133H30.5779V9.42383H28.1404V11.8613H26.5154V6.17383H28.1404V8.61133ZM19.2029 14.2988H26.5154V13.4863H19.2029V12.6738H28.1404V15.1113H20.8279V15.9238H28.1404V16.7363H20.0154V15.9238H19.2029V14.2988ZM36.2654 11.0488H35.4529V10.2363H33.8279V11.0488H33.0154V11.8613H31.3904V11.0488H32.2029V10.2363H33.0154V9.42383H33.8279V6.17383H35.4529V9.42383H36.2654V10.2363H37.0779V11.0488H37.8904V11.8613H36.2654V11.0488ZM41.9529 11.8613H40.3279V9.42383H37.8904V8.61133H40.3279V6.17383H41.9529V11.8613ZM32.2029 13.4863H33.8279V12.6738H40.3279V13.4863H41.9529V15.9238H40.3279V16.7363H33.8279V15.9238H32.2029V13.4863ZM34.6404 14.2988H33.8279V15.1113H34.6404V15.9238H39.5154V15.1113H40.3279V14.2988H39.5154V13.4863H34.6404V14.2988Z"/>
</mask>
<path d="M18.3904 6.17383H24.8904V6.98633H20.0154V11.0488H24.8904V11.8613H19.2029V11.0488H18.3904V6.17383ZM28.1404 8.61133H30.5779V9.42383H28.1404V11.8613H26.5154V6.17383H28.1404V8.61133ZM19.2029 14.2988H26.5154V13.4863H19.2029V12.6738H28.1404V15.1113H20.8279V15.9238H28.1404V16.7363H20.0154V15.9238H19.2029V14.2988ZM36.2654 11.0488H35.4529V10.2363H33.8279V11.0488H33.0154V11.8613H31.3904V11.0488H32.2029V10.2363H33.0154V9.42383H33.8279V6.17383H35.4529V9.42383H36.2654V10.2363H37.0779V11.0488H37.8904V11.8613H36.2654V11.0488ZM41.9529 11.8613H40.3279V9.42383H37.8904V8.61133H40.3279V6.17383H41.9529V11.8613ZM32.2029 13.4863H33.8279V12.6738H40.3279V13.4863H41.9529V15.9238H40.3279V16.7363H33.8279V15.9238H32.2029V13.4863ZM34.6404 14.2988H33.8279V15.1113H34.6404V15.9238H39.5154V15.1113H40.3279V14.2988H39.5154V13.4863H34.6404V14.2988Z" fill="black"/>
<path d="M18.3904 6.17383V5.17383H17.3904V6.17383H18.3904ZM24.8904 6.17383H25.8904V5.17383H24.8904V6.17383ZM24.8904 6.98633V7.98633H25.8904V6.98633H24.8904ZM20.0154 6.98633V5.98633H19.0154V6.98633H20.0154ZM20.0154 11.0488H19.0154V12.0488H20.0154V11.0488ZM24.8904 11.0488H25.8904V10.0488H24.8904V11.0488ZM24.8904 11.8613V12.8613H25.8904V11.8613H24.8904ZM19.2029 11.8613H18.2029V12.8613H19.2029V11.8613ZM19.2029 11.0488H20.2029V10.0488H19.2029V11.0488ZM18.3904 11.0488H17.3904V12.0488H18.3904V11.0488ZM28.1404 8.61133H27.1404V9.61133H28.1404V8.61133ZM30.5779 8.61133H31.5779V7.61133H30.5779V8.61133ZM30.5779 9.42383V10.4238H31.5779V9.42383H30.5779ZM28.1404 9.42383V8.42383H27.1404V9.42383H28.1404ZM28.1404 11.8613V12.8613H29.1404V11.8613H28.1404ZM26.5154 11.8613H25.5154V12.8613H26.5154V11.8613ZM26.5154 6.17383V5.17383H25.5154V6.17383H26.5154ZM28.1404 6.17383H29.1404V5.17383H28.1404V6.17383ZM19.2029 14.2988V13.2988H18.2029V14.2988H19.2029ZM26.5154 14.2988V15.2988H27.5154V14.2988H26.5154ZM26.5154 13.4863H27.5154V12.4863H26.5154V13.4863ZM19.2029 13.4863H18.2029V14.4863H19.2029V13.4863ZM19.2029 12.6738V11.6738H18.2029V12.6738H19.2029ZM28.1404 12.6738H29.1404V11.6738H28.1404V12.6738ZM28.1404 15.1113V16.1113H29.1404V15.1113H28.1404ZM20.8279 15.1113V14.1113H19.8279V15.1113H20.8279ZM20.8279 15.9238H19.8279V16.9238H20.8279V15.9238ZM28.1404 15.9238H29.1404V14.9238H28.1404V15.9238ZM28.1404 16.7363V17.7363H29.1404V16.7363H28.1404ZM20.0154 16.7363H19.0154V17.7363H20.0154V16.7363ZM20.0154 15.9238H21.0154V14.9238H20.0154V15.9238ZM19.2029 15.9238H18.2029V16.9238H19.2029V15.9238ZM18.3904 7.17383H24.8904V5.17383H18.3904V7.17383ZM23.8904 6.17383V6.98633H25.8904V6.17383H23.8904ZM24.8904 5.98633H20.0154V7.98633H24.8904V5.98633ZM19.0154 6.98633V11.0488H21.0154V6.98633H19.0154ZM20.0154 12.0488H24.8904V10.0488H20.0154V12.0488ZM23.8904 11.0488V11.8613H25.8904V11.0488H23.8904ZM24.8904 10.8613H19.2029V12.8613H24.8904V10.8613ZM20.2029 11.8613V11.0488H18.2029V11.8613H20.2029ZM19.2029 10.0488H18.3904V12.0488H19.2029V10.0488ZM19.3904 11.0488V6.17383H17.3904V11.0488H19.3904ZM28.1404 9.61133H30.5779V7.61133H28.1404V9.61133ZM29.5779 8.61133V9.42383H31.5779V8.61133H29.5779ZM30.5779 8.42383H28.1404V10.4238H30.5779V8.42383ZM27.1404 9.42383V11.8613H29.1404V9.42383H27.1404ZM28.1404 10.8613H26.5154V12.8613H28.1404V10.8613ZM27.5154 11.8613V6.17383H25.5154V11.8613H27.5154ZM26.5154 7.17383H28.1404V5.17383H26.5154V7.17383ZM27.1404 6.17383V8.61133H29.1404V6.17383H27.1404ZM19.2029 15.2988H26.5154V13.2988H19.2029V15.2988ZM27.5154 14.2988V13.4863H25.5154V14.2988H27.5154ZM26.5154 12.4863H19.2029V14.4863H26.5154V12.4863ZM20.2029 13.4863V12.6738H18.2029V13.4863H20.2029ZM19.2029 13.6738H28.1404V11.6738H19.2029V13.6738ZM27.1404 12.6738V15.1113H29.1404V12.6738H27.1404ZM28.1404 14.1113H20.8279V16.1113H28.1404V14.1113ZM19.8279 15.1113V15.9238H21.8279V15.1113H19.8279ZM20.8279 16.9238H28.1404V14.9238H20.8279V16.9238ZM27.1404 15.9238V16.7363H29.1404V15.9238H27.1404ZM28.1404 15.7363H20.0154V17.7363H28.1404V15.7363ZM21.0154 16.7363V15.9238H19.0154V16.7363H21.0154ZM20.0154 14.9238H19.2029V16.9238H20.0154V14.9238ZM20.2029 15.9238V14.2988H18.2029V15.9238H20.2029ZM36.2654 11.0488H37.2654V10.0488H36.2654V11.0488ZM35.4529 11.0488H34.4529V12.0488H35.4529V11.0488ZM35.4529 10.2363H36.4529V9.23633H35.4529V10.2363ZM33.8279 10.2363V9.23633H32.8279V10.2363H33.8279ZM33.8279 11.0488V12.0488H34.8279V11.0488H33.8279ZM33.0154 11.0488V10.0488H32.0154V11.0488H33.0154ZM33.0154 11.8613V12.8613H34.0154V11.8613H33.0154ZM31.3904 11.8613H30.3904V12.8613H31.3904V11.8613ZM31.3904 11.0488V10.0488H30.3904V11.0488H31.3904ZM32.2029 11.0488V12.0488H33.2029V11.0488H32.2029ZM32.2029 10.2363V9.23633H31.2029V10.2363H32.2029ZM33.0154 10.2363V11.2363H34.0154V10.2363H33.0154ZM33.0154 9.42383V8.42383H32.0154V9.42383H33.0154ZM33.8279 9.42383V10.4238H34.8279V9.42383H33.8279ZM33.8279 6.17383V5.17383H32.8279V6.17383H33.8279ZM35.4529 6.17383H36.4529V5.17383H35.4529V6.17383ZM35.4529 9.42383H34.4529V10.4238H35.4529V9.42383ZM36.2654 9.42383H37.2654V8.42383H36.2654V9.42383ZM36.2654 10.2363H35.2654V11.2363H36.2654V10.2363ZM37.0779 10.2363H38.0779V9.23633H37.0779V10.2363ZM37.0779 11.0488H36.0779V12.0488H37.0779V11.0488ZM37.8904 11.0488H38.8904V10.0488H37.8904V11.0488ZM37.8904 11.8613V12.8613H38.8904V11.8613H37.8904ZM36.2654 11.8613H35.2654V12.8613H36.2654V11.8613ZM41.9529 11.8613V12.8613H42.9529V11.8613H41.9529ZM40.3279 11.8613H39.3279V12.8613H40.3279V11.8613ZM40.3279 9.42383H41.3279V8.42383H40.3279V9.42383ZM37.8904 9.42383H36.8904V10.4238H37.8904V9.42383ZM37.8904 8.61133V7.61133H36.8904V8.61133H37.8904ZM40.3279 8.61133V9.61133H41.3279V8.61133H40.3279ZM40.3279 6.17383V5.17383H39.3279V6.17383H40.3279ZM41.9529 6.17383H42.9529V5.17383H41.9529V6.17383ZM32.2029 13.4863V12.4863H31.2029V13.4863H32.2029ZM33.8279 13.4863V14.4863H34.8279V13.4863H33.8279ZM33.8279 12.6738V11.6738H32.8279V12.6738H33.8279ZM40.3279 12.6738H41.3279V11.6738H40.3279V12.6738ZM40.3279 13.4863H39.3279V14.4863H40.3279V13.4863ZM41.9529 13.4863H42.9529V12.4863H41.9529V13.4863ZM41.9529 15.9238V16.9238H42.9529V15.9238H41.9529ZM40.3279 15.9238V14.9238H39.3279V15.9238H40.3279ZM40.3279 16.7363V17.7363H41.3279V16.7363H40.3279ZM33.8279 16.7363H32.8279V17.7363H33.8279V16.7363ZM33.8279 15.9238H34.8279V14.9238H33.8279V15.9238ZM32.2029 15.9238H31.2029V16.9238H32.2029V15.9238ZM34.6404 14.2988V15.2988H35.6404V14.2988H34.6404ZM33.8279 14.2988V13.2988H32.8279V14.2988H33.8279ZM33.8279 15.1113H32.8279V16.1113H33.8279V15.1113ZM34.6404 15.1113H35.6404V14.1113H34.6404V15.1113ZM34.6404 15.9238H33.6404V16.9238H34.6404V15.9238ZM39.5154 15.9238V16.9238H40.5154V15.9238H39.5154ZM39.5154 15.1113V14.1113H38.5154V15.1113H39.5154ZM40.3279 15.1113V16.1113H41.3279V15.1113H40.3279ZM40.3279 14.2988H41.3279V13.2988H40.3279V14.2988ZM39.5154 14.2988H38.5154V15.2988H39.5154V14.2988ZM39.5154 13.4863H40.5154V12.4863H39.5154V13.4863ZM34.6404 13.4863V12.4863H33.6404V13.4863H34.6404ZM36.2654 10.0488H35.4529V12.0488H36.2654V10.0488ZM36.4529 11.0488V10.2363H34.4529V11.0488H36.4529ZM35.4529 9.23633H33.8279V11.2363H35.4529V9.23633ZM32.8279 10.2363V11.0488H34.8279V10.2363H32.8279ZM33.8279 10.0488H33.0154V12.0488H33.8279V10.0488ZM32.0154 11.0488V11.8613H34.0154V11.0488H32.0154ZM33.0154 10.8613H31.3904V12.8613H33.0154V10.8613ZM32.3904 11.8613V11.0488H30.3904V11.8613H32.3904ZM31.3904 12.0488H32.2029V10.0488H31.3904V12.0488ZM33.2029 11.0488V10.2363H31.2029V11.0488H33.2029ZM32.2029 11.2363H33.0154V9.23633H32.2029V11.2363ZM34.0154 10.2363V9.42383H32.0154V10.2363H34.0154ZM33.0154 10.4238H33.8279V8.42383H33.0154V10.4238ZM34.8279 9.42383V6.17383H32.8279V9.42383H34.8279ZM33.8279 7.17383H35.4529V5.17383H33.8279V7.17383ZM34.4529 6.17383V9.42383H36.4529V6.17383H34.4529ZM35.4529 10.4238H36.2654V8.42383H35.4529V10.4238ZM35.2654 9.42383V10.2363H37.2654V9.42383H35.2654ZM36.2654 11.2363H37.0779V9.23633H36.2654V11.2363ZM36.0779 10.2363V11.0488H38.0779V10.2363H36.0779ZM37.0779 12.0488H37.8904V10.0488H37.0779V12.0488ZM36.8904 11.0488V11.8613H38.8904V11.0488H36.8904ZM37.8904 10.8613H36.2654V12.8613H37.8904V10.8613ZM37.2654 11.8613V11.0488H35.2654V11.8613H37.2654ZM41.9529 10.8613H40.3279V12.8613H41.9529V10.8613ZM41.3279 11.8613V9.42383H39.3279V11.8613H41.3279ZM40.3279 8.42383H37.8904V10.4238H40.3279V8.42383ZM38.8904 9.42383V8.61133H36.8904V9.42383H38.8904ZM37.8904 9.61133H40.3279V7.61133H37.8904V9.61133ZM41.3279 8.61133V6.17383H39.3279V8.61133H41.3279ZM40.3279 7.17383H41.9529V5.17383H40.3279V7.17383ZM40.9529 6.17383V11.8613H42.9529V6.17383H40.9529ZM32.2029 14.4863H33.8279V12.4863H32.2029V14.4863ZM34.8279 13.4863V12.6738H32.8279V13.4863H34.8279ZM33.8279 13.6738H40.3279V11.6738H33.8279V13.6738ZM39.3279 12.6738V13.4863H41.3279V12.6738H39.3279ZM40.3279 14.4863H41.9529V12.4863H40.3279V14.4863ZM40.9529 13.4863V15.9238H42.9529V13.4863H40.9529ZM41.9529 14.9238H40.3279V16.9238H41.9529V14.9238ZM39.3279 15.9238V16.7363H41.3279V15.9238H39.3279ZM40.3279 15.7363H33.8279V17.7363H40.3279V15.7363ZM34.8279 16.7363V15.9238H32.8279V16.7363H34.8279ZM33.8279 14.9238H32.2029V16.9238H33.8279V14.9238ZM33.2029 15.9238V13.4863H31.2029V15.9238H33.2029ZM34.6404 13.2988H33.8279V15.2988H34.6404V13.2988ZM32.8279 14.2988V15.1113H34.8279V14.2988H32.8279ZM33.8279 16.1113H34.6404V14.1113H33.8279V16.1113ZM33.6404 15.1113V15.9238H35.6404V15.1113H33.6404ZM34.6404 16.9238H39.5154V14.9238H34.6404V16.9238ZM40.5154 15.9238V15.1113H38.5154V15.9238H40.5154ZM39.5154 16.1113H40.3279V14.1113H39.5154V16.1113ZM41.3279 15.1113V14.2988H39.3279V15.1113H41.3279ZM40.3279 13.2988H39.5154V15.2988H40.3279V13.2988ZM40.5154 14.2988V13.4863H38.5154V14.2988H40.5154ZM39.5154 12.4863H34.6404V14.4863H39.5154V12.4863ZM33.6404 13.4863V14.2988H35.6404V13.4863H33.6404Z" fill="white" mask="url(#path-248-outside-1_276_4676)"/>
</svg>
