<svg width="60" height="25" viewBox="0 0 60 25" fill="none" xmlns="http://www.w3.org/2000/svg">
<rect x="16.1537" y="20" width="2.3077" height="2.49991" fill="#663939"/>
<rect x="18.4615" y="20" width="2.3077" height="2.49991" fill="#663939"/>
<rect x="20.7692" y="20" width="2.3077" height="2.49991" fill="#663939"/>
<rect x="23.077" y="20" width="2.3077" height="2.49991" fill="#663939"/>
<rect x="25.3847" y="20" width="2.3077" height="2.49991" fill="#663939"/>
<rect x="27.6923" y="20" width="2.3077" height="2.49991" fill="#663939"/>
<rect x="30" y="20" width="2.3077" height="2.49991" fill="#663939"/>
<rect x="32.3077" y="20" width="2.3077" height="2.49991" fill="#663939"/>
<rect x="34.6154" y="20" width="2.3077" height="2.49991" fill="#663939"/>
<rect x="36.9232" y="20" width="2.3077" height="2.49991" fill="#663939"/>
<rect x="39.2308" y="20" width="2.3077" height="2.49991" fill="#663939"/>
<rect x="41.5385" y="20" width="2.3077" height="2.49991" fill="#663939"/>
<rect x="43.8461" y="20" width="2.3077" height="2.49991" fill="#663939"/>
<rect x="46.1539" y="20" width="2.3077" height="2.49991" fill="#663939"/>
<rect x="48.4615" y="20" width="2.3077" height="2.49991" fill="#663939"/>
<rect x="50.7693" y="20" width="2.3077" height="2.49991" fill="#663939"/>
<rect x="53.077" y="20" width="2.3077" height="2.49991" fill="#663939"/>
<rect x="55.3846" y="17.499" width="2.3077" height="2.49991" fill="#663939"/>
<rect x="57.6923" y="14.999" width="2.3077" height="2.49991" fill="#663939"/>
<rect x="57.6923" y="12.5" width="2.3077" height="2.49991" fill="#663939"/>
<rect x="57.6923" y="9.99902" width="2.3077" height="2.49991" fill="#663939"/>
<rect x="57.6923" y="7.49902" width="2.3077" height="2.49991" fill="#663939"/>
<rect x="57.6923" y="5" width="2.3077" height="2.49991" fill="#663939"/>
<rect x="55.3846" y="2.49902" width="2.3077" height="2.49991" fill="#663939"/>
<rect x="2.30762" y="5" width="2.3077" height="2.49991" fill="#663939"/>
<path d="M2.30762 7.49902H4.61531V9.99893H2.30762V7.49902Z" fill="#663939"/>
<path d="M2.30762 9.99893H4.61531V12.4988H2.30762V9.99893Z" fill="#663939"/>
<path d="M2.30762 12.4988H4.61531V14.9987H2.30762V12.4988Z" fill="#663939"/>
<path d="M2.30762 14.9987H4.61531V17.4987H2.30762V14.9987Z" fill="#663939"/>
<rect x="4.61536" y="2.49902" width="2.3077" height="2.49991" fill="#663939"/>
<path d="M6.923 0H9.2307V2.49991H6.923V0Z" fill="#663939"/>
<rect x="9.23077" width="2.3077" height="2.49991" fill="#663939"/>
<rect x="9.23077" y="20" width="2.3077" height="2.49991" fill="#663939"/>
<rect x="11.5385" y="20" width="2.3077" height="2.49991" fill="#663939"/>
<rect x="6.92297" y="20" width="2.3077" height="2.49991" fill="#663939"/>
<rect x="4.61536" y="17.499" width="2.3077" height="2.49991" fill="#663939"/>
<rect x="13.8463" y="20" width="2.3077" height="2.49991" fill="#663939"/>
<rect x="16.1538" width="2.3077" height="2.49991" fill="#663939"/>
<rect x="18.4615" width="2.3077" height="2.49991" fill="#663939"/>
<rect x="20.7693" width="2.3077" height="2.49991" fill="#663939"/>
<rect x="23.077" width="2.3077" height="2.49991" fill="#663939"/>
<rect x="25.3847" width="2.3077" height="2.49991" fill="#663939"/>
<rect x="27.6923" width="2.3077" height="2.49991" fill="#663939"/>
<rect x="30" width="2.3077" height="2.49991" fill="#663939"/>
<rect x="32.3077" width="2.3077" height="2.49991" fill="#663939"/>
<rect x="34.6154" width="2.3077" height="2.49991" fill="#663939"/>
<rect x="36.9232" width="2.3077" height="2.49991" fill="#663939"/>
<rect x="39.2309" width="2.3077" height="2.49991" fill="#663939"/>
<rect x="41.5385" width="2.3077" height="2.49991" fill="#663939"/>
<rect x="43.8461" width="2.3077" height="2.49991" fill="#663939"/>
<rect x="46.1539" width="2.3077" height="2.49991" fill="#663939"/>
<rect x="48.4615" width="2.3077" height="2.49991" fill="#663939"/>
<rect x="50.7693" width="2.3077" height="2.49991" fill="#663939"/>
<rect x="53.077" width="2.3077" height="2.49991" fill="#663939"/>
<rect x="13.8463" width="2.3077" height="2.49991" fill="#663939"/>
<rect x="11.5385" width="2.3077" height="2.49991" fill="#663939"/>
<rect x="11.5385" y="7.49902" width="2.3077" height="2.49991" fill="#3FDD62"/>
<rect x="13.8463" y="7.49902" width="2.3077" height="2.49991" fill="#3FDD62"/>
<rect x="13.8463" y="5" width="2.3077" height="2.49991" fill="#3FDD62"/>
<rect x="11.5385" y="5" width="2.3077" height="2.49991" fill="#3FDD62"/>
<rect x="30" y="7.49902" width="2.3077" height="2.49991" fill="#3FDD62"/>
<rect x="30" y="9.99902" width="2.3077" height="2.49991" fill="#3FDD62"/>
<rect x="30" y="14.999" width="2.3077" height="2.49991" fill="#3FDD62"/>
<rect x="6.92297" y="2.49902" width="2.3077" height="2.49991" fill="#3FDD62"/>
<rect x="6.92297" y="17.499" width="2.3077" height="2.49991" fill="#3FDD62"/>
<rect x="6.92297" y="14.999" width="2.3077" height="2.49991" fill="#3FDD62"/>
<rect x="6.92297" y="12.5" width="2.3077" height="2.49991" fill="#3FDD62"/>
<rect x="9.23077" y="12.5" width="2.3077" height="2.49991" fill="#3FDD62"/>
<rect x="6.92297" y="9.99902" width="2.3077" height="2.49991" fill="#3FDD62"/>
<rect x="6.92297" y="7.49902" width="2.3077" height="2.49991" fill="#3FDD62"/>
<rect x="6.92297" y="5" width="2.3077" height="2.49991" fill="#3FDD62"/>
<rect x="4.61536" y="14.999" width="2.3077" height="2.49991" fill="#3FDD62"/>
<rect x="4.61536" y="12.5" width="2.3077" height="2.49991" fill="#3FDD62"/>
<rect x="4.61536" y="9.99902" width="2.3077" height="2.49991" fill="#3FDD62"/>
<rect x="4.61536" y="7.49902" width="2.3077" height="2.49991" fill="#3FDD62"/>
<rect x="9.23077" y="5" width="2.3077" height="2.49991" fill="#3FDD62"/>
<rect x="9.23077" y="7.49902" width="2.3077" height="2.49991" fill="#3FDD62"/>
<rect x="9.23077" y="9.99902" width="2.3077" height="2.49991" fill="#3FDD62"/>
<rect x="11.5385" y="9.99902" width="2.3077" height="2.49991" fill="#3FDD62"/>
<rect x="13.8463" y="9.99902" width="2.3077" height="2.49991" fill="#3FDD62"/>
<rect x="13.8463" y="12.5" width="2.3077" height="2.49991" fill="#3FDD62"/>
<rect x="13.8463" y="14.999" width="2.3077" height="2.49991" fill="#3FDD62"/>
<rect x="11.5385" y="14.999" width="2.3077" height="2.49991" fill="#3FDD62"/>
<rect x="9.23077" y="14.999" width="2.3077" height="2.49991" fill="#3FDD62"/>
<rect x="4.61536" y="5" width="2.3077" height="2.49991" fill="#3FDD62"/>
<rect x="53.077" y="14.999" width="2.3077" height="2.49991" fill="#3FDD62"/>
<rect x="53.077" y="12.5" width="2.3077" height="2.49991" fill="#3FDD62"/>
<rect x="53.077" y="9.99902" width="2.3077" height="2.49991" fill="#3FDD62"/>
<rect x="53.077" y="7.49902" width="2.3077" height="2.49991" fill="#3FDD62"/>
<rect x="50.7693" y="14.999" width="2.3077" height="2.49991" fill="#3FDD62"/>
<rect x="50.7693" y="12.5" width="2.3077" height="2.49991" fill="#3FDD62"/>
<rect x="48.4615" y="9.99902" width="2.3077" height="2.49991" fill="#3FDD62"/>
<rect x="48.4615" y="12.5" width="2.3077" height="2.49991" fill="#3FDD62"/>
<rect x="50.7693" y="9.99902" width="2.3077" height="2.49991" fill="#3FDD62"/>
<rect x="50.7693" y="5" width="2.3077" height="2.49991" fill="#3FDD62"/>
<rect x="50.7693" y="7.49902" width="2.3077" height="2.49991" fill="#3FDD62"/>
<rect x="46.1539" y="14.999" width="2.3077" height="2.49991" fill="#3FDD62"/>
<rect x="46.1539" y="12.5" width="2.3077" height="2.49991" fill="#3FDD62"/>
<rect x="48.4615" y="14.999" width="2.3077" height="2.49991" fill="#3FDD62"/>
<rect x="46.1539" y="9.99902" width="2.3077" height="2.49991" fill="#3FDD62"/>
<rect x="46.1539" y="7.49902" width="2.3077" height="2.49991" fill="#3FDD62"/>
<rect x="48.4615" y="5" width="2.3077" height="2.49991" fill="#3FDD62"/>
<rect x="48.4615" y="7.49902" width="2.3077" height="2.49991" fill="#3FDD62"/>
<rect x="23.077" y="14.999" width="2.3077" height="2.49991" fill="#3FDD62"/>
<rect x="20.7692" y="14.999" width="2.3077" height="2.49991" fill="#3FDD62"/>
<rect x="23.077" y="12.5" width="2.3077" height="2.49991" fill="#3FDD62"/>
<rect x="20.7692" y="12.5" width="2.3077" height="2.49991" fill="#3FDD62"/>
<rect x="23.077" y="9.99902" width="2.3077" height="2.49991" fill="#3FDD62"/>
<rect x="20.7692" y="9.99902" width="2.3077" height="2.49991" fill="#3FDD62"/>
<rect x="23.077" y="7.49902" width="2.3077" height="2.49991" fill="#3FDD62"/>
<rect x="20.7692" y="7.49902" width="2.3077" height="2.49991" fill="#3FDD62"/>
<rect x="23.077" y="5" width="2.3077" height="2.49991" fill="#3FDD62"/>
<rect x="18.4615" y="14.999" width="2.3077" height="2.49991" fill="#3FDD62"/>
<rect x="18.4615" y="12.5" width="2.3077" height="2.49991" fill="#3FDD62"/>
<rect x="18.4615" y="9.99902" width="2.3077" height="2.49991" fill="#3FDD62"/>
<rect x="18.4615" y="7.49902" width="2.3077" height="2.49991" fill="#3FDD62"/>
<rect x="20.7692" y="5" width="2.3077" height="2.49991" fill="#3FDD62"/>
<rect x="18.4615" y="5" width="2.3077" height="2.49991" fill="#3FDD62"/>
<rect x="53.077" y="5" width="2.3077" height="2.49991" fill="#3FDD62"/>
<rect x="16.1537" y="14.999" width="2.3077" height="2.49991" fill="#3FDD62"/>
<rect x="16.1537" y="12.5" width="2.3077" height="2.49991" fill="#3FDD62"/>
<rect x="16.1537" y="9.99902" width="2.3077" height="2.49991" fill="#3FDD62"/>
<rect x="16.1537" y="7.49902" width="2.3077" height="2.49991" fill="#3FDD62"/>
<rect x="16.1537" y="5" width="2.3077" height="2.49991" fill="#3FDD62"/>
<rect x="25.3847" y="14.999" width="2.3077" height="2.49991" fill="#3FDD62"/>
<rect x="27.6923" y="14.999" width="2.3077" height="2.49991" fill="#3FDD62"/>
<rect x="25.3847" y="12.5" width="2.3077" height="2.49991" fill="#3FDD62"/>
<rect x="27.6923" y="12.5" width="2.3077" height="2.49991" fill="#3FDD62"/>
<rect x="25.3847" y="9.99902" width="2.3077" height="2.49991" fill="#3FDD62"/>
<rect x="27.6923" y="9.99902" width="2.3077" height="2.49991" fill="#3FDD62"/>
<rect x="25.3847" y="7.49902" width="2.3077" height="2.49991" fill="#3FDD62"/>
<rect x="27.6923" y="7.49902" width="2.3077" height="2.49991" fill="#3FDD62"/>
<rect x="25.3847" y="5" width="2.3077" height="2.49991" fill="#3FDD62"/>
<rect x="30" y="5" width="2.3077" height="2.49991" fill="#3FDD62"/>
<rect x="32.3077" y="5" width="2.3077" height="2.49991" fill="#3FDD62"/>
<rect x="32.3077" y="7.49902" width="2.3077" height="2.49991" fill="#3FDD62"/>
<rect x="32.3077" y="9.99902" width="2.3077" height="2.49991" fill="#3FDD62"/>
<rect x="32.3077" y="12.5" width="2.3077" height="2.49991" fill="#3FDD62"/>
<rect x="41.5385" y="14.999" width="2.3077" height="2.49991" fill="#3FDD62"/>
<rect x="32.3077" y="14.999" width="2.3077" height="2.49991" fill="#3FDD62"/>
<rect x="30" y="12.5" width="2.3077" height="2.49991" fill="#3FDD62"/>
<rect x="27.6923" y="5" width="2.3077" height="2.49991" fill="#3FDD62"/>
<rect x="34.6154" y="14.999" width="2.3077" height="2.49991" fill="#3FDD62"/>
<rect x="34.6154" y="12.5" width="2.3077" height="2.49991" fill="#3FDD62"/>
<rect x="34.6154" y="9.99902" width="2.3077" height="2.49991" fill="#3FDD62"/>
<rect x="34.6154" y="7.49902" width="2.3077" height="2.49991" fill="#3FDD62"/>
<rect x="36.9232" y="7.49902" width="2.3077" height="2.49991" fill="#3FDD62"/>
<rect x="36.9232" y="9.99902" width="2.3077" height="2.49991" fill="#3FDD62"/>
<rect x="36.9232" y="12.5" width="2.3077" height="2.49991" fill="#3FDD62"/>
<rect x="36.9232" y="14.999" width="2.3077" height="2.49991" fill="#3FDD62"/>
<rect x="36.9232" y="5" width="2.3077" height="2.49991" fill="#3FDD62"/>
<rect x="39.2308" y="5" width="2.3077" height="2.49991" fill="#3FDD62"/>
<rect x="41.5385" y="5" width="2.3077" height="2.49991" fill="#3FDD62"/>
<rect x="41.5385" y="7.49902" width="2.3077" height="2.49991" fill="#3FDD62"/>
<rect x="41.5385" y="12.5" width="2.3077" height="2.49991" fill="#3FDD62"/>
<rect x="46.1539" y="5" width="2.3077" height="2.49991" fill="#3FDD62"/>
<rect x="39.2308" y="9.99902" width="2.3077" height="2.49991" fill="#3FDD62"/>
<rect x="34.6154" y="5" width="2.3077" height="2.49991" fill="#3FDD62"/>
<rect x="39.2308" y="7.49902" width="2.3077" height="2.49991" fill="#3FDD62"/>
<rect x="39.2308" y="12.5" width="2.3077" height="2.49991" fill="#3FDD62"/>
<rect x="39.2308" y="14.999" width="2.3077" height="2.49991" fill="#3FDD62"/>
<rect x="43.8461" y="14.999" width="2.3077" height="2.49991" fill="#3FDD62"/>
<rect x="41.5385" y="9.99902" width="2.3077" height="2.49991" fill="#3FDD62"/>
<rect x="43.8461" y="9.99902" width="2.3077" height="2.49991" fill="#3FDD62"/>
<rect x="43.8461" y="12.5" width="2.3077" height="2.49991" fill="#3FDD62"/>
<rect x="43.8461" y="7.49902" width="2.3077" height="2.49991" fill="#3FDD62"/>
<rect x="43.8461" y="5" width="2.3077" height="2.49991" fill="#3FDD62"/>
<rect x="55.3846" y="14.999" width="2.3077" height="2.49991" fill="#3FDD62"/>
<rect x="55.3846" y="12.5" width="2.3077" height="2.49991" fill="#3FDD62"/>
<rect x="55.3846" y="9.99902" width="2.3077" height="2.49991" fill="#3FDD62"/>
<rect x="55.3846" y="7.49902" width="2.3077" height="2.49991" fill="#3FDD62"/>
<rect x="55.3846" y="5" width="2.3077" height="2.49991" fill="#3FDD62"/>
<rect x="11.5385" y="12.5" width="2.3077" height="2.49991" fill="#3FDD62"/>
<rect x="9.23077" y="2.49902" width="2.3077" height="2.49991" fill="#3FDD62"/>
<rect x="11.5385" y="2.49902" width="2.3077" height="2.49991" fill="#3FDD62"/>
<rect x="13.8463" y="2.49902" width="2.3077" height="2.49991" fill="#3FDD62"/>
<rect x="16.1537" y="2.49902" width="2.3077" height="2.49991" fill="#3FDD62"/>
<rect x="18.4615" y="2.49902" width="2.3077" height="2.49991" fill="#3FDD62"/>
<rect x="20.7692" y="2.49902" width="2.3077" height="2.49991" fill="#3FDD62"/>
<rect x="23.077" y="2.49902" width="2.3077" height="2.49991" fill="#3FDD62"/>
<rect x="25.3847" y="2.49902" width="2.3077" height="2.49991" fill="#3FDD62"/>
<rect x="27.6923" y="2.49902" width="2.3077" height="2.49991" fill="#3FDD62"/>
<rect x="30" y="2.49902" width="2.3077" height="2.49991" fill="#3FDD62"/>
<rect x="32.3077" y="2.49902" width="2.3077" height="2.49991" fill="#3FDD62"/>
<rect x="32.3077" y="2.49902" width="2.3077" height="2.49991" fill="#3FDD62"/>
<rect x="34.6154" y="2.49902" width="2.3077" height="2.49991" fill="#3FDD62"/>
<rect x="36.9232" y="2.49902" width="2.3077" height="2.49991" fill="#3FDD62"/>
<rect x="39.2308" y="2.49902" width="2.3077" height="2.49991" fill="#3FDD62"/>
<rect x="41.5385" y="2.49902" width="2.3077" height="2.49991" fill="#3FDD62"/>
<rect x="43.8461" y="2.49902" width="2.3077" height="2.49991" fill="#3FDD62"/>
<rect x="46.1539" y="2.49902" width="2.3077" height="2.49991" fill="#3FDD62"/>
<rect x="48.4615" y="2.49902" width="2.3077" height="2.49991" fill="#3FDD62"/>
<rect x="50.7693" y="2.49902" width="2.3077" height="2.49991" fill="#3FDD62"/>
<rect x="53.077" y="2.49902" width="2.3077" height="2.49991" fill="#3FDD62"/>
<rect x="9.23077" y="17.499" width="2.3077" height="2.49991" fill="#3FDD62"/>
<rect x="11.5385" y="17.499" width="2.3077" height="2.49991" fill="#3FDD62"/>
<rect x="13.8463" y="17.499" width="2.3077" height="2.49991" fill="#3FDD62"/>
<rect x="16.1537" y="17.499" width="2.3077" height="2.49991" fill="#3FDD62"/>
<rect x="18.4615" y="17.499" width="2.3077" height="2.49991" fill="#3FDD62"/>
<rect x="20.7692" y="17.499" width="2.3077" height="2.49991" fill="#3FDD62"/>
<rect x="23.077" y="17.499" width="2.3077" height="2.49991" fill="#3FDD62"/>
<rect x="25.3847" y="17.499" width="2.3077" height="2.49991" fill="#3FDD62"/>
<rect x="27.6923" y="17.499" width="2.3077" height="2.49991" fill="#3FDD62"/>
<rect x="30" y="17.499" width="2.3077" height="2.49991" fill="#3FDD62"/>
<rect x="32.3077" y="17.499" width="2.3077" height="2.49991" fill="#3FDD62"/>
<rect x="32.3077" y="17.499" width="2.3077" height="2.49991" fill="#3FDD62"/>
<rect x="34.6154" y="17.499" width="2.3077" height="2.49991" fill="#3FDD62"/>
<rect x="36.9232" y="17.499" width="2.3077" height="2.49991" fill="#3FDD62"/>
<rect x="39.2308" y="17.499" width="2.3077" height="2.49991" fill="#3FDD62"/>
<rect x="41.5385" y="17.499" width="2.3077" height="2.49991" fill="#3FDD62"/>
<rect x="43.8461" y="17.499" width="2.3077" height="2.49991" fill="#3FDD62"/>
<rect x="46.1539" y="17.499" width="2.3077" height="2.49991" fill="#3FDD62"/>
<rect x="48.4615" y="17.499" width="2.3077" height="2.49991" fill="#3FDD62"/>
<rect x="50.7693" y="17.499" width="2.3077" height="2.49991" fill="#3FDD62"/>
<rect x="53.077" y="17.499" width="2.3077" height="2.49991" fill="#3FDD62"/>
<rect x="2.30762" y="2.66602" width="2.3077" height="2.49991" fill="#18100D"/>
<rect y="5.16602" width="2.3077" height="2.49991" fill="#18100D"/>
<rect y="7.66699" width="2.3077" height="2.49991" fill="#18100D"/>
<rect y="10.166" width="2.3077" height="2.49991" fill="#18100D"/>
<rect y="12.666" width="2.3077" height="2.49991" fill="#18100D"/>
<rect y="14.999" width="2.3077" height="2.49991" fill="#18100D"/>
<rect x="2.30762" y="17.499" width="2.3077" height="2.49991" fill="#18100D"/>
<rect x="4.61536" y="20" width="2.3077" height="2.49991" fill="#18100D"/>
<rect x="6.92297" y="22.5" width="2.3077" height="2.49991" fill="#18100D"/>
<rect x="4.61536" y="22.5" width="2.3077" height="2.49991" fill="#18100D"/>
<rect x="2.30762" y="20" width="2.3077" height="2.49991" fill="#18100D"/>
<rect y="17.499" width="2.3077" height="2.49991" fill="#18100D"/>
<rect x="9.23077" y="22.5" width="2.3077" height="2.49991" fill="#18100D"/>
<rect x="11.5385" y="22.5" width="2.3077" height="2.49991" fill="#18100D"/>
<rect x="13.8463" y="22.5" width="2.3077" height="2.49991" fill="#18100D"/>
<rect x="16.1537" y="22.5" width="2.3077" height="2.49991" fill="#18100D"/>
<rect x="18.4615" y="22.5" width="2.3077" height="2.49991" fill="#18100D"/>
<rect x="20.7692" y="22.5" width="2.3077" height="2.49991" fill="#18100D"/>
<rect x="23.077" y="22.5" width="2.3077" height="2.49991" fill="#18100D"/>
<rect x="25.3847" y="22.5" width="2.3077" height="2.49991" fill="#18100D"/>
<rect x="27.6923" y="22.5" width="2.3077" height="2.49991" fill="#18100D"/>
<rect x="30" y="22.5" width="2.3077" height="2.49991" fill="#18100D"/>
<rect x="32.3077" y="22.5" width="2.3077" height="2.49991" fill="#18100D"/>
<rect x="34.6154" y="22.5" width="2.3077" height="2.49991" fill="#18100D"/>
<rect x="36.9232" y="22.5" width="2.3077" height="2.49991" fill="#18100D"/>
<rect x="39.2308" y="22.5" width="2.3077" height="2.49991" fill="#18100D"/>
<rect x="41.5385" y="22.5" width="2.3077" height="2.49991" fill="#18100D"/>
<rect x="43.8461" y="22.5" width="2.3077" height="2.49991" fill="#18100D"/>
<rect x="46.1539" y="22.5" width="2.3077" height="2.49991" fill="#18100D"/>
<rect x="48.4615" y="22.5" width="2.3077" height="2.49991" fill="#18100D"/>
<rect x="50.7693" y="22.5" width="2.3077" height="2.49991" fill="#18100D"/>
<rect x="53.077" y="22.5" width="2.3077" height="2.49991" fill="#18100D"/>
<rect x="55.3846" y="20" width="2.3077" height="2.49991" fill="#18100D"/>
<rect x="57.6923" y="17.499" width="2.3077" height="2.49991" fill="#18100D"/>
<rect x="4.61536" y="0.166992" width="2.3077" height="2.49991" fill="#18100D"/>
<mask id="path-248-outside-1_926_2280" maskUnits="userSpaceOnUse" x="18.2889" y="4.11133" width="25" height="13" fill="black">
<rect fill="white" x="18.2889" y="4.11133" width="25" height="13"/>
<path d="M21.5779 10.3613V9.61133H20.8279V8.86133H19.3279V6.61133H20.8279V5.86133H23.8279V6.61133H25.3279V8.86133H23.8279V9.61133H23.0779V10.3613H26.8279V5.86133H28.3279V8.11133H30.5779V8.86133H28.3279V11.8613H26.8279V11.1113H19.3279V10.3613H21.5779ZM21.5779 6.61133V7.36133H20.8279V8.11133H21.5779V8.86133H23.0779V8.11133H23.8279V7.36133H23.0779V6.61133H21.5779ZM21.5779 14.8613H28.3279V15.6113H20.8279V14.8613H20.0779V11.8613H21.5779V14.8613ZM32.0779 11.1113V8.86133H39.5779V7.36133H32.0779V6.61133H41.0779V9.61133H33.5779V11.1113H41.0779V11.8613H39.5779V14.1113H41.8279V14.8613H31.3279V14.1113H33.5779V11.8613H32.8279V11.1113H32.0779ZM38.0779 11.8613H35.0779V14.1113H38.0779V11.8613Z"/>
</mask>
<path d="M21.5779 10.3613V9.61133H20.8279V8.86133H19.3279V6.61133H20.8279V5.86133H23.8279V6.61133H25.3279V8.86133H23.8279V9.61133H23.0779V10.3613H26.8279V5.86133H28.3279V8.11133H30.5779V8.86133H28.3279V11.8613H26.8279V11.1113H19.3279V10.3613H21.5779ZM21.5779 6.61133V7.36133H20.8279V8.11133H21.5779V8.86133H23.0779V8.11133H23.8279V7.36133H23.0779V6.61133H21.5779ZM21.5779 14.8613H28.3279V15.6113H20.8279V14.8613H20.0779V11.8613H21.5779V14.8613ZM32.0779 11.1113V8.86133H39.5779V7.36133H32.0779V6.61133H41.0779V9.61133H33.5779V11.1113H41.0779V11.8613H39.5779V14.1113H41.8279V14.8613H31.3279V14.1113H33.5779V11.8613H32.8279V11.1113H32.0779ZM38.0779 11.8613H35.0779V14.1113H38.0779V11.8613Z" fill="black"/>
<path d="M21.5779 10.3613V11.3613H22.5779V10.3613H21.5779ZM21.5779 9.61133H22.5779V8.61133H21.5779V9.61133ZM20.8279 9.61133H19.8279V10.6113H20.8279V9.61133ZM20.8279 8.86133H21.8279V7.86133H20.8279V8.86133ZM19.3279 8.86133H18.3279V9.86133H19.3279V8.86133ZM19.3279 6.61133V5.61133H18.3279V6.61133H19.3279ZM20.8279 6.61133V7.61133H21.8279V6.61133H20.8279ZM20.8279 5.86133V4.86133H19.8279V5.86133H20.8279ZM23.8279 5.86133H24.8279V4.86133H23.8279V5.86133ZM23.8279 6.61133H22.8279V7.61133H23.8279V6.61133ZM25.3279 6.61133H26.3279V5.61133H25.3279V6.61133ZM25.3279 8.86133V9.86133H26.3279V8.86133H25.3279ZM23.8279 8.86133V7.86133H22.8279V8.86133H23.8279ZM23.8279 9.61133V10.6113H24.8279V9.61133H23.8279ZM23.0779 9.61133V8.61133H22.0779V9.61133H23.0779ZM23.0779 10.3613H22.0779V11.3613H23.0779V10.3613ZM26.8279 10.3613V11.3613H27.8279V10.3613H26.8279ZM26.8279 5.86133V4.86133H25.8279V5.86133H26.8279ZM28.3279 5.86133H29.3279V4.86133H28.3279V5.86133ZM28.3279 8.11133H27.3279V9.11133H28.3279V8.11133ZM30.5779 8.11133H31.5779V7.11133H30.5779V8.11133ZM30.5779 8.86133V9.86133H31.5779V8.86133H30.5779ZM28.3279 8.86133V7.86133H27.3279V8.86133H28.3279ZM28.3279 11.8613V12.8613H29.3279V11.8613H28.3279ZM26.8279 11.8613H25.8279V12.8613H26.8279V11.8613ZM26.8279 11.1113H27.8279V10.1113H26.8279V11.1113ZM19.3279 11.1113H18.3279V12.1113H19.3279V11.1113ZM19.3279 10.3613V9.36133H18.3279V10.3613H19.3279ZM21.5779 6.61133V5.61133H20.5779V6.61133H21.5779ZM21.5779 7.36133V8.36133H22.5779V7.36133H21.5779ZM20.8279 7.36133V6.36133H19.8279V7.36133H20.8279ZM20.8279 8.11133H19.8279V9.11133H20.8279V8.11133ZM21.5779 8.11133H22.5779V7.11133H21.5779V8.11133ZM21.5779 8.86133H20.5779V9.86133H21.5779V8.86133ZM23.0779 8.86133V9.86133H24.0779V8.86133H23.0779ZM23.0779 8.11133V7.11133H22.0779V8.11133H23.0779ZM23.8279 8.11133V9.11133H24.8279V8.11133H23.8279ZM23.8279 7.36133H24.8279V6.36133H23.8279V7.36133ZM23.0779 7.36133H22.0779V8.36133H23.0779V7.36133ZM23.0779 6.61133H24.0779V5.61133H23.0779V6.61133ZM21.5779 14.8613H20.5779V15.8613H21.5779V14.8613ZM28.3279 14.8613H29.3279V13.8613H28.3279V14.8613ZM28.3279 15.6113V16.6113H29.3279V15.6113H28.3279ZM20.8279 15.6113H19.8279V16.6113H20.8279V15.6113ZM20.8279 14.8613H21.8279V13.8613H20.8279V14.8613ZM20.0779 14.8613H19.0779V15.8613H20.0779V14.8613ZM20.0779 11.8613V10.8613H19.0779V11.8613H20.0779ZM21.5779 11.8613H22.5779V10.8613H21.5779V11.8613ZM22.5779 10.3613V9.61133H20.5779V10.3613H22.5779ZM21.5779 8.61133H20.8279V10.6113H21.5779V8.61133ZM21.8279 9.61133V8.86133H19.8279V9.61133H21.8279ZM20.8279 7.86133H19.3279V9.86133H20.8279V7.86133ZM20.3279 8.86133V6.61133H18.3279V8.86133H20.3279ZM19.3279 7.61133H20.8279V5.61133H19.3279V7.61133ZM21.8279 6.61133V5.86133H19.8279V6.61133H21.8279ZM20.8279 6.86133H23.8279V4.86133H20.8279V6.86133ZM22.8279 5.86133V6.61133H24.8279V5.86133H22.8279ZM23.8279 7.61133H25.3279V5.61133H23.8279V7.61133ZM24.3279 6.61133V8.86133H26.3279V6.61133H24.3279ZM25.3279 7.86133H23.8279V9.86133H25.3279V7.86133ZM22.8279 8.86133V9.61133H24.8279V8.86133H22.8279ZM23.8279 8.61133H23.0779V10.6113H23.8279V8.61133ZM22.0779 9.61133V10.3613H24.0779V9.61133H22.0779ZM23.0779 11.3613H26.8279V9.36133H23.0779V11.3613ZM27.8279 10.3613V5.86133H25.8279V10.3613H27.8279ZM26.8279 6.86133H28.3279V4.86133H26.8279V6.86133ZM27.3279 5.86133V8.11133H29.3279V5.86133H27.3279ZM28.3279 9.11133H30.5779V7.11133H28.3279V9.11133ZM29.5779 8.11133V8.86133H31.5779V8.11133H29.5779ZM30.5779 7.86133H28.3279V9.86133H30.5779V7.86133ZM27.3279 8.86133V11.8613H29.3279V8.86133H27.3279ZM28.3279 10.8613H26.8279V12.8613H28.3279V10.8613ZM27.8279 11.8613V11.1113H25.8279V11.8613H27.8279ZM26.8279 10.1113H19.3279V12.1113H26.8279V10.1113ZM20.3279 11.1113V10.3613H18.3279V11.1113H20.3279ZM19.3279 11.3613H21.5779V9.36133H19.3279V11.3613ZM20.5779 6.61133V7.36133H22.5779V6.61133H20.5779ZM21.5779 6.36133H20.8279V8.36133H21.5779V6.36133ZM19.8279 7.36133V8.11133H21.8279V7.36133H19.8279ZM20.8279 9.11133H21.5779V7.11133H20.8279V9.11133ZM20.5779 8.11133V8.86133H22.5779V8.11133H20.5779ZM21.5779 9.86133H23.0779V7.86133H21.5779V9.86133ZM24.0779 8.86133V8.11133H22.0779V8.86133H24.0779ZM23.0779 9.11133H23.8279V7.11133H23.0779V9.11133ZM24.8279 8.11133V7.36133H22.8279V8.11133H24.8279ZM23.8279 6.36133H23.0779V8.36133H23.8279V6.36133ZM24.0779 7.36133V6.61133H22.0779V7.36133H24.0779ZM23.0779 5.61133H21.5779V7.61133H23.0779V5.61133ZM21.5779 15.8613H28.3279V13.8613H21.5779V15.8613ZM27.3279 14.8613V15.6113H29.3279V14.8613H27.3279ZM28.3279 14.6113H20.8279V16.6113H28.3279V14.6113ZM21.8279 15.6113V14.8613H19.8279V15.6113H21.8279ZM20.8279 13.8613H20.0779V15.8613H20.8279V13.8613ZM21.0779 14.8613V11.8613H19.0779V14.8613H21.0779ZM20.0779 12.8613H21.5779V10.8613H20.0779V12.8613ZM20.5779 11.8613V14.8613H22.5779V11.8613H20.5779ZM32.0779 11.1113H31.0779V12.1113H32.0779V11.1113ZM32.0779 8.86133V7.86133H31.0779V8.86133H32.0779ZM39.5779 8.86133V9.86133H40.5779V8.86133H39.5779ZM39.5779 7.36133H40.5779V6.36133H39.5779V7.36133ZM32.0779 7.36133H31.0779V8.36133H32.0779V7.36133ZM32.0779 6.61133V5.61133H31.0779V6.61133H32.0779ZM41.0779 6.61133H42.0779V5.61133H41.0779V6.61133ZM41.0779 9.61133V10.6113H42.0779V9.61133H41.0779ZM33.5779 9.61133V8.61133H32.5779V9.61133H33.5779ZM33.5779 11.1113H32.5779V12.1113H33.5779V11.1113ZM41.0779 11.1113H42.0779V10.1113H41.0779V11.1113ZM41.0779 11.8613V12.8613H42.0779V11.8613H41.0779ZM39.5779 11.8613V10.8613H38.5779V11.8613H39.5779ZM39.5779 14.1113H38.5779V15.1113H39.5779V14.1113ZM41.8279 14.1113H42.8279V13.1113H41.8279V14.1113ZM41.8279 14.8613V15.8613H42.8279V14.8613H41.8279ZM31.3279 14.8613H30.3279V15.8613H31.3279V14.8613ZM31.3279 14.1113V13.1113H30.3279V14.1113H31.3279ZM33.5779 14.1113V15.1113H34.5779V14.1113H33.5779ZM33.5779 11.8613H34.5779V10.8613H33.5779V11.8613ZM32.8279 11.8613H31.8279V12.8613H32.8279V11.8613ZM32.8279 11.1113H33.8279V10.1113H32.8279V11.1113ZM38.0779 11.8613H39.0779V10.8613H38.0779V11.8613ZM35.0779 11.8613V10.8613H34.0779V11.8613H35.0779ZM35.0779 14.1113H34.0779V15.1113H35.0779V14.1113ZM38.0779 14.1113V15.1113H39.0779V14.1113H38.0779ZM33.0779 11.1113V8.86133H31.0779V11.1113H33.0779ZM32.0779 9.86133H39.5779V7.86133H32.0779V9.86133ZM40.5779 8.86133V7.36133H38.5779V8.86133H40.5779ZM39.5779 6.36133H32.0779V8.36133H39.5779V6.36133ZM33.0779 7.36133V6.61133H31.0779V7.36133H33.0779ZM32.0779 7.61133H41.0779V5.61133H32.0779V7.61133ZM40.0779 6.61133V9.61133H42.0779V6.61133H40.0779ZM41.0779 8.61133H33.5779V10.6113H41.0779V8.61133ZM32.5779 9.61133V11.1113H34.5779V9.61133H32.5779ZM33.5779 12.1113H41.0779V10.1113H33.5779V12.1113ZM40.0779 11.1113V11.8613H42.0779V11.1113H40.0779ZM41.0779 10.8613H39.5779V12.8613H41.0779V10.8613ZM38.5779 11.8613V14.1113H40.5779V11.8613H38.5779ZM39.5779 15.1113H41.8279V13.1113H39.5779V15.1113ZM40.8279 14.1113V14.8613H42.8279V14.1113H40.8279ZM41.8279 13.8613H31.3279V15.8613H41.8279V13.8613ZM32.3279 14.8613V14.1113H30.3279V14.8613H32.3279ZM31.3279 15.1113H33.5779V13.1113H31.3279V15.1113ZM34.5779 14.1113V11.8613H32.5779V14.1113H34.5779ZM33.5779 10.8613H32.8279V12.8613H33.5779V10.8613ZM33.8279 11.8613V11.1113H31.8279V11.8613H33.8279ZM32.8279 10.1113H32.0779V12.1113H32.8279V10.1113ZM38.0779 10.8613H35.0779V12.8613H38.0779V10.8613ZM34.0779 11.8613V14.1113H36.0779V11.8613H34.0779ZM35.0779 15.1113H38.0779V13.1113H35.0779V15.1113ZM39.0779 14.1113V11.8613H37.0779V14.1113H39.0779Z" fill="white" mask="url(#path-248-outside-1_926_2280)"/>
</svg>
