<svg width="60" height="25" viewBox="0 0 60 25" fill="none" xmlns="http://www.w3.org/2000/svg">
<rect x="16.1537" y="20" width="2.3077" height="2.49991" fill="#663939"/>
<rect x="18.4615" y="20" width="2.3077" height="2.49991" fill="#663939"/>
<rect x="20.7692" y="20" width="2.3077" height="2.49991" fill="#663939"/>
<rect x="23.077" y="20" width="2.3077" height="2.49991" fill="#663939"/>
<rect x="25.3847" y="20" width="2.3077" height="2.49991" fill="#663939"/>
<rect x="27.6923" y="20" width="2.3077" height="2.49991" fill="#663939"/>
<rect x="30" y="20" width="2.3077" height="2.49991" fill="#663939"/>
<rect x="32.3077" y="20" width="2.3077" height="2.49991" fill="#663939"/>
<rect x="34.6154" y="20" width="2.3077" height="2.49991" fill="#663939"/>
<rect x="36.9232" y="20" width="2.3077" height="2.49991" fill="#663939"/>
<rect x="39.2308" y="20" width="2.3077" height="2.49991" fill="#663939"/>
<rect x="41.5385" y="20" width="2.3077" height="2.49991" fill="#663939"/>
<rect x="43.8461" y="20" width="2.3077" height="2.49991" fill="#663939"/>
<rect x="46.1539" y="20" width="2.3077" height="2.49991" fill="#663939"/>
<rect x="48.4615" y="20" width="2.3077" height="2.49991" fill="#663939"/>
<rect x="50.7693" y="20" width="2.3077" height="2.49991" fill="#663939"/>
<rect x="53.077" y="20" width="2.3077" height="2.49991" fill="#663939"/>
<rect x="55.3846" y="17.499" width="2.3077" height="2.49991" fill="#663939"/>
<rect x="57.6923" y="14.999" width="2.3077" height="2.49991" fill="#663939"/>
<rect x="57.6923" y="12.5" width="2.3077" height="2.49991" fill="#663939"/>
<rect x="57.6923" y="9.99902" width="2.3077" height="2.49991" fill="#663939"/>
<rect x="57.6923" y="7.49902" width="2.3077" height="2.49991" fill="#663939"/>
<rect x="57.6923" y="5" width="2.3077" height="2.49991" fill="#663939"/>
<rect x="55.3846" y="2.49902" width="2.3077" height="2.49991" fill="#663939"/>
<rect x="2.30762" y="5" width="2.3077" height="2.49991" fill="#663939"/>
<path d="M2.30762 7.49902H4.61531V9.99893H2.30762V7.49902Z" fill="#663939"/>
<path d="M2.30762 9.99893H4.61531V12.4988H2.30762V9.99893Z" fill="#663939"/>
<path d="M2.30762 12.4988H4.61531V14.9987H2.30762V12.4988Z" fill="#663939"/>
<path d="M2.30762 14.9987H4.61531V17.4987H2.30762V14.9987Z" fill="#663939"/>
<rect x="4.61536" y="2.49902" width="2.3077" height="2.49991" fill="#663939"/>
<path d="M6.92297 0H9.23067V2.49991H6.92297V0Z" fill="#663939"/>
<rect x="9.23077" width="2.3077" height="2.49991" fill="#663939"/>
<rect x="9.23077" y="20" width="2.3077" height="2.49991" fill="#663939"/>
<rect x="11.5385" y="20" width="2.3077" height="2.49991" fill="#663939"/>
<rect x="6.92297" y="20" width="2.3077" height="2.49991" fill="#663939"/>
<rect x="4.61536" y="17.499" width="2.3077" height="2.49991" fill="#663939"/>
<rect x="13.8463" y="20" width="2.3077" height="2.49991" fill="#663939"/>
<rect x="16.1538" width="2.3077" height="2.49991" fill="#663939"/>
<rect x="18.4615" width="2.3077" height="2.49991" fill="#663939"/>
<rect x="20.7692" width="2.3077" height="2.49991" fill="#663939"/>
<rect x="23.077" width="2.3077" height="2.49991" fill="#663939"/>
<rect x="25.3847" width="2.3077" height="2.49991" fill="#663939"/>
<rect x="27.6923" width="2.3077" height="2.49991" fill="#663939"/>
<rect x="30" width="2.3077" height="2.49991" fill="#663939"/>
<rect x="32.3077" width="2.3077" height="2.49991" fill="#663939"/>
<rect x="34.6154" width="2.3077" height="2.49991" fill="#663939"/>
<rect x="36.9232" width="2.3077" height="2.49991" fill="#663939"/>
<rect x="39.2308" width="2.3077" height="2.49991" fill="#663939"/>
<rect x="41.5385" width="2.3077" height="2.49991" fill="#663939"/>
<rect x="43.8461" width="2.3077" height="2.49991" fill="#663939"/>
<rect x="46.1539" width="2.3077" height="2.49991" fill="#663939"/>
<rect x="48.4615" width="2.3077" height="2.49991" fill="#663939"/>
<rect x="50.7693" width="2.3077" height="2.49991" fill="#663939"/>
<rect x="53.077" width="2.3077" height="2.49991" fill="#663939"/>
<rect x="13.8463" width="2.3077" height="2.49991" fill="#663939"/>
<rect x="11.5385" width="2.3077" height="2.49991" fill="#663939"/>
<rect x="11.5385" y="7.49902" width="2.3077" height="2.49991" fill="#B79777"/>
<rect x="13.8463" y="7.49902" width="2.3077" height="2.49991" fill="#B79777"/>
<rect x="13.8463" y="5" width="2.3077" height="2.49991" fill="#B79777"/>
<rect x="11.5385" y="5" width="2.3077" height="2.49991" fill="#B79777"/>
<rect x="30" y="7.49902" width="2.3077" height="2.49991" fill="#B79777"/>
<rect x="30" y="9.99902" width="2.3077" height="2.49991" fill="#B79777"/>
<rect x="30" y="14.999" width="2.3077" height="2.49991" fill="#B79777"/>
<rect x="6.92297" y="2.49902" width="2.3077" height="2.49991" fill="#B79777"/>
<rect x="6.92297" y="17.499" width="2.3077" height="2.49991" fill="#B79777"/>
<rect x="6.92297" y="14.999" width="2.3077" height="2.49991" fill="#B79777"/>
<rect x="6.92297" y="12.5" width="2.3077" height="2.49991" fill="#B79777"/>
<rect x="9.23077" y="12.5" width="2.3077" height="2.49991" fill="#B79777"/>
<rect x="6.92297" y="9.99902" width="2.3077" height="2.49991" fill="#B79777"/>
<rect x="6.92297" y="7.49902" width="2.3077" height="2.49991" fill="#B79777"/>
<rect x="6.92297" y="5" width="2.3077" height="2.49991" fill="#B79777"/>
<rect x="4.61536" y="14.999" width="2.3077" height="2.49991" fill="#B79777"/>
<rect x="4.61536" y="12.5" width="2.3077" height="2.49991" fill="#B79777"/>
<rect x="4.61536" y="9.99902" width="2.3077" height="2.49991" fill="#B79777"/>
<rect x="4.61536" y="7.49902" width="2.3077" height="2.49991" fill="#B79777"/>
<rect x="9.23077" y="5" width="2.3077" height="2.49991" fill="#B79777"/>
<rect x="9.23077" y="7.49902" width="2.3077" height="2.49991" fill="#B79777"/>
<rect x="9.23077" y="9.99902" width="2.3077" height="2.49991" fill="#B79777"/>
<rect x="11.5385" y="9.99902" width="2.3077" height="2.49991" fill="#B79777"/>
<rect x="13.8463" y="9.99902" width="2.3077" height="2.49991" fill="#B79777"/>
<rect x="13.8463" y="12.5" width="2.3077" height="2.49991" fill="#B79777"/>
<rect x="13.8463" y="14.999" width="2.3077" height="2.49991" fill="#B79777"/>
<rect x="11.5385" y="14.999" width="2.3077" height="2.49991" fill="#B79777"/>
<rect x="9.23077" y="14.999" width="2.3077" height="2.49991" fill="#B79777"/>
<rect x="4.61536" y="5" width="2.3077" height="2.49991" fill="#B79777"/>
<rect x="53.077" y="14.999" width="2.3077" height="2.49991" fill="#B79777"/>
<rect x="53.077" y="12.5" width="2.3077" height="2.49991" fill="#B79777"/>
<rect x="53.077" y="9.99902" width="2.3077" height="2.49991" fill="#B79777"/>
<rect x="53.077" y="7.49902" width="2.3077" height="2.49991" fill="#B79777"/>
<rect x="50.7693" y="14.999" width="2.3077" height="2.49991" fill="#B79777"/>
<rect x="50.7693" y="12.5" width="2.3077" height="2.49991" fill="#B79777"/>
<rect x="48.4615" y="9.99902" width="2.3077" height="2.49991" fill="#B79777"/>
<rect x="48.4615" y="12.5" width="2.3077" height="2.49991" fill="#B79777"/>
<rect x="50.7693" y="9.99902" width="2.3077" height="2.49991" fill="#B79777"/>
<rect x="50.7693" y="5" width="2.3077" height="2.49991" fill="#B79777"/>
<rect x="50.7693" y="7.49902" width="2.3077" height="2.49991" fill="#B79777"/>
<rect x="46.1539" y="14.999" width="2.3077" height="2.49991" fill="#B79777"/>
<rect x="46.1539" y="12.5" width="2.3077" height="2.49991" fill="#B79777"/>
<rect x="48.4615" y="14.999" width="2.3077" height="2.49991" fill="#B79777"/>
<rect x="46.1539" y="9.99902" width="2.3077" height="2.49991" fill="#B79777"/>
<rect x="46.1539" y="7.49902" width="2.3077" height="2.49991" fill="#B79777"/>
<rect x="48.4615" y="5" width="2.3077" height="2.49991" fill="#B79777"/>
<rect x="48.4615" y="7.49902" width="2.3077" height="2.49991" fill="#B79777"/>
<rect x="23.077" y="14.999" width="2.3077" height="2.49991" fill="#B79777"/>
<rect x="20.7692" y="14.999" width="2.3077" height="2.49991" fill="#B79777"/>
<rect x="23.077" y="12.5" width="2.3077" height="2.49991" fill="#B79777"/>
<rect x="20.7692" y="12.5" width="2.3077" height="2.49991" fill="#B79777"/>
<rect x="23.077" y="9.99902" width="2.3077" height="2.49991" fill="#B79777"/>
<rect x="20.7692" y="9.99902" width="2.3077" height="2.49991" fill="#B79777"/>
<rect x="23.077" y="7.49902" width="2.3077" height="2.49991" fill="#B79777"/>
<rect x="20.7692" y="7.49902" width="2.3077" height="2.49991" fill="#B79777"/>
<rect x="23.077" y="5" width="2.3077" height="2.49991" fill="#B79777"/>
<rect x="18.4615" y="14.999" width="2.3077" height="2.49991" fill="#B79777"/>
<rect x="18.4615" y="12.5" width="2.3077" height="2.49991" fill="#B79777"/>
<rect x="18.4615" y="9.99902" width="2.3077" height="2.49991" fill="#B79777"/>
<rect x="18.4615" y="7.49902" width="2.3077" height="2.49991" fill="#B79777"/>
<rect x="20.7692" y="5" width="2.3077" height="2.49991" fill="#B79777"/>
<rect x="18.4615" y="5" width="2.3077" height="2.49991" fill="#B79777"/>
<rect x="53.077" y="5" width="2.3077" height="2.49991" fill="#B79777"/>
<rect x="16.1537" y="14.999" width="2.3077" height="2.49991" fill="#B79777"/>
<rect x="16.1537" y="12.5" width="2.3077" height="2.49991" fill="#B79777"/>
<rect x="16.1537" y="9.99902" width="2.3077" height="2.49991" fill="#B79777"/>
<rect x="16.1537" y="7.49902" width="2.3077" height="2.49991" fill="#B79777"/>
<rect x="16.1537" y="5" width="2.3077" height="2.49991" fill="#B79777"/>
<rect x="25.3847" y="14.999" width="2.3077" height="2.49991" fill="#B79777"/>
<rect x="27.6923" y="14.999" width="2.3077" height="2.49991" fill="#B79777"/>
<rect x="25.3847" y="12.5" width="2.3077" height="2.49991" fill="#B79777"/>
<rect x="27.6923" y="12.5" width="2.3077" height="2.49991" fill="#B79777"/>
<rect x="25.3847" y="9.99902" width="2.3077" height="2.49991" fill="#B79777"/>
<rect x="27.6923" y="9.99902" width="2.3077" height="2.49991" fill="#B79777"/>
<rect x="25.3847" y="7.49902" width="2.3077" height="2.49991" fill="#B79777"/>
<rect x="27.6923" y="7.49902" width="2.3077" height="2.49991" fill="#B79777"/>
<rect x="25.3847" y="5" width="2.3077" height="2.49991" fill="#B79777"/>
<rect x="30" y="5" width="2.3077" height="2.49991" fill="#B79777"/>
<rect x="32.3077" y="5" width="2.3077" height="2.49991" fill="#B79777"/>
<rect x="32.3077" y="7.49902" width="2.3077" height="2.49991" fill="#B79777"/>
<rect x="32.3077" y="9.99902" width="2.3077" height="2.49991" fill="#B79777"/>
<rect x="32.3077" y="12.5" width="2.3077" height="2.49991" fill="#B79777"/>
<rect x="41.5385" y="14.999" width="2.3077" height="2.49991" fill="#B79777"/>
<rect x="32.3077" y="14.999" width="2.3077" height="2.49991" fill="#B79777"/>
<rect x="30" y="12.5" width="2.3077" height="2.49991" fill="#B79777"/>
<rect x="27.6923" y="5" width="2.3077" height="2.49991" fill="#B79777"/>
<rect x="34.6154" y="14.999" width="2.3077" height="2.49991" fill="#B79777"/>
<rect x="34.6154" y="12.5" width="2.3077" height="2.49991" fill="#B79777"/>
<rect x="34.6154" y="9.99902" width="2.3077" height="2.49991" fill="#B79777"/>
<rect x="34.6154" y="7.49902" width="2.3077" height="2.49991" fill="#B79777"/>
<rect x="36.9232" y="7.49902" width="2.3077" height="2.49991" fill="#B79777"/>
<rect x="36.9232" y="9.99902" width="2.3077" height="2.49991" fill="#B79777"/>
<rect x="36.9232" y="12.5" width="2.3077" height="2.49991" fill="#B79777"/>
<rect x="36.9232" y="14.999" width="2.3077" height="2.49991" fill="#B79777"/>
<rect x="36.9232" y="5" width="2.3077" height="2.49991" fill="#B79777"/>
<rect x="39.2308" y="5" width="2.3077" height="2.49991" fill="#B79777"/>
<rect x="41.5385" y="5" width="2.3077" height="2.49991" fill="#B79777"/>
<rect x="41.5385" y="7.49902" width="2.3077" height="2.49991" fill="#B79777"/>
<rect x="41.5385" y="12.5" width="2.3077" height="2.49991" fill="#B79777"/>
<rect x="46.1539" y="5" width="2.3077" height="2.49991" fill="#B79777"/>
<rect x="39.2308" y="9.99902" width="2.3077" height="2.49991" fill="#B79777"/>
<rect x="34.6154" y="5" width="2.3077" height="2.49991" fill="#B79777"/>
<rect x="39.2308" y="7.49902" width="2.3077" height="2.49991" fill="#B79777"/>
<rect x="39.2308" y="12.5" width="2.3077" height="2.49991" fill="#B79777"/>
<rect x="39.2308" y="14.999" width="2.3077" height="2.49991" fill="#B79777"/>
<rect x="43.8461" y="14.999" width="2.3077" height="2.49991" fill="#B79777"/>
<rect x="41.5385" y="9.99902" width="2.3077" height="2.49991" fill="#B79777"/>
<rect x="43.8461" y="9.99902" width="2.3077" height="2.49991" fill="#B79777"/>
<rect x="43.8461" y="12.5" width="2.3077" height="2.49991" fill="#B79777"/>
<rect x="43.8461" y="7.49902" width="2.3077" height="2.49991" fill="#B79777"/>
<rect x="43.8461" y="5" width="2.3077" height="2.49991" fill="#B79777"/>
<rect x="55.3846" y="14.999" width="2.3077" height="2.49991" fill="#B79777"/>
<rect x="55.3846" y="12.5" width="2.3077" height="2.49991" fill="#B79777"/>
<rect x="55.3846" y="9.99902" width="2.3077" height="2.49991" fill="#B79777"/>
<rect x="55.3846" y="7.49902" width="2.3077" height="2.49991" fill="#B79777"/>
<rect x="55.3846" y="5" width="2.3077" height="2.49991" fill="#B79777"/>
<rect x="11.5385" y="12.5" width="2.3077" height="2.49991" fill="#B79777"/>
<rect x="9.23077" y="2.49902" width="2.3077" height="2.49991" fill="#B79777"/>
<rect x="11.5385" y="2.49902" width="2.3077" height="2.49991" fill="#B79777"/>
<rect x="13.8463" y="2.49902" width="2.3077" height="2.49991" fill="#B79777"/>
<rect x="16.1537" y="2.49902" width="2.3077" height="2.49991" fill="#B79777"/>
<rect x="18.4615" y="2.49902" width="2.3077" height="2.49991" fill="#B79777"/>
<rect x="20.7692" y="2.49902" width="2.3077" height="2.49991" fill="#B79777"/>
<rect x="23.077" y="2.49902" width="2.3077" height="2.49991" fill="#B79777"/>
<rect x="25.3847" y="2.49902" width="2.3077" height="2.49991" fill="#B79777"/>
<rect x="27.6923" y="2.49902" width="2.3077" height="2.49991" fill="#B79777"/>
<rect x="30" y="2.49902" width="2.3077" height="2.49991" fill="#B79777"/>
<rect x="32.3077" y="2.49902" width="2.3077" height="2.49991" fill="#B79777"/>
<rect x="32.3077" y="2.49902" width="2.3077" height="2.49991" fill="#B79777"/>
<rect x="34.6154" y="2.49902" width="2.3077" height="2.49991" fill="#B79777"/>
<rect x="36.9232" y="2.49902" width="2.3077" height="2.49991" fill="#B79777"/>
<rect x="39.2308" y="2.49902" width="2.3077" height="2.49991" fill="#B79777"/>
<rect x="41.5385" y="2.49902" width="2.3077" height="2.49991" fill="#B79777"/>
<rect x="43.8461" y="2.49902" width="2.3077" height="2.49991" fill="#B79777"/>
<rect x="46.1539" y="2.49902" width="2.3077" height="2.49991" fill="#B79777"/>
<rect x="48.4615" y="2.49902" width="2.3077" height="2.49991" fill="#B79777"/>
<rect x="50.7693" y="2.49902" width="2.3077" height="2.49991" fill="#B79777"/>
<rect x="53.077" y="2.49902" width="2.3077" height="2.49991" fill="#B79777"/>
<rect x="9.23077" y="17.499" width="2.3077" height="2.49991" fill="#B79777"/>
<rect x="11.5385" y="17.499" width="2.3077" height="2.49991" fill="#B79777"/>
<rect x="13.8463" y="17.499" width="2.3077" height="2.49991" fill="#B79777"/>
<rect x="16.1537" y="17.499" width="2.3077" height="2.49991" fill="#B79777"/>
<rect x="18.4615" y="17.499" width="2.3077" height="2.49991" fill="#B79777"/>
<rect x="20.7692" y="17.499" width="2.3077" height="2.49991" fill="#B79777"/>
<rect x="23.077" y="17.499" width="2.3077" height="2.49991" fill="#B79777"/>
<rect x="25.3847" y="17.499" width="2.3077" height="2.49991" fill="#B79777"/>
<rect x="27.6923" y="17.499" width="2.3077" height="2.49991" fill="#B79777"/>
<rect x="30" y="17.499" width="2.3077" height="2.49991" fill="#B79777"/>
<rect x="32.3077" y="17.499" width="2.3077" height="2.49991" fill="#B79777"/>
<rect x="32.3077" y="17.499" width="2.3077" height="2.49991" fill="#B79777"/>
<rect x="34.6154" y="17.499" width="2.3077" height="2.49991" fill="#B79777"/>
<rect x="36.9232" y="17.499" width="2.3077" height="2.49991" fill="#B79777"/>
<rect x="39.2308" y="17.499" width="2.3077" height="2.49991" fill="#B79777"/>
<rect x="41.5385" y="17.499" width="2.3077" height="2.49991" fill="#B79777"/>
<rect x="43.8461" y="17.499" width="2.3077" height="2.49991" fill="#B79777"/>
<rect x="46.1539" y="17.499" width="2.3077" height="2.49991" fill="#B79777"/>
<rect x="48.4615" y="17.499" width="2.3077" height="2.49991" fill="#B79777"/>
<rect x="50.7693" y="17.499" width="2.3077" height="2.49991" fill="#B79777"/>
<rect x="53.077" y="17.499" width="2.3077" height="2.49991" fill="#B79777"/>
<rect x="2.30762" y="2.66602" width="2.3077" height="2.49991" fill="#18100D"/>
<rect y="5.16602" width="2.3077" height="2.49991" fill="#18100D"/>
<rect y="7.66699" width="2.3077" height="2.49991" fill="#18100D"/>
<rect y="10.166" width="2.3077" height="2.49991" fill="#18100D"/>
<rect y="12.666" width="2.3077" height="2.49991" fill="#18100D"/>
<rect y="14.999" width="2.3077" height="2.49991" fill="#18100D"/>
<rect x="2.30762" y="17.499" width="2.3077" height="2.49991" fill="#18100D"/>
<rect x="4.61536" y="20" width="2.3077" height="2.49991" fill="#18100D"/>
<rect x="6.92297" y="22.5" width="2.3077" height="2.49991" fill="#18100D"/>
<rect x="4.61536" y="22.5" width="2.3077" height="2.49991" fill="#18100D"/>
<rect x="2.30762" y="20" width="2.3077" height="2.49991" fill="#18100D"/>
<rect y="17.499" width="2.3077" height="2.49991" fill="#18100D"/>
<rect x="9.23077" y="22.5" width="2.3077" height="2.49991" fill="#18100D"/>
<rect x="11.5385" y="22.5" width="2.3077" height="2.49991" fill="#18100D"/>
<rect x="13.8463" y="22.5" width="2.3077" height="2.49991" fill="#18100D"/>
<rect x="16.1537" y="22.5" width="2.3077" height="2.49991" fill="#18100D"/>
<rect x="18.4615" y="22.5" width="2.3077" height="2.49991" fill="#18100D"/>
<rect x="20.7692" y="22.5" width="2.3077" height="2.49991" fill="#18100D"/>
<rect x="23.077" y="22.5" width="2.3077" height="2.49991" fill="#18100D"/>
<rect x="25.3847" y="22.5" width="2.3077" height="2.49991" fill="#18100D"/>
<rect x="27.6923" y="22.5" width="2.3077" height="2.49991" fill="#18100D"/>
<rect x="30" y="22.5" width="2.3077" height="2.49991" fill="#18100D"/>
<rect x="32.3077" y="22.5" width="2.3077" height="2.49991" fill="#18100D"/>
<rect x="34.6154" y="22.5" width="2.3077" height="2.49991" fill="#18100D"/>
<rect x="36.9232" y="22.5" width="2.3077" height="2.49991" fill="#18100D"/>
<rect x="39.2308" y="22.5" width="2.3077" height="2.49991" fill="#18100D"/>
<rect x="41.5385" y="22.5" width="2.3077" height="2.49991" fill="#18100D"/>
<rect x="43.8461" y="22.5" width="2.3077" height="2.49991" fill="#18100D"/>
<rect x="46.1539" y="22.5" width="2.3077" height="2.49991" fill="#18100D"/>
<rect x="48.4615" y="22.5" width="2.3077" height="2.49991" fill="#18100D"/>
<rect x="50.7693" y="22.5" width="2.3077" height="2.49991" fill="#18100D"/>
<rect x="53.077" y="22.5" width="2.3077" height="2.49991" fill="#18100D"/>
<rect x="55.3846" y="20" width="2.3077" height="2.49991" fill="#18100D"/>
<rect x="57.6923" y="17.499" width="2.3077" height="2.49991" fill="#18100D"/>
<rect x="4.61536" y="0.166992" width="2.3077" height="2.49991" fill="#18100D"/>
<mask id="path-248-outside-1_276_3926" maskUnits="userSpaceOnUse" x="18.2889" y="4.11133" width="26" height="13" fill="black">
<rect fill="white" x="18.2889" y="4.11133" width="26" height="13"/>
<path d="M29.0779 15.6113H27.5779V5.86133H29.0779V15.6113ZM24.5779 14.1113H23.8279V14.8613H20.0779V14.1113H19.3279V6.61133H24.5779V14.1113ZM23.0779 7.36133H20.8279V14.1113H23.0779V7.36133ZM31.3279 5.86133H37.3279V6.61133H32.8279V10.3613H37.3279V11.1113H32.0779V10.3613H31.3279V5.86133ZM40.3279 8.11133H42.5779V8.86133H40.3279V11.1113H38.8279V5.86133H40.3279V8.11133ZM32.0779 13.3613H38.8279V12.6113H32.0779V11.8613H40.3279V14.1113H33.5779V14.8613H40.3279V15.6113H32.8279V14.8613H32.0779V13.3613Z"/>
</mask>
<path d="M29.0779 15.6113H27.5779V5.86133H29.0779V15.6113ZM24.5779 14.1113H23.8279V14.8613H20.0779V14.1113H19.3279V6.61133H24.5779V14.1113ZM23.0779 7.36133H20.8279V14.1113H23.0779V7.36133ZM31.3279 5.86133H37.3279V6.61133H32.8279V10.3613H37.3279V11.1113H32.0779V10.3613H31.3279V5.86133ZM40.3279 8.11133H42.5779V8.86133H40.3279V11.1113H38.8279V5.86133H40.3279V8.11133ZM32.0779 13.3613H38.8279V12.6113H32.0779V11.8613H40.3279V14.1113H33.5779V14.8613H40.3279V15.6113H32.8279V14.8613H32.0779V13.3613Z" fill="black"/>
<path d="M29.0779 15.6113V16.6113H30.0779V15.6113H29.0779ZM27.5779 15.6113H26.5779V16.6113H27.5779V15.6113ZM27.5779 5.86133V4.86133H26.5779V5.86133H27.5779ZM29.0779 5.86133H30.0779V4.86133H29.0779V5.86133ZM24.5779 14.1113V15.1113H25.5779V14.1113H24.5779ZM23.8279 14.1113V13.1113H22.8279V14.1113H23.8279ZM23.8279 14.8613V15.8613H24.8279V14.8613H23.8279ZM20.0779 14.8613H19.0779V15.8613H20.0779V14.8613ZM20.0779 14.1113H21.0779V13.1113H20.0779V14.1113ZM19.3279 14.1113H18.3279V15.1113H19.3279V14.1113ZM19.3279 6.61133V5.61133H18.3279V6.61133H19.3279ZM24.5779 6.61133H25.5779V5.61133H24.5779V6.61133ZM23.0779 7.36133H24.0779V6.36133H23.0779V7.36133ZM20.8279 7.36133V6.36133H19.8279V7.36133H20.8279ZM20.8279 14.1113H19.8279V15.1113H20.8279V14.1113ZM23.0779 14.1113V15.1113H24.0779V14.1113H23.0779ZM29.0779 14.6113H27.5779V16.6113H29.0779V14.6113ZM28.5779 15.6113V5.86133H26.5779V15.6113H28.5779ZM27.5779 6.86133H29.0779V4.86133H27.5779V6.86133ZM28.0779 5.86133V15.6113H30.0779V5.86133H28.0779ZM24.5779 13.1113H23.8279V15.1113H24.5779V13.1113ZM22.8279 14.1113V14.8613H24.8279V14.1113H22.8279ZM23.8279 13.8613H20.0779V15.8613H23.8279V13.8613ZM21.0779 14.8613V14.1113H19.0779V14.8613H21.0779ZM20.0779 13.1113H19.3279V15.1113H20.0779V13.1113ZM20.3279 14.1113V6.61133H18.3279V14.1113H20.3279ZM19.3279 7.61133H24.5779V5.61133H19.3279V7.61133ZM23.5779 6.61133V14.1113H25.5779V6.61133H23.5779ZM23.0779 6.36133H20.8279V8.36133H23.0779V6.36133ZM19.8279 7.36133V14.1113H21.8279V7.36133H19.8279ZM20.8279 15.1113H23.0779V13.1113H20.8279V15.1113ZM24.0779 14.1113V7.36133H22.0779V14.1113H24.0779ZM31.3279 5.86133V4.86133H30.3279V5.86133H31.3279ZM37.3279 5.86133H38.3279V4.86133H37.3279V5.86133ZM37.3279 6.61133V7.61133H38.3279V6.61133H37.3279ZM32.8279 6.61133V5.61133H31.8279V6.61133H32.8279ZM32.8279 10.3613H31.8279V11.3613H32.8279V10.3613ZM37.3279 10.3613H38.3279V9.36133H37.3279V10.3613ZM37.3279 11.1113V12.1113H38.3279V11.1113H37.3279ZM32.0779 11.1113H31.0779V12.1113H32.0779V11.1113ZM32.0779 10.3613H33.0779V9.36133H32.0779V10.3613ZM31.3279 10.3613H30.3279V11.3613H31.3279V10.3613ZM40.3279 8.11133H39.3279V9.11133H40.3279V8.11133ZM42.5779 8.11133H43.5779V7.11133H42.5779V8.11133ZM42.5779 8.86133V9.86133H43.5779V8.86133H42.5779ZM40.3279 8.86133V7.86133H39.3279V8.86133H40.3279ZM40.3279 11.1113V12.1113H41.3279V11.1113H40.3279ZM38.8279 11.1113H37.8279V12.1113H38.8279V11.1113ZM38.8279 5.86133V4.86133H37.8279V5.86133H38.8279ZM40.3279 5.86133H41.3279V4.86133H40.3279V5.86133ZM32.0779 13.3613V12.3613H31.0779V13.3613H32.0779ZM38.8279 13.3613V14.3613H39.8279V13.3613H38.8279ZM38.8279 12.6113H39.8279V11.6113H38.8279V12.6113ZM32.0779 12.6113H31.0779V13.6113H32.0779V12.6113ZM32.0779 11.8613V10.8613H31.0779V11.8613H32.0779ZM40.3279 11.8613H41.3279V10.8613H40.3279V11.8613ZM40.3279 14.1113V15.1113H41.3279V14.1113H40.3279ZM33.5779 14.1113V13.1113H32.5779V14.1113H33.5779ZM33.5779 14.8613H32.5779V15.8613H33.5779V14.8613ZM40.3279 14.8613H41.3279V13.8613H40.3279V14.8613ZM40.3279 15.6113V16.6113H41.3279V15.6113H40.3279ZM32.8279 15.6113H31.8279V16.6113H32.8279V15.6113ZM32.8279 14.8613H33.8279V13.8613H32.8279V14.8613ZM32.0779 14.8613H31.0779V15.8613H32.0779V14.8613ZM31.3279 6.86133H37.3279V4.86133H31.3279V6.86133ZM36.3279 5.86133V6.61133H38.3279V5.86133H36.3279ZM37.3279 5.61133H32.8279V7.61133H37.3279V5.61133ZM31.8279 6.61133V10.3613H33.8279V6.61133H31.8279ZM32.8279 11.3613H37.3279V9.36133H32.8279V11.3613ZM36.3279 10.3613V11.1113H38.3279V10.3613H36.3279ZM37.3279 10.1113H32.0779V12.1113H37.3279V10.1113ZM33.0779 11.1113V10.3613H31.0779V11.1113H33.0779ZM32.0779 9.36133H31.3279V11.3613H32.0779V9.36133ZM32.3279 10.3613V5.86133H30.3279V10.3613H32.3279ZM40.3279 9.11133H42.5779V7.11133H40.3279V9.11133ZM41.5779 8.11133V8.86133H43.5779V8.11133H41.5779ZM42.5779 7.86133H40.3279V9.86133H42.5779V7.86133ZM39.3279 8.86133V11.1113H41.3279V8.86133H39.3279ZM40.3279 10.1113H38.8279V12.1113H40.3279V10.1113ZM39.8279 11.1113V5.86133H37.8279V11.1113H39.8279ZM38.8279 6.86133H40.3279V4.86133H38.8279V6.86133ZM39.3279 5.86133V8.11133H41.3279V5.86133H39.3279ZM32.0779 14.3613H38.8279V12.3613H32.0779V14.3613ZM39.8279 13.3613V12.6113H37.8279V13.3613H39.8279ZM38.8279 11.6113H32.0779V13.6113H38.8279V11.6113ZM33.0779 12.6113V11.8613H31.0779V12.6113H33.0779ZM32.0779 12.8613H40.3279V10.8613H32.0779V12.8613ZM39.3279 11.8613V14.1113H41.3279V11.8613H39.3279ZM40.3279 13.1113H33.5779V15.1113H40.3279V13.1113ZM32.5779 14.1113V14.8613H34.5779V14.1113H32.5779ZM33.5779 15.8613H40.3279V13.8613H33.5779V15.8613ZM39.3279 14.8613V15.6113H41.3279V14.8613H39.3279ZM40.3279 14.6113H32.8279V16.6113H40.3279V14.6113ZM33.8279 15.6113V14.8613H31.8279V15.6113H33.8279ZM32.8279 13.8613H32.0779V15.8613H32.8279V13.8613ZM33.0779 14.8613V13.3613H31.0779V14.8613H33.0779Z" fill="white" mask="url(#path-248-outside-1_276_3926)"/>
</svg>
