<svg width="86" height="36" viewBox="0 0 86 36" fill="none" xmlns="http://www.w3.org/2000/svg">
<rect x="24.4097" y="28.3135" width="2.91568" height="3.53911" fill="#BC8C61"/>
<rect x="27.3254" y="28.3135" width="2.91568" height="3.53911" fill="#BC8C61"/>
<rect x="30.2411" y="28.3135" width="2.91568" height="3.53911" fill="#BC8C61"/>
<rect x="33.1567" y="28.3135" width="2.91568" height="3.53911" fill="#BC8C61"/>
<rect x="36.0725" y="28.3135" width="2.91568" height="3.53911" fill="#BC8C61"/>
<rect x="38.988" y="28.3135" width="2.91568" height="3.53911" fill="#BC8C61"/>
<rect x="41.9038" y="28.3135" width="2.91568" height="3.53911" fill="#BC8C61"/>
<rect x="44.8195" y="28.3135" width="2.91568" height="3.53911" fill="#BC8C61"/>
<rect x="47.7351" y="28.3135" width="2.91568" height="3.53911" fill="#BC8C61"/>
<rect x="50.6509" y="28.3135" width="2.91568" height="3.53911" fill="#BC8C61"/>
<rect x="53.5665" y="28.3135" width="2.91568" height="3.53911" fill="#BC8C61"/>
<rect x="56.4822" y="28.3135" width="2.91568" height="3.53911" fill="#BC8C61"/>
<rect x="59.3978" y="28.3135" width="2.91568" height="3.53911" fill="#BC8C61"/>
<rect x="62.3135" y="28.3135" width="2.91568" height="3.53911" fill="#BC8C61"/>
<rect x="65.2291" y="28.3135" width="2.91568" height="3.53911" fill="#BC8C61"/>
<rect x="68.1449" y="28.3135" width="2.91568" height="3.53911" fill="#BC8C61"/>
<rect x="71.0605" y="28.3135" width="2.91568" height="3.53911" fill="#BC8C61"/>
<rect x="73.9762" y="24.7734" width="2.91568" height="3.53911" fill="#BC8C61"/>
<rect x="76.8918" y="21.2344" width="2.91568" height="3.53911" fill="#BC8C61"/>
<rect x="76.8918" y="17.6953" width="2.91568" height="3.53911" fill="#BC8C61"/>
<rect x="76.8918" y="14.1562" width="2.91568" height="3.53911" fill="#BC8C61"/>
<rect x="76.8918" y="10.6172" width="2.91568" height="3.53911" fill="#BC8C61"/>
<rect x="76.8918" y="7.07812" width="2.91568" height="3.53911" fill="#BC8C61"/>
<rect x="73.9762" y="3.53906" width="2.91568" height="3.53911" fill="#BC8C61"/>
<rect x="6.91565" y="7.07812" width="2.91568" height="3.53911" fill="#BC8C61"/>
<path d="M6.91565 10.6172H9.83133V14.1563H6.91565V10.6172Z" fill="#BC8C61"/>
<path d="M6.91565 14.1563H9.83133V17.6954H6.91565V14.1563Z" fill="#BC8C61"/>
<path d="M6.91565 17.6954H9.83133V21.2345H6.91565V17.6954Z" fill="#BC8C61"/>
<path d="M6.91565 21.2345H9.83133V24.7736H6.91565V21.2345Z" fill="#BC8C61"/>
<rect x="9.8313" y="3.53906" width="2.91568" height="3.53911" fill="#BC8C61"/>
<path d="M12.7469 0H15.6626V3.53911H12.7469V0Z" fill="#BC8C61"/>
<rect x="15.6627" width="2.91568" height="3.53911" fill="#BC8C61"/>
<rect x="15.6627" y="28.3135" width="2.91568" height="3.53911" fill="#BC8C61"/>
<rect x="18.5784" y="28.3135" width="2.91568" height="3.53911" fill="#BC8C61"/>
<rect x="12.7469" y="28.3135" width="2.91568" height="3.53911" fill="#BC8C61"/>
<rect x="9.8313" y="24.7734" width="2.91568" height="3.53911" fill="#BC8C61"/>
<rect x="21.4941" y="28.3135" width="2.91568" height="3.53911" fill="#BC8C61"/>
<rect x="24.4097" width="2.91568" height="3.53911" fill="#BC8C61"/>
<rect x="27.3254" width="2.91568" height="3.53911" fill="#BC8C61"/>
<rect x="30.2411" width="2.91568" height="3.53911" fill="#BC8C61"/>
<rect x="33.1567" width="2.91568" height="3.53911" fill="#BC8C61"/>
<rect x="36.0725" width="2.91568" height="3.53911" fill="#BC8C61"/>
<rect x="38.988" width="2.91568" height="3.53911" fill="#BC8C61"/>
<rect x="41.9038" width="2.91568" height="3.53911" fill="#BC8C61"/>
<rect x="44.8195" width="2.91568" height="3.53911" fill="#BC8C61"/>
<rect x="47.7351" width="2.91568" height="3.53911" fill="#BC8C61"/>
<rect x="50.6509" width="2.91568" height="3.53911" fill="#BC8C61"/>
<rect x="53.5665" width="2.91568" height="3.53911" fill="#BC8C61"/>
<rect x="56.4822" width="2.91568" height="3.53911" fill="#BC8C61"/>
<rect x="59.3978" width="2.91568" height="3.53911" fill="#BC8C61"/>
<rect x="62.3135" width="2.91568" height="3.53911" fill="#BC8C61"/>
<rect x="65.2291" width="2.91568" height="3.53911" fill="#BC8C61"/>
<rect x="68.1449" width="2.91568" height="3.53911" fill="#BC8C61"/>
<rect x="71.0605" width="2.91568" height="3.53911" fill="#BC8C61"/>
<rect x="21.4941" width="2.91568" height="3.53911" fill="#BC8C61"/>
<rect x="18.5784" width="2.91568" height="3.53911" fill="#BC8C61"/>
<rect x="18.5784" y="10.6172" width="2.91568" height="3.53911" fill="#FCBD80"/>
<rect x="21.4941" y="10.6172" width="2.91568" height="3.53911" fill="#FCBD80"/>
<rect x="21.4941" y="7.07812" width="2.91568" height="3.53911" fill="#FCBD80"/>
<rect x="18.5784" y="7.07812" width="2.91568" height="3.53911" fill="#FCBD80"/>
<rect x="41.9038" y="10.6172" width="2.91568" height="3.53911" fill="#FCBD80"/>
<rect x="41.9038" y="14.1562" width="2.91568" height="3.53911" fill="#FCBD80"/>
<rect x="41.9038" y="21.2344" width="2.91568" height="3.53911" fill="#FCBD80"/>
<rect x="12.7469" y="3.53906" width="2.91568" height="3.53911" fill="#FCBD80"/>
<rect x="12.7469" y="24.7734" width="2.91568" height="3.53911" fill="#FCBD80"/>
<rect x="12.7469" y="21.2344" width="2.91568" height="3.53911" fill="#FCBD80"/>
<rect x="12.7469" y="17.6953" width="2.91568" height="3.53911" fill="#FCBD80"/>
<rect x="15.6627" y="17.6953" width="2.91568" height="3.53911" fill="#FCBD80"/>
<rect x="12.7469" y="14.1562" width="2.91568" height="3.53911" fill="#FCBD80"/>
<rect x="12.7469" y="10.6172" width="2.91568" height="3.53911" fill="#FCBD80"/>
<rect x="12.7469" y="7.07812" width="2.91568" height="3.53911" fill="#FCBD80"/>
<rect x="9.8313" y="21.2344" width="2.91568" height="3.53911" fill="#FCBD80"/>
<rect x="9.8313" y="17.6953" width="2.91568" height="3.53911" fill="#FCBD80"/>
<rect x="9.8313" y="14.1562" width="2.91568" height="3.53911" fill="#FCBD80"/>
<rect x="9.8313" y="10.6172" width="2.91568" height="3.53911" fill="#FCBD80"/>
<rect x="15.6627" y="7.07812" width="2.91568" height="3.53911" fill="#FCBD80"/>
<rect x="15.6627" y="10.6172" width="2.91568" height="3.53911" fill="#FCBD80"/>
<rect x="15.6627" y="14.1562" width="2.91568" height="3.53911" fill="#FCBD80"/>
<rect x="18.5784" y="14.1562" width="2.91568" height="3.53911" fill="#FCBD80"/>
<rect x="21.4941" y="14.1562" width="2.91568" height="3.53911" fill="#FCBD80"/>
<rect x="21.4941" y="17.6953" width="2.91568" height="3.53911" fill="#FCBD80"/>
<rect x="21.4941" y="21.2344" width="2.91568" height="3.53911" fill="#FCBD80"/>
<rect x="18.5784" y="21.2344" width="2.91568" height="3.53911" fill="#FCBD80"/>
<rect x="15.6627" y="21.2344" width="2.91568" height="3.53911" fill="#FCBD80"/>
<rect x="9.8313" y="7.07812" width="2.91568" height="3.53911" fill="#FCBD80"/>
<rect x="71.0605" y="21.2344" width="2.91568" height="3.53911" fill="#FCBD80"/>
<rect x="71.0605" y="17.6953" width="2.91568" height="3.53911" fill="#FCBD80"/>
<rect x="71.0605" y="14.1562" width="2.91568" height="3.53911" fill="#FCBD80"/>
<rect x="71.0605" y="10.6172" width="2.91568" height="3.53911" fill="#FCBD80"/>
<rect x="68.1449" y="21.2344" width="2.91568" height="3.53911" fill="#FCBD80"/>
<rect x="68.1449" y="17.6953" width="2.91568" height="3.53911" fill="#FCBD80"/>
<rect x="65.2291" y="14.1562" width="2.91568" height="3.53911" fill="#FCBD80"/>
<rect x="65.2291" y="17.6953" width="2.91568" height="3.53911" fill="#FCBD80"/>
<rect x="68.1449" y="14.1562" width="2.91568" height="3.53911" fill="#FCBD80"/>
<rect x="68.1449" y="7.07812" width="2.91568" height="3.53911" fill="#FCBD80"/>
<rect x="68.1449" y="10.6172" width="2.91568" height="3.53911" fill="#FCBD80"/>
<rect x="62.3135" y="21.2344" width="2.91568" height="3.53911" fill="#FCBD80"/>
<rect x="62.3135" y="17.6953" width="2.91568" height="3.53911" fill="#FCBD80"/>
<rect x="65.2291" y="21.2344" width="2.91568" height="3.53911" fill="#FCBD80"/>
<rect x="62.3135" y="14.1562" width="2.91568" height="3.53911" fill="#FCBD80"/>
<rect x="62.3135" y="10.6172" width="2.91568" height="3.53911" fill="#FCBD80"/>
<rect x="65.2291" y="7.07812" width="2.91568" height="3.53911" fill="#FCBD80"/>
<rect x="65.2291" y="10.6172" width="2.91568" height="3.53911" fill="#FCBD80"/>
<rect x="33.1567" y="21.2344" width="2.91568" height="3.53911" fill="#FCBD80"/>
<rect x="30.2411" y="21.2344" width="2.91568" height="3.53911" fill="#FCBD80"/>
<rect x="33.1567" y="17.6953" width="2.91568" height="3.53911" fill="#FCBD80"/>
<rect x="30.2411" y="17.6953" width="2.91568" height="3.53911" fill="#FCBD80"/>
<rect x="33.1567" y="14.1562" width="2.91568" height="3.53911" fill="#FCBD80"/>
<rect x="30.2411" y="14.1562" width="2.91568" height="3.53911" fill="#FCBD80"/>
<rect x="33.1567" y="10.6172" width="2.91568" height="3.53911" fill="#FCBD80"/>
<rect x="30.2411" y="10.6172" width="2.91568" height="3.53911" fill="#FCBD80"/>
<rect x="33.1567" y="7.07812" width="2.91568" height="3.53911" fill="#FCBD80"/>
<rect x="27.3254" y="21.2344" width="2.91568" height="3.53911" fill="#FCBD80"/>
<rect x="27.3254" y="17.6953" width="2.91568" height="3.53911" fill="#FCBD80"/>
<rect x="27.3254" y="14.1562" width="2.91568" height="3.53911" fill="#FCBD80"/>
<rect x="27.3254" y="10.6172" width="2.91568" height="3.53911" fill="#FCBD80"/>
<rect x="30.2411" y="7.07812" width="2.91568" height="3.53911" fill="#FCBD80"/>
<rect x="27.3254" y="7.07812" width="2.91568" height="3.53911" fill="#FCBD80"/>
<rect x="71.0605" y="7.07812" width="2.91568" height="3.53911" fill="#FCBD80"/>
<rect x="24.4097" y="21.2344" width="2.91568" height="3.53911" fill="#FCBD80"/>
<rect x="24.4097" y="17.6953" width="2.91568" height="3.53911" fill="#FCBD80"/>
<rect x="24.4097" y="14.1562" width="2.91568" height="3.53911" fill="#FCBD80"/>
<rect x="24.4097" y="10.6172" width="2.91568" height="3.53911" fill="#FCBD80"/>
<rect x="24.4097" y="7.07812" width="2.91568" height="3.53911" fill="#FCBD80"/>
<rect x="36.0725" y="21.2344" width="2.91568" height="3.53911" fill="#FCBD80"/>
<rect x="38.988" y="21.2344" width="2.91568" height="3.53911" fill="#FCBD80"/>
<rect x="36.0725" y="17.6953" width="2.91568" height="3.53911" fill="#FCBD80"/>
<rect x="38.988" y="17.6953" width="2.91568" height="3.53911" fill="#FCBD80"/>
<rect x="36.0725" y="14.1562" width="2.91568" height="3.53911" fill="#FCBD80"/>
<rect x="38.988" y="14.1562" width="2.91568" height="3.53911" fill="#FCBD80"/>
<rect x="36.0725" y="10.6172" width="2.91568" height="3.53911" fill="#FCBD80"/>
<rect x="38.988" y="10.6172" width="2.91568" height="3.53911" fill="#FCBD80"/>
<rect x="36.0725" y="7.07812" width="2.91568" height="3.53911" fill="#FCBD80"/>
<rect x="41.9038" y="7.07812" width="2.91568" height="3.53911" fill="#FCBD80"/>
<rect x="44.8195" y="7.07812" width="2.91568" height="3.53911" fill="#FCBD80"/>
<rect x="44.8195" y="10.6172" width="2.91568" height="3.53911" fill="#FCBD80"/>
<rect x="44.8195" y="14.1562" width="2.91568" height="3.53911" fill="#FCBD80"/>
<rect x="44.8195" y="17.6953" width="2.91568" height="3.53911" fill="#FCBD80"/>
<rect x="56.4822" y="21.2344" width="2.91568" height="3.53911" fill="#FCBD80"/>
<rect x="44.8195" y="21.2344" width="2.91568" height="3.53911" fill="#FCBD80"/>
<rect x="41.9038" y="17.6953" width="2.91568" height="3.53911" fill="#FCBD80"/>
<rect x="38.988" y="7.07812" width="2.91568" height="3.53911" fill="#FCBD80"/>
<rect x="47.7351" y="21.2344" width="2.91568" height="3.53911" fill="#FCBD80"/>
<rect x="47.7351" y="17.6953" width="2.91568" height="3.53911" fill="#FCBD80"/>
<rect x="47.7351" y="14.1562" width="2.91568" height="3.53911" fill="#FCBD80"/>
<rect x="47.7351" y="10.6172" width="2.91568" height="3.53911" fill="#FCBD80"/>
<rect x="50.6509" y="10.6172" width="2.91568" height="3.53911" fill="#FCBD80"/>
<rect x="50.6509" y="14.1562" width="2.91568" height="3.53911" fill="#FCBD80"/>
<rect x="50.6509" y="17.6953" width="2.91568" height="3.53911" fill="#FCBD80"/>
<rect x="50.6509" y="21.2344" width="2.91568" height="3.53911" fill="#FCBD80"/>
<rect x="50.6509" y="7.07812" width="2.91568" height="3.53911" fill="#FCBD80"/>
<rect x="53.5665" y="7.07812" width="2.91568" height="3.53911" fill="#FCBD80"/>
<rect x="56.4822" y="7.07812" width="2.91568" height="3.53911" fill="#FCBD80"/>
<rect x="56.4822" y="10.6172" width="2.91568" height="3.53911" fill="#FCBD80"/>
<rect x="56.4822" y="17.6953" width="2.91568" height="3.53911" fill="#FCBD80"/>
<rect x="62.3135" y="7.07812" width="2.91568" height="3.53911" fill="#FCBD80"/>
<rect x="53.5665" y="14.1562" width="2.91568" height="3.53911" fill="#FCBD80"/>
<rect x="47.7351" y="7.07812" width="2.91568" height="3.53911" fill="#FCBD80"/>
<rect x="53.5665" y="10.6172" width="2.91568" height="3.53911" fill="#FCBD80"/>
<rect x="53.5665" y="17.6953" width="2.91568" height="3.53911" fill="#FCBD80"/>
<rect x="53.5665" y="21.2344" width="2.91568" height="3.53911" fill="#FCBD80"/>
<rect x="59.3978" y="21.2344" width="2.91568" height="3.53911" fill="#FCBD80"/>
<rect x="56.4822" y="14.1562" width="2.91568" height="3.53911" fill="#FCBD80"/>
<rect x="59.3978" y="14.1562" width="2.91568" height="3.53911" fill="#FCBD80"/>
<rect x="59.3978" y="17.6953" width="2.91568" height="3.53911" fill="#FCBD80"/>
<rect x="59.3978" y="10.6172" width="2.91568" height="3.53911" fill="#FCBD80"/>
<rect x="59.3978" y="7.07812" width="2.91568" height="3.53911" fill="#FCBD80"/>
<rect x="73.9762" y="21.2344" width="2.91568" height="3.53911" fill="#FCBD80"/>
<rect x="73.9762" y="17.6953" width="2.91568" height="3.53911" fill="#FCBD80"/>
<rect x="73.9762" y="14.1562" width="2.91568" height="3.53911" fill="#FCBD80"/>
<rect x="73.9762" y="10.6172" width="2.91568" height="3.53911" fill="#FCBD80"/>
<rect x="73.9762" y="7.07812" width="2.91568" height="3.53911" fill="#FCBD80"/>
<rect x="18.5784" y="17.6953" width="2.91568" height="3.53911" fill="#FCBD80"/>
<rect x="15.6627" y="3.53906" width="2.91568" height="3.53911" fill="#FCBD80"/>
<rect x="18.5784" y="3.53906" width="2.91568" height="3.53911" fill="#FCBD80"/>
<rect x="21.4941" y="3.53906" width="2.91568" height="3.53911" fill="#FCBD80"/>
<rect x="24.4097" y="3.53906" width="2.91568" height="3.53911" fill="#FCBD80"/>
<rect x="27.3254" y="3.53906" width="2.91568" height="3.53911" fill="#FCBD80"/>
<rect x="30.2411" y="3.53906" width="2.91568" height="3.53911" fill="#FCBD80"/>
<rect x="33.1567" y="3.53906" width="2.91568" height="3.53911" fill="#FCBD80"/>
<rect x="36.0725" y="3.53906" width="2.91568" height="3.53911" fill="#FCBD80"/>
<rect x="38.988" y="3.53906" width="2.91568" height="3.53911" fill="#FCBD80"/>
<rect x="41.9038" y="3.53906" width="2.91568" height="3.53911" fill="#FCBD80"/>
<rect x="44.8195" y="3.53906" width="2.91568" height="3.53911" fill="#FCBD80"/>
<rect x="44.8195" y="3.53906" width="2.91568" height="3.53911" fill="#FCBD80"/>
<rect x="47.7351" y="3.53906" width="2.91568" height="3.53911" fill="#FCBD80"/>
<rect x="50.6509" y="3.53906" width="2.91568" height="3.53911" fill="#FCBD80"/>
<rect x="53.5665" y="3.53906" width="2.91568" height="3.53911" fill="#FCBD80"/>
<rect x="56.4822" y="3.53906" width="2.91568" height="3.53911" fill="#FCBD80"/>
<rect x="59.3978" y="3.53906" width="2.91568" height="3.53911" fill="#FCBD80"/>
<rect x="62.3135" y="3.53906" width="2.91568" height="3.53911" fill="#FCBD80"/>
<rect x="65.2291" y="3.53906" width="2.91568" height="3.53911" fill="#FCBD80"/>
<rect x="68.1449" y="3.53906" width="2.91568" height="3.53911" fill="#FCBD80"/>
<rect x="71.0605" y="3.53906" width="2.91568" height="3.53911" fill="#FCBD80"/>
<rect x="15.6627" y="24.7734" width="2.91568" height="3.53911" fill="#FCBD80"/>
<rect x="18.5784" y="24.7734" width="2.91568" height="3.53911" fill="#FCBD80"/>
<rect x="21.4941" y="24.7734" width="2.91568" height="3.53911" fill="#FCBD80"/>
<rect x="24.4097" y="24.7734" width="2.91568" height="3.53911" fill="#FCBD80"/>
<rect x="27.3254" y="24.7734" width="2.91568" height="3.53911" fill="#FCBD80"/>
<rect x="30.2411" y="24.7734" width="2.91568" height="3.53911" fill="#FCBD80"/>
<rect x="33.1567" y="24.7734" width="2.91568" height="3.53911" fill="#FCBD80"/>
<rect x="36.0725" y="24.7734" width="2.91568" height="3.53911" fill="#FCBD80"/>
<rect x="38.988" y="24.7734" width="2.91568" height="3.53911" fill="#FCBD80"/>
<rect x="41.9038" y="24.7734" width="2.91568" height="3.53911" fill="#FCBD80"/>
<rect x="44.8195" y="24.7734" width="2.91568" height="3.53911" fill="#FCBD80"/>
<rect x="44.8195" y="24.7734" width="2.91568" height="3.53911" fill="#FCBD80"/>
<rect x="47.7351" y="24.7734" width="2.91568" height="3.53911" fill="#FCBD80"/>
<rect x="50.6509" y="24.7734" width="2.91568" height="3.53911" fill="#FCBD80"/>
<rect x="53.5665" y="24.7734" width="2.91568" height="3.53911" fill="#FCBD80"/>
<rect x="56.4822" y="24.7734" width="2.91568" height="3.53911" fill="#FCBD80"/>
<rect x="59.3978" y="24.7734" width="2.91568" height="3.53911" fill="#FCBD80"/>
<rect x="62.3135" y="24.7734" width="2.91568" height="3.53911" fill="#FCBD80"/>
<rect x="65.2291" y="24.7734" width="2.91568" height="3.53911" fill="#FCBD80"/>
<rect x="68.1449" y="24.7734" width="2.91568" height="3.53911" fill="#FCBD80"/>
<rect x="71.0605" y="24.7734" width="2.91568" height="3.53911" fill="#FCBD80"/>
<rect x="6.91565" y="3.77441" width="2.91568" height="3.53911" fill="#451B0B"/>
<rect x="4" y="7.31445" width="2.91568" height="3.53911" fill="#451B0B"/>
<rect x="4" y="10.8535" width="2.91568" height="3.53911" fill="#451B0B"/>
<rect x="4" y="14.3926" width="2.91568" height="3.53911" fill="#451B0B"/>
<rect x="4" y="17.9316" width="2.91568" height="3.53911" fill="#451B0B"/>
<rect x="4" y="21.2344" width="2.91568" height="3.53911" fill="#451B0B"/>
<rect x="6.91565" y="24.7734" width="2.91568" height="3.53911" fill="#451B0B"/>
<rect x="9.8313" y="28.3135" width="2.91568" height="3.53911" fill="#451B0B"/>
<rect x="12.7469" y="31.8525" width="2.91568" height="3.53911" fill="#451B0B"/>
<rect x="9.8313" y="31.8525" width="2.91568" height="3.53911" fill="#451B0B"/>
<rect x="6.91565" y="28.3135" width="2.91568" height="3.53911" fill="#451B0B"/>
<rect x="4" y="24.7734" width="2.91568" height="3.53911" fill="#451B0B"/>
<rect x="15.6627" y="31.8525" width="2.91568" height="3.53911" fill="#451B0B"/>
<rect x="18.5784" y="31.8525" width="2.91568" height="3.53911" fill="#451B0B"/>
<rect x="21.4941" y="31.8525" width="2.91568" height="3.53911" fill="#451B0B"/>
<rect x="24.4097" y="31.8525" width="2.91568" height="3.53911" fill="#451B0B"/>
<rect x="27.3254" y="31.8525" width="2.91568" height="3.53911" fill="#451B0B"/>
<rect x="30.2411" y="31.8525" width="2.91568" height="3.53911" fill="#451B0B"/>
<rect x="33.1567" y="31.8525" width="2.91568" height="3.53911" fill="#451B0B"/>
<rect x="36.0725" y="31.8525" width="2.91568" height="3.53911" fill="#451B0B"/>
<rect x="38.988" y="31.8525" width="2.91568" height="3.53911" fill="#451B0B"/>
<rect x="41.9038" y="31.8525" width="2.91568" height="3.53911" fill="#451B0B"/>
<rect x="44.8195" y="31.8525" width="2.91568" height="3.53911" fill="#451B0B"/>
<rect x="47.7351" y="31.8525" width="2.91568" height="3.53911" fill="#451B0B"/>
<rect x="50.6509" y="31.8525" width="2.91568" height="3.53911" fill="#451B0B"/>
<rect x="53.5665" y="31.8525" width="2.91568" height="3.53911" fill="#451B0B"/>
<rect x="56.4822" y="31.8525" width="2.91568" height="3.53911" fill="#451B0B"/>
<rect x="59.3978" y="31.8525" width="2.91568" height="3.53911" fill="#451B0B"/>
<rect x="62.3135" y="31.8525" width="2.91568" height="3.53911" fill="#451B0B"/>
<rect x="65.2291" y="31.8525" width="2.91568" height="3.53911" fill="#451B0B"/>
<rect x="68.1449" y="31.8525" width="2.91568" height="3.53911" fill="#451B0B"/>
<rect x="71.0605" y="31.8525" width="2.91568" height="3.53911" fill="#451B0B"/>
<rect x="73.9762" y="28.3135" width="2.91568" height="3.53911" fill="#451B0B"/>
<rect x="76.8918" y="24.7734" width="2.91568" height="3.53911" fill="#451B0B"/>
<rect x="9.8313" y="0.236328" width="2.91568" height="3.53911" fill="#451B0B"/>
<mask id="path-248-outside-1_789_1937" maskUnits="userSpaceOnUse" x="23" y="8" width="39" height="19" fill="black">
<rect fill="white" x="23" y="8" width="39" height="19"/>
<path d="M25.5 20.5V19.25H36.75V18H24.25V16.75H28V15.5H25.5V14.25H24.25V13H25.5V11.75H24.25V10.5H28V9.25H30.5V10.5H34.25V11.75H33V13H34.25V14.25H33V15.5H30.5V16.75H36.75V9.25H39.25V13H43V14.25H39.25V24.25H38V25.5H36.75V20.5H25.5ZM31.75 14.25V13H26.75V14.25H31.75ZM51.75 18H46.75V16.75H45.5V15.5H44.25V11.75H45.5V10.5H46.75V9.25H51.75V10.5H53V11.75H54.25V15.5H53V16.75H51.75V18ZM60.5 18H58V9.25H60.5V18ZM48 11.75H46.75V15.5H48V16.75H50.5V15.5H51.75V11.75H50.5V10.5H48V11.75ZM48 24.25H60.5V25.5H46.75V24.25H45.5V19.25H48V24.25Z"/>
</mask>
<path d="M25.5 20.5V19.25H36.75V18H24.25V16.75H28V15.5H25.5V14.25H24.25V13H25.5V11.75H24.25V10.5H28V9.25H30.5V10.5H34.25V11.75H33V13H34.25V14.25H33V15.5H30.5V16.75H36.75V9.25H39.25V13H43V14.25H39.25V24.25H38V25.5H36.75V20.5H25.5ZM31.75 14.25V13H26.75V14.25H31.75ZM51.75 18H46.75V16.75H45.5V15.5H44.25V11.75H45.5V10.5H46.75V9.25H51.75V10.5H53V11.75H54.25V15.5H53V16.75H51.75V18ZM60.5 18H58V9.25H60.5V18ZM48 11.75H46.75V15.5H48V16.75H50.5V15.5H51.75V11.75H50.5V10.5H48V11.75ZM48 24.25H60.5V25.5H46.75V24.25H45.5V19.25H48V24.25Z" fill="black"/>
<path d="M25.5 20.5H24.5V21.5H25.5V20.5ZM25.5 19.25V18.25H24.5V19.25H25.5ZM36.75 19.25V20.25H37.75V19.25H36.75ZM36.75 18H37.75V17H36.75V18ZM24.25 18H23.25V19H24.25V18ZM24.25 16.75V15.75H23.25V16.75H24.25ZM28 16.75V17.75H29V16.75H28ZM28 15.5H29V14.5H28V15.5ZM25.5 15.5H24.5V16.5H25.5V15.5ZM25.5 14.25H26.5V13.25H25.5V14.25ZM24.25 14.25H23.25V15.25H24.25V14.25ZM24.25 13V12H23.25V13H24.25ZM25.5 13V14H26.5V13H25.5ZM25.5 11.75H26.5V10.75H25.5V11.75ZM24.25 11.75H23.25V12.75H24.25V11.75ZM24.25 10.5V9.5H23.25V10.5H24.25ZM28 10.5V11.5H29V10.5H28ZM28 9.25V8.25H27V9.25H28ZM30.5 9.25H31.5V8.25H30.5V9.25ZM30.5 10.5H29.5V11.5H30.5V10.5ZM34.25 10.5H35.25V9.5H34.25V10.5ZM34.25 11.75V12.75H35.25V11.75H34.25ZM33 11.75V10.75H32V11.75H33ZM33 13H32V14H33V13ZM34.25 13H35.25V12H34.25V13ZM34.25 14.25V15.25H35.25V14.25H34.25ZM33 14.25V13.25H32V14.25H33ZM33 15.5V16.5H34V15.5H33ZM30.5 15.5V14.5H29.5V15.5H30.5ZM30.5 16.75H29.5V17.75H30.5V16.75ZM36.75 16.75V17.75H37.75V16.75H36.75ZM36.75 9.25V8.25H35.75V9.25H36.75ZM39.25 9.25H40.25V8.25H39.25V9.25ZM39.25 13H38.25V14H39.25V13ZM43 13H44V12H43V13ZM43 14.25V15.25H44V14.25H43ZM39.25 14.25V13.25H38.25V14.25H39.25ZM39.25 24.25V25.25H40.25V24.25H39.25ZM38 24.25V23.25H37V24.25H38ZM38 25.5V26.5H39V25.5H38ZM36.75 25.5H35.75V26.5H36.75V25.5ZM36.75 20.5H37.75V19.5H36.75V20.5ZM31.75 14.25V15.25H32.75V14.25H31.75ZM31.75 13H32.75V12H31.75V13ZM26.75 13V12H25.75V13H26.75ZM26.75 14.25H25.75V15.25H26.75V14.25ZM26.5 20.5V19.25H24.5V20.5H26.5ZM25.5 20.25H36.75V18.25H25.5V20.25ZM37.75 19.25V18H35.75V19.25H37.75ZM36.75 17H24.25V19H36.75V17ZM25.25 18V16.75H23.25V18H25.25ZM24.25 17.75H28V15.75H24.25V17.75ZM29 16.75V15.5H27V16.75H29ZM28 14.5H25.5V16.5H28V14.5ZM26.5 15.5V14.25H24.5V15.5H26.5ZM25.5 13.25H24.25V15.25H25.5V13.25ZM25.25 14.25V13H23.25V14.25H25.25ZM24.25 14H25.5V12H24.25V14ZM26.5 13V11.75H24.5V13H26.5ZM25.5 10.75H24.25V12.75H25.5V10.75ZM25.25 11.75V10.5H23.25V11.75H25.25ZM24.25 11.5H28V9.5H24.25V11.5ZM29 10.5V9.25H27V10.5H29ZM28 10.25H30.5V8.25H28V10.25ZM29.5 9.25V10.5H31.5V9.25H29.5ZM30.5 11.5H34.25V9.5H30.5V11.5ZM33.25 10.5V11.75H35.25V10.5H33.25ZM34.25 10.75H33V12.75H34.25V10.75ZM32 11.75V13H34V11.75H32ZM33 14H34.25V12H33V14ZM33.25 13V14.25H35.25V13H33.25ZM34.25 13.25H33V15.25H34.25V13.25ZM32 14.25V15.5H34V14.25H32ZM33 14.5H30.5V16.5H33V14.5ZM29.5 15.5V16.75H31.5V15.5H29.5ZM30.5 17.75H36.75V15.75H30.5V17.75ZM37.75 16.75V9.25H35.75V16.75H37.75ZM36.75 10.25H39.25V8.25H36.75V10.25ZM38.25 9.25V13H40.25V9.25H38.25ZM39.25 14H43V12H39.25V14ZM42 13V14.25H44V13H42ZM43 13.25H39.25V15.25H43V13.25ZM38.25 14.25V24.25H40.25V14.25H38.25ZM39.25 23.25H38V25.25H39.25V23.25ZM37 24.25V25.5H39V24.25H37ZM38 24.5H36.75V26.5H38V24.5ZM37.75 25.5V20.5H35.75V25.5H37.75ZM36.75 19.5H25.5V21.5H36.75V19.5ZM32.75 14.25V13H30.75V14.25H32.75ZM31.75 12H26.75V14H31.75V12ZM25.75 13V14.25H27.75V13H25.75ZM26.75 15.25H31.75V13.25H26.75V15.25ZM51.75 18V19H52.75V18H51.75ZM46.75 18H45.75V19H46.75V18ZM46.75 16.75H47.75V15.75H46.75V16.75ZM45.5 16.75H44.5V17.75H45.5V16.75ZM45.5 15.5H46.5V14.5H45.5V15.5ZM44.25 15.5H43.25V16.5H44.25V15.5ZM44.25 11.75V10.75H43.25V11.75H44.25ZM45.5 11.75V12.75H46.5V11.75H45.5ZM45.5 10.5V9.5H44.5V10.5H45.5ZM46.75 10.5V11.5H47.75V10.5H46.75ZM46.75 9.25V8.25H45.75V9.25H46.75ZM51.75 9.25H52.75V8.25H51.75V9.25ZM51.75 10.5H50.75V11.5H51.75V10.5ZM53 10.5H54V9.5H53V10.5ZM53 11.75H52V12.75H53V11.75ZM54.25 11.75H55.25V10.75H54.25V11.75ZM54.25 15.5V16.5H55.25V15.5H54.25ZM53 15.5V14.5H52V15.5H53ZM53 16.75V17.75H54V16.75H53ZM51.75 16.75V15.75H50.75V16.75H51.75ZM60.5 18V19H61.5V18H60.5ZM58 18H57V19H58V18ZM58 9.25V8.25H57V9.25H58ZM60.5 9.25H61.5V8.25H60.5V9.25ZM48 11.75V12.75H49V11.75H48ZM46.75 11.75V10.75H45.75V11.75H46.75ZM46.75 15.5H45.75V16.5H46.75V15.5ZM48 15.5H49V14.5H48V15.5ZM48 16.75H47V17.75H48V16.75ZM50.5 16.75V17.75H51.5V16.75H50.5ZM50.5 15.5V14.5H49.5V15.5H50.5ZM51.75 15.5V16.5H52.75V15.5H51.75ZM51.75 11.75H52.75V10.75H51.75V11.75ZM50.5 11.75H49.5V12.75H50.5V11.75ZM50.5 10.5H51.5V9.5H50.5V10.5ZM48 10.5V9.5H47V10.5H48ZM48 24.25H47V25.25H48V24.25ZM60.5 24.25H61.5V23.25H60.5V24.25ZM60.5 25.5V26.5H61.5V25.5H60.5ZM46.75 25.5H45.75V26.5H46.75V25.5ZM46.75 24.25H47.75V23.25H46.75V24.25ZM45.5 24.25H44.5V25.25H45.5V24.25ZM45.5 19.25V18.25H44.5V19.25H45.5ZM48 19.25H49V18.25H48V19.25ZM51.75 17H46.75V19H51.75V17ZM47.75 18V16.75H45.75V18H47.75ZM46.75 15.75H45.5V17.75H46.75V15.75ZM46.5 16.75V15.5H44.5V16.75H46.5ZM45.5 14.5H44.25V16.5H45.5V14.5ZM45.25 15.5V11.75H43.25V15.5H45.25ZM44.25 12.75H45.5V10.75H44.25V12.75ZM46.5 11.75V10.5H44.5V11.75H46.5ZM45.5 11.5H46.75V9.5H45.5V11.5ZM47.75 10.5V9.25H45.75V10.5H47.75ZM46.75 10.25H51.75V8.25H46.75V10.25ZM50.75 9.25V10.5H52.75V9.25H50.75ZM51.75 11.5H53V9.5H51.75V11.5ZM52 10.5V11.75H54V10.5H52ZM53 12.75H54.25V10.75H53V12.75ZM53.25 11.75V15.5H55.25V11.75H53.25ZM54.25 14.5H53V16.5H54.25V14.5ZM52 15.5V16.75H54V15.5H52ZM53 15.75H51.75V17.75H53V15.75ZM50.75 16.75V18H52.75V16.75H50.75ZM60.5 17H58V19H60.5V17ZM59 18V9.25H57V18H59ZM58 10.25H60.5V8.25H58V10.25ZM59.5 9.25V18H61.5V9.25H59.5ZM48 10.75H46.75V12.75H48V10.75ZM45.75 11.75V15.5H47.75V11.75H45.75ZM46.75 16.5H48V14.5H46.75V16.5ZM47 15.5V16.75H49V15.5H47ZM48 17.75H50.5V15.75H48V17.75ZM51.5 16.75V15.5H49.5V16.75H51.5ZM50.5 16.5H51.75V14.5H50.5V16.5ZM52.75 15.5V11.75H50.75V15.5H52.75ZM51.75 10.75H50.5V12.75H51.75V10.75ZM51.5 11.75V10.5H49.5V11.75H51.5ZM50.5 9.5H48V11.5H50.5V9.5ZM47 10.5V11.75H49V10.5H47ZM48 25.25H60.5V23.25H48V25.25ZM59.5 24.25V25.5H61.5V24.25H59.5ZM60.5 24.5H46.75V26.5H60.5V24.5ZM47.75 25.5V24.25H45.75V25.5H47.75ZM46.75 23.25H45.5V25.25H46.75V23.25ZM46.5 24.25V19.25H44.5V24.25H46.5ZM45.5 20.25H48V18.25H45.5V20.25ZM47 19.25V24.25H49V19.25H47Z" fill="#FAEAC0" mask="url(#path-248-outside-1_789_1937)"/>
</svg>
