<svg width="60" height="25" viewBox="0 0 60 25" fill="none" xmlns="http://www.w3.org/2000/svg">
<rect x="16.1538" y="20" width="2.3077" height="2.49991" fill="#24943D"/>
<rect x="18.4615" y="20" width="2.3077" height="2.49991" fill="#24943D"/>
<rect x="20.7693" y="20" width="2.3077" height="2.49991" fill="#24943D"/>
<rect x="23.0769" y="20" width="2.3077" height="2.49991" fill="#24943D"/>
<rect x="25.3848" y="20" width="2.3077" height="2.49991" fill="#24943D"/>
<rect x="27.6923" y="20" width="2.3077" height="2.49991" fill="#24943D"/>
<rect x="30" y="20" width="2.3077" height="2.49991" fill="#24943D"/>
<rect x="32.3077" y="20" width="2.3077" height="2.49991" fill="#24943D"/>
<rect x="34.6154" y="20" width="2.3077" height="2.49991" fill="#24943D"/>
<rect x="36.9231" y="20" width="2.3077" height="2.49991" fill="#24943D"/>
<rect x="39.2308" y="20" width="2.3077" height="2.49991" fill="#24943D"/>
<rect x="41.5386" y="20" width="2.3077" height="2.49991" fill="#24943D"/>
<rect x="43.8462" y="20" width="2.3077" height="2.49991" fill="#24943D"/>
<rect x="46.1538" y="20" width="2.3077" height="2.49991" fill="#24943D"/>
<rect x="48.4614" y="20" width="2.3077" height="2.49991" fill="#24943D"/>
<rect x="50.7693" y="20" width="2.3077" height="2.49991" fill="#24943D"/>
<rect x="53.0769" y="20" width="2.3077" height="2.49991" fill="#24943D"/>
<rect x="55.3846" y="17.499" width="2.3077" height="2.49991" fill="#24943D"/>
<rect x="57.6923" y="14.999" width="2.3077" height="2.49991" fill="#24943D"/>
<rect x="57.6923" y="12.5" width="2.3077" height="2.49991" fill="#24943D"/>
<rect x="57.6923" y="9.99902" width="2.3077" height="2.49991" fill="#24943D"/>
<rect x="57.6923" y="7.49902" width="2.3077" height="2.49991" fill="#24943D"/>
<rect x="57.6923" y="5" width="2.3077" height="2.49991" fill="#24943D"/>
<rect x="55.3846" y="2.49902" width="2.3077" height="2.49991" fill="#24943D"/>
<rect x="2.30762" y="5" width="2.3077" height="2.49991" fill="#24943D"/>
<path d="M2.30762 7.49902H4.61531V9.99893H2.30762V7.49902Z" fill="#24943D"/>
<path d="M2.30762 9.99893H4.61531V12.4988H2.30762V9.99893Z" fill="#24943D"/>
<path d="M2.30762 12.4988H4.61531V14.9987H2.30762V12.4988Z" fill="#24943D"/>
<path d="M2.30762 14.9987H4.61531V17.4987H2.30762V14.9987Z" fill="#24943D"/>
<rect x="4.61523" y="2.49902" width="2.3077" height="2.49991" fill="#24943D"/>
<path d="M6.9231 0H9.23079V2.49991H6.9231V0Z" fill="#24943D"/>
<rect x="9.23071" width="2.3077" height="2.49991" fill="#24943D"/>
<rect x="9.23071" y="20" width="2.3077" height="2.49991" fill="#24943D"/>
<rect x="11.5385" y="20" width="2.3077" height="2.49991" fill="#24943D"/>
<rect x="6.92285" y="20" width="2.3077" height="2.49991" fill="#24943D"/>
<rect x="4.61523" y="17.499" width="2.3077" height="2.49991" fill="#24943D"/>
<rect x="13.8462" y="20" width="2.3077" height="2.49991" fill="#24943D"/>
<rect x="16.1538" width="2.3077" height="2.49991" fill="#24943D"/>
<rect x="18.4615" width="2.3077" height="2.49991" fill="#24943D"/>
<rect x="20.7693" width="2.3077" height="2.49991" fill="#24943D"/>
<rect x="23.0769" width="2.3077" height="2.49991" fill="#24943D"/>
<rect x="25.3848" width="2.3077" height="2.49991" fill="#24943D"/>
<rect x="27.6923" width="2.3077" height="2.49991" fill="#24943D"/>
<rect x="30" width="2.3077" height="2.49991" fill="#24943D"/>
<rect x="32.3077" width="2.3077" height="2.49991" fill="#24943D"/>
<rect x="34.6154" width="2.3077" height="2.49991" fill="#24943D"/>
<rect x="36.9231" width="2.3077" height="2.49991" fill="#24943D"/>
<rect x="39.2308" width="2.3077" height="2.49991" fill="#24943D"/>
<rect x="41.5385" width="2.3077" height="2.49991" fill="#24943D"/>
<rect x="43.8462" width="2.3077" height="2.49991" fill="#24943D"/>
<rect x="46.1538" width="2.3077" height="2.49991" fill="#24943D"/>
<rect x="48.4615" width="2.3077" height="2.49991" fill="#24943D"/>
<rect x="50.7693" width="2.3077" height="2.49991" fill="#24943D"/>
<rect x="53.077" width="2.3077" height="2.49991" fill="#24943D"/>
<rect x="13.8462" width="2.3077" height="2.49991" fill="#24943D"/>
<rect x="11.5385" width="2.3077" height="2.49991" fill="#24943D"/>
<rect x="11.5385" y="7.49902" width="2.3077" height="2.49991" fill="#3FDD62"/>
<rect x="13.8462" y="7.49902" width="2.3077" height="2.49991" fill="#3FDD62"/>
<rect x="13.8462" y="5" width="2.3077" height="2.49991" fill="#3FDD62"/>
<rect x="11.5385" y="5" width="2.3077" height="2.49991" fill="#3FDD62"/>
<rect x="30" y="7.49902" width="2.3077" height="2.49991" fill="#3FDD62"/>
<rect x="30" y="9.99902" width="2.3077" height="2.49991" fill="#3FDD62"/>
<rect x="30" y="14.999" width="2.3077" height="2.49991" fill="#3FDD62"/>
<rect x="6.92285" y="2.49902" width="2.3077" height="2.49991" fill="#3FDD62"/>
<rect x="6.92285" y="17.499" width="2.3077" height="2.49991" fill="#3FDD62"/>
<rect x="6.92285" y="14.999" width="2.3077" height="2.49991" fill="#3FDD62"/>
<rect x="6.92285" y="12.5" width="2.3077" height="2.49991" fill="#3FDD62"/>
<rect x="9.23071" y="12.5" width="2.3077" height="2.49991" fill="#3FDD62"/>
<rect x="6.92285" y="9.99902" width="2.3077" height="2.49991" fill="#3FDD62"/>
<rect x="6.92285" y="7.49902" width="2.3077" height="2.49991" fill="#3FDD62"/>
<rect x="6.92285" y="5" width="2.3077" height="2.49991" fill="#3FDD62"/>
<rect x="4.61523" y="14.999" width="2.3077" height="2.49991" fill="#3FDD62"/>
<rect x="4.61523" y="12.5" width="2.3077" height="2.49991" fill="#3FDD62"/>
<rect x="4.61523" y="9.99902" width="2.3077" height="2.49991" fill="#3FDD62"/>
<rect x="4.61523" y="7.49902" width="2.3077" height="2.49991" fill="#3FDD62"/>
<rect x="9.23071" y="5" width="2.3077" height="2.49991" fill="#3FDD62"/>
<rect x="9.23071" y="7.49902" width="2.3077" height="2.49991" fill="#3FDD62"/>
<rect x="9.23071" y="9.99902" width="2.3077" height="2.49991" fill="#3FDD62"/>
<rect x="11.5385" y="9.99902" width="2.3077" height="2.49991" fill="#3FDD62"/>
<rect x="13.8462" y="9.99902" width="2.3077" height="2.49991" fill="#3FDD62"/>
<rect x="13.8462" y="12.5" width="2.3077" height="2.49991" fill="#3FDD62"/>
<rect x="13.8462" y="14.999" width="2.3077" height="2.49991" fill="#3FDD62"/>
<rect x="11.5385" y="14.999" width="2.3077" height="2.49991" fill="#3FDD62"/>
<rect x="9.23071" y="14.999" width="2.3077" height="2.49991" fill="#3FDD62"/>
<rect x="4.61523" y="5" width="2.3077" height="2.49991" fill="#3FDD62"/>
<rect x="53.0769" y="14.999" width="2.3077" height="2.49991" fill="#3FDD62"/>
<rect x="53.0769" y="12.5" width="2.3077" height="2.49991" fill="#3FDD62"/>
<rect x="53.0769" y="9.99902" width="2.3077" height="2.49991" fill="#3FDD62"/>
<rect x="53.0769" y="7.49902" width="2.3077" height="2.49991" fill="#3FDD62"/>
<rect x="50.7693" y="14.999" width="2.3077" height="2.49991" fill="#3FDD62"/>
<rect x="50.7693" y="12.5" width="2.3077" height="2.49991" fill="#3FDD62"/>
<rect x="48.4614" y="9.99902" width="2.3077" height="2.49991" fill="#3FDD62"/>
<rect x="48.4614" y="12.5" width="2.3077" height="2.49991" fill="#3FDD62"/>
<rect x="50.7693" y="9.99902" width="2.3077" height="2.49991" fill="#3FDD62"/>
<rect x="50.7693" y="5" width="2.3077" height="2.49991" fill="#3FDD62"/>
<rect x="50.7693" y="7.49902" width="2.3077" height="2.49991" fill="#3FDD62"/>
<rect x="46.1538" y="14.999" width="2.3077" height="2.49991" fill="#3FDD62"/>
<rect x="46.1538" y="12.5" width="2.3077" height="2.49991" fill="#3FDD62"/>
<rect x="48.4614" y="14.999" width="2.3077" height="2.49991" fill="#3FDD62"/>
<rect x="46.1538" y="9.99902" width="2.3077" height="2.49991" fill="#3FDD62"/>
<rect x="46.1538" y="7.49902" width="2.3077" height="2.49991" fill="#3FDD62"/>
<rect x="48.4614" y="5" width="2.3077" height="2.49991" fill="#3FDD62"/>
<rect x="48.4614" y="7.49902" width="2.3077" height="2.49991" fill="#3FDD62"/>
<rect x="23.0769" y="14.999" width="2.3077" height="2.49991" fill="#3FDD62"/>
<rect x="20.7693" y="14.999" width="2.3077" height="2.49991" fill="#3FDD62"/>
<rect x="23.0769" y="12.5" width="2.3077" height="2.49991" fill="#3FDD62"/>
<rect x="20.7693" y="12.5" width="2.3077" height="2.49991" fill="#3FDD62"/>
<rect x="23.0769" y="9.99902" width="2.3077" height="2.49991" fill="#3FDD62"/>
<rect x="20.7693" y="9.99902" width="2.3077" height="2.49991" fill="#3FDD62"/>
<rect x="23.0769" y="7.49902" width="2.3077" height="2.49991" fill="#3FDD62"/>
<rect x="20.7693" y="7.49902" width="2.3077" height="2.49991" fill="#3FDD62"/>
<rect x="23.0769" y="5" width="2.3077" height="2.49991" fill="#3FDD62"/>
<rect x="18.4615" y="14.999" width="2.3077" height="2.49991" fill="#3FDD62"/>
<rect x="18.4615" y="12.5" width="2.3077" height="2.49991" fill="#3FDD62"/>
<rect x="18.4615" y="9.99902" width="2.3077" height="2.49991" fill="#3FDD62"/>
<rect x="18.4615" y="7.49902" width="2.3077" height="2.49991" fill="#3FDD62"/>
<rect x="20.7693" y="5" width="2.3077" height="2.49991" fill="#3FDD62"/>
<rect x="18.4615" y="5" width="2.3077" height="2.49991" fill="#3FDD62"/>
<rect x="53.0769" y="5" width="2.3077" height="2.49991" fill="#3FDD62"/>
<rect x="16.1538" y="14.999" width="2.3077" height="2.49991" fill="#3FDD62"/>
<rect x="16.1538" y="12.5" width="2.3077" height="2.49991" fill="#3FDD62"/>
<rect x="16.1538" y="9.99902" width="2.3077" height="2.49991" fill="#3FDD62"/>
<rect x="16.1538" y="7.49902" width="2.3077" height="2.49991" fill="#3FDD62"/>
<rect x="16.1538" y="5" width="2.3077" height="2.49991" fill="#3FDD62"/>
<rect x="25.3848" y="14.999" width="2.3077" height="2.49991" fill="#3FDD62"/>
<rect x="27.6923" y="14.999" width="2.3077" height="2.49991" fill="#3FDD62"/>
<rect x="25.3848" y="12.5" width="2.3077" height="2.49991" fill="#3FDD62"/>
<rect x="27.6923" y="12.5" width="2.3077" height="2.49991" fill="#3FDD62"/>
<rect x="25.3848" y="9.99902" width="2.3077" height="2.49991" fill="#3FDD62"/>
<rect x="27.6923" y="9.99902" width="2.3077" height="2.49991" fill="#3FDD62"/>
<rect x="25.3848" y="7.49902" width="2.3077" height="2.49991" fill="#3FDD62"/>
<rect x="27.6923" y="7.49902" width="2.3077" height="2.49991" fill="#3FDD62"/>
<rect x="25.3848" y="5" width="2.3077" height="2.49991" fill="#3FDD62"/>
<rect x="30" y="5" width="2.3077" height="2.49991" fill="#3FDD62"/>
<rect x="32.3077" y="5" width="2.3077" height="2.49991" fill="#3FDD62"/>
<rect x="32.3077" y="7.49902" width="2.3077" height="2.49991" fill="#3FDD62"/>
<rect x="32.3077" y="9.99902" width="2.3077" height="2.49991" fill="#3FDD62"/>
<rect x="32.3077" y="12.5" width="2.3077" height="2.49991" fill="#3FDD62"/>
<rect x="41.5386" y="14.999" width="2.3077" height="2.49991" fill="#3FDD62"/>
<rect x="32.3077" y="14.999" width="2.3077" height="2.49991" fill="#3FDD62"/>
<rect x="30" y="12.5" width="2.3077" height="2.49991" fill="#3FDD62"/>
<rect x="27.6923" y="5" width="2.3077" height="2.49991" fill="#3FDD62"/>
<rect x="34.6154" y="14.999" width="2.3077" height="2.49991" fill="#3FDD62"/>
<rect x="34.6154" y="12.5" width="2.3077" height="2.49991" fill="#3FDD62"/>
<rect x="34.6154" y="9.99902" width="2.3077" height="2.49991" fill="#3FDD62"/>
<rect x="34.6154" y="7.49902" width="2.3077" height="2.49991" fill="#3FDD62"/>
<rect x="36.9231" y="7.49902" width="2.3077" height="2.49991" fill="#3FDD62"/>
<rect x="36.9231" y="9.99902" width="2.3077" height="2.49991" fill="#3FDD62"/>
<rect x="36.9231" y="12.5" width="2.3077" height="2.49991" fill="#3FDD62"/>
<rect x="36.9231" y="14.999" width="2.3077" height="2.49991" fill="#3FDD62"/>
<rect x="36.9231" y="5" width="2.3077" height="2.49991" fill="#3FDD62"/>
<rect x="39.2308" y="5" width="2.3077" height="2.49991" fill="#3FDD62"/>
<rect x="41.5386" y="5" width="2.3077" height="2.49991" fill="#3FDD62"/>
<rect x="41.5386" y="7.49902" width="2.3077" height="2.49991" fill="#3FDD62"/>
<rect x="41.5386" y="12.5" width="2.3077" height="2.49991" fill="#3FDD62"/>
<rect x="46.1538" y="5" width="2.3077" height="2.49991" fill="#3FDD62"/>
<rect x="39.2308" y="9.99902" width="2.3077" height="2.49991" fill="#3FDD62"/>
<rect x="34.6154" y="5" width="2.3077" height="2.49991" fill="#3FDD62"/>
<rect x="39.2308" y="7.49902" width="2.3077" height="2.49991" fill="#3FDD62"/>
<rect x="39.2308" y="12.5" width="2.3077" height="2.49991" fill="#3FDD62"/>
<rect x="39.2308" y="14.999" width="2.3077" height="2.49991" fill="#3FDD62"/>
<rect x="43.8462" y="14.999" width="2.3077" height="2.49991" fill="#3FDD62"/>
<rect x="41.5386" y="9.99902" width="2.3077" height="2.49991" fill="#3FDD62"/>
<rect x="43.8462" y="9.99902" width="2.3077" height="2.49991" fill="#3FDD62"/>
<rect x="43.8462" y="12.5" width="2.3077" height="2.49991" fill="#3FDD62"/>
<rect x="43.8462" y="7.49902" width="2.3077" height="2.49991" fill="#3FDD62"/>
<rect x="43.8462" y="5" width="2.3077" height="2.49991" fill="#3FDD62"/>
<rect x="55.3846" y="14.999" width="2.3077" height="2.49991" fill="#3FDD62"/>
<rect x="55.3846" y="12.5" width="2.3077" height="2.49991" fill="#3FDD62"/>
<rect x="55.3846" y="9.99902" width="2.3077" height="2.49991" fill="#3FDD62"/>
<rect x="55.3846" y="7.49902" width="2.3077" height="2.49991" fill="#3FDD62"/>
<rect x="55.3846" y="5" width="2.3077" height="2.49991" fill="#3FDD62"/>
<rect x="11.5385" y="12.5" width="2.3077" height="2.49991" fill="#3FDD62"/>
<rect x="9.23071" y="2.49902" width="2.3077" height="2.49991" fill="#3FDD62"/>
<rect x="11.5385" y="2.49902" width="2.3077" height="2.49991" fill="#3FDD62"/>
<rect x="13.8462" y="2.49902" width="2.3077" height="2.49991" fill="#3FDD62"/>
<rect x="16.1538" y="2.49902" width="2.3077" height="2.49991" fill="#3FDD62"/>
<rect x="18.4615" y="2.49902" width="2.3077" height="2.49991" fill="#3FDD62"/>
<rect x="20.7693" y="2.49902" width="2.3077" height="2.49991" fill="#3FDD62"/>
<rect x="23.0769" y="2.49902" width="2.3077" height="2.49991" fill="#3FDD62"/>
<rect x="25.3848" y="2.49902" width="2.3077" height="2.49991" fill="#3FDD62"/>
<rect x="27.6923" y="2.49902" width="2.3077" height="2.49991" fill="#3FDD62"/>
<rect x="30" y="2.49902" width="2.3077" height="2.49991" fill="#3FDD62"/>
<rect x="32.3077" y="2.49902" width="2.3077" height="2.49991" fill="#3FDD62"/>
<rect x="32.3077" y="2.49902" width="2.3077" height="2.49991" fill="#3FDD62"/>
<rect x="34.6154" y="2.49902" width="2.3077" height="2.49991" fill="#3FDD62"/>
<rect x="36.9231" y="2.49902" width="2.3077" height="2.49991" fill="#3FDD62"/>
<rect x="39.2308" y="2.49902" width="2.3077" height="2.49991" fill="#3FDD62"/>
<rect x="41.5386" y="2.49902" width="2.3077" height="2.49991" fill="#3FDD62"/>
<rect x="43.8462" y="2.49902" width="2.3077" height="2.49991" fill="#3FDD62"/>
<rect x="46.1538" y="2.49902" width="2.3077" height="2.49991" fill="#3FDD62"/>
<rect x="48.4614" y="2.49902" width="2.3077" height="2.49991" fill="#3FDD62"/>
<rect x="50.7693" y="2.49902" width="2.3077" height="2.49991" fill="#3FDD62"/>
<rect x="53.0769" y="2.49902" width="2.3077" height="2.49991" fill="#3FDD62"/>
<rect x="9.23071" y="17.499" width="2.3077" height="2.49991" fill="#3FDD62"/>
<rect x="11.5385" y="17.499" width="2.3077" height="2.49991" fill="#3FDD62"/>
<rect x="13.8462" y="17.499" width="2.3077" height="2.49991" fill="#3FDD62"/>
<rect x="16.1538" y="17.499" width="2.3077" height="2.49991" fill="#3FDD62"/>
<rect x="18.4615" y="17.499" width="2.3077" height="2.49991" fill="#3FDD62"/>
<rect x="20.7693" y="17.499" width="2.3077" height="2.49991" fill="#3FDD62"/>
<rect x="23.0769" y="17.499" width="2.3077" height="2.49991" fill="#3FDD62"/>
<rect x="25.3848" y="17.499" width="2.3077" height="2.49991" fill="#3FDD62"/>
<rect x="27.6923" y="17.499" width="2.3077" height="2.49991" fill="#3FDD62"/>
<rect x="30" y="17.499" width="2.3077" height="2.49991" fill="#3FDD62"/>
<rect x="32.3077" y="17.499" width="2.3077" height="2.49991" fill="#3FDD62"/>
<rect x="32.3077" y="17.499" width="2.3077" height="2.49991" fill="#3FDD62"/>
<rect x="34.6154" y="17.499" width="2.3077" height="2.49991" fill="#3FDD62"/>
<rect x="36.9231" y="17.499" width="2.3077" height="2.49991" fill="#3FDD62"/>
<rect x="39.2308" y="17.499" width="2.3077" height="2.49991" fill="#3FDD62"/>
<rect x="41.5386" y="17.499" width="2.3077" height="2.49991" fill="#3FDD62"/>
<rect x="43.8462" y="17.499" width="2.3077" height="2.49991" fill="#3FDD62"/>
<rect x="46.1538" y="17.499" width="2.3077" height="2.49991" fill="#3FDD62"/>
<rect x="48.4614" y="17.499" width="2.3077" height="2.49991" fill="#3FDD62"/>
<rect x="50.7693" y="17.499" width="2.3077" height="2.49991" fill="#3FDD62"/>
<rect x="53.0769" y="17.499" width="2.3077" height="2.49991" fill="#3FDD62"/>
<rect x="2.30762" y="2.66602" width="2.3077" height="2.49991" fill="#18100D"/>
<rect y="5.16602" width="2.3077" height="2.49991" fill="#18100D"/>
<rect y="7.66699" width="2.3077" height="2.49991" fill="#18100D"/>
<rect y="10.166" width="2.3077" height="2.49991" fill="#18100D"/>
<rect y="12.666" width="2.3077" height="2.49991" fill="#18100D"/>
<rect y="14.999" width="2.3077" height="2.49991" fill="#18100D"/>
<rect x="2.30762" y="17.499" width="2.3077" height="2.49991" fill="#18100D"/>
<rect x="4.61523" y="20" width="2.3077" height="2.49991" fill="#18100D"/>
<rect x="6.92285" y="22.5" width="2.3077" height="2.49991" fill="#18100D"/>
<rect x="4.61523" y="22.5" width="2.3077" height="2.49991" fill="#18100D"/>
<rect x="2.30762" y="20" width="2.3077" height="2.49991" fill="#18100D"/>
<rect y="17.499" width="2.3077" height="2.49991" fill="#18100D"/>
<rect x="9.23071" y="22.5" width="2.3077" height="2.49991" fill="#18100D"/>
<rect x="11.5385" y="22.5" width="2.3077" height="2.49991" fill="#18100D"/>
<rect x="13.8462" y="22.5" width="2.3077" height="2.49991" fill="#18100D"/>
<rect x="16.1538" y="22.5" width="2.3077" height="2.49991" fill="#18100D"/>
<rect x="18.4615" y="22.5" width="2.3077" height="2.49991" fill="#18100D"/>
<rect x="20.7693" y="22.5" width="2.3077" height="2.49991" fill="#18100D"/>
<rect x="23.0769" y="22.5" width="2.3077" height="2.49991" fill="#18100D"/>
<rect x="25.3848" y="22.5" width="2.3077" height="2.49991" fill="#18100D"/>
<rect x="27.6923" y="22.5" width="2.3077" height="2.49991" fill="#18100D"/>
<rect x="30" y="22.5" width="2.3077" height="2.49991" fill="#18100D"/>
<rect x="32.3077" y="22.5" width="2.3077" height="2.49991" fill="#18100D"/>
<rect x="34.6154" y="22.5" width="2.3077" height="2.49991" fill="#18100D"/>
<rect x="36.9231" y="22.5" width="2.3077" height="2.49991" fill="#18100D"/>
<rect x="39.2308" y="22.5" width="2.3077" height="2.49991" fill="#18100D"/>
<rect x="41.5386" y="22.5" width="2.3077" height="2.49991" fill="#18100D"/>
<rect x="43.8462" y="22.5" width="2.3077" height="2.49991" fill="#18100D"/>
<rect x="46.1538" y="22.5" width="2.3077" height="2.49991" fill="#18100D"/>
<rect x="48.4614" y="22.5" width="2.3077" height="2.49991" fill="#18100D"/>
<rect x="50.7693" y="22.5" width="2.3077" height="2.49991" fill="#18100D"/>
<rect x="53.0769" y="22.5" width="2.3077" height="2.49991" fill="#18100D"/>
<rect x="55.3846" y="20" width="2.3077" height="2.49991" fill="#18100D"/>
<rect x="57.6923" y="17.499" width="2.3077" height="2.49991" fill="#18100D"/>
<rect x="4.61523" y="0.166992" width="2.3077" height="2.49991" fill="#18100D"/>
<mask id="path-248-outside-1_948_2832" maskUnits="userSpaceOnUse" x="18.2889" y="4.11133" width="24" height="13" fill="black">
<rect fill="white" x="18.2889" y="4.11133" width="24" height="13"/>
<path d="M23.8279 10.3613H23.0779V9.61133H21.5779V10.3613H20.8279V11.1113H19.3279V10.3613H20.0779V9.61133H20.8279V8.86133H21.5779V5.86133H23.0779V8.86133H23.8279V9.61133H24.5779V10.3613H25.3279V11.1113H23.8279V10.3613ZM27.5779 11.1113H26.0779V5.86133H27.5779V8.11133H28.3279V5.86133H29.8279V11.1113H28.3279V8.86133H27.5779V11.1113ZM20.0779 12.6113H21.5779V11.8613H28.3279V12.6113H29.8279V14.8613H28.3279V15.6113H21.5779V14.8613H20.0779V12.6113ZM22.3279 13.3613H21.5779V14.1113H22.3279V14.8613H27.5779V14.1113H28.3279V13.3613H27.5779V12.6113H22.3279V13.3613ZM35.8279 10.3613H35.0779V9.61133H33.5779V10.3613H32.8279V11.1113H31.3279V10.3613H32.0779V9.61133H32.8279V8.86133H33.5779V5.86133H35.0779V8.86133H35.8279V9.61133H36.5779V10.3613H37.3279V11.1113H35.8279V10.3613ZM41.0779 11.1113H39.5779V8.86133H37.3279V8.11133H39.5779V5.86133H41.0779V11.1113ZM32.0779 12.6113H33.5779V11.8613H39.5779V12.6113H41.0779V14.8613H39.5779V15.6113H33.5779V14.8613H32.0779V12.6113ZM34.3279 13.3613H33.5779V14.1113H34.3279V14.8613H38.8279V14.1113H39.5779V13.3613H38.8279V12.6113H34.3279V13.3613Z"/>
</mask>
<path d="M23.8279 10.3613H23.0779V9.61133H21.5779V10.3613H20.8279V11.1113H19.3279V10.3613H20.0779V9.61133H20.8279V8.86133H21.5779V5.86133H23.0779V8.86133H23.8279V9.61133H24.5779V10.3613H25.3279V11.1113H23.8279V10.3613ZM27.5779 11.1113H26.0779V5.86133H27.5779V8.11133H28.3279V5.86133H29.8279V11.1113H28.3279V8.86133H27.5779V11.1113ZM20.0779 12.6113H21.5779V11.8613H28.3279V12.6113H29.8279V14.8613H28.3279V15.6113H21.5779V14.8613H20.0779V12.6113ZM22.3279 13.3613H21.5779V14.1113H22.3279V14.8613H27.5779V14.1113H28.3279V13.3613H27.5779V12.6113H22.3279V13.3613ZM35.8279 10.3613H35.0779V9.61133H33.5779V10.3613H32.8279V11.1113H31.3279V10.3613H32.0779V9.61133H32.8279V8.86133H33.5779V5.86133H35.0779V8.86133H35.8279V9.61133H36.5779V10.3613H37.3279V11.1113H35.8279V10.3613ZM41.0779 11.1113H39.5779V8.86133H37.3279V8.11133H39.5779V5.86133H41.0779V11.1113ZM32.0779 12.6113H33.5779V11.8613H39.5779V12.6113H41.0779V14.8613H39.5779V15.6113H33.5779V14.8613H32.0779V12.6113ZM34.3279 13.3613H33.5779V14.1113H34.3279V14.8613H38.8279V14.1113H39.5779V13.3613H38.8279V12.6113H34.3279V13.3613Z" fill="black"/>
<path d="M23.8279 10.3613H24.8279V9.36133H23.8279V10.3613ZM23.0779 10.3613H22.0779V11.3613H23.0779V10.3613ZM23.0779 9.61133H24.0779V8.61133H23.0779V9.61133ZM21.5779 9.61133V8.61133H20.5779V9.61133H21.5779ZM21.5779 10.3613V11.3613H22.5779V10.3613H21.5779ZM20.8279 10.3613V9.36133H19.8279V10.3613H20.8279ZM20.8279 11.1113V12.1113H21.8279V11.1113H20.8279ZM19.3279 11.1113H18.3279V12.1113H19.3279V11.1113ZM19.3279 10.3613V9.36133H18.3279V10.3613H19.3279ZM20.0779 10.3613V11.3613H21.0779V10.3613H20.0779ZM20.0779 9.61133V8.61133H19.0779V9.61133H20.0779ZM20.8279 9.61133V10.6113H21.8279V9.61133H20.8279ZM20.8279 8.86133V7.86133H19.8279V8.86133H20.8279ZM21.5779 8.86133V9.86133H22.5779V8.86133H21.5779ZM21.5779 5.86133V4.86133H20.5779V5.86133H21.5779ZM23.0779 5.86133H24.0779V4.86133H23.0779V5.86133ZM23.0779 8.86133H22.0779V9.86133H23.0779V8.86133ZM23.8279 8.86133H24.8279V7.86133H23.8279V8.86133ZM23.8279 9.61133H22.8279V10.6113H23.8279V9.61133ZM24.5779 9.61133H25.5779V8.61133H24.5779V9.61133ZM24.5779 10.3613H23.5779V11.3613H24.5779V10.3613ZM25.3279 10.3613H26.3279V9.36133H25.3279V10.3613ZM25.3279 11.1113V12.1113H26.3279V11.1113H25.3279ZM23.8279 11.1113H22.8279V12.1113H23.8279V11.1113ZM27.5779 11.1113V12.1113H28.5779V11.1113H27.5779ZM26.0779 11.1113H25.0779V12.1113H26.0779V11.1113ZM26.0779 5.86133V4.86133H25.0779V5.86133H26.0779ZM27.5779 5.86133H28.5779V4.86133H27.5779V5.86133ZM27.5779 8.11133H26.5779V9.11133H27.5779V8.11133ZM28.3279 8.11133V9.11133H29.3279V8.11133H28.3279ZM28.3279 5.86133V4.86133H27.3279V5.86133H28.3279ZM29.8279 5.86133H30.8279V4.86133H29.8279V5.86133ZM29.8279 11.1113V12.1113H30.8279V11.1113H29.8279ZM28.3279 11.1113H27.3279V12.1113H28.3279V11.1113ZM28.3279 8.86133H29.3279V7.86133H28.3279V8.86133ZM27.5779 8.86133V7.86133H26.5779V8.86133H27.5779ZM20.0779 12.6113V11.6113H19.0779V12.6113H20.0779ZM21.5779 12.6113V13.6113H22.5779V12.6113H21.5779ZM21.5779 11.8613V10.8613H20.5779V11.8613H21.5779ZM28.3279 11.8613H29.3279V10.8613H28.3279V11.8613ZM28.3279 12.6113H27.3279V13.6113H28.3279V12.6113ZM29.8279 12.6113H30.8279V11.6113H29.8279V12.6113ZM29.8279 14.8613V15.8613H30.8279V14.8613H29.8279ZM28.3279 14.8613V13.8613H27.3279V14.8613H28.3279ZM28.3279 15.6113V16.6113H29.3279V15.6113H28.3279ZM21.5779 15.6113H20.5779V16.6113H21.5779V15.6113ZM21.5779 14.8613H22.5779V13.8613H21.5779V14.8613ZM20.0779 14.8613H19.0779V15.8613H20.0779V14.8613ZM22.3279 13.3613V14.3613H23.3279V13.3613H22.3279ZM21.5779 13.3613V12.3613H20.5779V13.3613H21.5779ZM21.5779 14.1113H20.5779V15.1113H21.5779V14.1113ZM22.3279 14.1113H23.3279V13.1113H22.3279V14.1113ZM22.3279 14.8613H21.3279V15.8613H22.3279V14.8613ZM27.5779 14.8613V15.8613H28.5779V14.8613H27.5779ZM27.5779 14.1113V13.1113H26.5779V14.1113H27.5779ZM28.3279 14.1113V15.1113H29.3279V14.1113H28.3279ZM28.3279 13.3613H29.3279V12.3613H28.3279V13.3613ZM27.5779 13.3613H26.5779V14.3613H27.5779V13.3613ZM27.5779 12.6113H28.5779V11.6113H27.5779V12.6113ZM22.3279 12.6113V11.6113H21.3279V12.6113H22.3279ZM23.8279 9.36133H23.0779V11.3613H23.8279V9.36133ZM24.0779 10.3613V9.61133H22.0779V10.3613H24.0779ZM23.0779 8.61133H21.5779V10.6113H23.0779V8.61133ZM20.5779 9.61133V10.3613H22.5779V9.61133H20.5779ZM21.5779 9.36133H20.8279V11.3613H21.5779V9.36133ZM19.8279 10.3613V11.1113H21.8279V10.3613H19.8279ZM20.8279 10.1113H19.3279V12.1113H20.8279V10.1113ZM20.3279 11.1113V10.3613H18.3279V11.1113H20.3279ZM19.3279 11.3613H20.0779V9.36133H19.3279V11.3613ZM21.0779 10.3613V9.61133H19.0779V10.3613H21.0779ZM20.0779 10.6113H20.8279V8.61133H20.0779V10.6113ZM21.8279 9.61133V8.86133H19.8279V9.61133H21.8279ZM20.8279 9.86133H21.5779V7.86133H20.8279V9.86133ZM22.5779 8.86133V5.86133H20.5779V8.86133H22.5779ZM21.5779 6.86133H23.0779V4.86133H21.5779V6.86133ZM22.0779 5.86133V8.86133H24.0779V5.86133H22.0779ZM23.0779 9.86133H23.8279V7.86133H23.0779V9.86133ZM22.8279 8.86133V9.61133H24.8279V8.86133H22.8279ZM23.8279 10.6113H24.5779V8.61133H23.8279V10.6113ZM23.5779 9.61133V10.3613H25.5779V9.61133H23.5779ZM24.5779 11.3613H25.3279V9.36133H24.5779V11.3613ZM24.3279 10.3613V11.1113H26.3279V10.3613H24.3279ZM25.3279 10.1113H23.8279V12.1113H25.3279V10.1113ZM24.8279 11.1113V10.3613H22.8279V11.1113H24.8279ZM27.5779 10.1113H26.0779V12.1113H27.5779V10.1113ZM27.0779 11.1113V5.86133H25.0779V11.1113H27.0779ZM26.0779 6.86133H27.5779V4.86133H26.0779V6.86133ZM26.5779 5.86133V8.11133H28.5779V5.86133H26.5779ZM27.5779 9.11133H28.3279V7.11133H27.5779V9.11133ZM29.3279 8.11133V5.86133H27.3279V8.11133H29.3279ZM28.3279 6.86133H29.8279V4.86133H28.3279V6.86133ZM28.8279 5.86133V11.1113H30.8279V5.86133H28.8279ZM29.8279 10.1113H28.3279V12.1113H29.8279V10.1113ZM29.3279 11.1113V8.86133H27.3279V11.1113H29.3279ZM28.3279 7.86133H27.5779V9.86133H28.3279V7.86133ZM26.5779 8.86133V11.1113H28.5779V8.86133H26.5779ZM20.0779 13.6113H21.5779V11.6113H20.0779V13.6113ZM22.5779 12.6113V11.8613H20.5779V12.6113H22.5779ZM21.5779 12.8613H28.3279V10.8613H21.5779V12.8613ZM27.3279 11.8613V12.6113H29.3279V11.8613H27.3279ZM28.3279 13.6113H29.8279V11.6113H28.3279V13.6113ZM28.8279 12.6113V14.8613H30.8279V12.6113H28.8279ZM29.8279 13.8613H28.3279V15.8613H29.8279V13.8613ZM27.3279 14.8613V15.6113H29.3279V14.8613H27.3279ZM28.3279 14.6113H21.5779V16.6113H28.3279V14.6113ZM22.5779 15.6113V14.8613H20.5779V15.6113H22.5779ZM21.5779 13.8613H20.0779V15.8613H21.5779V13.8613ZM21.0779 14.8613V12.6113H19.0779V14.8613H21.0779ZM22.3279 12.3613H21.5779V14.3613H22.3279V12.3613ZM20.5779 13.3613V14.1113H22.5779V13.3613H20.5779ZM21.5779 15.1113H22.3279V13.1113H21.5779V15.1113ZM21.3279 14.1113V14.8613H23.3279V14.1113H21.3279ZM22.3279 15.8613H27.5779V13.8613H22.3279V15.8613ZM28.5779 14.8613V14.1113H26.5779V14.8613H28.5779ZM27.5779 15.1113H28.3279V13.1113H27.5779V15.1113ZM29.3279 14.1113V13.3613H27.3279V14.1113H29.3279ZM28.3279 12.3613H27.5779V14.3613H28.3279V12.3613ZM28.5779 13.3613V12.6113H26.5779V13.3613H28.5779ZM27.5779 11.6113H22.3279V13.6113H27.5779V11.6113ZM21.3279 12.6113V13.3613H23.3279V12.6113H21.3279ZM35.8279 10.3613H36.8279V9.36133H35.8279V10.3613ZM35.0779 10.3613H34.0779V11.3613H35.0779V10.3613ZM35.0779 9.61133H36.0779V8.61133H35.0779V9.61133ZM33.5779 9.61133V8.61133H32.5779V9.61133H33.5779ZM33.5779 10.3613V11.3613H34.5779V10.3613H33.5779ZM32.8279 10.3613V9.36133H31.8279V10.3613H32.8279ZM32.8279 11.1113V12.1113H33.8279V11.1113H32.8279ZM31.3279 11.1113H30.3279V12.1113H31.3279V11.1113ZM31.3279 10.3613V9.36133H30.3279V10.3613H31.3279ZM32.0779 10.3613V11.3613H33.0779V10.3613H32.0779ZM32.0779 9.61133V8.61133H31.0779V9.61133H32.0779ZM32.8279 9.61133V10.6113H33.8279V9.61133H32.8279ZM32.8279 8.86133V7.86133H31.8279V8.86133H32.8279ZM33.5779 8.86133V9.86133H34.5779V8.86133H33.5779ZM33.5779 5.86133V4.86133H32.5779V5.86133H33.5779ZM35.0779 5.86133H36.0779V4.86133H35.0779V5.86133ZM35.0779 8.86133H34.0779V9.86133H35.0779V8.86133ZM35.8279 8.86133H36.8279V7.86133H35.8279V8.86133ZM35.8279 9.61133H34.8279V10.6113H35.8279V9.61133ZM36.5779 9.61133H37.5779V8.61133H36.5779V9.61133ZM36.5779 10.3613H35.5779V11.3613H36.5779V10.3613ZM37.3279 10.3613H38.3279V9.36133H37.3279V10.3613ZM37.3279 11.1113V12.1113H38.3279V11.1113H37.3279ZM35.8279 11.1113H34.8279V12.1113H35.8279V11.1113ZM41.0779 11.1113V12.1113H42.0779V11.1113H41.0779ZM39.5779 11.1113H38.5779V12.1113H39.5779V11.1113ZM39.5779 8.86133H40.5779V7.86133H39.5779V8.86133ZM37.3279 8.86133H36.3279V9.86133H37.3279V8.86133ZM37.3279 8.11133V7.11133H36.3279V8.11133H37.3279ZM39.5779 8.11133V9.11133H40.5779V8.11133H39.5779ZM39.5779 5.86133V4.86133H38.5779V5.86133H39.5779ZM41.0779 5.86133H42.0779V4.86133H41.0779V5.86133ZM32.0779 12.6113V11.6113H31.0779V12.6113H32.0779ZM33.5779 12.6113V13.6113H34.5779V12.6113H33.5779ZM33.5779 11.8613V10.8613H32.5779V11.8613H33.5779ZM39.5779 11.8613H40.5779V10.8613H39.5779V11.8613ZM39.5779 12.6113H38.5779V13.6113H39.5779V12.6113ZM41.0779 12.6113H42.0779V11.6113H41.0779V12.6113ZM41.0779 14.8613V15.8613H42.0779V14.8613H41.0779ZM39.5779 14.8613V13.8613H38.5779V14.8613H39.5779ZM39.5779 15.6113V16.6113H40.5779V15.6113H39.5779ZM33.5779 15.6113H32.5779V16.6113H33.5779V15.6113ZM33.5779 14.8613H34.5779V13.8613H33.5779V14.8613ZM32.0779 14.8613H31.0779V15.8613H32.0779V14.8613ZM34.3279 13.3613V14.3613H35.3279V13.3613H34.3279ZM33.5779 13.3613V12.3613H32.5779V13.3613H33.5779ZM33.5779 14.1113H32.5779V15.1113H33.5779V14.1113ZM34.3279 14.1113H35.3279V13.1113H34.3279V14.1113ZM34.3279 14.8613H33.3279V15.8613H34.3279V14.8613ZM38.8279 14.8613V15.8613H39.8279V14.8613H38.8279ZM38.8279 14.1113V13.1113H37.8279V14.1113H38.8279ZM39.5779 14.1113V15.1113H40.5779V14.1113H39.5779ZM39.5779 13.3613H40.5779V12.3613H39.5779V13.3613ZM38.8279 13.3613H37.8279V14.3613H38.8279V13.3613ZM38.8279 12.6113H39.8279V11.6113H38.8279V12.6113ZM34.3279 12.6113V11.6113H33.3279V12.6113H34.3279ZM35.8279 9.36133H35.0779V11.3613H35.8279V9.36133ZM36.0779 10.3613V9.61133H34.0779V10.3613H36.0779ZM35.0779 8.61133H33.5779V10.6113H35.0779V8.61133ZM32.5779 9.61133V10.3613H34.5779V9.61133H32.5779ZM33.5779 9.36133H32.8279V11.3613H33.5779V9.36133ZM31.8279 10.3613V11.1113H33.8279V10.3613H31.8279ZM32.8279 10.1113H31.3279V12.1113H32.8279V10.1113ZM32.3279 11.1113V10.3613H30.3279V11.1113H32.3279ZM31.3279 11.3613H32.0779V9.36133H31.3279V11.3613ZM33.0779 10.3613V9.61133H31.0779V10.3613H33.0779ZM32.0779 10.6113H32.8279V8.61133H32.0779V10.6113ZM33.8279 9.61133V8.86133H31.8279V9.61133H33.8279ZM32.8279 9.86133H33.5779V7.86133H32.8279V9.86133ZM34.5779 8.86133V5.86133H32.5779V8.86133H34.5779ZM33.5779 6.86133H35.0779V4.86133H33.5779V6.86133ZM34.0779 5.86133V8.86133H36.0779V5.86133H34.0779ZM35.0779 9.86133H35.8279V7.86133H35.0779V9.86133ZM34.8279 8.86133V9.61133H36.8279V8.86133H34.8279ZM35.8279 10.6113H36.5779V8.61133H35.8279V10.6113ZM35.5779 9.61133V10.3613H37.5779V9.61133H35.5779ZM36.5779 11.3613H37.3279V9.36133H36.5779V11.3613ZM36.3279 10.3613V11.1113H38.3279V10.3613H36.3279ZM37.3279 10.1113H35.8279V12.1113H37.3279V10.1113ZM36.8279 11.1113V10.3613H34.8279V11.1113H36.8279ZM41.0779 10.1113H39.5779V12.1113H41.0779V10.1113ZM40.5779 11.1113V8.86133H38.5779V11.1113H40.5779ZM39.5779 7.86133H37.3279V9.86133H39.5779V7.86133ZM38.3279 8.86133V8.11133H36.3279V8.86133H38.3279ZM37.3279 9.11133H39.5779V7.11133H37.3279V9.11133ZM40.5779 8.11133V5.86133H38.5779V8.11133H40.5779ZM39.5779 6.86133H41.0779V4.86133H39.5779V6.86133ZM40.0779 5.86133V11.1113H42.0779V5.86133H40.0779ZM32.0779 13.6113H33.5779V11.6113H32.0779V13.6113ZM34.5779 12.6113V11.8613H32.5779V12.6113H34.5779ZM33.5779 12.8613H39.5779V10.8613H33.5779V12.8613ZM38.5779 11.8613V12.6113H40.5779V11.8613H38.5779ZM39.5779 13.6113H41.0779V11.6113H39.5779V13.6113ZM40.0779 12.6113V14.8613H42.0779V12.6113H40.0779ZM41.0779 13.8613H39.5779V15.8613H41.0779V13.8613ZM38.5779 14.8613V15.6113H40.5779V14.8613H38.5779ZM39.5779 14.6113H33.5779V16.6113H39.5779V14.6113ZM34.5779 15.6113V14.8613H32.5779V15.6113H34.5779ZM33.5779 13.8613H32.0779V15.8613H33.5779V13.8613ZM33.0779 14.8613V12.6113H31.0779V14.8613H33.0779ZM34.3279 12.3613H33.5779V14.3613H34.3279V12.3613ZM32.5779 13.3613V14.1113H34.5779V13.3613H32.5779ZM33.5779 15.1113H34.3279V13.1113H33.5779V15.1113ZM33.3279 14.1113V14.8613H35.3279V14.1113H33.3279ZM34.3279 15.8613H38.8279V13.8613H34.3279V15.8613ZM39.8279 14.8613V14.1113H37.8279V14.8613H39.8279ZM38.8279 15.1113H39.5779V13.1113H38.8279V15.1113ZM40.5779 14.1113V13.3613H38.5779V14.1113H40.5779ZM39.5779 12.3613H38.8279V14.3613H39.5779V12.3613ZM39.8279 13.3613V12.6113H37.8279V13.3613H39.8279ZM38.8279 11.6113H34.3279V13.6113H38.8279V11.6113ZM33.3279 12.6113V13.3613H35.3279V12.6113H33.3279Z" fill="white" mask="url(#path-248-outside-1_948_2832)"/>
</svg>
