<svg width="129" height="40" viewBox="0 0 129 40" fill="none" xmlns="http://www.w3.org/2000/svg">
<rect x="29.8103" y="31.9995" width="4.25863" height="3.99999" fill="#C70740"/>
<rect x="34.0691" y="31.9995" width="4.25863" height="3.99999" fill="#C70740"/>
<rect x="38.3276" y="31.9995" width="4.25863" height="3.99999" fill="#C70740"/>
<rect x="42.5862" y="31.9995" width="4.25863" height="3.99999" fill="#C70740"/>
<rect x="46.8451" y="31.9995" width="4.25863" height="3.99999" fill="#C70740"/>
<rect x="51.1034" y="31.9995" width="4.25863" height="3.99999" fill="#C70740"/>
<rect x="55.3622" y="31.9995" width="4.25863" height="3.99999" fill="#C70740"/>
<rect x="59.6207" y="31.9995" width="4.25863" height="3.99999" fill="#C70740"/>
<rect x="63.8794" y="31.9995" width="4.25863" height="3.99999" fill="#C70740"/>
<rect x="68.1382" y="31.9995" width="4.25863" height="3.99999" fill="#C70740"/>
<rect x="72.3967" y="31.9995" width="4.25863" height="3.99999" fill="#C70740"/>
<rect x="76.6553" y="31.9995" width="4.25863" height="3.99999" fill="#C70740"/>
<rect x="80.9138" y="31.9995" width="4.25863" height="3.99999" fill="#C70740"/>
<rect x="85.1725" y="31.9995" width="4.25863" height="3.99999" fill="#C70740"/>
<rect x="89.431" y="31.9995" width="4.25863" height="3.99999" fill="#C70740"/>
<rect x="93.6898" y="31.9995" width="4.25863" height="3.99999" fill="#C70740"/>
<rect x="97.9484" y="31.9995" width="4.25863" height="3.99999" fill="#C70740"/>
<rect x="102.207" y="27.9995" width="4.25863" height="3.99999" fill="#C70740"/>
<rect x="106.466" y="24" width="4.25863" height="3.99999" fill="#C70740"/>
<rect x="106.466" y="19.9995" width="4.25863" height="3.99999" fill="#C70740"/>
<rect x="106.466" y="15.9995" width="4.25863" height="3.99999" fill="#C70740"/>
<rect x="106.466" y="11.9995" width="4.25863" height="3.99999" fill="#C70740"/>
<rect x="106.466" y="7.99951" width="4.25863" height="3.99999" fill="#C70740"/>
<rect x="102.207" y="4.00049" width="4.25863" height="3.99999" fill="#C70740"/>
<rect x="4.25854" y="7.99951" width="4.25863" height="3.99999" fill="#C70740"/>
<path d="M4.25854 11.9995H8.51718V15.9995H4.25854V11.9995Z" fill="#C70740"/>
<path d="M4.25854 15.9995H8.51718V19.9995H4.25854V15.9995Z" fill="#C70740"/>
<path d="M4.25854 19.9995H8.51718V23.9995H4.25854V19.9995Z" fill="#C70740"/>
<path d="M4.25854 23.9995H8.51718V27.9995H4.25854V23.9995Z" fill="#C70740"/>
<rect x="8.51721" y="4.00049" width="4.25863" height="3.99999" fill="#C70740"/>
<path d="M12.7759 0H17.0345V3.99999H12.7759V0Z" fill="#C70740"/>
<rect x="17.0345" width="4.25863" height="3.99999" fill="#C70740"/>
<rect x="17.0345" y="31.9995" width="4.25863" height="3.99999" fill="#C70740"/>
<rect x="21.2931" y="31.9995" width="4.25863" height="3.99999" fill="#C70740"/>
<rect x="12.7759" y="31.9995" width="4.25863" height="3.99999" fill="#C70740"/>
<rect x="8.51721" y="27.9995" width="4.25863" height="3.99999" fill="#C70740"/>
<rect x="25.5519" y="31.9995" width="4.25863" height="3.99999" fill="#C70740"/>
<rect x="29.8103" width="4.25863" height="3.99999" fill="#C70740"/>
<rect x="34.0691" width="4.25863" height="3.99999" fill="#C70740"/>
<rect x="38.3276" width="4.25863" height="3.99999" fill="#C70740"/>
<rect x="42.5862" width="4.25863" height="3.99999" fill="#C70740"/>
<rect x="46.8451" width="4.25863" height="3.99999" fill="#C70740"/>
<rect x="51.1034" width="4.25863" height="3.99999" fill="#C70740"/>
<rect x="55.3622" width="4.25863" height="3.99999" fill="#C70740"/>
<rect x="59.6207" width="4.25863" height="3.99999" fill="#C70740"/>
<rect x="63.8794" width="4.25863" height="3.99999" fill="#C70740"/>
<rect x="68.1382" width="4.25863" height="3.99999" fill="#C70740"/>
<rect x="72.3967" width="4.25863" height="3.99999" fill="#C70740"/>
<rect x="76.6553" width="4.25863" height="3.99999" fill="#C70740"/>
<rect x="80.9138" width="4.25863" height="3.99999" fill="#C70740"/>
<rect x="85.1725" width="4.25863" height="3.99999" fill="#C70740"/>
<rect x="89.431" width="4.25863" height="3.99999" fill="#C70740"/>
<rect x="93.6898" width="4.25863" height="3.99999" fill="#C70740"/>
<rect x="97.9484" width="4.25863" height="3.99999" fill="#C70740"/>
<rect x="25.5519" width="4.25863" height="3.99999" fill="#C70740"/>
<rect x="21.2931" width="4.25863" height="3.99999" fill="#C70740"/>
<rect x="21.2931" y="11.9995" width="4.25863" height="3.99999" fill="#FF004C"/>
<rect x="25.5519" y="11.9995" width="4.25863" height="3.99999" fill="#FF004C"/>
<rect x="25.5519" y="7.99951" width="4.25863" height="3.99999" fill="#FF004C"/>
<rect x="21.2931" y="7.99951" width="4.25863" height="3.99999" fill="#FF004C"/>
<rect x="55.3622" y="11.9995" width="4.25863" height="3.99999" fill="#FF004C"/>
<rect x="55.3622" y="15.9995" width="4.25863" height="3.99999" fill="#FF004C"/>
<rect x="55.3622" y="24" width="4.25863" height="3.99999" fill="#FF004C"/>
<rect x="12.7759" y="4.00049" width="4.25863" height="3.99999" fill="#FF004C"/>
<rect x="12.7759" y="27.9995" width="4.25863" height="3.99999" fill="#FF004C"/>
<rect x="12.7759" y="24" width="4.25863" height="3.99999" fill="#FF004C"/>
<rect x="12.7759" y="19.9995" width="4.25863" height="3.99999" fill="#FF004C"/>
<rect x="17.0345" y="19.9995" width="4.25863" height="3.99999" fill="#FF004C"/>
<rect x="12.7759" y="15.9995" width="4.25863" height="3.99999" fill="#FF004C"/>
<rect x="12.7759" y="11.9995" width="4.25863" height="3.99999" fill="#FF004C"/>
<rect x="12.7759" y="7.99951" width="4.25863" height="3.99999" fill="#FF004C"/>
<rect x="8.51721" y="24" width="4.25863" height="3.99999" fill="#FF004C"/>
<rect x="8.51721" y="19.9995" width="4.25863" height="3.99999" fill="#FF004C"/>
<rect x="8.51721" y="15.9995" width="4.25863" height="3.99999" fill="#FF004C"/>
<rect x="8.51721" y="11.9995" width="4.25863" height="3.99999" fill="#FF004C"/>
<rect x="17.0345" y="7.99951" width="4.25863" height="3.99999" fill="#FF004C"/>
<rect x="17.0345" y="11.9995" width="4.25863" height="3.99999" fill="#FF004C"/>
<rect x="17.0345" y="15.9995" width="4.25863" height="3.99999" fill="#FF004C"/>
<rect x="21.2931" y="15.9995" width="4.25863" height="3.99999" fill="#FF004C"/>
<rect x="25.5519" y="15.9995" width="4.25863" height="3.99999" fill="#FF004C"/>
<rect x="25.5519" y="19.9995" width="4.25863" height="3.99999" fill="#FF004C"/>
<rect x="25.5519" y="24" width="4.25863" height="3.99999" fill="#FF004C"/>
<rect x="21.2931" y="24" width="4.25863" height="3.99999" fill="#FF004C"/>
<rect x="17.0345" y="24" width="4.25863" height="3.99999" fill="#FF004C"/>
<rect x="8.51721" y="7.99951" width="4.25863" height="3.99999" fill="#FF004C"/>
<rect x="97.9484" y="24" width="4.25863" height="3.99999" fill="#FF004C"/>
<rect x="97.9484" y="19.9995" width="4.25863" height="3.99999" fill="#FF004C"/>
<rect x="97.9484" y="15.9995" width="4.25863" height="3.99999" fill="#FF004C"/>
<rect x="97.9484" y="11.9995" width="4.25863" height="3.99999" fill="#FF004C"/>
<rect x="93.6898" y="24" width="4.25863" height="3.99999" fill="#FF004C"/>
<rect x="93.6898" y="19.9995" width="4.25863" height="3.99999" fill="#FF004C"/>
<rect x="89.431" y="15.9995" width="4.25863" height="3.99999" fill="#FF004C"/>
<rect x="89.431" y="19.9995" width="4.25863" height="3.99999" fill="#FF004C"/>
<rect x="93.6898" y="15.9995" width="4.25863" height="3.99999" fill="#FF004C"/>
<rect x="93.6898" y="7.99951" width="4.25863" height="3.99999" fill="#FF004C"/>
<rect x="93.6898" y="11.9995" width="4.25863" height="3.99999" fill="#FF004C"/>
<rect x="85.1725" y="24" width="4.25863" height="3.99999" fill="#FF004C"/>
<rect x="85.1725" y="19.9995" width="4.25863" height="3.99999" fill="#FF004C"/>
<rect x="89.431" y="24" width="4.25863" height="3.99999" fill="#FF004C"/>
<rect x="85.1725" y="15.9995" width="4.25863" height="3.99999" fill="#FF004C"/>
<rect x="85.1725" y="11.9995" width="4.25863" height="3.99999" fill="#FF004C"/>
<rect x="89.431" y="7.99951" width="4.25863" height="3.99999" fill="#FF004C"/>
<rect x="89.431" y="11.9995" width="4.25863" height="3.99999" fill="#FF004C"/>
<rect x="42.5862" y="24" width="4.25863" height="3.99999" fill="#FF004C"/>
<rect x="38.3276" y="24" width="4.25863" height="3.99999" fill="#FF004C"/>
<rect x="42.5862" y="19.9995" width="4.25863" height="3.99999" fill="#FF004C"/>
<rect x="38.3276" y="19.9995" width="4.25863" height="3.99999" fill="#FF004C"/>
<rect x="42.5862" y="15.9995" width="4.25863" height="3.99999" fill="#FF004C"/>
<rect x="38.3276" y="15.9995" width="4.25863" height="3.99999" fill="#FF004C"/>
<rect x="42.5862" y="11.9995" width="4.25863" height="3.99999" fill="#FF004C"/>
<rect x="38.3276" y="11.9995" width="4.25863" height="3.99999" fill="#FF004C"/>
<rect x="42.5862" y="7.99951" width="4.25863" height="3.99999" fill="#FF004C"/>
<rect x="34.0691" y="24" width="4.25863" height="3.99999" fill="#FF004C"/>
<rect x="34.0691" y="19.9995" width="4.25863" height="3.99999" fill="#FF004C"/>
<rect x="34.0691" y="15.9995" width="4.25863" height="3.99999" fill="#FF004C"/>
<rect x="34.0691" y="11.9995" width="4.25863" height="3.99999" fill="#FF004C"/>
<rect x="38.3276" y="7.99951" width="4.25863" height="3.99999" fill="#FF004C"/>
<rect x="34.0691" y="7.99951" width="4.25863" height="3.99999" fill="#FF004C"/>
<rect x="97.9484" y="7.99951" width="4.25863" height="3.99999" fill="#FF004C"/>
<rect x="29.8103" y="24" width="4.25863" height="3.99999" fill="#FF004C"/>
<rect x="29.8103" y="19.9995" width="4.25863" height="3.99999" fill="#FF004C"/>
<rect x="29.8103" y="15.9995" width="4.25863" height="3.99999" fill="#FF004C"/>
<rect x="29.8103" y="11.9995" width="4.25863" height="3.99999" fill="#FF004C"/>
<rect x="29.8103" y="7.99951" width="4.25863" height="3.99999" fill="#FF004C"/>
<rect x="46.8451" y="24" width="4.25863" height="3.99999" fill="#FF004C"/>
<rect x="51.1034" y="24" width="4.25863" height="3.99999" fill="#FF004C"/>
<rect x="46.8451" y="19.9995" width="4.25863" height="3.99999" fill="#FF004C"/>
<rect x="51.1034" y="19.9995" width="4.25863" height="3.99999" fill="#FF004C"/>
<rect x="46.8451" y="15.9995" width="4.25863" height="3.99999" fill="#FF004C"/>
<rect x="51.1034" y="15.9995" width="4.25863" height="3.99999" fill="#FF004C"/>
<rect x="46.8451" y="11.9995" width="4.25863" height="3.99999" fill="#FF004C"/>
<rect x="51.1034" y="11.9995" width="4.25863" height="3.99999" fill="#FF004C"/>
<rect x="46.8451" y="7.99951" width="4.25863" height="3.99999" fill="#FF004C"/>
<rect x="55.3622" y="7.99951" width="4.25863" height="3.99999" fill="#FF004C"/>
<rect x="59.6207" y="7.99951" width="4.25863" height="3.99999" fill="#FF004C"/>
<rect x="59.6207" y="11.9995" width="4.25863" height="3.99999" fill="#FF004C"/>
<rect x="59.6207" y="15.9995" width="4.25863" height="3.99999" fill="#FF004C"/>
<rect x="59.6207" y="19.9995" width="4.25863" height="3.99999" fill="#FF004C"/>
<rect x="76.6553" y="24" width="4.25863" height="3.99999" fill="#FF004C"/>
<rect x="59.6207" y="24" width="4.25863" height="3.99999" fill="#FF004C"/>
<rect x="55.3622" y="19.9995" width="4.25863" height="3.99999" fill="#FF004C"/>
<rect x="51.1034" y="7.99951" width="4.25863" height="3.99999" fill="#FF004C"/>
<rect x="63.8794" y="24" width="4.25863" height="3.99999" fill="#FF004C"/>
<rect x="63.8794" y="19.9995" width="4.25863" height="3.99999" fill="#FF004C"/>
<rect x="63.8794" y="15.9995" width="4.25863" height="3.99999" fill="#FF004C"/>
<rect x="63.8794" y="11.9995" width="4.25863" height="3.99999" fill="#FF004C"/>
<rect x="68.1382" y="11.9995" width="4.25863" height="3.99999" fill="#FF004C"/>
<rect x="68.1382" y="15.9995" width="4.25863" height="3.99999" fill="#FF004C"/>
<rect x="68.1382" y="19.9995" width="4.25863" height="3.99999" fill="#FF004C"/>
<rect x="68.1382" y="24" width="4.25863" height="3.99999" fill="#FF004C"/>
<rect x="68.1382" y="7.99951" width="4.25863" height="3.99999" fill="#FF004C"/>
<rect x="72.3967" y="7.99951" width="4.25863" height="3.99999" fill="#FF004C"/>
<rect x="76.6553" y="7.99951" width="4.25863" height="3.99999" fill="#FF004C"/>
<rect x="76.6553" y="11.9995" width="4.25863" height="3.99999" fill="#FF004C"/>
<rect x="76.6553" y="19.9995" width="4.25863" height="3.99999" fill="#FF004C"/>
<rect x="85.1725" y="7.99951" width="4.25863" height="3.99999" fill="#FF004C"/>
<rect x="72.3967" y="15.9995" width="4.25863" height="3.99999" fill="#FF004C"/>
<rect x="63.8794" y="7.99951" width="4.25863" height="3.99999" fill="#FF004C"/>
<rect x="72.3967" y="11.9995" width="4.25863" height="3.99999" fill="#FF004C"/>
<rect x="72.3967" y="19.9995" width="4.25863" height="3.99999" fill="#FF004C"/>
<rect x="72.3967" y="24" width="4.25863" height="3.99999" fill="#FF004C"/>
<rect x="80.9138" y="24" width="4.25863" height="3.99999" fill="#FF004C"/>
<rect x="76.6553" y="15.9995" width="4.25863" height="3.99999" fill="#FF004C"/>
<rect x="80.9138" y="15.9995" width="4.25863" height="3.99999" fill="#FF004C"/>
<rect x="80.9138" y="19.9995" width="4.25863" height="3.99999" fill="#FF004C"/>
<rect x="80.9138" y="11.9995" width="4.25863" height="3.99999" fill="#FF004C"/>
<rect x="80.9138" y="7.99951" width="4.25863" height="3.99999" fill="#FF004C"/>
<rect x="102.207" y="24" width="4.25863" height="3.99999" fill="#FF004C"/>
<rect x="102.207" y="19.9995" width="4.25863" height="3.99999" fill="#FF004C"/>
<rect x="102.207" y="15.9995" width="4.25863" height="3.99999" fill="#FF004C"/>
<rect x="102.207" y="11.9995" width="4.25863" height="3.99999" fill="#FF004C"/>
<rect x="102.207" y="7.99951" width="4.25863" height="3.99999" fill="#FF004C"/>
<rect x="21.2931" y="19.9995" width="4.25863" height="3.99999" fill="#FF004C"/>
<rect x="17.0345" y="4.00049" width="4.25863" height="3.99999" fill="#FF004C"/>
<rect x="21.2931" y="4.00049" width="4.25863" height="3.99999" fill="#FF004C"/>
<rect x="25.5519" y="4.00049" width="4.25863" height="3.99999" fill="#FF004C"/>
<rect x="29.8103" y="4.00049" width="4.25863" height="3.99999" fill="#FF004C"/>
<rect x="34.0691" y="4.00049" width="4.25863" height="3.99999" fill="#FF004C"/>
<rect x="38.3276" y="4.00049" width="4.25863" height="3.99999" fill="#FF004C"/>
<rect x="42.5862" y="4.00049" width="4.25863" height="3.99999" fill="#FF004C"/>
<rect x="46.8451" y="4.00049" width="4.25863" height="3.99999" fill="#FF004C"/>
<rect x="51.1034" y="4.00049" width="4.25863" height="3.99999" fill="#FF004C"/>
<rect x="55.3622" y="4.00049" width="4.25863" height="3.99999" fill="#FF004C"/>
<rect x="59.6207" y="4.00049" width="4.25863" height="3.99999" fill="#FF004C"/>
<rect x="59.6207" y="4.00049" width="4.25863" height="3.99999" fill="#FF004C"/>
<rect x="63.8794" y="4.00049" width="4.25863" height="3.99999" fill="#FF004C"/>
<rect x="68.1382" y="4.00049" width="4.25863" height="3.99999" fill="#FF004C"/>
<rect x="72.3967" y="4.00049" width="4.25863" height="3.99999" fill="#FF004C"/>
<rect x="76.6553" y="4.00049" width="4.25863" height="3.99999" fill="#FF004C"/>
<rect x="80.9138" y="4.00049" width="4.25863" height="3.99999" fill="#FF004C"/>
<rect x="85.1725" y="4.00049" width="4.25863" height="3.99999" fill="#FF004C"/>
<rect x="89.431" y="4.00049" width="4.25863" height="3.99999" fill="#FF004C"/>
<rect x="93.6898" y="4.00049" width="4.25863" height="3.99999" fill="#FF004C"/>
<rect x="97.9484" y="4.00049" width="4.25863" height="3.99999" fill="#FF004C"/>
<rect x="17.0345" y="27.9995" width="4.25863" height="3.99999" fill="#FF004C"/>
<rect x="21.2931" y="27.9995" width="4.25863" height="3.99999" fill="#FF004C"/>
<rect x="25.5519" y="27.9995" width="4.25863" height="3.99999" fill="#FF004C"/>
<rect x="29.8103" y="27.9995" width="4.25863" height="3.99999" fill="#FF004C"/>
<rect x="34.0691" y="27.9995" width="4.25863" height="3.99999" fill="#FF004C"/>
<rect x="38.3276" y="27.9995" width="4.25863" height="3.99999" fill="#FF004C"/>
<rect x="42.5862" y="27.9995" width="4.25863" height="3.99999" fill="#FF004C"/>
<rect x="46.8451" y="27.9995" width="4.25863" height="3.99999" fill="#FF004C"/>
<rect x="51.1034" y="27.9995" width="4.25863" height="3.99999" fill="#FF004C"/>
<rect x="55.3622" y="27.9995" width="4.25863" height="3.99999" fill="#FF004C"/>
<rect x="59.6207" y="27.9995" width="4.25863" height="3.99999" fill="#FF004C"/>
<rect x="59.6207" y="27.9995" width="4.25863" height="3.99999" fill="#FF004C"/>
<rect x="63.8794" y="27.9995" width="4.25863" height="3.99999" fill="#FF004C"/>
<rect x="68.1382" y="27.9995" width="4.25863" height="3.99999" fill="#FF004C"/>
<rect x="72.3967" y="27.9995" width="4.25863" height="3.99999" fill="#FF004C"/>
<rect x="76.6553" y="27.9995" width="4.25863" height="3.99999" fill="#FF004C"/>
<rect x="80.9138" y="27.9995" width="4.25863" height="3.99999" fill="#FF004C"/>
<rect x="85.1725" y="27.9995" width="4.25863" height="3.99999" fill="#FF004C"/>
<rect x="89.431" y="27.9995" width="4.25863" height="3.99999" fill="#FF004C"/>
<rect x="93.6898" y="27.9995" width="4.25863" height="3.99999" fill="#FF004C"/>
<rect x="97.9484" y="27.9995" width="4.25863" height="3.99999" fill="#FF004C"/>
<rect x="4.25854" y="4.2666" width="4.25863" height="3.99999" fill="#6A0322"/>
<rect y="8.26709" width="4.25863" height="3.99999" fill="#6A0322"/>
<rect y="12.2666" width="4.25863" height="3.99999" fill="#6A0322"/>
<rect y="16.2671" width="4.25863" height="3.99999" fill="#6A0322"/>
<rect y="20.2666" width="4.25863" height="3.99999" fill="#6A0322"/>
<rect y="24" width="4.25863" height="3.99999" fill="#6A0322"/>
<rect x="4.25854" y="27.9995" width="4.25863" height="3.99999" fill="#6A0322"/>
<rect x="8.51721" y="31.9995" width="4.25863" height="3.99999" fill="#6A0322"/>
<rect x="12.7759" y="36" width="4.25863" height="3.99999" fill="#6A0322"/>
<rect x="8.51721" y="36" width="4.25863" height="3.99999" fill="#6A0322"/>
<rect x="4.25854" y="31.9995" width="4.25863" height="3.99999" fill="#6A0322"/>
<rect y="27.9995" width="4.25863" height="3.99999" fill="#6A0322"/>
<rect x="17.0345" y="36" width="4.25863" height="3.99999" fill="#6A0322"/>
<rect x="21.2931" y="36" width="4.25863" height="3.99999" fill="#6A0322"/>
<rect x="25.5519" y="36" width="4.25863" height="3.99999" fill="#6A0322"/>
<rect x="29.8103" y="36" width="4.25863" height="3.99999" fill="#6A0322"/>
<rect x="34.0691" y="36" width="4.25863" height="3.99999" fill="#6A0322"/>
<rect x="38.3276" y="36" width="4.25863" height="3.99999" fill="#6A0322"/>
<rect x="42.5862" y="36" width="4.25863" height="3.99999" fill="#6A0322"/>
<rect x="46.8451" y="36" width="4.25863" height="3.99999" fill="#6A0322"/>
<rect x="51.1034" y="36" width="4.25863" height="3.99999" fill="#6A0322"/>
<rect x="55.3622" y="36" width="4.25863" height="3.99999" fill="#6A0322"/>
<rect x="59.6207" y="36" width="4.25863" height="3.99999" fill="#6A0322"/>
<rect x="63.8794" y="36" width="4.25863" height="3.99999" fill="#6A0322"/>
<rect x="68.1382" y="36" width="4.25863" height="3.99999" fill="#6A0322"/>
<rect x="72.3967" y="36" width="4.25863" height="3.99999" fill="#6A0322"/>
<rect x="76.6553" y="36" width="4.25863" height="3.99999" fill="#6A0322"/>
<rect x="80.9138" y="36" width="4.25863" height="3.99999" fill="#6A0322"/>
<rect x="85.1725" y="36" width="4.25863" height="3.99999" fill="#6A0322"/>
<rect x="89.431" y="36" width="4.25863" height="3.99999" fill="#6A0322"/>
<rect x="93.6898" y="36" width="4.25863" height="3.99999" fill="#6A0322"/>
<rect x="97.9484" y="36" width="4.25863" height="3.99999" fill="#6A0322"/>
<rect x="102.207" y="31.9995" width="4.25863" height="3.99999" fill="#6A0322"/>
<rect x="106.466" y="27.9995" width="4.25863" height="3.99999" fill="#6A0322"/>
<rect x="8.51721" y="0.266113" width="4.25863" height="3.99999" fill="#6A0322"/>
<mask id="path-248-outside-1_696_2473" maskUnits="userSpaceOnUse" x="34" y="11" width="63" height="14" fill="black">
<rect fill="white" x="34" y="11" width="63" height="14"/>
<path d="M42.1806 18.5H36.0556V17.625H35.1806V12.375H42.1806V13.25H36.9306V15H42.1806V15.875H36.9306V17.625H42.1806V18.5ZM46.5556 18.5H44.8056V12.375H46.5556V18.5ZM46.5556 22.875H45.6806V23.75H36.9306V22.875H36.0556V19.375H46.5556V22.875ZM44.8056 20.25H37.8056V22.875H44.8056V20.25ZM63.1806 17.625H62.3056V18.5H57.0556V17.625H56.1806V12.375H63.1806V17.625ZM66.6806 15H69.3056V15.875H66.6806V18.5H64.9306V12.375H66.6806V15ZM61.4306 13.25H57.9306V17.625H61.4306V13.25ZM58.8056 22.875H66.6806V23.75H57.9306V22.875H57.0556V19.375H58.8056V22.875ZM71.0556 12.375H81.5556V13.25H72.8056V15.875H81.5556V16.75H71.9306V15.875H71.0556V12.375ZM82.4306 18.5H70.1806V17.625H82.4306V18.5ZM71.0556 21.125H79.8056V20.25H71.0556V19.375H81.5556V22H72.8056V22.875H81.5556V23.75H71.9306V22.875H71.0556V21.125ZM95.5556 23.75H93.8056V12.375H95.5556V23.75ZM86.8056 21.125H87.6806V14.125H84.1806V13.25H89.4306V21.125H88.5556V22H87.6806V22.875H85.0556V22H86.8056V21.125Z"/>
</mask>
<path d="M42.1806 18.5H36.0556V17.625H35.1806V12.375H42.1806V13.25H36.9306V15H42.1806V15.875H36.9306V17.625H42.1806V18.5ZM46.5556 18.5H44.8056V12.375H46.5556V18.5ZM46.5556 22.875H45.6806V23.75H36.9306V22.875H36.0556V19.375H46.5556V22.875ZM44.8056 20.25H37.8056V22.875H44.8056V20.25ZM63.1806 17.625H62.3056V18.5H57.0556V17.625H56.1806V12.375H63.1806V17.625ZM66.6806 15H69.3056V15.875H66.6806V18.5H64.9306V12.375H66.6806V15ZM61.4306 13.25H57.9306V17.625H61.4306V13.25ZM58.8056 22.875H66.6806V23.75H57.9306V22.875H57.0556V19.375H58.8056V22.875ZM71.0556 12.375H81.5556V13.25H72.8056V15.875H81.5556V16.75H71.9306V15.875H71.0556V12.375ZM82.4306 18.5H70.1806V17.625H82.4306V18.5ZM71.0556 21.125H79.8056V20.25H71.0556V19.375H81.5556V22H72.8056V22.875H81.5556V23.75H71.9306V22.875H71.0556V21.125ZM95.5556 23.75H93.8056V12.375H95.5556V23.75ZM86.8056 21.125H87.6806V14.125H84.1806V13.25H89.4306V21.125H88.5556V22H87.6806V22.875H85.0556V22H86.8056V21.125Z" fill="black"/>
<path d="M42.1806 18.5V19.5H43.1806V18.5H42.1806ZM36.0556 18.5H35.0556V19.5H36.0556V18.5ZM36.0556 17.625H37.0556V16.625H36.0556V17.625ZM35.1806 17.625H34.1806V18.625H35.1806V17.625ZM35.1806 12.375V11.375H34.1806V12.375H35.1806ZM42.1806 12.375H43.1806V11.375H42.1806V12.375ZM42.1806 13.25V14.25H43.1806V13.25H42.1806ZM36.9306 13.25V12.25H35.9306V13.25H36.9306ZM36.9306 15H35.9306V16H36.9306V15ZM42.1806 15H43.1806V14H42.1806V15ZM42.1806 15.875V16.875H43.1806V15.875H42.1806ZM36.9306 15.875V14.875H35.9306V15.875H36.9306ZM36.9306 17.625H35.9306V18.625H36.9306V17.625ZM42.1806 17.625H43.1806V16.625H42.1806V17.625ZM46.5556 18.5V19.5H47.5556V18.5H46.5556ZM44.8056 18.5H43.8056V19.5H44.8056V18.5ZM44.8056 12.375V11.375H43.8056V12.375H44.8056ZM46.5556 12.375H47.5556V11.375H46.5556V12.375ZM46.5556 22.875V23.875H47.5556V22.875H46.5556ZM45.6806 22.875V21.875H44.6806V22.875H45.6806ZM45.6806 23.75V24.75H46.6806V23.75H45.6806ZM36.9306 23.75H35.9306V24.75H36.9306V23.75ZM36.9306 22.875H37.9306V21.875H36.9306V22.875ZM36.0556 22.875H35.0556V23.875H36.0556V22.875ZM36.0556 19.375V18.375H35.0556V19.375H36.0556ZM46.5556 19.375H47.5556V18.375H46.5556V19.375ZM44.8056 20.25H45.8056V19.25H44.8056V20.25ZM37.8056 20.25V19.25H36.8056V20.25H37.8056ZM37.8056 22.875H36.8056V23.875H37.8056V22.875ZM44.8056 22.875V23.875H45.8056V22.875H44.8056ZM42.1806 17.5H36.0556V19.5H42.1806V17.5ZM37.0556 18.5V17.625H35.0556V18.5H37.0556ZM36.0556 16.625H35.1806V18.625H36.0556V16.625ZM36.1806 17.625V12.375H34.1806V17.625H36.1806ZM35.1806 13.375H42.1806V11.375H35.1806V13.375ZM41.1806 12.375V13.25H43.1806V12.375H41.1806ZM42.1806 12.25H36.9306V14.25H42.1806V12.25ZM35.9306 13.25V15H37.9306V13.25H35.9306ZM36.9306 16H42.1806V14H36.9306V16ZM41.1806 15V15.875H43.1806V15H41.1806ZM42.1806 14.875H36.9306V16.875H42.1806V14.875ZM35.9306 15.875V17.625H37.9306V15.875H35.9306ZM36.9306 18.625H42.1806V16.625H36.9306V18.625ZM41.1806 17.625V18.5H43.1806V17.625H41.1806ZM46.5556 17.5H44.8056V19.5H46.5556V17.5ZM45.8056 18.5V12.375H43.8056V18.5H45.8056ZM44.8056 13.375H46.5556V11.375H44.8056V13.375ZM45.5556 12.375V18.5H47.5556V12.375H45.5556ZM46.5556 21.875H45.6806V23.875H46.5556V21.875ZM44.6806 22.875V23.75H46.6806V22.875H44.6806ZM45.6806 22.75H36.9306V24.75H45.6806V22.75ZM37.9306 23.75V22.875H35.9306V23.75H37.9306ZM36.9306 21.875H36.0556V23.875H36.9306V21.875ZM37.0556 22.875V19.375H35.0556V22.875H37.0556ZM36.0556 20.375H46.5556V18.375H36.0556V20.375ZM45.5556 19.375V22.875H47.5556V19.375H45.5556ZM44.8056 19.25H37.8056V21.25H44.8056V19.25ZM36.8056 20.25V22.875H38.8056V20.25H36.8056ZM37.8056 23.875H44.8056V21.875H37.8056V23.875ZM45.8056 22.875V20.25H43.8056V22.875H45.8056ZM63.1806 17.625V18.625H64.1806V17.625H63.1806ZM62.3056 17.625V16.625H61.3056V17.625H62.3056ZM62.3056 18.5V19.5H63.3056V18.5H62.3056ZM57.0556 18.5H56.0556V19.5H57.0556V18.5ZM57.0556 17.625H58.0556V16.625H57.0556V17.625ZM56.1806 17.625H55.1806V18.625H56.1806V17.625ZM56.1806 12.375V11.375H55.1806V12.375H56.1806ZM63.1806 12.375H64.1806V11.375H63.1806V12.375ZM66.6806 15H65.6806V16H66.6806V15ZM69.3056 15H70.3056V14H69.3056V15ZM69.3056 15.875V16.875H70.3056V15.875H69.3056ZM66.6806 15.875V14.875H65.6806V15.875H66.6806ZM66.6806 18.5V19.5H67.6806V18.5H66.6806ZM64.9306 18.5H63.9306V19.5H64.9306V18.5ZM64.9306 12.375V11.375H63.9306V12.375H64.9306ZM66.6806 12.375H67.6806V11.375H66.6806V12.375ZM61.4306 13.25H62.4306V12.25H61.4306V13.25ZM57.9306 13.25V12.25H56.9306V13.25H57.9306ZM57.9306 17.625H56.9306V18.625H57.9306V17.625ZM61.4306 17.625V18.625H62.4306V17.625H61.4306ZM58.8056 22.875H57.8056V23.875H58.8056V22.875ZM66.6806 22.875H67.6806V21.875H66.6806V22.875ZM66.6806 23.75V24.75H67.6806V23.75H66.6806ZM57.9306 23.75H56.9306V24.75H57.9306V23.75ZM57.9306 22.875H58.9306V21.875H57.9306V22.875ZM57.0556 22.875H56.0556V23.875H57.0556V22.875ZM57.0556 19.375V18.375H56.0556V19.375H57.0556ZM58.8056 19.375H59.8056V18.375H58.8056V19.375ZM63.1806 16.625H62.3056V18.625H63.1806V16.625ZM61.3056 17.625V18.5H63.3056V17.625H61.3056ZM62.3056 17.5H57.0556V19.5H62.3056V17.5ZM58.0556 18.5V17.625H56.0556V18.5H58.0556ZM57.0556 16.625H56.1806V18.625H57.0556V16.625ZM57.1806 17.625V12.375H55.1806V17.625H57.1806ZM56.1806 13.375H63.1806V11.375H56.1806V13.375ZM62.1806 12.375V17.625H64.1806V12.375H62.1806ZM66.6806 16H69.3056V14H66.6806V16ZM68.3056 15V15.875H70.3056V15H68.3056ZM69.3056 14.875H66.6806V16.875H69.3056V14.875ZM65.6806 15.875V18.5H67.6806V15.875H65.6806ZM66.6806 17.5H64.9306V19.5H66.6806V17.5ZM65.9306 18.5V12.375H63.9306V18.5H65.9306ZM64.9306 13.375H66.6806V11.375H64.9306V13.375ZM65.6806 12.375V15H67.6806V12.375H65.6806ZM61.4306 12.25H57.9306V14.25H61.4306V12.25ZM56.9306 13.25V17.625H58.9306V13.25H56.9306ZM57.9306 18.625H61.4306V16.625H57.9306V18.625ZM62.4306 17.625V13.25H60.4306V17.625H62.4306ZM58.8056 23.875H66.6806V21.875H58.8056V23.875ZM65.6806 22.875V23.75H67.6806V22.875H65.6806ZM66.6806 22.75H57.9306V24.75H66.6806V22.75ZM58.9306 23.75V22.875H56.9306V23.75H58.9306ZM57.9306 21.875H57.0556V23.875H57.9306V21.875ZM58.0556 22.875V19.375H56.0556V22.875H58.0556ZM57.0556 20.375H58.8056V18.375H57.0556V20.375ZM57.8056 19.375V22.875H59.8056V19.375H57.8056ZM71.0556 12.375V11.375H70.0556V12.375H71.0556ZM81.5556 12.375H82.5556V11.375H81.5556V12.375ZM81.5556 13.25V14.25H82.5556V13.25H81.5556ZM72.8056 13.25V12.25H71.8056V13.25H72.8056ZM72.8056 15.875H71.8056V16.875H72.8056V15.875ZM81.5556 15.875H82.5556V14.875H81.5556V15.875ZM81.5556 16.75V17.75H82.5556V16.75H81.5556ZM71.9306 16.75H70.9306V17.75H71.9306V16.75ZM71.9306 15.875H72.9306V14.875H71.9306V15.875ZM71.0556 15.875H70.0556V16.875H71.0556V15.875ZM82.4306 18.5V19.5H83.4306V18.5H82.4306ZM70.1806 18.5H69.1806V19.5H70.1806V18.5ZM70.1806 17.625V16.625H69.1806V17.625H70.1806ZM82.4306 17.625H83.4306V16.625H82.4306V17.625ZM71.0556 21.125V20.125H70.0556V21.125H71.0556ZM79.8056 21.125V22.125H80.8056V21.125H79.8056ZM79.8056 20.25H80.8056V19.25H79.8056V20.25ZM71.0556 20.25H70.0556V21.25H71.0556V20.25ZM71.0556 19.375V18.375H70.0556V19.375H71.0556ZM81.5556 19.375H82.5556V18.375H81.5556V19.375ZM81.5556 22V23H82.5556V22H81.5556ZM72.8056 22V21H71.8056V22H72.8056ZM72.8056 22.875H71.8056V23.875H72.8056V22.875ZM81.5556 22.875H82.5556V21.875H81.5556V22.875ZM81.5556 23.75V24.75H82.5556V23.75H81.5556ZM71.9306 23.75H70.9306V24.75H71.9306V23.75ZM71.9306 22.875H72.9306V21.875H71.9306V22.875ZM71.0556 22.875H70.0556V23.875H71.0556V22.875ZM71.0556 13.375H81.5556V11.375H71.0556V13.375ZM80.5556 12.375V13.25H82.5556V12.375H80.5556ZM81.5556 12.25H72.8056V14.25H81.5556V12.25ZM71.8056 13.25V15.875H73.8056V13.25H71.8056ZM72.8056 16.875H81.5556V14.875H72.8056V16.875ZM80.5556 15.875V16.75H82.5556V15.875H80.5556ZM81.5556 15.75H71.9306V17.75H81.5556V15.75ZM72.9306 16.75V15.875H70.9306V16.75H72.9306ZM71.9306 14.875H71.0556V16.875H71.9306V14.875ZM72.0556 15.875V12.375H70.0556V15.875H72.0556ZM82.4306 17.5H70.1806V19.5H82.4306V17.5ZM71.1806 18.5V17.625H69.1806V18.5H71.1806ZM70.1806 18.625H82.4306V16.625H70.1806V18.625ZM81.4306 17.625V18.5H83.4306V17.625H81.4306ZM71.0556 22.125H79.8056V20.125H71.0556V22.125ZM80.8056 21.125V20.25H78.8056V21.125H80.8056ZM79.8056 19.25H71.0556V21.25H79.8056V19.25ZM72.0556 20.25V19.375H70.0556V20.25H72.0556ZM71.0556 20.375H81.5556V18.375H71.0556V20.375ZM80.5556 19.375V22H82.5556V19.375H80.5556ZM81.5556 21H72.8056V23H81.5556V21ZM71.8056 22V22.875H73.8056V22H71.8056ZM72.8056 23.875H81.5556V21.875H72.8056V23.875ZM80.5556 22.875V23.75H82.5556V22.875H80.5556ZM81.5556 22.75H71.9306V24.75H81.5556V22.75ZM72.9306 23.75V22.875H70.9306V23.75H72.9306ZM71.9306 21.875H71.0556V23.875H71.9306V21.875ZM72.0556 22.875V21.125H70.0556V22.875H72.0556ZM95.5556 23.75V24.75H96.5556V23.75H95.5556ZM93.8056 23.75H92.8056V24.75H93.8056V23.75ZM93.8056 12.375V11.375H92.8056V12.375H93.8056ZM95.5556 12.375H96.5556V11.375H95.5556V12.375ZM86.8056 21.125V20.125H85.8056V21.125H86.8056ZM87.6806 21.125V22.125H88.6806V21.125H87.6806ZM87.6806 14.125H88.6806V13.125H87.6806V14.125ZM84.1806 14.125H83.1806V15.125H84.1806V14.125ZM84.1806 13.25V12.25H83.1806V13.25H84.1806ZM89.4306 13.25H90.4306V12.25H89.4306V13.25ZM89.4306 21.125V22.125H90.4306V21.125H89.4306ZM88.5556 21.125V20.125H87.5556V21.125H88.5556ZM88.5556 22V23H89.5556V22H88.5556ZM87.6806 22V21H86.6806V22H87.6806ZM87.6806 22.875V23.875H88.6806V22.875H87.6806ZM85.0556 22.875H84.0556V23.875H85.0556V22.875ZM85.0556 22V21H84.0556V22H85.0556ZM86.8056 22V23H87.8056V22H86.8056ZM95.5556 22.75H93.8056V24.75H95.5556V22.75ZM94.8056 23.75V12.375H92.8056V23.75H94.8056ZM93.8056 13.375H95.5556V11.375H93.8056V13.375ZM94.5556 12.375V23.75H96.5556V12.375H94.5556ZM86.8056 22.125H87.6806V20.125H86.8056V22.125ZM88.6806 21.125V14.125H86.6806V21.125H88.6806ZM87.6806 13.125H84.1806V15.125H87.6806V13.125ZM85.1806 14.125V13.25H83.1806V14.125H85.1806ZM84.1806 14.25H89.4306V12.25H84.1806V14.25ZM88.4306 13.25V21.125H90.4306V13.25H88.4306ZM89.4306 20.125H88.5556V22.125H89.4306V20.125ZM87.5556 21.125V22H89.5556V21.125H87.5556ZM88.5556 21H87.6806V23H88.5556V21ZM86.6806 22V22.875H88.6806V22H86.6806ZM87.6806 21.875H85.0556V23.875H87.6806V21.875ZM86.0556 22.875V22H84.0556V22.875H86.0556ZM85.0556 23H86.8056V21H85.0556V23ZM87.8056 22V21.125H85.8056V22H87.8056Z" fill="#FFF2F6" mask="url(#path-248-outside-1_696_2473)"/>
<path fill-rule="evenodd" clip-rule="evenodd" d="M27.25 13.5H24.25V22H27.25C27.802 22 28.25 21.552 28.25 21V14.5C28.25 13.948 27.802 13.5 27.25 13.5ZM18.75 20.5H23.25V11.5H18.75V20.5ZM17.75 11.5H18.75V11C18.75 11 18.732 10 17.75 10H16.75C16.198 10 15.75 10.448 15.75 11V25C15.75 25.552 16.198 26 16.75 26H17.75C18.302 26 18.75 25.552 18.75 25V20.5H17.75V11.5Z" fill="white"/>
</svg>
