<svg width="83" height="26" viewBox="0 0 83 26" fill="none" xmlns="http://www.w3.org/2000/svg">
<path d="M83.0001 17.1709H80.1377V20.0333H83.0001V17.1709Z" fill="#170F0C"/>
<path d="M83.0001 14.3105H80.1377V17.1715H83.0001V14.3105Z" fill="#24943D"/>
<path d="M83.0001 11.4482H80.1377V14.3106H83.0001V11.4482Z" fill="#24943D"/>
<path d="M83.0001 8.58594H80.1377V11.4483H83.0001V8.58594Z" fill="#24943D"/>
<path d="M83.0001 5.72363H80.1377V8.586H83.0001V5.72363Z" fill="#24943D"/>
<path d="M80.1375 20.0342H77.2766V22.8966H80.1375V20.0342Z" fill="#170F0C"/>
<path d="M80.1375 17.1709H77.2766V20.0333H80.1375V17.1709Z" fill="#24943D"/>
<path d="M80.1375 14.3105H77.2766V17.1715H80.1375V14.3105Z" fill="#3FDD62"/>
<path d="M80.1375 11.4482H77.2766V14.3106H80.1375V11.4482Z" fill="#3FDD62"/>
<path d="M80.1375 8.58594H77.2766V11.4483H80.1375V8.58594Z" fill="#3FDD62"/>
<path d="M80.1375 5.72363H77.2766V8.586H80.1375V5.72363Z" fill="#3FDD62"/>
<path d="M80.1375 2.8623H77.2766V5.72322H80.1375V2.8623Z" fill="#24943D"/>
<path d="M77.2767 22.8965H74.4143V25.7589H77.2767V22.8965Z" fill="#170F0C"/>
<path d="M77.2767 20.0342H74.4143V22.8966H77.2767V20.0342Z" fill="#24943D"/>
<path d="M77.2767 17.1709H74.4143V20.0333H77.2767V17.1709Z" fill="#3FDD62"/>
<path d="M77.2767 14.3105H74.4143V17.1715H77.2767V14.3105Z" fill="#3FDD62"/>
<path d="M77.2767 11.4482H74.4143V14.3106H77.2767V11.4482Z" fill="#3FDD62"/>
<path d="M77.2767 8.58594H74.4143V11.4483H77.2767V8.58594Z" fill="#3FDD62"/>
<path d="M77.2767 5.72363H74.4143V8.586H77.2767V5.72363Z" fill="#3FDD62"/>
<path d="M77.2767 2.8623H74.4143V5.72322H77.2767V2.8623Z" fill="#3FDD62"/>
<path d="M77.2767 0H74.4143V2.86237H77.2767V0Z" fill="#24943D"/>
<path d="M74.4144 22.8965H71.552V25.7589H74.4144V22.8965Z" fill="#170F0C"/>
<path d="M74.4144 20.0342H71.552V22.8966H74.4144V20.0342Z" fill="#24943D"/>
<path d="M74.4144 17.1709H71.552V20.0333H74.4144V17.1709Z" fill="#3FDD62"/>
<path d="M74.4144 14.3105H71.552V17.1715H74.4144V14.3105Z" fill="#3FDD62"/>
<path d="M74.4144 11.4482H71.552V14.3106H74.4144V11.4482Z" fill="#3FDD62"/>
<path d="M74.4144 8.58594H71.552V11.4483H74.4144V8.58594Z" fill="#3FDD62"/>
<path d="M74.4144 5.72363H71.552V8.586H74.4144V5.72363Z" fill="#3FDD62"/>
<path d="M74.4144 2.8623H71.552V5.72322H74.4144V2.8623Z" fill="#3FDD62"/>
<path d="M74.4144 0H71.552V2.86237H74.4144V0Z" fill="#24943D"/>
<path d="M71.5518 22.8965H68.6895V25.7589H71.5518V22.8965Z" fill="#170F0C"/>
<path d="M71.5518 20.0342H68.6895V22.8966H71.5518V20.0342Z" fill="#24943D"/>
<path d="M71.5518 17.1709H68.6895V20.0333H71.5518V17.1709Z" fill="#3FDD62"/>
<path d="M71.5518 14.3105H68.6895V17.1715H71.5518V14.3105Z" fill="#3FDD62"/>
<path d="M71.5518 11.4482H68.6895V14.3106H71.5518V11.4482Z" fill="#3FDD62"/>
<path d="M71.5518 8.58594H68.6895V11.4483H71.5518V8.58594Z" fill="#3FDD62"/>
<path d="M71.5518 5.72363H68.6895V8.586H71.5518V5.72363Z" fill="#3FDD62"/>
<path d="M71.5518 2.8623H68.6895V5.72322H71.5518V2.8623Z" fill="#3FDD62"/>
<path d="M71.5518 0H68.6895V2.86237H71.5518V0Z" fill="#24943D"/>
<path d="M68.6895 22.8965H65.8271V25.7589H68.6895V22.8965Z" fill="#170F0C"/>
<path d="M68.6895 20.0342H65.8271V22.8966H68.6895V20.0342Z" fill="#24943D"/>
<path d="M68.6895 17.1709H65.8271V20.0333H68.6895V17.1709Z" fill="#3FDD62"/>
<path d="M68.6895 14.3105H65.8271V17.1715H68.6895V14.3105Z" fill="#3FDD62"/>
<path d="M68.6895 11.4482H65.8271V14.3106H68.6895V11.4482Z" fill="#3FDD62"/>
<path d="M68.6895 8.58594H65.8271V11.4483H68.6895V8.58594Z" fill="#3FDD62"/>
<path d="M68.6895 5.72363H65.8271V8.586H68.6895V5.72363Z" fill="#3FDD62"/>
<path d="M68.6895 2.8623H65.8271V5.72322H68.6895V2.8623Z" fill="#3FDD62"/>
<path d="M68.6895 0H65.8271V2.86237H68.6895V0Z" fill="#24943D"/>
<path d="M65.8275 22.8965H62.9666V25.7589H65.8275V22.8965Z" fill="#170F0C"/>
<path d="M65.8275 20.0342H62.9666V22.8966H65.8275V20.0342Z" fill="#24943D"/>
<path d="M65.8275 17.1709H62.9666V20.0333H65.8275V17.1709Z" fill="#3FDD62"/>
<path d="M65.8275 14.3105H62.9666V17.1715H65.8275V14.3105Z" fill="#3FDD62"/>
<path d="M65.8275 11.4482H62.9666V14.3106H65.8275V11.4482Z" fill="#3FDD62"/>
<path d="M65.8275 8.58594H62.9666V11.4483H65.8275V8.58594Z" fill="#3FDD62"/>
<path d="M65.8275 5.72363H62.9666V8.586H65.8275V5.72363Z" fill="#3FDD62"/>
<path d="M65.8275 2.8623H62.9666V5.72322H65.8275V2.8623Z" fill="#3FDD62"/>
<path d="M65.8275 0H62.9666V2.86237H65.8275V0Z" fill="#24943D"/>
<path d="M62.9661 22.8965H60.1038V25.7589H62.9661V22.8965Z" fill="#170F0C"/>
<path d="M62.9661 20.0342H60.1038V22.8966H62.9661V20.0342Z" fill="#24943D"/>
<path d="M62.9661 17.1709H60.1038V20.0333H62.9661V17.1709Z" fill="#3FDD62"/>
<path d="M62.9661 14.3105H60.1038V17.1715H62.9661V14.3105Z" fill="#3FDD62"/>
<path d="M62.9661 11.4482H60.1038V14.3106H62.9661V11.4482Z" fill="#3FDD62"/>
<path d="M62.9661 8.58594H60.1038V11.4483H62.9661V8.58594Z" fill="#3FDD62"/>
<path d="M62.9661 5.72363H60.1038V8.586H62.9661V5.72363Z" fill="#3FDD62"/>
<path d="M62.9661 2.8623H60.1038V5.72322H62.9661V2.8623Z" fill="#3FDD62"/>
<path d="M62.9661 0H60.1038V2.86237H62.9661V0Z" fill="#24943D"/>
<path d="M60.1038 22.8965H57.2415V25.7589H60.1038V22.8965Z" fill="#170F0C"/>
<path d="M60.1038 20.0342H57.2415V22.8966H60.1038V20.0342Z" fill="#24943D"/>
<path d="M60.1038 17.1709H57.2415V20.0333H60.1038V17.1709Z" fill="#3FDD62"/>
<path d="M60.1038 14.3105H57.2415V17.1715H60.1038V14.3105Z" fill="#3FDD62"/>
<path d="M60.1038 11.4482H57.2415V14.3106H60.1038V11.4482Z" fill="#3FDD62"/>
<path d="M60.1038 8.58594H57.2415V11.4483H60.1038V8.58594Z" fill="#3FDD62"/>
<path d="M60.1038 5.72363H57.2415V8.586H60.1038V5.72363Z" fill="#3FDD62"/>
<path d="M60.1038 2.8623H57.2415V5.72322H60.1038V2.8623Z" fill="#3FDD62"/>
<path d="M60.1038 0H57.2415V2.86237H60.1038V0Z" fill="#24943D"/>
<path d="M57.2415 22.8965H54.3792V25.7589H57.2415V22.8965Z" fill="#170F0C"/>
<path d="M57.2415 20.0342H54.3792V22.8966H57.2415V20.0342Z" fill="#24943D"/>
<path d="M57.2415 17.1709H54.3792V20.0333H57.2415V17.1709Z" fill="#3FDD62"/>
<path d="M57.2415 14.3105H54.3792V17.1715H57.2415V14.3105Z" fill="#3FDD62"/>
<path d="M57.2415 11.4482H54.3792V14.3106H57.2415V11.4482Z" fill="#3FDD62"/>
<path d="M57.2415 8.58594H54.3792V11.4483H57.2415V8.58594Z" fill="#3FDD62"/>
<path d="M57.2415 5.72363H54.3792V8.586H57.2415V5.72363Z" fill="#3FDD62"/>
<path d="M57.2415 2.8623H54.3792V5.72322H57.2415V2.8623Z" fill="#3FDD62"/>
<path d="M57.2415 0H54.3792V2.86237H57.2415V0Z" fill="#24943D"/>
<path d="M54.3792 22.8965H51.5183V25.7589H54.3792V22.8965Z" fill="#170F0C"/>
<path d="M54.3792 20.0342H51.5183V22.8966H54.3792V20.0342Z" fill="#24943D"/>
<path d="M54.3792 17.1709H51.5183V20.0333H54.3792V17.1709Z" fill="#3FDD62"/>
<path d="M54.3792 14.3105H51.5183V17.1715H54.3792V14.3105Z" fill="#3FDD62"/>
<path d="M54.3792 11.4482H51.5183V14.3106H54.3792V11.4482Z" fill="#3FDD62"/>
<path d="M54.3792 8.58594H51.5183V11.4483H54.3792V8.58594Z" fill="#3FDD62"/>
<path d="M54.3792 5.72363H51.5183V8.586H54.3792V5.72363Z" fill="#3FDD62"/>
<path d="M54.3792 2.8623H51.5183V5.72322H54.3792V2.8623Z" fill="#3FDD62"/>
<path d="M54.3792 0H51.5183V2.86237H54.3792V0Z" fill="#24943D"/>
<path d="M51.5184 22.8965H48.656V25.7589H51.5184V22.8965Z" fill="#170F0C"/>
<path d="M51.5184 20.0342H48.656V22.8966H51.5184V20.0342Z" fill="#24943D"/>
<path d="M51.5184 17.1709H48.656V20.0333H51.5184V17.1709Z" fill="#3FDD62"/>
<path d="M51.5184 14.3105H48.656V17.1715H51.5184V14.3105Z" fill="#3FDD62"/>
<path d="M51.5184 11.4482H48.656V14.3106H51.5184V11.4482Z" fill="#3FDD62"/>
<path d="M51.5184 8.58594H48.656V11.4483H51.5184V8.58594Z" fill="#3FDD62"/>
<path d="M51.5184 5.72363H48.656V8.586H51.5184V5.72363Z" fill="#3FDD62"/>
<path d="M51.5184 2.8623H48.656V5.72322H51.5184V2.8623Z" fill="#3FDD62"/>
<path d="M51.5184 0H48.656V2.86237H51.5184V0Z" fill="#24943D"/>
<path d="M48.6561 22.8965H45.7937V25.7589H48.6561V22.8965Z" fill="#170F0C"/>
<path d="M48.6561 20.0342H45.7937V22.8966H48.6561V20.0342Z" fill="#24943D"/>
<path d="M48.6561 17.1709H45.7937V20.0333H48.6561V17.1709Z" fill="#3FDD62"/>
<path d="M48.6561 14.3105H45.7937V17.1715H48.6561V14.3105Z" fill="#3FDD62"/>
<path d="M48.6561 11.4482H45.7937V14.3106H48.6561V11.4482Z" fill="#3FDD62"/>
<path d="M48.6561 8.58594H45.7937V11.4483H48.6561V8.58594Z" fill="#3FDD62"/>
<path d="M48.6561 5.72363H45.7937V8.586H48.6561V5.72363Z" fill="#3FDD62"/>
<path d="M48.6561 2.8623H45.7937V5.72322H48.6561V2.8623Z" fill="#3FDD62"/>
<path d="M48.6561 0H45.7937V2.86237H48.6561V0Z" fill="#24943D"/>
<path d="M45.7938 22.8965H42.9314V25.7589H45.7938V22.8965Z" fill="#170F0C"/>
<path d="M45.7938 20.0342H42.9314V22.8966H45.7938V20.0342Z" fill="#24943D"/>
<path d="M45.7938 17.1709H42.9314V20.0333H45.7938V17.1709Z" fill="#3FDD62"/>
<path d="M45.7938 14.3105H42.9314V17.1715H45.7938V14.3105Z" fill="#3FDD62"/>
<path d="M45.7938 11.4482H42.9314V14.3106H45.7938V11.4482Z" fill="#3FDD62"/>
<path d="M45.7938 8.58594H42.9314V11.4483H45.7938V8.58594Z" fill="#3FDD62"/>
<path d="M45.7938 5.72363H42.9314V8.586H45.7938V5.72363Z" fill="#3FDD62"/>
<path d="M45.7938 2.8623H42.9314V5.72322H45.7938V2.8623Z" fill="#3FDD62"/>
<path d="M45.7938 0H42.9314V2.86237H45.7938V0Z" fill="#24943D"/>
<path d="M42.931 22.8965H40.0686V25.7589H42.931V22.8965Z" fill="#170F0C"/>
<path d="M42.931 20.0342H40.0686V22.8966H42.931V20.0342Z" fill="#24943D"/>
<path d="M42.931 17.1709H40.0686V20.0333H42.931V17.1709Z" fill="#3FDD62"/>
<path d="M42.931 14.3105H40.0686V17.1715H42.931V14.3105Z" fill="#3FDD62"/>
<path d="M42.931 11.4482H40.0686V14.3106H42.931V11.4482Z" fill="#3FDD62"/>
<path d="M42.931 8.58594H40.0686V11.4483H42.931V8.58594Z" fill="#3FDD62"/>
<path d="M42.931 5.72363H40.0686V8.586H42.931V5.72363Z" fill="#3FDD62"/>
<path d="M42.931 2.8623H40.0686V5.72322H42.931V2.8623Z" fill="#3FDD62"/>
<path d="M42.931 0H40.0686V2.86237H42.931V0Z" fill="#24943D"/>
<path d="M40.0689 22.8965H37.208V25.7589H40.0689V22.8965Z" fill="#170F0C"/>
<path d="M40.0689 20.0342H37.208V22.8966H40.0689V20.0342Z" fill="#24943D"/>
<path d="M40.0689 17.1709H37.208V20.0333H40.0689V17.1709Z" fill="#3FDD62"/>
<path d="M40.0689 14.3105H37.208V17.1715H40.0689V14.3105Z" fill="#3FDD62"/>
<path d="M40.0689 11.4482H37.208V14.3106H40.0689V11.4482Z" fill="#3FDD62"/>
<path d="M40.0689 8.58594H37.208V11.4483H40.0689V8.58594Z" fill="#3FDD62"/>
<path d="M40.0689 5.72363H37.208V8.586H40.0689V5.72363Z" fill="#3FDD62"/>
<path d="M40.0689 2.8623H37.208V5.72322H40.0689V2.8623Z" fill="#3FDD62"/>
<path d="M40.0689 0H37.208V2.86237H40.0689V0Z" fill="#24943D"/>
<path d="M37.2078 22.8965H34.3455V25.7589H37.2078V22.8965Z" fill="#170F0C"/>
<path d="M37.2078 20.0342H34.3455V22.8966H37.2078V20.0342Z" fill="#24943D"/>
<path d="M37.2078 17.1709H34.3455V20.0333H37.2078V17.1709Z" fill="#3FDD62"/>
<path d="M37.2078 14.3105H34.3455V17.1715H37.2078V14.3105Z" fill="#3FDD62"/>
<path d="M37.2078 11.4482H34.3455V14.3106H37.2078V11.4482Z" fill="#3FDD62"/>
<path d="M37.2078 8.58594H34.3455V11.4483H37.2078V8.58594Z" fill="#3FDD62"/>
<path d="M37.2078 5.72363H34.3455V8.586H37.2078V5.72363Z" fill="#3FDD62"/>
<path d="M37.2078 2.8623H34.3455V5.72322H37.2078V2.8623Z" fill="#3FDD62"/>
<path d="M37.2078 0H34.3455V2.86237H37.2078V0Z" fill="#24943D"/>
<path d="M34.3455 22.8965H31.4832V25.7589H34.3455V22.8965Z" fill="#170F0C"/>
<path d="M34.3455 20.0342H31.4832V22.8966H34.3455V20.0342Z" fill="#24943D"/>
<path d="M34.3455 17.1709H31.4832V20.0333H34.3455V17.1709Z" fill="#3FDD62"/>
<path d="M34.3455 14.3105H31.4832V17.1715H34.3455V14.3105Z" fill="#3FDD62"/>
<path d="M34.3455 11.4482H31.4832V14.3106H34.3455V11.4482Z" fill="#3FDD62"/>
<path d="M34.3455 8.58594H31.4832V11.4483H34.3455V8.58594Z" fill="#3FDD62"/>
<path d="M34.3455 5.72363H31.4832V8.586H34.3455V5.72363Z" fill="#3FDD62"/>
<path d="M34.3455 2.8623H31.4832V5.72322H34.3455V2.8623Z" fill="#3FDD62"/>
<path d="M34.3455 0H31.4832V2.86237H34.3455V0Z" fill="#24943D"/>
<path d="M31.4832 22.8965H28.6208V25.7589H31.4832V22.8965Z" fill="#170F0C"/>
<path d="M31.4832 20.0342H28.6208V22.8966H31.4832V20.0342Z" fill="#24943D"/>
<path d="M31.4832 17.1709H28.6208V20.0333H31.4832V17.1709Z" fill="#3FDD62"/>
<path d="M31.4832 14.3105H28.6208V17.1715H31.4832V14.3105Z" fill="#3FDD62"/>
<path d="M31.4832 11.4482H28.6208V14.3106H31.4832V11.4482Z" fill="#3FDD62"/>
<path d="M31.4832 8.58594H28.6208V11.4483H31.4832V8.58594Z" fill="#3FDD62"/>
<path d="M31.4832 5.72363H28.6208V8.586H31.4832V5.72363Z" fill="#3FDD62"/>
<path d="M31.4832 2.8623H28.6208V5.72322H31.4832V2.8623Z" fill="#3FDD62"/>
<path d="M31.4832 0H28.6208V2.86237H31.4832V0Z" fill="#24943D"/>
<path d="M28.6209 22.8965H25.7585V25.7589H28.6209V22.8965Z" fill="#170F0C"/>
<path d="M28.6209 20.0342H25.7585V22.8966H28.6209V20.0342Z" fill="#24943D"/>
<path d="M28.6209 17.1709H25.7585V20.0333H28.6209V17.1709Z" fill="#3FDD62"/>
<path d="M28.6209 14.3105H25.7585V17.1715H28.6209V14.3105Z" fill="#3FDD62"/>
<path d="M28.6209 11.4482H25.7585V14.3106H28.6209V11.4482Z" fill="#3FDD62"/>
<path d="M28.6209 8.58594H25.7585V11.4483H28.6209V8.58594Z" fill="#3FDD62"/>
<path d="M28.6209 5.72363H25.7585V8.586H28.6209V5.72363Z" fill="#3FDD62"/>
<path d="M28.6209 2.8623H25.7585V5.72322H28.6209V2.8623Z" fill="#3FDD62"/>
<path d="M28.6209 0H25.7585V2.86237H28.6209V0Z" fill="#24943D"/>
<path d="M25.7584 22.8965H22.8975V25.7589H25.7584V22.8965Z" fill="#170F0C"/>
<path d="M25.7584 20.0342H22.8975V22.8966H25.7584V20.0342Z" fill="#24943D"/>
<path d="M25.7584 17.1709H22.8975V20.0333H25.7584V17.1709Z" fill="#3FDD62"/>
<path d="M25.7584 14.3105H22.8975V17.1715H25.7584V14.3105Z" fill="#3FDD62"/>
<path d="M25.7584 11.4482H22.8975V14.3106H25.7584V11.4482Z" fill="#3FDD62"/>
<path d="M25.7584 8.58594H22.8975V11.4483H25.7584V8.58594Z" fill="#3FDD62"/>
<path d="M25.7584 5.72363H22.8975V8.586H25.7584V5.72363Z" fill="#3FDD62"/>
<path d="M25.7584 2.8623H22.8975V5.72322H25.7584V2.8623Z" fill="#3FDD62"/>
<path d="M25.7584 0H22.8975V2.86237H25.7584V0Z" fill="#24943D"/>
<path d="M22.8975 22.8965H20.0352V25.7589H22.8975V22.8965Z" fill="#170F0C"/>
<path d="M22.8975 20.0342H20.0352V22.8966H22.8975V20.0342Z" fill="#24943D"/>
<path d="M22.8975 17.1709H20.0352V20.0333H22.8975V17.1709Z" fill="#3FDD62"/>
<path d="M22.8975 14.3105H20.0352V17.1715H22.8975V14.3105Z" fill="#3FDD62"/>
<path d="M22.8975 11.4482H20.0352V14.3106H22.8975V11.4482Z" fill="#3FDD62"/>
<path d="M22.8975 8.58594H20.0352V11.4483H22.8975V8.58594Z" fill="#3FDD62"/>
<path d="M22.8975 5.72363H20.0352V8.586H22.8975V5.72363Z" fill="#3FDD62"/>
<path d="M22.8975 2.8623H20.0352V5.72322H22.8975V2.8623Z" fill="#3FDD62"/>
<path d="M22.8975 0H20.0352V2.86237H22.8975V0Z" fill="#24943D"/>
<path d="M20.0352 22.8965H17.1729V25.7589H20.0352V22.8965Z" fill="#170F0C"/>
<path d="M20.0352 20.0342H17.1729V22.8966H20.0352V20.0342Z" fill="#24943D"/>
<path d="M20.0352 17.1709H17.1729V20.0333H20.0352V17.1709Z" fill="#3FDD62"/>
<path d="M20.0352 14.3105H17.1729V17.1715H20.0352V14.3105Z" fill="#3FDD62"/>
<path d="M20.0352 11.4482H17.1729V14.3106H20.0352V11.4482Z" fill="#3FDD62"/>
<path d="M20.0352 8.58594H17.1729V11.4483H20.0352V8.58594Z" fill="#3FDD62"/>
<path d="M20.0352 5.72363H17.1729V8.586H20.0352V5.72363Z" fill="#3FDD62"/>
<path d="M20.0352 2.8623H17.1729V5.72322H20.0352V2.8623Z" fill="#3FDD62"/>
<path d="M20.0352 0H17.1729V2.86237H20.0352V0Z" fill="#24943D"/>
<path d="M17.1729 22.8965H14.3105V25.7589H17.1729V22.8965Z" fill="#170F0C"/>
<path d="M17.1729 20.0342H14.3105V22.8966H17.1729V20.0342Z" fill="#24943D"/>
<path d="M17.1729 17.1709H14.3105V20.0333H17.1729V17.1709Z" fill="#3FDD62"/>
<path d="M17.1729 14.3105H14.3105V17.1715H17.1729V14.3105Z" fill="#3FDD62"/>
<path d="M17.1729 11.4482H14.3105V14.3106H17.1729V11.4482Z" fill="#3FDD62"/>
<path d="M17.1729 8.58594H14.3105V11.4483H17.1729V8.58594Z" fill="#3FDD62"/>
<path d="M17.1729 5.72363H14.3105V8.586H17.1729V5.72363Z" fill="#3FDD62"/>
<path d="M17.1729 2.8623H14.3105V5.72322H17.1729V2.8623Z" fill="#3FDD62"/>
<path d="M17.1729 0H14.3105V2.86237H17.1729V0Z" fill="#24943D"/>
<path d="M14.3104 22.8965H11.4495V25.7589H14.3104V22.8965Z" fill="#170F0C"/>
<path d="M14.3104 20.0342H11.4495V22.8966H14.3104V20.0342Z" fill="#24943D"/>
<path d="M14.3104 17.1709H11.4495V20.0333H14.3104V17.1709Z" fill="#3FDD62"/>
<path d="M14.3104 14.3105H11.4495V17.1715H14.3104V14.3105Z" fill="#3FDD62"/>
<path d="M14.3104 11.4482H11.4495V14.3106H14.3104V11.4482Z" fill="#3FDD62"/>
<path d="M14.3104 8.58594H11.4495V11.4483H14.3104V8.58594Z" fill="#3FDD62"/>
<path d="M14.3104 5.72363H11.4495V8.586H14.3104V5.72363Z" fill="#3FDD62"/>
<path d="M14.3104 2.8623H11.4495V5.72322H14.3104V2.8623Z" fill="#3FDD62"/>
<path d="M14.3104 0H11.4495V2.86237H14.3104V0Z" fill="#24943D"/>
<path d="M11.4495 22.8965H8.58716V25.7589H11.4495V22.8965Z" fill="#170F0C"/>
<path d="M11.4495 20.0342H8.58716V22.8966H11.4495V20.0342Z" fill="#24943D"/>
<path d="M11.4495 17.1709H8.58716V20.0333H11.4495V17.1709Z" fill="#3FDD62"/>
<path d="M11.4495 14.3105H8.58716V17.1715H11.4495V14.3105Z" fill="#3FDD62"/>
<path d="M11.4495 11.4482H8.58716V14.3106H11.4495V11.4482Z" fill="#3FDD62"/>
<path d="M11.4495 8.58594H8.58716V11.4483H11.4495V8.58594Z" fill="#3FDD62"/>
<path d="M11.4495 5.72363H8.58716V8.586H11.4495V5.72363Z" fill="#3FDD62"/>
<path d="M11.4495 2.8623H8.58716V5.72322H11.4495V2.8623Z" fill="#3FDD62"/>
<path d="M11.4495 0H8.58716V2.86237H11.4495V0Z" fill="#24943D"/>
<path d="M8.58698 22.8965H5.72461V25.7589H8.58698V22.8965Z" fill="#170F0C"/>
<path d="M8.58698 20.0342H5.72461V22.8966H8.58698V20.0342Z" fill="#170F0C"/>
<path d="M8.58698 17.1709H5.72461V20.0333H8.58698V17.1709Z" fill="#24943D"/>
<path d="M8.58698 14.3105H5.72461V17.1715H8.58698V14.3105Z" fill="#3FDD62"/>
<path d="M8.58698 11.4482H5.72461V14.3106H8.58698V11.4482Z" fill="#3FDD62"/>
<path d="M8.58698 8.58594H5.72461V11.4483H8.58698V8.58594Z" fill="#3FDD62"/>
<path d="M8.58698 5.72363H5.72461V8.586H8.58698V5.72363Z" fill="#3FDD62"/>
<path d="M8.58698 2.8623H5.72461V5.72322H8.58698V2.8623Z" fill="#24943D"/>
<path d="M8.58698 0H5.72461V2.86237H8.58698V0Z" fill="#170F0C"/>
<path d="M5.72468 20.0342H2.8623V22.8966H5.72468V20.0342Z" fill="#170F0C"/>
<path d="M5.72468 17.1709H2.8623V20.0333H5.72468V17.1709Z" fill="#170F0C"/>
<path d="M5.72468 14.3105H2.8623V17.1715H5.72468V14.3105Z" fill="#24943D"/>
<path d="M5.72468 11.4482H2.8623V14.3106H5.72468V11.4482Z" fill="#24943D"/>
<path d="M5.72468 8.58594H2.8623V11.4483H5.72468V8.58594Z" fill="#24943D"/>
<path d="M5.72468 5.72363H2.8623V8.586H5.72468V5.72363Z" fill="#24943D"/>
<path d="M5.72468 2.8623H2.8623V5.72322H5.72468V2.8623Z" fill="#170F0C"/>
<path d="M2.86237 17.1709H0V20.0333H2.86237V17.1709Z" fill="#170F0C"/>
<path d="M2.86237 14.3105H0V17.1715H2.86237V14.3105Z" fill="#170F0C"/>
<path d="M2.86237 11.4482H0V14.3106H2.86237V11.4482Z" fill="#170F0C"/>
<path d="M2.86237 8.58594H0V11.4483H2.86237V8.58594Z" fill="#170F0C"/>
<path d="M2.86237 5.72363H0V8.586H2.86237V5.72363Z" fill="#170F0C"/>
<mask id="path-250-outside-1_1065_2813" maskUnits="userSpaceOnUse" x="11" y="5" width="61" height="12" fill="black">
<rect fill="white" x="11" y="5" width="61" height="12"/>
<path d="M13.125 7.125H21.375V11.25H20.6875V11.9375H19.3125V11.25H20V7.8125H13.125V7.125ZM22.0625 14.6875H12.4375V14H22.0625V14.6875ZM24.125 7.8125H31V7.125H24.125V6.4375H32.375V8.5H25.5V9.1875H32.375V9.875H24.8125V9.1875H24.125V7.8125ZM33.0625 11.25H28.9375V12.625H27.5625V11.25H23.4375V10.5625H33.0625V11.25ZM24.8125 14.6875H24.125V11.9375H25.5V13.3125H31V11.9375H32.375V14.6875H31.6875V15.375H24.8125V14.6875ZM31 14H25.5V14.6875H31V14ZM45.4375 10.5625H44.75V11.25H40.625V10.5625H39.9375V6.4375H45.4375V10.5625ZM48.1875 8.5H50.25V9.1875H48.1875V11.25H46.8125V6.4375H48.1875V8.5ZM44.0625 7.125H41.3125V10.5625H44.0625V7.125ZM42 14.6875H48.1875V15.375H41.3125V14.6875H40.625V11.9375H42V14.6875ZM51.625 6.4375H59.875V7.125H53V9.1875H59.875V9.875H52.3125V9.1875H51.625V6.4375ZM60.5625 11.25H50.9375V10.5625H60.5625V11.25ZM51.625 13.3125H58.5V12.625H51.625V11.9375H59.875V14H53V14.6875H59.875V15.375H52.3125V14.6875H51.625V13.3125ZM70.875 15.375H69.5V6.4375H70.875V15.375ZM64 13.3125H64.6875V7.8125H61.9375V7.125H66.0625V13.3125H65.375V14H64.6875V14.6875H62.625V14H64V13.3125Z"/>
</mask>
<path d="M13.125 7.125H21.375V11.25H20.6875V11.9375H19.3125V11.25H20V7.8125H13.125V7.125ZM22.0625 14.6875H12.4375V14H22.0625V14.6875ZM24.125 7.8125H31V7.125H24.125V6.4375H32.375V8.5H25.5V9.1875H32.375V9.875H24.8125V9.1875H24.125V7.8125ZM33.0625 11.25H28.9375V12.625H27.5625V11.25H23.4375V10.5625H33.0625V11.25ZM24.8125 14.6875H24.125V11.9375H25.5V13.3125H31V11.9375H32.375V14.6875H31.6875V15.375H24.8125V14.6875ZM31 14H25.5V14.6875H31V14ZM45.4375 10.5625H44.75V11.25H40.625V10.5625H39.9375V6.4375H45.4375V10.5625ZM48.1875 8.5H50.25V9.1875H48.1875V11.25H46.8125V6.4375H48.1875V8.5ZM44.0625 7.125H41.3125V10.5625H44.0625V7.125ZM42 14.6875H48.1875V15.375H41.3125V14.6875H40.625V11.9375H42V14.6875ZM51.625 6.4375H59.875V7.125H53V9.1875H59.875V9.875H52.3125V9.1875H51.625V6.4375ZM60.5625 11.25H50.9375V10.5625H60.5625V11.25ZM51.625 13.3125H58.5V12.625H51.625V11.9375H59.875V14H53V14.6875H59.875V15.375H52.3125V14.6875H51.625V13.3125ZM70.875 15.375H69.5V6.4375H70.875V15.375ZM64 13.3125H64.6875V7.8125H61.9375V7.125H66.0625V13.3125H65.375V14H64.6875V14.6875H62.625V14H64V13.3125Z" fill="black"/>
<path d="M13.125 7.125V6.125H12.125V7.125H13.125ZM21.375 7.125H22.375V6.125H21.375V7.125ZM21.375 11.25V12.25H22.375V11.25H21.375ZM20.6875 11.25V10.25H19.6875V11.25H20.6875ZM20.6875 11.9375V12.9375H21.6875V11.9375H20.6875ZM19.3125 11.9375H18.3125V12.9375H19.3125V11.9375ZM19.3125 11.25V10.25H18.3125V11.25H19.3125ZM20 11.25V12.25H21V11.25H20ZM20 7.8125H21V6.8125H20V7.8125ZM13.125 7.8125H12.125V8.8125H13.125V7.8125ZM22.0625 14.6875V15.6875H23.0625V14.6875H22.0625ZM12.4375 14.6875H11.4375V15.6875H12.4375V14.6875ZM12.4375 14V13H11.4375V14H12.4375ZM22.0625 14H23.0625V13H22.0625V14ZM13.125 8.125H21.375V6.125H13.125V8.125ZM20.375 7.125V11.25H22.375V7.125H20.375ZM21.375 10.25H20.6875V12.25H21.375V10.25ZM19.6875 11.25V11.9375H21.6875V11.25H19.6875ZM20.6875 10.9375H19.3125V12.9375H20.6875V10.9375ZM20.3125 11.9375V11.25H18.3125V11.9375H20.3125ZM19.3125 12.25H20V10.25H19.3125V12.25ZM21 11.25V7.8125H19V11.25H21ZM20 6.8125H13.125V8.8125H20V6.8125ZM14.125 7.8125V7.125H12.125V7.8125H14.125ZM22.0625 13.6875H12.4375V15.6875H22.0625V13.6875ZM13.4375 14.6875V14H11.4375V14.6875H13.4375ZM12.4375 15H22.0625V13H12.4375V15ZM21.0625 14V14.6875H23.0625V14H21.0625ZM24.125 7.8125V6.8125H23.125V7.8125H24.125ZM31 7.8125V8.8125H32V7.8125H31ZM31 7.125H32V6.125H31V7.125ZM24.125 7.125H23.125V8.125H24.125V7.125ZM24.125 6.4375V5.4375H23.125V6.4375H24.125ZM32.375 6.4375H33.375V5.4375H32.375V6.4375ZM32.375 8.5V9.5H33.375V8.5H32.375ZM25.5 8.5V7.5H24.5V8.5H25.5ZM25.5 9.1875H24.5V10.1875H25.5V9.1875ZM32.375 9.1875H33.375V8.1875H32.375V9.1875ZM32.375 9.875V10.875H33.375V9.875H32.375ZM24.8125 9.875H23.8125V10.875H24.8125V9.875ZM24.8125 9.1875H25.8125V8.1875H24.8125V9.1875ZM24.125 9.1875H23.125V10.1875H24.125V9.1875ZM33.0625 11.25V12.25H34.0625V11.25H33.0625ZM28.9375 11.25V10.25H27.9375V11.25H28.9375ZM28.9375 12.625V13.625H29.9375V12.625H28.9375ZM27.5625 12.625H26.5625V13.625H27.5625V12.625ZM27.5625 11.25H28.5625V10.25H27.5625V11.25ZM23.4375 11.25H22.4375V12.25H23.4375V11.25ZM23.4375 10.5625V9.5625H22.4375V10.5625H23.4375ZM33.0625 10.5625H34.0625V9.5625H33.0625V10.5625ZM24.8125 14.6875H25.8125V13.6875H24.8125V14.6875ZM24.125 14.6875H23.125V15.6875H24.125V14.6875ZM24.125 11.9375V10.9375H23.125V11.9375H24.125ZM25.5 11.9375H26.5V10.9375H25.5V11.9375ZM25.5 13.3125H24.5V14.3125H25.5V13.3125ZM31 13.3125V14.3125H32V13.3125H31ZM31 11.9375V10.9375H30V11.9375H31ZM32.375 11.9375H33.375V10.9375H32.375V11.9375ZM32.375 14.6875V15.6875H33.375V14.6875H32.375ZM31.6875 14.6875V13.6875H30.6875V14.6875H31.6875ZM31.6875 15.375V16.375H32.6875V15.375H31.6875ZM24.8125 15.375H23.8125V16.375H24.8125V15.375ZM31 14H32V13H31V14ZM25.5 14V13H24.5V14H25.5ZM25.5 14.6875H24.5V15.6875H25.5V14.6875ZM31 14.6875V15.6875H32V14.6875H31ZM24.125 8.8125H31V6.8125H24.125V8.8125ZM32 7.8125V7.125H30V7.8125H32ZM31 6.125H24.125V8.125H31V6.125ZM25.125 7.125V6.4375H23.125V7.125H25.125ZM24.125 7.4375H32.375V5.4375H24.125V7.4375ZM31.375 6.4375V8.5H33.375V6.4375H31.375ZM32.375 7.5H25.5V9.5H32.375V7.5ZM24.5 8.5V9.1875H26.5V8.5H24.5ZM25.5 10.1875H32.375V8.1875H25.5V10.1875ZM31.375 9.1875V9.875H33.375V9.1875H31.375ZM32.375 8.875H24.8125V10.875H32.375V8.875ZM25.8125 9.875V9.1875H23.8125V9.875H25.8125ZM24.8125 8.1875H24.125V10.1875H24.8125V8.1875ZM25.125 9.1875V7.8125H23.125V9.1875H25.125ZM33.0625 10.25H28.9375V12.25H33.0625V10.25ZM27.9375 11.25V12.625H29.9375V11.25H27.9375ZM28.9375 11.625H27.5625V13.625H28.9375V11.625ZM28.5625 12.625V11.25H26.5625V12.625H28.5625ZM27.5625 10.25H23.4375V12.25H27.5625V10.25ZM24.4375 11.25V10.5625H22.4375V11.25H24.4375ZM23.4375 11.5625H33.0625V9.5625H23.4375V11.5625ZM32.0625 10.5625V11.25H34.0625V10.5625H32.0625ZM24.8125 13.6875H24.125V15.6875H24.8125V13.6875ZM25.125 14.6875V11.9375H23.125V14.6875H25.125ZM24.125 12.9375H25.5V10.9375H24.125V12.9375ZM24.5 11.9375V13.3125H26.5V11.9375H24.5ZM25.5 14.3125H31V12.3125H25.5V14.3125ZM32 13.3125V11.9375H30V13.3125H32ZM31 12.9375H32.375V10.9375H31V12.9375ZM31.375 11.9375V14.6875H33.375V11.9375H31.375ZM32.375 13.6875H31.6875V15.6875H32.375V13.6875ZM30.6875 14.6875V15.375H32.6875V14.6875H30.6875ZM31.6875 14.375H24.8125V16.375H31.6875V14.375ZM25.8125 15.375V14.6875H23.8125V15.375H25.8125ZM31 13H25.5V15H31V13ZM24.5 14V14.6875H26.5V14H24.5ZM25.5 15.6875H31V13.6875H25.5V15.6875ZM32 14.6875V14H30V14.6875H32ZM45.4375 10.5625V11.5625H46.4375V10.5625H45.4375ZM44.75 10.5625V9.5625H43.75V10.5625H44.75ZM44.75 11.25V12.25H45.75V11.25H44.75ZM40.625 11.25H39.625V12.25H40.625V11.25ZM40.625 10.5625H41.625V9.5625H40.625V10.5625ZM39.9375 10.5625H38.9375V11.5625H39.9375V10.5625ZM39.9375 6.4375V5.4375H38.9375V6.4375H39.9375ZM45.4375 6.4375H46.4375V5.4375H45.4375V6.4375ZM48.1875 8.5H47.1875V9.5H48.1875V8.5ZM50.25 8.5H51.25V7.5H50.25V8.5ZM50.25 9.1875V10.1875H51.25V9.1875H50.25ZM48.1875 9.1875V8.1875H47.1875V9.1875H48.1875ZM48.1875 11.25V12.25H49.1875V11.25H48.1875ZM46.8125 11.25H45.8125V12.25H46.8125V11.25ZM46.8125 6.4375V5.4375H45.8125V6.4375H46.8125ZM48.1875 6.4375H49.1875V5.4375H48.1875V6.4375ZM44.0625 7.125H45.0625V6.125H44.0625V7.125ZM41.3125 7.125V6.125H40.3125V7.125H41.3125ZM41.3125 10.5625H40.3125V11.5625H41.3125V10.5625ZM44.0625 10.5625V11.5625H45.0625V10.5625H44.0625ZM42 14.6875H41V15.6875H42V14.6875ZM48.1875 14.6875H49.1875V13.6875H48.1875V14.6875ZM48.1875 15.375V16.375H49.1875V15.375H48.1875ZM41.3125 15.375H40.3125V16.375H41.3125V15.375ZM41.3125 14.6875H42.3125V13.6875H41.3125V14.6875ZM40.625 14.6875H39.625V15.6875H40.625V14.6875ZM40.625 11.9375V10.9375H39.625V11.9375H40.625ZM42 11.9375H43V10.9375H42V11.9375ZM45.4375 9.5625H44.75V11.5625H45.4375V9.5625ZM43.75 10.5625V11.25H45.75V10.5625H43.75ZM44.75 10.25H40.625V12.25H44.75V10.25ZM41.625 11.25V10.5625H39.625V11.25H41.625ZM40.625 9.5625H39.9375V11.5625H40.625V9.5625ZM40.9375 10.5625V6.4375H38.9375V10.5625H40.9375ZM39.9375 7.4375H45.4375V5.4375H39.9375V7.4375ZM44.4375 6.4375V10.5625H46.4375V6.4375H44.4375ZM48.1875 9.5H50.25V7.5H48.1875V9.5ZM49.25 8.5V9.1875H51.25V8.5H49.25ZM50.25 8.1875H48.1875V10.1875H50.25V8.1875ZM47.1875 9.1875V11.25H49.1875V9.1875H47.1875ZM48.1875 10.25H46.8125V12.25H48.1875V10.25ZM47.8125 11.25V6.4375H45.8125V11.25H47.8125ZM46.8125 7.4375H48.1875V5.4375H46.8125V7.4375ZM47.1875 6.4375V8.5H49.1875V6.4375H47.1875ZM44.0625 6.125H41.3125V8.125H44.0625V6.125ZM40.3125 7.125V10.5625H42.3125V7.125H40.3125ZM41.3125 11.5625H44.0625V9.5625H41.3125V11.5625ZM45.0625 10.5625V7.125H43.0625V10.5625H45.0625ZM42 15.6875H48.1875V13.6875H42V15.6875ZM47.1875 14.6875V15.375H49.1875V14.6875H47.1875ZM48.1875 14.375H41.3125V16.375H48.1875V14.375ZM42.3125 15.375V14.6875H40.3125V15.375H42.3125ZM41.3125 13.6875H40.625V15.6875H41.3125V13.6875ZM41.625 14.6875V11.9375H39.625V14.6875H41.625ZM40.625 12.9375H42V10.9375H40.625V12.9375ZM41 11.9375V14.6875H43V11.9375H41ZM51.625 6.4375V5.4375H50.625V6.4375H51.625ZM59.875 6.4375H60.875V5.4375H59.875V6.4375ZM59.875 7.125V8.125H60.875V7.125H59.875ZM53 7.125V6.125H52V7.125H53ZM53 9.1875H52V10.1875H53V9.1875ZM59.875 9.1875H60.875V8.1875H59.875V9.1875ZM59.875 9.875V10.875H60.875V9.875H59.875ZM52.3125 9.875H51.3125V10.875H52.3125V9.875ZM52.3125 9.1875H53.3125V8.1875H52.3125V9.1875ZM51.625 9.1875H50.625V10.1875H51.625V9.1875ZM60.5625 11.25V12.25H61.5625V11.25H60.5625ZM50.9375 11.25H49.9375V12.25H50.9375V11.25ZM50.9375 10.5625V9.5625H49.9375V10.5625H50.9375ZM60.5625 10.5625H61.5625V9.5625H60.5625V10.5625ZM51.625 13.3125V12.3125H50.625V13.3125H51.625ZM58.5 13.3125V14.3125H59.5V13.3125H58.5ZM58.5 12.625H59.5V11.625H58.5V12.625ZM51.625 12.625H50.625V13.625H51.625V12.625ZM51.625 11.9375V10.9375H50.625V11.9375H51.625ZM59.875 11.9375H60.875V10.9375H59.875V11.9375ZM59.875 14V15H60.875V14H59.875ZM53 14V13H52V14H53ZM53 14.6875H52V15.6875H53V14.6875ZM59.875 14.6875H60.875V13.6875H59.875V14.6875ZM59.875 15.375V16.375H60.875V15.375H59.875ZM52.3125 15.375H51.3125V16.375H52.3125V15.375ZM52.3125 14.6875H53.3125V13.6875H52.3125V14.6875ZM51.625 14.6875H50.625V15.6875H51.625V14.6875ZM51.625 7.4375H59.875V5.4375H51.625V7.4375ZM58.875 6.4375V7.125H60.875V6.4375H58.875ZM59.875 6.125H53V8.125H59.875V6.125ZM52 7.125V9.1875H54V7.125H52ZM53 10.1875H59.875V8.1875H53V10.1875ZM58.875 9.1875V9.875H60.875V9.1875H58.875ZM59.875 8.875H52.3125V10.875H59.875V8.875ZM53.3125 9.875V9.1875H51.3125V9.875H53.3125ZM52.3125 8.1875H51.625V10.1875H52.3125V8.1875ZM52.625 9.1875V6.4375H50.625V9.1875H52.625ZM60.5625 10.25H50.9375V12.25H60.5625V10.25ZM51.9375 11.25V10.5625H49.9375V11.25H51.9375ZM50.9375 11.5625H60.5625V9.5625H50.9375V11.5625ZM59.5625 10.5625V11.25H61.5625V10.5625H59.5625ZM51.625 14.3125H58.5V12.3125H51.625V14.3125ZM59.5 13.3125V12.625H57.5V13.3125H59.5ZM58.5 11.625H51.625V13.625H58.5V11.625ZM52.625 12.625V11.9375H50.625V12.625H52.625ZM51.625 12.9375H59.875V10.9375H51.625V12.9375ZM58.875 11.9375V14H60.875V11.9375H58.875ZM59.875 13H53V15H59.875V13ZM52 14V14.6875H54V14H52ZM53 15.6875H59.875V13.6875H53V15.6875ZM58.875 14.6875V15.375H60.875V14.6875H58.875ZM59.875 14.375H52.3125V16.375H59.875V14.375ZM53.3125 15.375V14.6875H51.3125V15.375H53.3125ZM52.3125 13.6875H51.625V15.6875H52.3125V13.6875ZM52.625 14.6875V13.3125H50.625V14.6875H52.625ZM70.875 15.375V16.375H71.875V15.375H70.875ZM69.5 15.375H68.5V16.375H69.5V15.375ZM69.5 6.4375V5.4375H68.5V6.4375H69.5ZM70.875 6.4375H71.875V5.4375H70.875V6.4375ZM64 13.3125V12.3125H63V13.3125H64ZM64.6875 13.3125V14.3125H65.6875V13.3125H64.6875ZM64.6875 7.8125H65.6875V6.8125H64.6875V7.8125ZM61.9375 7.8125H60.9375V8.8125H61.9375V7.8125ZM61.9375 7.125V6.125H60.9375V7.125H61.9375ZM66.0625 7.125H67.0625V6.125H66.0625V7.125ZM66.0625 13.3125V14.3125H67.0625V13.3125H66.0625ZM65.375 13.3125V12.3125H64.375V13.3125H65.375ZM65.375 14V15H66.375V14H65.375ZM64.6875 14V13H63.6875V14H64.6875ZM64.6875 14.6875V15.6875H65.6875V14.6875H64.6875ZM62.625 14.6875H61.625V15.6875H62.625V14.6875ZM62.625 14V13H61.625V14H62.625ZM64 14V15H65V14H64ZM70.875 14.375H69.5V16.375H70.875V14.375ZM70.5 15.375V6.4375H68.5V15.375H70.5ZM69.5 7.4375H70.875V5.4375H69.5V7.4375ZM69.875 6.4375V15.375H71.875V6.4375H69.875ZM64 14.3125H64.6875V12.3125H64V14.3125ZM65.6875 13.3125V7.8125H63.6875V13.3125H65.6875ZM64.6875 6.8125H61.9375V8.8125H64.6875V6.8125ZM62.9375 7.8125V7.125H60.9375V7.8125H62.9375ZM61.9375 8.125H66.0625V6.125H61.9375V8.125ZM65.0625 7.125V13.3125H67.0625V7.125H65.0625ZM66.0625 12.3125H65.375V14.3125H66.0625V12.3125ZM64.375 13.3125V14H66.375V13.3125H64.375ZM65.375 13H64.6875V15H65.375V13ZM63.6875 14V14.6875H65.6875V14H63.6875ZM64.6875 13.6875H62.625V15.6875H64.6875V13.6875ZM63.625 14.6875V14H61.625V14.6875H63.625ZM62.625 15H64V13H62.625V15ZM65 14V13.3125H63V14H65Z" fill="white" mask="url(#path-250-outside-1_1065_2813)"/>
</svg>
