<svg width="67" height="26" viewBox="0 0 67 26" fill="none" xmlns="http://www.w3.org/2000/svg">
<rect x="17.9998" y="20.8" width="2.57144" height="2.5999" fill="#BC8C61"/>
<rect x="20.5714" y="20.8" width="2.57144" height="2.5999" fill="#BC8C61"/>
<rect x="23.1427" y="20.8" width="2.57144" height="2.5999" fill="#BC8C61"/>
<rect x="25.714" y="20.8" width="2.57144" height="2.5999" fill="#BC8C61"/>
<rect x="28.2858" y="20.8" width="2.57144" height="2.5999" fill="#BC8C61"/>
<rect x="30.8571" y="20.8" width="2.57144" height="2.5999" fill="#BC8C61"/>
<rect x="33.4283" y="20.8" width="2.57144" height="2.5999" fill="#BC8C61"/>
<rect x="35.9996" y="20.8" width="2.57144" height="2.5999" fill="#BC8C61"/>
<rect x="38.5709" y="20.8" width="2.57144" height="2.5999" fill="#BC8C61"/>
<rect x="41.1427" y="20.8" width="2.57144" height="2.5999" fill="#BC8C61"/>
<rect x="43.714" y="20.8" width="2.57144" height="2.5999" fill="#BC8C61"/>
<rect x="46.2853" y="20.8" width="2.57144" height="2.5999" fill="#BC8C61"/>
<rect x="48.8569" y="20.8" width="2.57144" height="2.5999" fill="#BC8C61"/>
<rect x="51.4283" y="20.8" width="2.57144" height="2.5999" fill="#BC8C61"/>
<rect x="54" y="20.8" width="2.57144" height="2.5999" fill="#BC8C61"/>
<rect x="56.5713" y="20.8" width="2.57144" height="2.5999" fill="#BC8C61"/>
<rect x="59.1431" y="20.8" width="2.57144" height="2.5999" fill="#BC8C61"/>
<rect x="61.7144" y="18.1995" width="2.57144" height="2.5999" fill="#BC8C61"/>
<rect x="64.2856" y="15.5991" width="2.57144" height="2.5999" fill="#BC8C61"/>
<rect x="64.2856" y="13" width="2.57144" height="2.5999" fill="#BC8C61"/>
<rect x="64.2856" y="10.3992" width="2.57144" height="2.5999" fill="#BC8C61"/>
<rect x="64.2856" y="7.79932" width="2.57144" height="2.5999" fill="#BC8C61"/>
<rect x="64.2856" y="5.19995" width="2.57144" height="2.5999" fill="#BC8C61"/>
<rect x="61.7144" y="2.59912" width="2.57144" height="2.5999" fill="#BC8C61"/>
<rect x="2.57104" y="5.19995" width="2.57144" height="2.5999" fill="#BC8C61"/>
<path d="M2.57104 7.79932H5.14248V10.3992H2.57104V7.79932Z" fill="#BC8C61"/>
<path d="M2.57104 10.3992H5.14248V12.9991H2.57104V10.3992Z" fill="#BC8C61"/>
<path d="M2.57104 12.9991H5.14248V15.599H2.57104V12.9991Z" fill="#BC8C61"/>
<path d="M2.57104 15.599H5.14248V18.1989H2.57104V15.599Z" fill="#BC8C61"/>
<rect x="5.14246" y="2.59912" width="2.57144" height="2.5999" fill="#BC8C61"/>
<path d="M7.71375 0H10.2852V2.5999H7.71375V0Z" fill="#BC8C61"/>
<rect x="10.2854" width="2.57144" height="2.5999" fill="#BC8C61"/>
<rect x="10.2854" y="20.8" width="2.57144" height="2.5999" fill="#BC8C61"/>
<rect x="12.8567" y="20.8" width="2.57144" height="2.5999" fill="#BC8C61"/>
<rect x="7.71375" y="20.8" width="2.57144" height="2.5999" fill="#BC8C61"/>
<rect x="5.14246" y="18.1995" width="2.57144" height="2.5999" fill="#BC8C61"/>
<rect x="15.4285" y="20.8" width="2.57144" height="2.5999" fill="#BC8C61"/>
<rect x="17.9998" width="2.57144" height="2.5999" fill="#BC8C61"/>
<rect x="20.5714" width="2.57144" height="2.5999" fill="#BC8C61"/>
<rect x="23.1427" width="2.57144" height="2.5999" fill="#BC8C61"/>
<rect x="25.714" width="2.57144" height="2.5999" fill="#BC8C61"/>
<rect x="28.2858" width="2.57144" height="2.5999" fill="#BC8C61"/>
<rect x="30.8571" width="2.57144" height="2.5999" fill="#BC8C61"/>
<rect x="33.4283" width="2.57144" height="2.5999" fill="#BC8C61"/>
<rect x="35.9996" width="2.57144" height="2.5999" fill="#BC8C61"/>
<rect x="38.5709" width="2.57144" height="2.5999" fill="#BC8C61"/>
<rect x="41.1427" width="2.57144" height="2.5999" fill="#BC8C61"/>
<rect x="43.714" width="2.57144" height="2.5999" fill="#BC8C61"/>
<rect x="46.2853" width="2.57144" height="2.5999" fill="#BC8C61"/>
<rect x="48.8569" width="2.57144" height="2.5999" fill="#BC8C61"/>
<rect x="51.4283" width="2.57144" height="2.5999" fill="#BC8C61"/>
<rect x="54" width="2.57144" height="2.5999" fill="#BC8C61"/>
<rect x="56.5713" width="2.57144" height="2.5999" fill="#BC8C61"/>
<rect x="59.1431" width="2.57144" height="2.5999" fill="#BC8C61"/>
<rect x="15.4285" width="2.57144" height="2.5999" fill="#BC8C61"/>
<rect x="12.8567" width="2.57144" height="2.5999" fill="#BC8C61"/>
<rect x="12.8567" y="7.79932" width="2.57144" height="2.5999" fill="#FCBD80"/>
<rect x="15.4285" y="7.79932" width="2.57144" height="2.5999" fill="#FCBD80"/>
<rect x="15.4285" y="5.19995" width="2.57144" height="2.5999" fill="#FCBD80"/>
<rect x="12.8567" y="5.19995" width="2.57144" height="2.5999" fill="#FCBD80"/>
<rect x="33.4283" y="7.79932" width="2.57144" height="2.5999" fill="#FCBD80"/>
<rect x="33.4283" y="10.3992" width="2.57144" height="2.5999" fill="#FCBD80"/>
<rect x="33.4283" y="15.5991" width="2.57144" height="2.5999" fill="#FCBD80"/>
<rect x="7.71375" y="2.59912" width="2.57144" height="2.5999" fill="#FCBD80"/>
<rect x="7.71375" y="18.1995" width="2.57144" height="2.5999" fill="#FCBD80"/>
<rect x="7.71375" y="15.5991" width="2.57144" height="2.5999" fill="#FCBD80"/>
<rect x="7.71375" y="13" width="2.57144" height="2.5999" fill="#FCBD80"/>
<rect x="10.2854" y="13" width="2.57144" height="2.5999" fill="#FCBD80"/>
<rect x="7.71375" y="10.3992" width="2.57144" height="2.5999" fill="#FCBD80"/>
<rect x="7.71375" y="7.79932" width="2.57144" height="2.5999" fill="#FCBD80"/>
<rect x="7.71375" y="5.19995" width="2.57144" height="2.5999" fill="#FCBD80"/>
<rect x="5.14246" y="15.5991" width="2.57144" height="2.5999" fill="#FCBD80"/>
<rect x="5.14246" y="13" width="2.57144" height="2.5999" fill="#FCBD80"/>
<rect x="5.14246" y="10.3992" width="2.57144" height="2.5999" fill="#FCBD80"/>
<rect x="5.14246" y="7.79932" width="2.57144" height="2.5999" fill="#FCBD80"/>
<rect x="10.2854" y="5.19995" width="2.57144" height="2.5999" fill="#FCBD80"/>
<rect x="10.2854" y="7.79932" width="2.57144" height="2.5999" fill="#FCBD80"/>
<rect x="10.2854" y="10.3992" width="2.57144" height="2.5999" fill="#FCBD80"/>
<rect x="12.8567" y="10.3992" width="2.57144" height="2.5999" fill="#FCBD80"/>
<rect x="15.4285" y="10.3992" width="2.57144" height="2.5999" fill="#FCBD80"/>
<rect x="15.4285" y="13" width="2.57144" height="2.5999" fill="#FCBD80"/>
<rect x="15.4285" y="15.5991" width="2.57144" height="2.5999" fill="#FCBD80"/>
<rect x="12.8567" y="15.5991" width="2.57144" height="2.5999" fill="#FCBD80"/>
<rect x="10.2854" y="15.5991" width="2.57144" height="2.5999" fill="#FCBD80"/>
<rect x="5.14246" y="5.19995" width="2.57144" height="2.5999" fill="#FCBD80"/>
<rect x="59.1431" y="15.5991" width="2.57144" height="2.5999" fill="#FCBD80"/>
<rect x="59.1431" y="13" width="2.57144" height="2.5999" fill="#FCBD80"/>
<rect x="59.1431" y="10.3992" width="2.57144" height="2.5999" fill="#FCBD80"/>
<rect x="59.1431" y="7.79932" width="2.57144" height="2.5999" fill="#FCBD80"/>
<rect x="56.5713" y="15.5991" width="2.57144" height="2.5999" fill="#FCBD80"/>
<rect x="56.5713" y="13" width="2.57144" height="2.5999" fill="#FCBD80"/>
<rect x="54" y="10.3992" width="2.57144" height="2.5999" fill="#FCBD80"/>
<rect x="54" y="13" width="2.57144" height="2.5999" fill="#FCBD80"/>
<rect x="56.5713" y="10.3992" width="2.57144" height="2.5999" fill="#FCBD80"/>
<rect x="56.5713" y="5.19995" width="2.57144" height="2.5999" fill="#FCBD80"/>
<rect x="56.5713" y="7.79932" width="2.57144" height="2.5999" fill="#FCBD80"/>
<rect x="51.4283" y="15.5991" width="2.57144" height="2.5999" fill="#FCBD80"/>
<rect x="51.4283" y="13" width="2.57144" height="2.5999" fill="#FCBD80"/>
<rect x="54" y="15.5991" width="2.57144" height="2.5999" fill="#FCBD80"/>
<rect x="51.4283" y="10.3992" width="2.57144" height="2.5999" fill="#FCBD80"/>
<rect x="51.4283" y="7.79932" width="2.57144" height="2.5999" fill="#FCBD80"/>
<rect x="54" y="5.19995" width="2.57144" height="2.5999" fill="#FCBD80"/>
<rect x="54" y="7.79932" width="2.57144" height="2.5999" fill="#FCBD80"/>
<rect x="25.714" y="15.5991" width="2.57144" height="2.5999" fill="#FCBD80"/>
<rect x="23.1427" y="15.5991" width="2.57144" height="2.5999" fill="#FCBD80"/>
<rect x="25.714" y="13" width="2.57144" height="2.5999" fill="#FCBD80"/>
<rect x="23.1427" y="13" width="2.57144" height="2.5999" fill="#FCBD80"/>
<rect x="25.714" y="10.3992" width="2.57144" height="2.5999" fill="#FCBD80"/>
<rect x="23.1427" y="10.3992" width="2.57144" height="2.5999" fill="#FCBD80"/>
<rect x="25.714" y="7.79932" width="2.57144" height="2.5999" fill="#FCBD80"/>
<rect x="23.1427" y="7.79932" width="2.57144" height="2.5999" fill="#FCBD80"/>
<rect x="25.714" y="5.19995" width="2.57144" height="2.5999" fill="#FCBD80"/>
<rect x="20.5714" y="15.5991" width="2.57144" height="2.5999" fill="#FCBD80"/>
<rect x="20.5714" y="13" width="2.57144" height="2.5999" fill="#FCBD80"/>
<rect x="20.5714" y="10.3992" width="2.57144" height="2.5999" fill="#FCBD80"/>
<rect x="20.5714" y="7.79932" width="2.57144" height="2.5999" fill="#FCBD80"/>
<rect x="23.1427" y="5.19995" width="2.57144" height="2.5999" fill="#FCBD80"/>
<rect x="20.5714" y="5.19995" width="2.57144" height="2.5999" fill="#FCBD80"/>
<rect x="59.1431" y="5.19995" width="2.57144" height="2.5999" fill="#FCBD80"/>
<rect x="17.9998" y="15.5991" width="2.57144" height="2.5999" fill="#FCBD80"/>
<rect x="17.9998" y="13" width="2.57144" height="2.5999" fill="#FCBD80"/>
<rect x="17.9998" y="10.3992" width="2.57144" height="2.5999" fill="#FCBD80"/>
<rect x="17.9998" y="7.79932" width="2.57144" height="2.5999" fill="#FCBD80"/>
<rect x="17.9998" y="5.19995" width="2.57144" height="2.5999" fill="#FCBD80"/>
<rect x="28.2858" y="15.5991" width="2.57144" height="2.5999" fill="#FCBD80"/>
<rect x="30.8571" y="15.5991" width="2.57144" height="2.5999" fill="#FCBD80"/>
<rect x="28.2858" y="13" width="2.57144" height="2.5999" fill="#FCBD80"/>
<rect x="30.8571" y="13" width="2.57144" height="2.5999" fill="#FCBD80"/>
<rect x="28.2858" y="10.3992" width="2.57144" height="2.5999" fill="#FCBD80"/>
<rect x="30.8571" y="10.3992" width="2.57144" height="2.5999" fill="#FCBD80"/>
<rect x="28.2858" y="7.79932" width="2.57144" height="2.5999" fill="#FCBD80"/>
<rect x="30.8571" y="7.79932" width="2.57144" height="2.5999" fill="#FCBD80"/>
<rect x="28.2858" y="5.19995" width="2.57144" height="2.5999" fill="#FCBD80"/>
<rect x="33.4283" y="5.19995" width="2.57144" height="2.5999" fill="#FCBD80"/>
<rect x="35.9996" y="5.19995" width="2.57144" height="2.5999" fill="#FCBD80"/>
<rect x="35.9996" y="7.79932" width="2.57144" height="2.5999" fill="#FCBD80"/>
<rect x="35.9996" y="10.3992" width="2.57144" height="2.5999" fill="#FCBD80"/>
<rect x="35.9996" y="13" width="2.57144" height="2.5999" fill="#FCBD80"/>
<rect x="46.2853" y="15.5991" width="2.57144" height="2.5999" fill="#FCBD80"/>
<rect x="35.9996" y="15.5991" width="2.57144" height="2.5999" fill="#FCBD80"/>
<rect x="33.4283" y="13" width="2.57144" height="2.5999" fill="#FCBD80"/>
<rect x="30.8571" y="5.19995" width="2.57144" height="2.5999" fill="#FCBD80"/>
<rect x="38.5709" y="15.5991" width="2.57144" height="2.5999" fill="#FCBD80"/>
<rect x="38.5709" y="13" width="2.57144" height="2.5999" fill="#FCBD80"/>
<rect x="38.5709" y="10.3992" width="2.57144" height="2.5999" fill="#FCBD80"/>
<rect x="38.5709" y="7.79932" width="2.57144" height="2.5999" fill="#FCBD80"/>
<rect x="41.1427" y="7.79932" width="2.57144" height="2.5999" fill="#FCBD80"/>
<rect x="41.1427" y="10.3992" width="2.57144" height="2.5999" fill="#FCBD80"/>
<rect x="41.1427" y="13" width="2.57144" height="2.5999" fill="#FCBD80"/>
<rect x="41.1427" y="15.5991" width="2.57144" height="2.5999" fill="#FCBD80"/>
<rect x="41.1427" y="5.19995" width="2.57144" height="2.5999" fill="#FCBD80"/>
<rect x="43.714" y="5.19995" width="2.57144" height="2.5999" fill="#FCBD80"/>
<rect x="46.2853" y="5.19995" width="2.57144" height="2.5999" fill="#FCBD80"/>
<rect x="46.2853" y="7.79932" width="2.57144" height="2.5999" fill="#FCBD80"/>
<rect x="46.2853" y="13" width="2.57144" height="2.5999" fill="#FCBD80"/>
<rect x="51.4283" y="5.19995" width="2.57144" height="2.5999" fill="#FCBD80"/>
<rect x="43.714" y="10.3992" width="2.57144" height="2.5999" fill="#FCBD80"/>
<rect x="38.5709" y="5.19995" width="2.57144" height="2.5999" fill="#FCBD80"/>
<rect x="43.714" y="7.79932" width="2.57144" height="2.5999" fill="#FCBD80"/>
<rect x="43.714" y="13" width="2.57144" height="2.5999" fill="#FCBD80"/>
<rect x="43.714" y="15.5991" width="2.57144" height="2.5999" fill="#FCBD80"/>
<rect x="48.8569" y="15.5991" width="2.57144" height="2.5999" fill="#FCBD80"/>
<rect x="46.2853" y="10.3992" width="2.57144" height="2.5999" fill="#FCBD80"/>
<rect x="48.8569" y="10.3992" width="2.57144" height="2.5999" fill="#FCBD80"/>
<rect x="48.8569" y="13" width="2.57144" height="2.5999" fill="#FCBD80"/>
<rect x="48.8569" y="7.79932" width="2.57144" height="2.5999" fill="#FCBD80"/>
<rect x="48.8569" y="5.19995" width="2.57144" height="2.5999" fill="#FCBD80"/>
<rect x="61.7144" y="15.5991" width="2.57144" height="2.5999" fill="#FCBD80"/>
<rect x="61.7144" y="13" width="2.57144" height="2.5999" fill="#FCBD80"/>
<rect x="61.7144" y="10.3992" width="2.57144" height="2.5999" fill="#FCBD80"/>
<rect x="61.7144" y="7.79932" width="2.57144" height="2.5999" fill="#FCBD80"/>
<rect x="61.7144" y="5.19995" width="2.57144" height="2.5999" fill="#FCBD80"/>
<rect x="12.8567" y="13" width="2.57144" height="2.5999" fill="#FCBD80"/>
<rect x="10.2854" y="2.59912" width="2.57144" height="2.5999" fill="#FCBD80"/>
<rect x="12.8567" y="2.59912" width="2.57144" height="2.5999" fill="#FCBD80"/>
<rect x="15.4285" y="2.59912" width="2.57144" height="2.5999" fill="#FCBD80"/>
<rect x="17.9998" y="2.59912" width="2.57144" height="2.5999" fill="#FCBD80"/>
<rect x="20.5714" y="2.59912" width="2.57144" height="2.5999" fill="#FCBD80"/>
<rect x="23.1427" y="2.59912" width="2.57144" height="2.5999" fill="#FCBD80"/>
<rect x="25.714" y="2.59912" width="2.57144" height="2.5999" fill="#FCBD80"/>
<rect x="28.2858" y="2.59912" width="2.57144" height="2.5999" fill="#FCBD80"/>
<rect x="30.8571" y="2.59912" width="2.57144" height="2.5999" fill="#FCBD80"/>
<rect x="33.4283" y="2.59912" width="2.57144" height="2.5999" fill="#FCBD80"/>
<rect x="35.9996" y="2.59912" width="2.57144" height="2.5999" fill="#FCBD80"/>
<rect x="35.9996" y="2.59912" width="2.57144" height="2.5999" fill="#FCBD80"/>
<rect x="38.5709" y="2.59912" width="2.57144" height="2.5999" fill="#FCBD80"/>
<rect x="41.1427" y="2.59912" width="2.57144" height="2.5999" fill="#FCBD80"/>
<rect x="43.714" y="2.59912" width="2.57144" height="2.5999" fill="#FCBD80"/>
<rect x="46.2853" y="2.59912" width="2.57144" height="2.5999" fill="#FCBD80"/>
<rect x="48.8569" y="2.59912" width="2.57144" height="2.5999" fill="#FCBD80"/>
<rect x="51.4283" y="2.59912" width="2.57144" height="2.5999" fill="#FCBD80"/>
<rect x="54" y="2.59912" width="2.57144" height="2.5999" fill="#FCBD80"/>
<rect x="56.5713" y="2.59912" width="2.57144" height="2.5999" fill="#FCBD80"/>
<rect x="59.1431" y="2.59912" width="2.57144" height="2.5999" fill="#FCBD80"/>
<rect x="10.2854" y="18.1995" width="2.57144" height="2.5999" fill="#FCBD80"/>
<rect x="12.8567" y="18.1995" width="2.57144" height="2.5999" fill="#FCBD80"/>
<rect x="15.4285" y="18.1995" width="2.57144" height="2.5999" fill="#FCBD80"/>
<rect x="17.9998" y="18.1995" width="2.57144" height="2.5999" fill="#FCBD80"/>
<rect x="20.5714" y="18.1995" width="2.57144" height="2.5999" fill="#FCBD80"/>
<rect x="23.1427" y="18.1995" width="2.57144" height="2.5999" fill="#FCBD80"/>
<rect x="25.714" y="18.1995" width="2.57144" height="2.5999" fill="#FCBD80"/>
<rect x="28.2858" y="18.1995" width="2.57144" height="2.5999" fill="#FCBD80"/>
<rect x="30.8571" y="18.1995" width="2.57144" height="2.5999" fill="#FCBD80"/>
<rect x="33.4283" y="18.1995" width="2.57144" height="2.5999" fill="#FCBD80"/>
<rect x="35.9996" y="18.1995" width="2.57144" height="2.5999" fill="#FCBD80"/>
<rect x="35.9996" y="18.1995" width="2.57144" height="2.5999" fill="#FCBD80"/>
<rect x="38.5709" y="18.1995" width="2.57144" height="2.5999" fill="#FCBD80"/>
<rect x="41.1427" y="18.1995" width="2.57144" height="2.5999" fill="#FCBD80"/>
<rect x="43.714" y="18.1995" width="2.57144" height="2.5999" fill="#FCBD80"/>
<rect x="46.2853" y="18.1995" width="2.57144" height="2.5999" fill="#FCBD80"/>
<rect x="48.8569" y="18.1995" width="2.57144" height="2.5999" fill="#FCBD80"/>
<rect x="51.4283" y="18.1995" width="2.57144" height="2.5999" fill="#FCBD80"/>
<rect x="54" y="18.1995" width="2.57144" height="2.5999" fill="#FCBD80"/>
<rect x="56.5713" y="18.1995" width="2.57144" height="2.5999" fill="#FCBD80"/>
<rect x="59.1431" y="18.1995" width="2.57144" height="2.5999" fill="#FCBD80"/>
<rect x="2.57104" y="2.77271" width="2.57144" height="2.5999" fill="#451B0B"/>
<rect y="5.3728" width="2.57144" height="2.5999" fill="#451B0B"/>
<rect y="7.97339" width="2.57144" height="2.5999" fill="#451B0B"/>
<rect y="10.5725" width="2.57144" height="2.5999" fill="#451B0B"/>
<rect y="13.1726" width="2.57144" height="2.5999" fill="#451B0B"/>
<rect y="15.5991" width="2.57144" height="2.5999" fill="#451B0B"/>
<rect x="2.57104" y="18.1995" width="2.57144" height="2.5999" fill="#451B0B"/>
<rect x="5.14246" y="20.8" width="2.57144" height="2.5999" fill="#451B0B"/>
<rect x="7.71375" y="23.4001" width="2.57144" height="2.5999" fill="#451B0B"/>
<rect x="5.14246" y="23.4001" width="2.57144" height="2.5999" fill="#451B0B"/>
<rect x="2.57104" y="20.8" width="2.57144" height="2.5999" fill="#451B0B"/>
<rect y="18.1995" width="2.57144" height="2.5999" fill="#451B0B"/>
<rect x="10.2854" y="23.4001" width="2.57144" height="2.5999" fill="#451B0B"/>
<rect x="12.8567" y="23.4001" width="2.57144" height="2.5999" fill="#451B0B"/>
<rect x="15.4285" y="23.4001" width="2.57144" height="2.5999" fill="#451B0B"/>
<rect x="17.9998" y="23.4001" width="2.57144" height="2.5999" fill="#451B0B"/>
<rect x="20.5714" y="23.4001" width="2.57144" height="2.5999" fill="#451B0B"/>
<rect x="23.1427" y="23.4001" width="2.57144" height="2.5999" fill="#451B0B"/>
<rect x="25.714" y="23.4001" width="2.57144" height="2.5999" fill="#451B0B"/>
<rect x="28.2858" y="23.4001" width="2.57144" height="2.5999" fill="#451B0B"/>
<rect x="30.8571" y="23.4001" width="2.57144" height="2.5999" fill="#451B0B"/>
<rect x="33.4283" y="23.4001" width="2.57144" height="2.5999" fill="#451B0B"/>
<rect x="35.9996" y="23.4001" width="2.57144" height="2.5999" fill="#451B0B"/>
<rect x="38.5709" y="23.4001" width="2.57144" height="2.5999" fill="#451B0B"/>
<rect x="41.1427" y="23.4001" width="2.57144" height="2.5999" fill="#451B0B"/>
<rect x="43.714" y="23.4001" width="2.57144" height="2.5999" fill="#451B0B"/>
<rect x="46.2853" y="23.4001" width="2.57144" height="2.5999" fill="#451B0B"/>
<rect x="48.8569" y="23.4001" width="2.57144" height="2.5999" fill="#451B0B"/>
<rect x="51.4283" y="23.4001" width="2.57144" height="2.5999" fill="#451B0B"/>
<rect x="54" y="23.4001" width="2.57144" height="2.5999" fill="#451B0B"/>
<rect x="56.5713" y="23.4001" width="2.57144" height="2.5999" fill="#451B0B"/>
<rect x="59.1431" y="23.4001" width="2.57144" height="2.5999" fill="#451B0B"/>
<rect x="61.7144" y="20.8" width="2.57144" height="2.5999" fill="#451B0B"/>
<rect x="64.2856" y="18.1995" width="2.57144" height="2.5999" fill="#451B0B"/>
<rect x="5.14246" y="0.17334" width="2.57144" height="2.5999" fill="#451B0B"/>
<mask id="path-248-outside-1_686_1925" maskUnits="userSpaceOnUse" x="20.0857" y="5.45703" width="29" height="13" fill="black">
<rect fill="white" x="20.0857" y="5.45703" width="29" height="13"/>
<path d="M26.8094 12.207H23.5594V11.3945H22.7469V10.582H21.9344V8.14453H22.7469V7.33203H23.5594V6.51953H26.8094V7.33203H27.6219V8.14453H28.4344V10.582H27.6219V11.3945H26.8094V12.207ZM32.4969 12.207H30.8719V6.51953H32.4969V12.207ZM24.3719 8.14453H23.5594V10.582H24.3719V11.3945H25.9969V10.582H26.8094V8.14453H25.9969V7.33203H24.3719V8.14453ZM23.5594 16.2695H22.7469V13.0195H24.3719V14.6445H30.8719V13.0195H32.4969V16.2695H31.6844V17.082H23.5594V16.2695ZM30.8719 15.457H24.3719V16.2695H30.8719V15.457ZM41.4344 12.207H39.8094V11.3945H38.9969V10.582H37.3719V11.3945H36.5594V12.207H34.9344V11.3945H35.7469V10.582H36.5594V9.76953H37.3719V7.33203H34.9344V6.51953H41.4344V7.33203H38.9969V9.76953H39.8094V10.582H40.6219V11.3945H41.4344V12.207ZM44.6844 8.95703H47.1219V9.76953H44.6844V12.207H43.0594V6.51953H44.6844V8.95703ZM35.7469 13.832H37.3719V13.0195H43.0594V13.832H44.6844V16.2695H43.0594V17.082H37.3719V16.2695H35.7469V13.832ZM38.1844 14.6445H37.3719V15.457H38.1844V16.2695H42.2469V15.457H43.0594V14.6445H42.2469V13.832H38.1844V14.6445Z"/>
</mask>
<path d="M26.8094 12.207H23.5594V11.3945H22.7469V10.582H21.9344V8.14453H22.7469V7.33203H23.5594V6.51953H26.8094V7.33203H27.6219V8.14453H28.4344V10.582H27.6219V11.3945H26.8094V12.207ZM32.4969 12.207H30.8719V6.51953H32.4969V12.207ZM24.3719 8.14453H23.5594V10.582H24.3719V11.3945H25.9969V10.582H26.8094V8.14453H25.9969V7.33203H24.3719V8.14453ZM23.5594 16.2695H22.7469V13.0195H24.3719V14.6445H30.8719V13.0195H32.4969V16.2695H31.6844V17.082H23.5594V16.2695ZM30.8719 15.457H24.3719V16.2695H30.8719V15.457ZM41.4344 12.207H39.8094V11.3945H38.9969V10.582H37.3719V11.3945H36.5594V12.207H34.9344V11.3945H35.7469V10.582H36.5594V9.76953H37.3719V7.33203H34.9344V6.51953H41.4344V7.33203H38.9969V9.76953H39.8094V10.582H40.6219V11.3945H41.4344V12.207ZM44.6844 8.95703H47.1219V9.76953H44.6844V12.207H43.0594V6.51953H44.6844V8.95703ZM35.7469 13.832H37.3719V13.0195H43.0594V13.832H44.6844V16.2695H43.0594V17.082H37.3719V16.2695H35.7469V13.832ZM38.1844 14.6445H37.3719V15.457H38.1844V16.2695H42.2469V15.457H43.0594V14.6445H42.2469V13.832H38.1844V14.6445Z" fill="black"/>
<path d="M26.8094 12.207V13.207H27.8094V12.207H26.8094ZM23.5594 12.207H22.5594V13.207H23.5594V12.207ZM23.5594 11.3945H24.5594V10.3945H23.5594V11.3945ZM22.7469 11.3945H21.7469V12.3945H22.7469V11.3945ZM22.7469 10.582H23.7469V9.58203H22.7469V10.582ZM21.9344 10.582H20.9344V11.582H21.9344V10.582ZM21.9344 8.14453V7.14453H20.9344V8.14453H21.9344ZM22.7469 8.14453V9.14453H23.7469V8.14453H22.7469ZM22.7469 7.33203V6.33203H21.7469V7.33203H22.7469ZM23.5594 7.33203V8.33203H24.5594V7.33203H23.5594ZM23.5594 6.51953V5.51953H22.5594V6.51953H23.5594ZM26.8094 6.51953H27.8094V5.51953H26.8094V6.51953ZM26.8094 7.33203H25.8094V8.33203H26.8094V7.33203ZM27.6219 7.33203H28.6219V6.33203H27.6219V7.33203ZM27.6219 8.14453H26.6219V9.14453H27.6219V8.14453ZM28.4344 8.14453H29.4344V7.14453H28.4344V8.14453ZM28.4344 10.582V11.582H29.4344V10.582H28.4344ZM27.6219 10.582V9.58203H26.6219V10.582H27.6219ZM27.6219 11.3945V12.3945H28.6219V11.3945H27.6219ZM26.8094 11.3945V10.3945H25.8094V11.3945H26.8094ZM32.4969 12.207V13.207H33.4969V12.207H32.4969ZM30.8719 12.207H29.8719V13.207H30.8719V12.207ZM30.8719 6.51953V5.51953H29.8719V6.51953H30.8719ZM32.4969 6.51953H33.4969V5.51953H32.4969V6.51953ZM24.3719 8.14453V9.14453H25.3719V8.14453H24.3719ZM23.5594 8.14453V7.14453H22.5594V8.14453H23.5594ZM23.5594 10.582H22.5594V11.582H23.5594V10.582ZM24.3719 10.582H25.3719V9.58203H24.3719V10.582ZM24.3719 11.3945H23.3719V12.3945H24.3719V11.3945ZM25.9969 11.3945V12.3945H26.9969V11.3945H25.9969ZM25.9969 10.582V9.58203H24.9969V10.582H25.9969ZM26.8094 10.582V11.582H27.8094V10.582H26.8094ZM26.8094 8.14453H27.8094V7.14453H26.8094V8.14453ZM25.9969 8.14453H24.9969V9.14453H25.9969V8.14453ZM25.9969 7.33203H26.9969V6.33203H25.9969V7.33203ZM24.3719 7.33203V6.33203H23.3719V7.33203H24.3719ZM23.5594 16.2695H24.5594V15.2695H23.5594V16.2695ZM22.7469 16.2695H21.7469V17.2695H22.7469V16.2695ZM22.7469 13.0195V12.0195H21.7469V13.0195H22.7469ZM24.3719 13.0195H25.3719V12.0195H24.3719V13.0195ZM24.3719 14.6445H23.3719V15.6445H24.3719V14.6445ZM30.8719 14.6445V15.6445H31.8719V14.6445H30.8719ZM30.8719 13.0195V12.0195H29.8719V13.0195H30.8719ZM32.4969 13.0195H33.4969V12.0195H32.4969V13.0195ZM32.4969 16.2695V17.2695H33.4969V16.2695H32.4969ZM31.6844 16.2695V15.2695H30.6844V16.2695H31.6844ZM31.6844 17.082V18.082H32.6844V17.082H31.6844ZM23.5594 17.082H22.5594V18.082H23.5594V17.082ZM30.8719 15.457H31.8719V14.457H30.8719V15.457ZM24.3719 15.457V14.457H23.3719V15.457H24.3719ZM24.3719 16.2695H23.3719V17.2695H24.3719V16.2695ZM30.8719 16.2695V17.2695H31.8719V16.2695H30.8719ZM26.8094 11.207H23.5594V13.207H26.8094V11.207ZM24.5594 12.207V11.3945H22.5594V12.207H24.5594ZM23.5594 10.3945H22.7469V12.3945H23.5594V10.3945ZM23.7469 11.3945V10.582H21.7469V11.3945H23.7469ZM22.7469 9.58203H21.9344V11.582H22.7469V9.58203ZM22.9344 10.582V8.14453H20.9344V10.582H22.9344ZM21.9344 9.14453H22.7469V7.14453H21.9344V9.14453ZM23.7469 8.14453V7.33203H21.7469V8.14453H23.7469ZM22.7469 8.33203H23.5594V6.33203H22.7469V8.33203ZM24.5594 7.33203V6.51953H22.5594V7.33203H24.5594ZM23.5594 7.51953H26.8094V5.51953H23.5594V7.51953ZM25.8094 6.51953V7.33203H27.8094V6.51953H25.8094ZM26.8094 8.33203H27.6219V6.33203H26.8094V8.33203ZM26.6219 7.33203V8.14453H28.6219V7.33203H26.6219ZM27.6219 9.14453H28.4344V7.14453H27.6219V9.14453ZM27.4344 8.14453V10.582H29.4344V8.14453H27.4344ZM28.4344 9.58203H27.6219V11.582H28.4344V9.58203ZM26.6219 10.582V11.3945H28.6219V10.582H26.6219ZM27.6219 10.3945H26.8094V12.3945H27.6219V10.3945ZM25.8094 11.3945V12.207H27.8094V11.3945H25.8094ZM32.4969 11.207H30.8719V13.207H32.4969V11.207ZM31.8719 12.207V6.51953H29.8719V12.207H31.8719ZM30.8719 7.51953H32.4969V5.51953H30.8719V7.51953ZM31.4969 6.51953V12.207H33.4969V6.51953H31.4969ZM24.3719 7.14453H23.5594V9.14453H24.3719V7.14453ZM22.5594 8.14453V10.582H24.5594V8.14453H22.5594ZM23.5594 11.582H24.3719V9.58203H23.5594V11.582ZM23.3719 10.582V11.3945H25.3719V10.582H23.3719ZM24.3719 12.3945H25.9969V10.3945H24.3719V12.3945ZM26.9969 11.3945V10.582H24.9969V11.3945H26.9969ZM25.9969 11.582H26.8094V9.58203H25.9969V11.582ZM27.8094 10.582V8.14453H25.8094V10.582H27.8094ZM26.8094 7.14453H25.9969V9.14453H26.8094V7.14453ZM26.9969 8.14453V7.33203H24.9969V8.14453H26.9969ZM25.9969 6.33203H24.3719V8.33203H25.9969V6.33203ZM23.3719 7.33203V8.14453H25.3719V7.33203H23.3719ZM23.5594 15.2695H22.7469V17.2695H23.5594V15.2695ZM23.7469 16.2695V13.0195H21.7469V16.2695H23.7469ZM22.7469 14.0195H24.3719V12.0195H22.7469V14.0195ZM23.3719 13.0195V14.6445H25.3719V13.0195H23.3719ZM24.3719 15.6445H30.8719V13.6445H24.3719V15.6445ZM31.8719 14.6445V13.0195H29.8719V14.6445H31.8719ZM30.8719 14.0195H32.4969V12.0195H30.8719V14.0195ZM31.4969 13.0195V16.2695H33.4969V13.0195H31.4969ZM32.4969 15.2695H31.6844V17.2695H32.4969V15.2695ZM30.6844 16.2695V17.082H32.6844V16.2695H30.6844ZM31.6844 16.082H23.5594V18.082H31.6844V16.082ZM24.5594 17.082V16.2695H22.5594V17.082H24.5594ZM30.8719 14.457H24.3719V16.457H30.8719V14.457ZM23.3719 15.457V16.2695H25.3719V15.457H23.3719ZM24.3719 17.2695H30.8719V15.2695H24.3719V17.2695ZM31.8719 16.2695V15.457H29.8719V16.2695H31.8719ZM41.4344 12.207V13.207H42.4344V12.207H41.4344ZM39.8094 12.207H38.8094V13.207H39.8094V12.207ZM39.8094 11.3945H40.8094V10.3945H39.8094V11.3945ZM38.9969 11.3945H37.9969V12.3945H38.9969V11.3945ZM38.9969 10.582H39.9969V9.58203H38.9969V10.582ZM37.3719 10.582V9.58203H36.3719V10.582H37.3719ZM37.3719 11.3945V12.3945H38.3719V11.3945H37.3719ZM36.5594 11.3945V10.3945H35.5594V11.3945H36.5594ZM36.5594 12.207V13.207H37.5594V12.207H36.5594ZM34.9344 12.207H33.9344V13.207H34.9344V12.207ZM34.9344 11.3945V10.3945H33.9344V11.3945H34.9344ZM35.7469 11.3945V12.3945H36.7469V11.3945H35.7469ZM35.7469 10.582V9.58203H34.7469V10.582H35.7469ZM36.5594 10.582V11.582H37.5594V10.582H36.5594ZM36.5594 9.76953V8.76953H35.5594V9.76953H36.5594ZM37.3719 9.76953V10.7695H38.3719V9.76953H37.3719ZM37.3719 7.33203H38.3719V6.33203H37.3719V7.33203ZM34.9344 7.33203H33.9344V8.33203H34.9344V7.33203ZM34.9344 6.51953V5.51953H33.9344V6.51953H34.9344ZM41.4344 6.51953H42.4344V5.51953H41.4344V6.51953ZM41.4344 7.33203V8.33203H42.4344V7.33203H41.4344ZM38.9969 7.33203V6.33203H37.9969V7.33203H38.9969ZM38.9969 9.76953H37.9969V10.7695H38.9969V9.76953ZM39.8094 9.76953H40.8094V8.76953H39.8094V9.76953ZM39.8094 10.582H38.8094V11.582H39.8094V10.582ZM40.6219 10.582H41.6219V9.58203H40.6219V10.582ZM40.6219 11.3945H39.6219V12.3945H40.6219V11.3945ZM41.4344 11.3945H42.4344V10.3945H41.4344V11.3945ZM44.6844 8.95703H43.6844V9.95703H44.6844V8.95703ZM47.1219 8.95703H48.1219V7.95703H47.1219V8.95703ZM47.1219 9.76953V10.7695H48.1219V9.76953H47.1219ZM44.6844 9.76953V8.76953H43.6844V9.76953H44.6844ZM44.6844 12.207V13.207H45.6844V12.207H44.6844ZM43.0594 12.207H42.0594V13.207H43.0594V12.207ZM43.0594 6.51953V5.51953H42.0594V6.51953H43.0594ZM44.6844 6.51953H45.6844V5.51953H44.6844V6.51953ZM35.7469 13.832V12.832H34.7469V13.832H35.7469ZM37.3719 13.832V14.832H38.3719V13.832H37.3719ZM37.3719 13.0195V12.0195H36.3719V13.0195H37.3719ZM43.0594 13.0195H44.0594V12.0195H43.0594V13.0195ZM43.0594 13.832H42.0594V14.832H43.0594V13.832ZM44.6844 13.832H45.6844V12.832H44.6844V13.832ZM44.6844 16.2695V17.2695H45.6844V16.2695H44.6844ZM43.0594 16.2695V15.2695H42.0594V16.2695H43.0594ZM43.0594 17.082V18.082H44.0594V17.082H43.0594ZM37.3719 17.082H36.3719V18.082H37.3719V17.082ZM37.3719 16.2695H38.3719V15.2695H37.3719V16.2695ZM35.7469 16.2695H34.7469V17.2695H35.7469V16.2695ZM38.1844 14.6445V15.6445H39.1844V14.6445H38.1844ZM37.3719 14.6445V13.6445H36.3719V14.6445H37.3719ZM37.3719 15.457H36.3719V16.457H37.3719V15.457ZM38.1844 15.457H39.1844V14.457H38.1844V15.457ZM38.1844 16.2695H37.1844V17.2695H38.1844V16.2695ZM42.2469 16.2695V17.2695H43.2469V16.2695H42.2469ZM42.2469 15.457V14.457H41.2469V15.457H42.2469ZM43.0594 15.457V16.457H44.0594V15.457H43.0594ZM43.0594 14.6445H44.0594V13.6445H43.0594V14.6445ZM42.2469 14.6445H41.2469V15.6445H42.2469V14.6445ZM42.2469 13.832H43.2469V12.832H42.2469V13.832ZM38.1844 13.832V12.832H37.1844V13.832H38.1844ZM41.4344 11.207H39.8094V13.207H41.4344V11.207ZM40.8094 12.207V11.3945H38.8094V12.207H40.8094ZM39.8094 10.3945H38.9969V12.3945H39.8094V10.3945ZM39.9969 11.3945V10.582H37.9969V11.3945H39.9969ZM38.9969 9.58203H37.3719V11.582H38.9969V9.58203ZM36.3719 10.582V11.3945H38.3719V10.582H36.3719ZM37.3719 10.3945H36.5594V12.3945H37.3719V10.3945ZM35.5594 11.3945V12.207H37.5594V11.3945H35.5594ZM36.5594 11.207H34.9344V13.207H36.5594V11.207ZM35.9344 12.207V11.3945H33.9344V12.207H35.9344ZM34.9344 12.3945H35.7469V10.3945H34.9344V12.3945ZM36.7469 11.3945V10.582H34.7469V11.3945H36.7469ZM35.7469 11.582H36.5594V9.58203H35.7469V11.582ZM37.5594 10.582V9.76953H35.5594V10.582H37.5594ZM36.5594 10.7695H37.3719V8.76953H36.5594V10.7695ZM38.3719 9.76953V7.33203H36.3719V9.76953H38.3719ZM37.3719 6.33203H34.9344V8.33203H37.3719V6.33203ZM35.9344 7.33203V6.51953H33.9344V7.33203H35.9344ZM34.9344 7.51953H41.4344V5.51953H34.9344V7.51953ZM40.4344 6.51953V7.33203H42.4344V6.51953H40.4344ZM41.4344 6.33203H38.9969V8.33203H41.4344V6.33203ZM37.9969 7.33203V9.76953H39.9969V7.33203H37.9969ZM38.9969 10.7695H39.8094V8.76953H38.9969V10.7695ZM38.8094 9.76953V10.582H40.8094V9.76953H38.8094ZM39.8094 11.582H40.6219V9.58203H39.8094V11.582ZM39.6219 10.582V11.3945H41.6219V10.582H39.6219ZM40.6219 12.3945H41.4344V10.3945H40.6219V12.3945ZM40.4344 11.3945V12.207H42.4344V11.3945H40.4344ZM44.6844 9.95703H47.1219V7.95703H44.6844V9.95703ZM46.1219 8.95703V9.76953H48.1219V8.95703H46.1219ZM47.1219 8.76953H44.6844V10.7695H47.1219V8.76953ZM43.6844 9.76953V12.207H45.6844V9.76953H43.6844ZM44.6844 11.207H43.0594V13.207H44.6844V11.207ZM44.0594 12.207V6.51953H42.0594V12.207H44.0594ZM43.0594 7.51953H44.6844V5.51953H43.0594V7.51953ZM43.6844 6.51953V8.95703H45.6844V6.51953H43.6844ZM35.7469 14.832H37.3719V12.832H35.7469V14.832ZM38.3719 13.832V13.0195H36.3719V13.832H38.3719ZM37.3719 14.0195H43.0594V12.0195H37.3719V14.0195ZM42.0594 13.0195V13.832H44.0594V13.0195H42.0594ZM43.0594 14.832H44.6844V12.832H43.0594V14.832ZM43.6844 13.832V16.2695H45.6844V13.832H43.6844ZM44.6844 15.2695H43.0594V17.2695H44.6844V15.2695ZM42.0594 16.2695V17.082H44.0594V16.2695H42.0594ZM43.0594 16.082H37.3719V18.082H43.0594V16.082ZM38.3719 17.082V16.2695H36.3719V17.082H38.3719ZM37.3719 15.2695H35.7469V17.2695H37.3719V15.2695ZM36.7469 16.2695V13.832H34.7469V16.2695H36.7469ZM38.1844 13.6445H37.3719V15.6445H38.1844V13.6445ZM36.3719 14.6445V15.457H38.3719V14.6445H36.3719ZM37.3719 16.457H38.1844V14.457H37.3719V16.457ZM37.1844 15.457V16.2695H39.1844V15.457H37.1844ZM38.1844 17.2695H42.2469V15.2695H38.1844V17.2695ZM43.2469 16.2695V15.457H41.2469V16.2695H43.2469ZM42.2469 16.457H43.0594V14.457H42.2469V16.457ZM44.0594 15.457V14.6445H42.0594V15.457H44.0594ZM43.0594 13.6445H42.2469V15.6445H43.0594V13.6445ZM43.2469 14.6445V13.832H41.2469V14.6445H43.2469ZM42.2469 12.832H38.1844V14.832H42.2469V12.832ZM37.1844 13.832V14.6445H39.1844V13.832H37.1844Z" fill="white" mask="url(#path-248-outside-1_686_1925)"/>
</svg>
