<svg width="194" height="50" viewBox="0 0 194 50" fill="none" xmlns="http://www.w3.org/2000/svg">
<rect x="8.27136" width="177.059" height="1.89202" fill="#050C2D"/>
<rect x="8.27136" y="47.2974" width="177.059" height="1.89202" fill="#050C2D"/>
<rect x="185.335" y="1.89453" width="3.30952" height="1.89202" fill="#050C2D"/>
<rect width="3.30952" height="1.89202" transform="matrix(-1 0 0 1 8.27136 1.89453)" fill="#050C2D"/>
<rect x="188.646" y="3.78564" width="1.65476" height="1.89202" fill="#050C2D"/>
<rect width="1.65476" height="1.89202" transform="matrix(-1 0 0 1 4.96655 3.78564)" fill="#050C2D"/>
<rect x="190.297" y="5.67334" width="1.65476" height="1.89202" fill="#050C2D"/>
<rect width="1.65476" height="1.89202" transform="matrix(-1 0 0 1 3.3158 5.67334)" fill="#050C2D"/>
<rect x="191.951" y="7.56787" width="1.65476" height="34.0564" fill="#050C2D"/>
<rect width="1.65476" height="34.0564" transform="matrix(-1 0 0 1 1.65479 7.56787)" fill="#050C2D"/>
<rect x="190.297" y="41.6245" width="1.65476" height="1.89202" fill="#050C2D"/>
<rect width="1.65476" height="1.89202" transform="matrix(-1 0 0 1 3.3158 41.6245)" fill="#050C2D"/>
<rect x="188.646" y="43.519" width="1.65476" height="1.89202" fill="#050C2D"/>
<rect width="1.65476" height="1.89202" transform="matrix(-1 0 0 1 4.96655 43.519)" fill="#050C2D"/>
<rect x="185.335" y="45.4067" width="3.30952" height="1.89202" fill="#050C2D"/>
<rect width="3.30952" height="1.89202" transform="matrix(-1 0 0 1 8.27136 45.4067)" fill="#050C2D"/>
<rect x="8.27136" y="1.89453" width="177.059" height="45.4085" fill="#4E7D14"/>
<rect x="185.335" y="3.78564" width="3.30952" height="41.6244" fill="#4E7D14"/>
<rect x="188.646" y="5.67334" width="1.65476" height="37.8404" fill="#4E7D14"/>
<rect x="190.297" y="7.56787" width="1.65476" height="34.0564" fill="#4E7D14"/>
<rect x="1.65479" y="7.56787" width="1.65476" height="34.0564" fill="#4E7D14"/>
<rect x="3.3158" y="5.67334" width="1.65476" height="37.8404" fill="#4E7D14"/>
<rect x="4.96655" y="3.78564" width="3.30952" height="41.6244" fill="#4E7D14"/>
<rect x="12.3036" y="4.19531" width="168.694" height="1.55813" fill="#C0D5AF"/>
<rect x="12.3036" y="43.1484" width="168.694" height="1.55813" fill="#C0D5AF"/>
<rect x="180.992" y="5.75537" width="3.15316" height="1.55813" fill="#C0D5AF"/>
<rect width="3.15316" height="1.55813" transform="matrix(-1 0 0 1 12.3036 5.75537)" fill="#C0D5AF"/>
<rect x="184.149" y="7.30859" width="1.57658" height="1.55813" fill="#C0D5AF"/>
<rect width="1.57658" height="1.55813" transform="matrix(-1 0 0 1 9.14722 7.30859)" fill="#C0D5AF"/>
<rect x="185.724" y="8.86914" width="1.57658" height="1.55813" fill="#C0D5AF"/>
<rect width="1.57658" height="1.55813" transform="matrix(-1 0 0 1 7.57593 8.86914)" fill="#C0D5AF"/>
<rect x="187.302" y="10.4292" width="1.57658" height="28.0464" fill="#C0D5AF"/>
<rect width="1.57658" height="28.0464" transform="matrix(-1 0 0 1 5.99768 10.4292)" fill="#C0D5AF"/>
<rect x="185.724" y="38.4712" width="1.57658" height="1.55813" fill="#C0D5AF"/>
<rect width="1.57658" height="1.55813" transform="matrix(-1 0 0 1 7.57593 38.4712)" fill="#C0D5AF"/>
<rect x="184.149" y="40.0317" width="1.57658" height="1.55813" fill="#C0D5AF"/>
<rect width="1.57658" height="1.55813" transform="matrix(-1 0 0 1 9.14722 40.0317)" fill="#C0D5AF"/>
<rect x="180.992" y="41.5913" width="3.15316" height="1.55813" fill="#C0D5AF"/>
<rect width="3.15316" height="1.55813" transform="matrix(-1 0 0 1 12.3036 41.5913)" fill="#C0D5AF"/>
<rect x="12.3036" y="5.75537" width="168.694" height="37.3952" fill="#5ACB01"/>
<rect x="180.992" y="7.30859" width="3.15316" height="34.2789" fill="#5ACB01"/>
<rect x="184.149" y="8.86914" width="1.57658" height="31.1627" fill="#5ACB01"/>
<rect x="185.724" y="10.4292" width="1.57658" height="28.0464" fill="#5ACB01"/>
<rect x="5.99768" y="10.4292" width="1.57658" height="28.0464" fill="#5ACB01"/>
<rect x="7.57593" y="8.86914" width="1.57658" height="31.1627" fill="#5ACB01"/>
<rect x="9.14722" y="7.30859" width="3.15316" height="34.2789" fill="#5ACB01"/>
</svg>
