<svg width="83" height="26" viewBox="0 0 83 26" fill="none" xmlns="http://www.w3.org/2000/svg">
<path d="M83.0001 17.1709H80.1377V20.0333H83.0001V17.1709Z" fill="#170F0C"/>
<path d="M83.0001 14.3105H80.1377V17.1715H83.0001V14.3105Z" fill="#24943D"/>
<path d="M83.0001 11.4482H80.1377V14.3106H83.0001V11.4482Z" fill="#24943D"/>
<path d="M83.0001 8.58594H80.1377V11.4483H83.0001V8.58594Z" fill="#24943D"/>
<path d="M83.0001 5.72363H80.1377V8.586H83.0001V5.72363Z" fill="#24943D"/>
<path d="M80.1375 20.0342H77.2766V22.8966H80.1375V20.0342Z" fill="#170F0C"/>
<path d="M80.1375 17.1709H77.2766V20.0333H80.1375V17.1709Z" fill="#24943D"/>
<path d="M80.1375 14.3105H77.2766V17.1715H80.1375V14.3105Z" fill="#3FDD62"/>
<path d="M80.1375 11.4482H77.2766V14.3106H80.1375V11.4482Z" fill="#3FDD62"/>
<path d="M80.1375 8.58594H77.2766V11.4483H80.1375V8.58594Z" fill="#3FDD62"/>
<path d="M80.1375 5.72363H77.2766V8.586H80.1375V5.72363Z" fill="#3FDD62"/>
<path d="M80.1375 2.8623H77.2766V5.72322H80.1375V2.8623Z" fill="#24943D"/>
<path d="M77.2767 22.8965H74.4143V25.7589H77.2767V22.8965Z" fill="#170F0C"/>
<path d="M77.2767 20.0342H74.4143V22.8966H77.2767V20.0342Z" fill="#24943D"/>
<path d="M77.2767 17.1709H74.4143V20.0333H77.2767V17.1709Z" fill="#3FDD62"/>
<path d="M77.2767 14.3105H74.4143V17.1715H77.2767V14.3105Z" fill="#3FDD62"/>
<path d="M77.2767 11.4482H74.4143V14.3106H77.2767V11.4482Z" fill="#3FDD62"/>
<path d="M77.2767 8.58594H74.4143V11.4483H77.2767V8.58594Z" fill="#3FDD62"/>
<path d="M77.2767 5.72363H74.4143V8.586H77.2767V5.72363Z" fill="#3FDD62"/>
<path d="M77.2767 2.8623H74.4143V5.72322H77.2767V2.8623Z" fill="#3FDD62"/>
<path d="M77.2767 0H74.4143V2.86237H77.2767V0Z" fill="#24943D"/>
<path d="M74.4142 22.8965H71.5519V25.7589H74.4142V22.8965Z" fill="#170F0C"/>
<path d="M74.4142 20.0342H71.5519V22.8966H74.4142V20.0342Z" fill="#24943D"/>
<path d="M74.4142 17.1709H71.5519V20.0333H74.4142V17.1709Z" fill="#3FDD62"/>
<path d="M74.4142 14.3105H71.5519V17.1715H74.4142V14.3105Z" fill="#3FDD62"/>
<path d="M74.4142 11.4482H71.5519V14.3106H74.4142V11.4482Z" fill="#3FDD62"/>
<path d="M74.4142 8.58594H71.5519V11.4483H74.4142V8.58594Z" fill="#3FDD62"/>
<path d="M74.4142 5.72363H71.5519V8.586H74.4142V5.72363Z" fill="#3FDD62"/>
<path d="M74.4142 2.8623H71.5519V5.72322H74.4142V2.8623Z" fill="#3FDD62"/>
<path d="M74.4142 0H71.5519V2.86237H74.4142V0Z" fill="#24943D"/>
<path d="M71.5519 22.8965H68.6896V25.7589H71.5519V22.8965Z" fill="#170F0C"/>
<path d="M71.5519 20.0342H68.6896V22.8966H71.5519V20.0342Z" fill="#24943D"/>
<path d="M71.5519 17.1709H68.6896V20.0333H71.5519V17.1709Z" fill="#3FDD62"/>
<path d="M71.5519 14.3105H68.6896V17.1715H71.5519V14.3105Z" fill="#3FDD62"/>
<path d="M71.5519 11.4482H68.6896V14.3106H71.5519V11.4482Z" fill="#3FDD62"/>
<path d="M71.5519 8.58594H68.6896V11.4483H71.5519V8.58594Z" fill="#3FDD62"/>
<path d="M71.5519 5.72363H68.6896V8.586H71.5519V5.72363Z" fill="#3FDD62"/>
<path d="M71.5519 2.8623H68.6896V5.72322H71.5519V2.8623Z" fill="#3FDD62"/>
<path d="M71.5519 0H68.6896V2.86237H71.5519V0Z" fill="#24943D"/>
<path d="M68.6896 22.8965H65.8273V25.7589H68.6896V22.8965Z" fill="#170F0C"/>
<path d="M68.6896 20.0342H65.8273V22.8966H68.6896V20.0342Z" fill="#24943D"/>
<path d="M68.6896 17.1709H65.8273V20.0333H68.6896V17.1709Z" fill="#3FDD62"/>
<path d="M68.6896 14.3105H65.8273V17.1715H68.6896V14.3105Z" fill="#3FDD62"/>
<path d="M68.6896 11.4482H65.8273V14.3106H68.6896V11.4482Z" fill="#3FDD62"/>
<path d="M68.6896 8.58594H65.8273V11.4483H68.6896V8.58594Z" fill="#3FDD62"/>
<path d="M68.6896 5.72363H65.8273V8.586H68.6896V5.72363Z" fill="#3FDD62"/>
<path d="M68.6896 2.8623H65.8273V5.72322H68.6896V2.8623Z" fill="#3FDD62"/>
<path d="M68.6896 0H65.8273V2.86237H68.6896V0Z" fill="#24943D"/>
<path d="M65.8273 22.8965H62.9664V25.7589H65.8273V22.8965Z" fill="#170F0C"/>
<path d="M65.8273 20.0342H62.9664V22.8966H65.8273V20.0342Z" fill="#24943D"/>
<path d="M65.8273 17.1709H62.9664V20.0333H65.8273V17.1709Z" fill="#3FDD62"/>
<path d="M65.8273 14.3105H62.9664V17.1715H65.8273V14.3105Z" fill="#3FDD62"/>
<path d="M65.8273 11.4482H62.9664V14.3106H65.8273V11.4482Z" fill="#3FDD62"/>
<path d="M65.8273 8.58594H62.9664V11.4483H65.8273V8.58594Z" fill="#3FDD62"/>
<path d="M65.8273 5.72363H62.9664V8.586H65.8273V5.72363Z" fill="#3FDD62"/>
<path d="M65.8273 2.8623H62.9664V5.72322H65.8273V2.8623Z" fill="#3FDD62"/>
<path d="M65.8273 0H62.9664V2.86237H65.8273V0Z" fill="#24943D"/>
<path d="M62.9663 22.8965H60.1039V25.7589H62.9663V22.8965Z" fill="#170F0C"/>
<path d="M62.9663 20.0342H60.1039V22.8966H62.9663V20.0342Z" fill="#24943D"/>
<path d="M62.9663 17.1709H60.1039V20.0333H62.9663V17.1709Z" fill="#3FDD62"/>
<path d="M62.9663 14.3105H60.1039V17.1715H62.9663V14.3105Z" fill="#3FDD62"/>
<path d="M62.9663 11.4482H60.1039V14.3106H62.9663V11.4482Z" fill="#3FDD62"/>
<path d="M62.9663 8.58594H60.1039V11.4483H62.9663V8.58594Z" fill="#3FDD62"/>
<path d="M62.9663 5.72363H60.1039V8.586H62.9663V5.72363Z" fill="#3FDD62"/>
<path d="M62.9663 2.8623H60.1039V5.72322H62.9663V2.8623Z" fill="#3FDD62"/>
<path d="M62.9663 0H60.1039V2.86237H62.9663V0Z" fill="#24943D"/>
<path d="M60.1038 22.8965H57.2415V25.7589H60.1038V22.8965Z" fill="#170F0C"/>
<path d="M60.1038 20.0342H57.2415V22.8966H60.1038V20.0342Z" fill="#24943D"/>
<path d="M60.1038 17.1709H57.2415V20.0333H60.1038V17.1709Z" fill="#3FDD62"/>
<path d="M60.1038 14.3105H57.2415V17.1715H60.1038V14.3105Z" fill="#3FDD62"/>
<path d="M60.1038 11.4482H57.2415V14.3106H60.1038V11.4482Z" fill="#3FDD62"/>
<path d="M60.1038 8.58594H57.2415V11.4483H60.1038V8.58594Z" fill="#3FDD62"/>
<path d="M60.1038 5.72363H57.2415V8.586H60.1038V5.72363Z" fill="#3FDD62"/>
<path d="M60.1038 2.8623H57.2415V5.72322H60.1038V2.8623Z" fill="#3FDD62"/>
<path d="M60.1038 0H57.2415V2.86237H60.1038V0Z" fill="#24943D"/>
<path d="M57.2415 22.8965H54.3792V25.7589H57.2415V22.8965Z" fill="#170F0C"/>
<path d="M57.2415 20.0342H54.3792V22.8966H57.2415V20.0342Z" fill="#24943D"/>
<path d="M57.2415 17.1709H54.3792V20.0333H57.2415V17.1709Z" fill="#3FDD62"/>
<path d="M57.2415 14.3105H54.3792V17.1715H57.2415V14.3105Z" fill="#3FDD62"/>
<path d="M57.2415 11.4482H54.3792V14.3106H57.2415V11.4482Z" fill="#3FDD62"/>
<path d="M57.2415 8.58594H54.3792V11.4483H57.2415V8.58594Z" fill="#3FDD62"/>
<path d="M57.2415 5.72363H54.3792V8.586H57.2415V5.72363Z" fill="#3FDD62"/>
<path d="M57.2415 2.8623H54.3792V5.72322H57.2415V2.8623Z" fill="#3FDD62"/>
<path d="M57.2415 0H54.3792V2.86237H57.2415V0Z" fill="#24943D"/>
<path d="M54.3792 22.8965H51.5183V25.7589H54.3792V22.8965Z" fill="#170F0C"/>
<path d="M54.3792 20.0342H51.5183V22.8966H54.3792V20.0342Z" fill="#24943D"/>
<path d="M54.3792 17.1709H51.5183V20.0333H54.3792V17.1709Z" fill="#3FDD62"/>
<path d="M54.3792 14.3105H51.5183V17.1715H54.3792V14.3105Z" fill="#3FDD62"/>
<path d="M54.3792 11.4482H51.5183V14.3106H54.3792V11.4482Z" fill="#3FDD62"/>
<path d="M54.3792 8.58594H51.5183V11.4483H54.3792V8.58594Z" fill="#3FDD62"/>
<path d="M54.3792 5.72363H51.5183V8.586H54.3792V5.72363Z" fill="#3FDD62"/>
<path d="M54.3792 2.8623H51.5183V5.72322H54.3792V2.8623Z" fill="#3FDD62"/>
<path d="M54.3792 0H51.5183V2.86237H54.3792V0Z" fill="#24943D"/>
<path d="M51.5184 22.8965H48.656V25.7589H51.5184V22.8965Z" fill="#170F0C"/>
<path d="M51.5184 20.0342H48.656V22.8966H51.5184V20.0342Z" fill="#24943D"/>
<path d="M51.5184 17.1709H48.656V20.0333H51.5184V17.1709Z" fill="#3FDD62"/>
<path d="M51.5184 14.3105H48.656V17.1715H51.5184V14.3105Z" fill="#3FDD62"/>
<path d="M51.5184 11.4482H48.656V14.3106H51.5184V11.4482Z" fill="#3FDD62"/>
<path d="M51.5184 8.58594H48.656V11.4483H51.5184V8.58594Z" fill="#3FDD62"/>
<path d="M51.5184 5.72363H48.656V8.586H51.5184V5.72363Z" fill="#3FDD62"/>
<path d="M51.5184 2.8623H48.656V5.72322H51.5184V2.8623Z" fill="#3FDD62"/>
<path d="M51.5184 0H48.656V2.86237H51.5184V0Z" fill="#24943D"/>
<path d="M48.6561 22.8965H45.7937V25.7589H48.6561V22.8965Z" fill="#170F0C"/>
<path d="M48.6561 20.0342H45.7937V22.8966H48.6561V20.0342Z" fill="#24943D"/>
<path d="M48.6561 17.1709H45.7937V20.0333H48.6561V17.1709Z" fill="#3FDD62"/>
<path d="M48.6561 14.3105H45.7937V17.1715H48.6561V14.3105Z" fill="#3FDD62"/>
<path d="M48.6561 11.4482H45.7937V14.3106H48.6561V11.4482Z" fill="#3FDD62"/>
<path d="M48.6561 8.58594H45.7937V11.4483H48.6561V8.58594Z" fill="#3FDD62"/>
<path d="M48.6561 5.72363H45.7937V8.586H48.6561V5.72363Z" fill="#3FDD62"/>
<path d="M48.6561 2.8623H45.7937V5.72322H48.6561V2.8623Z" fill="#3FDD62"/>
<path d="M48.6561 0H45.7937V2.86237H48.6561V0Z" fill="#24943D"/>
<path d="M45.7936 22.8965H42.9313V25.7589H45.7936V22.8965Z" fill="#170F0C"/>
<path d="M45.7936 20.0342H42.9313V22.8966H45.7936V20.0342Z" fill="#24943D"/>
<path d="M45.7936 17.1709H42.9313V20.0333H45.7936V17.1709Z" fill="#3FDD62"/>
<path d="M45.7936 14.3105H42.9313V17.1715H45.7936V14.3105Z" fill="#3FDD62"/>
<path d="M45.7936 11.4482H42.9313V14.3106H45.7936V11.4482Z" fill="#3FDD62"/>
<path d="M45.7936 8.58594H42.9313V11.4483H45.7936V8.58594Z" fill="#3FDD62"/>
<path d="M45.7936 5.72363H42.9313V8.586H45.7936V5.72363Z" fill="#3FDD62"/>
<path d="M45.7936 2.8623H42.9313V5.72322H45.7936V2.8623Z" fill="#3FDD62"/>
<path d="M45.7936 0H42.9313V2.86237H45.7936V0Z" fill="#24943D"/>
<path d="M42.9311 22.8965H40.0687V25.7589H42.9311V22.8965Z" fill="#170F0C"/>
<path d="M42.9311 20.0342H40.0687V22.8966H42.9311V20.0342Z" fill="#24943D"/>
<path d="M42.9311 17.1709H40.0687V20.0333H42.9311V17.1709Z" fill="#3FDD62"/>
<path d="M42.9311 14.3105H40.0687V17.1715H42.9311V14.3105Z" fill="#3FDD62"/>
<path d="M42.9311 11.4482H40.0687V14.3106H42.9311V11.4482Z" fill="#3FDD62"/>
<path d="M42.9311 8.58594H40.0687V11.4483H42.9311V8.58594Z" fill="#3FDD62"/>
<path d="M42.9311 5.72363H40.0687V8.586H42.9311V5.72363Z" fill="#3FDD62"/>
<path d="M42.9311 2.8623H40.0687V5.72322H42.9311V2.8623Z" fill="#3FDD62"/>
<path d="M42.9311 0H40.0687V2.86237H42.9311V0Z" fill="#24943D"/>
<path d="M40.0688 22.8965H37.2079V25.7589H40.0688V22.8965Z" fill="#170F0C"/>
<path d="M40.0688 20.0342H37.2079V22.8966H40.0688V20.0342Z" fill="#24943D"/>
<path d="M40.0688 17.1709H37.2079V20.0333H40.0688V17.1709Z" fill="#3FDD62"/>
<path d="M40.0688 14.3105H37.2079V17.1715H40.0688V14.3105Z" fill="#3FDD62"/>
<path d="M40.0688 11.4482H37.2079V14.3106H40.0688V11.4482Z" fill="#3FDD62"/>
<path d="M40.0688 8.58594H37.2079V11.4483H40.0688V8.58594Z" fill="#3FDD62"/>
<path d="M40.0688 5.72363H37.2079V8.586H40.0688V5.72363Z" fill="#3FDD62"/>
<path d="M40.0688 2.8623H37.2079V5.72322H40.0688V2.8623Z" fill="#3FDD62"/>
<path d="M40.0688 0H37.2079V2.86237H40.0688V0Z" fill="#24943D"/>
<path d="M37.208 22.8965H34.3456V25.7589H37.208V22.8965Z" fill="#170F0C"/>
<path d="M37.208 20.0342H34.3456V22.8966H37.208V20.0342Z" fill="#24943D"/>
<path d="M37.208 17.1709H34.3456V20.0333H37.208V17.1709Z" fill="#3FDD62"/>
<path d="M37.208 14.3105H34.3456V17.1715H37.208V14.3105Z" fill="#3FDD62"/>
<path d="M37.208 11.4482H34.3456V14.3106H37.208V11.4482Z" fill="#3FDD62"/>
<path d="M37.208 8.58594H34.3456V11.4483H37.208V8.58594Z" fill="#3FDD62"/>
<path d="M37.208 5.72363H34.3456V8.586H37.208V5.72363Z" fill="#3FDD62"/>
<path d="M37.208 2.8623H34.3456V5.72322H37.208V2.8623Z" fill="#3FDD62"/>
<path d="M37.208 0H34.3456V2.86237H37.208V0Z" fill="#24943D"/>
<path d="M34.3456 22.8965H31.4833V25.7589H34.3456V22.8965Z" fill="#170F0C"/>
<path d="M34.3456 20.0342H31.4833V22.8966H34.3456V20.0342Z" fill="#24943D"/>
<path d="M34.3456 17.1709H31.4833V20.0333H34.3456V17.1709Z" fill="#3FDD62"/>
<path d="M34.3456 14.3105H31.4833V17.1715H34.3456V14.3105Z" fill="#3FDD62"/>
<path d="M34.3456 11.4482H31.4833V14.3106H34.3456V11.4482Z" fill="#3FDD62"/>
<path d="M34.3456 8.58594H31.4833V11.4483H34.3456V8.58594Z" fill="#3FDD62"/>
<path d="M34.3456 5.72363H31.4833V8.586H34.3456V5.72363Z" fill="#3FDD62"/>
<path d="M34.3456 2.8623H31.4833V5.72322H34.3456V2.8623Z" fill="#3FDD62"/>
<path d="M34.3456 0H31.4833V2.86237H34.3456V0Z" fill="#24943D"/>
<path d="M31.4832 22.8965H28.6208V25.7589H31.4832V22.8965Z" fill="#170F0C"/>
<path d="M31.4832 20.0342H28.6208V22.8966H31.4832V20.0342Z" fill="#24943D"/>
<path d="M31.4832 17.1709H28.6208V20.0333H31.4832V17.1709Z" fill="#3FDD62"/>
<path d="M31.4832 14.3105H28.6208V17.1715H31.4832V14.3105Z" fill="#3FDD62"/>
<path d="M31.4832 11.4482H28.6208V14.3106H31.4832V11.4482Z" fill="#3FDD62"/>
<path d="M31.4832 8.58594H28.6208V11.4483H31.4832V8.58594Z" fill="#3FDD62"/>
<path d="M31.4832 5.72363H28.6208V8.586H31.4832V5.72363Z" fill="#3FDD62"/>
<path d="M31.4832 2.8623H28.6208V5.72322H31.4832V2.8623Z" fill="#3FDD62"/>
<path d="M31.4832 0H28.6208V2.86237H31.4832V0Z" fill="#24943D"/>
<path d="M28.6209 22.8965H25.7585V25.7589H28.6209V22.8965Z" fill="#170F0C"/>
<path d="M28.6209 20.0342H25.7585V22.8966H28.6209V20.0342Z" fill="#24943D"/>
<path d="M28.6209 17.1709H25.7585V20.0333H28.6209V17.1709Z" fill="#3FDD62"/>
<path d="M28.6209 14.3105H25.7585V17.1715H28.6209V14.3105Z" fill="#3FDD62"/>
<path d="M28.6209 11.4482H25.7585V14.3106H28.6209V11.4482Z" fill="#3FDD62"/>
<path d="M28.6209 8.58594H25.7585V11.4483H28.6209V8.58594Z" fill="#3FDD62"/>
<path d="M28.6209 5.72363H25.7585V8.586H28.6209V5.72363Z" fill="#3FDD62"/>
<path d="M28.6209 2.8623H25.7585V5.72322H28.6209V2.8623Z" fill="#3FDD62"/>
<path d="M28.6209 0H25.7585V2.86237H28.6209V0Z" fill="#24943D"/>
<path d="M25.7584 22.8965H22.8975V25.7589H25.7584V22.8965Z" fill="#170F0C"/>
<path d="M25.7584 20.0342H22.8975V22.8966H25.7584V20.0342Z" fill="#24943D"/>
<path d="M25.7584 17.1709H22.8975V20.0333H25.7584V17.1709Z" fill="#3FDD62"/>
<path d="M25.7584 14.3105H22.8975V17.1715H25.7584V14.3105Z" fill="#3FDD62"/>
<path d="M25.7584 11.4482H22.8975V14.3106H25.7584V11.4482Z" fill="#3FDD62"/>
<path d="M25.7584 8.58594H22.8975V11.4483H25.7584V8.58594Z" fill="#3FDD62"/>
<path d="M25.7584 5.72363H22.8975V8.586H25.7584V5.72363Z" fill="#3FDD62"/>
<path d="M25.7584 2.8623H22.8975V5.72322H25.7584V2.8623Z" fill="#3FDD62"/>
<path d="M25.7584 0H22.8975V2.86237H25.7584V0Z" fill="#24943D"/>
<path d="M22.8975 22.8965H20.0352V25.7589H22.8975V22.8965Z" fill="#170F0C"/>
<path d="M22.8975 20.0342H20.0352V22.8966H22.8975V20.0342Z" fill="#24943D"/>
<path d="M22.8975 17.1709H20.0352V20.0333H22.8975V17.1709Z" fill="#3FDD62"/>
<path d="M22.8975 14.3105H20.0352V17.1715H22.8975V14.3105Z" fill="#3FDD62"/>
<path d="M22.8975 11.4482H20.0352V14.3106H22.8975V11.4482Z" fill="#3FDD62"/>
<path d="M22.8975 8.58594H20.0352V11.4483H22.8975V8.58594Z" fill="#3FDD62"/>
<path d="M22.8975 5.72363H20.0352V8.586H22.8975V5.72363Z" fill="#3FDD62"/>
<path d="M22.8975 2.8623H20.0352V5.72322H22.8975V2.8623Z" fill="#3FDD62"/>
<path d="M22.8975 0H20.0352V2.86237H22.8975V0Z" fill="#24943D"/>
<path d="M20.0351 22.8965H17.1727V25.7589H20.0351V22.8965Z" fill="#170F0C"/>
<path d="M20.0351 20.0342H17.1727V22.8966H20.0351V20.0342Z" fill="#24943D"/>
<path d="M20.0351 17.1709H17.1727V20.0333H20.0351V17.1709Z" fill="#3FDD62"/>
<path d="M20.0351 14.3105H17.1727V17.1715H20.0351V14.3105Z" fill="#3FDD62"/>
<path d="M20.0351 11.4482H17.1727V14.3106H20.0351V11.4482Z" fill="#3FDD62"/>
<path d="M20.0351 8.58594H17.1727V11.4483H20.0351V8.58594Z" fill="#3FDD62"/>
<path d="M20.0351 5.72363H17.1727V8.586H20.0351V5.72363Z" fill="#3FDD62"/>
<path d="M20.0351 2.8623H17.1727V5.72322H20.0351V2.8623Z" fill="#3FDD62"/>
<path d="M20.0351 0H17.1727V2.86237H20.0351V0Z" fill="#24943D"/>
<path d="M17.1728 22.8965H14.3104V25.7589H17.1728V22.8965Z" fill="#170F0C"/>
<path d="M17.1728 20.0342H14.3104V22.8966H17.1728V20.0342Z" fill="#24943D"/>
<path d="M17.1728 17.1709H14.3104V20.0333H17.1728V17.1709Z" fill="#3FDD62"/>
<path d="M17.1728 14.3105H14.3104V17.1715H17.1728V14.3105Z" fill="#3FDD62"/>
<path d="M17.1728 11.4482H14.3104V14.3106H17.1728V11.4482Z" fill="#3FDD62"/>
<path d="M17.1728 8.58594H14.3104V11.4483H17.1728V8.58594Z" fill="#3FDD62"/>
<path d="M17.1728 5.72363H14.3104V8.586H17.1728V5.72363Z" fill="#3FDD62"/>
<path d="M17.1728 2.8623H14.3104V5.72322H17.1728V2.8623Z" fill="#3FDD62"/>
<path d="M17.1728 0H14.3104V2.86237H17.1728V0Z" fill="#24943D"/>
<path d="M14.3104 22.8965H11.4495V25.7589H14.3104V22.8965Z" fill="#170F0C"/>
<path d="M14.3104 20.0342H11.4495V22.8966H14.3104V20.0342Z" fill="#24943D"/>
<path d="M14.3104 17.1709H11.4495V20.0333H14.3104V17.1709Z" fill="#3FDD62"/>
<path d="M14.3104 14.3105H11.4495V17.1715H14.3104V14.3105Z" fill="#3FDD62"/>
<path d="M14.3104 11.4482H11.4495V14.3106H14.3104V11.4482Z" fill="#3FDD62"/>
<path d="M14.3104 8.58594H11.4495V11.4483H14.3104V8.58594Z" fill="#3FDD62"/>
<path d="M14.3104 5.72363H11.4495V8.586H14.3104V5.72363Z" fill="#3FDD62"/>
<path d="M14.3104 2.8623H11.4495V5.72322H14.3104V2.8623Z" fill="#3FDD62"/>
<path d="M14.3104 0H11.4495V2.86237H14.3104V0Z" fill="#24943D"/>
<path d="M11.4494 22.8965H8.58704V25.7589H11.4494V22.8965Z" fill="#170F0C"/>
<path d="M11.4494 20.0342H8.58704V22.8966H11.4494V20.0342Z" fill="#24943D"/>
<path d="M11.4494 17.1709H8.58704V20.0333H11.4494V17.1709Z" fill="#3FDD62"/>
<path d="M11.4494 14.3105H8.58704V17.1715H11.4494V14.3105Z" fill="#3FDD62"/>
<path d="M11.4494 11.4482H8.58704V14.3106H11.4494V11.4482Z" fill="#3FDD62"/>
<path d="M11.4494 8.58594H8.58704V11.4483H11.4494V8.58594Z" fill="#3FDD62"/>
<path d="M11.4494 5.72363H8.58704V8.586H11.4494V5.72363Z" fill="#3FDD62"/>
<path d="M11.4494 2.8623H8.58704V5.72322H11.4494V2.8623Z" fill="#3FDD62"/>
<path d="M11.4494 0H8.58704V2.86237H11.4494V0Z" fill="#24943D"/>
<path d="M8.5871 22.8965H5.72473V25.7589H8.5871V22.8965Z" fill="#170F0C"/>
<path d="M8.5871 20.0342H5.72473V22.8966H8.5871V20.0342Z" fill="#170F0C"/>
<path d="M8.5871 17.1709H5.72473V20.0333H8.5871V17.1709Z" fill="#24943D"/>
<path d="M8.5871 14.3105H5.72473V17.1715H8.5871V14.3105Z" fill="#3FDD62"/>
<path d="M8.5871 11.4482H5.72473V14.3106H8.5871V11.4482Z" fill="#3FDD62"/>
<path d="M8.5871 8.58594H5.72473V11.4483H8.5871V8.58594Z" fill="#3FDD62"/>
<path d="M8.5871 5.72363H5.72473V8.586H8.5871V5.72363Z" fill="#3FDD62"/>
<path d="M8.5871 2.8623H5.72473V5.72322H8.5871V2.8623Z" fill="#24943D"/>
<path d="M8.5871 0H5.72473V2.86237H8.5871V0Z" fill="#170F0C"/>
<path d="M5.72468 20.0342H2.8623V22.8966H5.72468V20.0342Z" fill="#170F0C"/>
<path d="M5.72468 17.1709H2.8623V20.0333H5.72468V17.1709Z" fill="#170F0C"/>
<path d="M5.72468 14.3105H2.8623V17.1715H5.72468V14.3105Z" fill="#24943D"/>
<path d="M5.72468 11.4482H2.8623V14.3106H5.72468V11.4482Z" fill="#24943D"/>
<path d="M5.72468 8.58594H2.8623V11.4483H5.72468V8.58594Z" fill="#24943D"/>
<path d="M5.72468 5.72363H2.8623V8.586H5.72468V5.72363Z" fill="#24943D"/>
<path d="M5.72468 2.8623H2.8623V5.72322H5.72468V2.8623Z" fill="#170F0C"/>
<path d="M2.86237 17.1709H0V20.0333H2.86237V17.1709Z" fill="#170F0C"/>
<path d="M2.86237 14.3105H0V17.1715H2.86237V14.3105Z" fill="#170F0C"/>
<path d="M2.86237 11.4482H0V14.3106H2.86237V11.4482Z" fill="#170F0C"/>
<path d="M2.86237 8.58594H0V11.4483H2.86237V8.58594Z" fill="#170F0C"/>
<path d="M2.86237 5.72363H0V8.586H2.86237V5.72363Z" fill="#170F0C"/>
<mask id="path-250-outside-1_1113_2352" maskUnits="userSpaceOnUse" x="16" y="5" width="51" height="12" fill="black">
<rect fill="white" x="16" y="5" width="51" height="12"/>
<path d="M18.625 7.125H26.875V11.25H26.1875V11.9375H24.8125V11.25H25.5V7.8125H18.625V7.125ZM27.5625 14.6875H17.9375V14H27.5625V14.6875ZM29.625 7.8125H36.5V7.125H29.625V6.4375H37.875V8.5H31V9.1875H37.875V9.875H30.3125V9.1875H29.625V7.8125ZM38.5625 11.25H34.4375V12.625H33.0625V11.25H28.9375V10.5625H38.5625V11.25ZM30.3125 14.6875H29.625V11.9375H31V13.3125H36.5V11.9375H37.875V14.6875H37.1875V15.375H30.3125V14.6875ZM36.5 14H31V14.6875H36.5V14ZM53.6875 10.5625H55.75V11.25H53.6875V15.375H52.3125V6.4375H53.6875V10.5625ZM47.5 13.3125H48.1875V7.8125H45.4375V7.125H49.5625V13.3125H48.875V14H48.1875V14.6875H46.125V14H47.5V13.3125ZM60.5625 11.25H57.8125V10.5625H57.125V9.875H56.4375V7.8125H57.125V7.125H57.8125V6.4375H60.5625V7.125H61.25V7.8125H61.9375V9.875H61.25V10.5625H60.5625V11.25ZM65.375 11.25H64V6.4375H65.375V11.25ZM58.5 7.8125H57.8125V9.875H58.5V10.5625H59.875V9.875H60.5625V7.8125H59.875V7.125H58.5V7.8125ZM57.8125 14.6875H57.125V11.9375H58.5V13.3125H64V11.9375H65.375V14.6875H64.6875V15.375H57.8125V14.6875ZM64 14H58.5V14.6875H64V14Z"/>
</mask>
<path d="M18.625 7.125H26.875V11.25H26.1875V11.9375H24.8125V11.25H25.5V7.8125H18.625V7.125ZM27.5625 14.6875H17.9375V14H27.5625V14.6875ZM29.625 7.8125H36.5V7.125H29.625V6.4375H37.875V8.5H31V9.1875H37.875V9.875H30.3125V9.1875H29.625V7.8125ZM38.5625 11.25H34.4375V12.625H33.0625V11.25H28.9375V10.5625H38.5625V11.25ZM30.3125 14.6875H29.625V11.9375H31V13.3125H36.5V11.9375H37.875V14.6875H37.1875V15.375H30.3125V14.6875ZM36.5 14H31V14.6875H36.5V14ZM53.6875 10.5625H55.75V11.25H53.6875V15.375H52.3125V6.4375H53.6875V10.5625ZM47.5 13.3125H48.1875V7.8125H45.4375V7.125H49.5625V13.3125H48.875V14H48.1875V14.6875H46.125V14H47.5V13.3125ZM60.5625 11.25H57.8125V10.5625H57.125V9.875H56.4375V7.8125H57.125V7.125H57.8125V6.4375H60.5625V7.125H61.25V7.8125H61.9375V9.875H61.25V10.5625H60.5625V11.25ZM65.375 11.25H64V6.4375H65.375V11.25ZM58.5 7.8125H57.8125V9.875H58.5V10.5625H59.875V9.875H60.5625V7.8125H59.875V7.125H58.5V7.8125ZM57.8125 14.6875H57.125V11.9375H58.5V13.3125H64V11.9375H65.375V14.6875H64.6875V15.375H57.8125V14.6875ZM64 14H58.5V14.6875H64V14Z" fill="black"/>
<path d="M18.625 7.125V6.125H17.625V7.125H18.625ZM26.875 7.125H27.875V6.125H26.875V7.125ZM26.875 11.25V12.25H27.875V11.25H26.875ZM26.1875 11.25V10.25H25.1875V11.25H26.1875ZM26.1875 11.9375V12.9375H27.1875V11.9375H26.1875ZM24.8125 11.9375H23.8125V12.9375H24.8125V11.9375ZM24.8125 11.25V10.25H23.8125V11.25H24.8125ZM25.5 11.25V12.25H26.5V11.25H25.5ZM25.5 7.8125H26.5V6.8125H25.5V7.8125ZM18.625 7.8125H17.625V8.8125H18.625V7.8125ZM27.5625 14.6875V15.6875H28.5625V14.6875H27.5625ZM17.9375 14.6875H16.9375V15.6875H17.9375V14.6875ZM17.9375 14V13H16.9375V14H17.9375ZM27.5625 14H28.5625V13H27.5625V14ZM18.625 8.125H26.875V6.125H18.625V8.125ZM25.875 7.125V11.25H27.875V7.125H25.875ZM26.875 10.25H26.1875V12.25H26.875V10.25ZM25.1875 11.25V11.9375H27.1875V11.25H25.1875ZM26.1875 10.9375H24.8125V12.9375H26.1875V10.9375ZM25.8125 11.9375V11.25H23.8125V11.9375H25.8125ZM24.8125 12.25H25.5V10.25H24.8125V12.25ZM26.5 11.25V7.8125H24.5V11.25H26.5ZM25.5 6.8125H18.625V8.8125H25.5V6.8125ZM19.625 7.8125V7.125H17.625V7.8125H19.625ZM27.5625 13.6875H17.9375V15.6875H27.5625V13.6875ZM18.9375 14.6875V14H16.9375V14.6875H18.9375ZM17.9375 15H27.5625V13H17.9375V15ZM26.5625 14V14.6875H28.5625V14H26.5625ZM29.625 7.8125V6.8125H28.625V7.8125H29.625ZM36.5 7.8125V8.8125H37.5V7.8125H36.5ZM36.5 7.125H37.5V6.125H36.5V7.125ZM29.625 7.125H28.625V8.125H29.625V7.125ZM29.625 6.4375V5.4375H28.625V6.4375H29.625ZM37.875 6.4375H38.875V5.4375H37.875V6.4375ZM37.875 8.5V9.5H38.875V8.5H37.875ZM31 8.5V7.5H30V8.5H31ZM31 9.1875H30V10.1875H31V9.1875ZM37.875 9.1875H38.875V8.1875H37.875V9.1875ZM37.875 9.875V10.875H38.875V9.875H37.875ZM30.3125 9.875H29.3125V10.875H30.3125V9.875ZM30.3125 9.1875H31.3125V8.1875H30.3125V9.1875ZM29.625 9.1875H28.625V10.1875H29.625V9.1875ZM38.5625 11.25V12.25H39.5625V11.25H38.5625ZM34.4375 11.25V10.25H33.4375V11.25H34.4375ZM34.4375 12.625V13.625H35.4375V12.625H34.4375ZM33.0625 12.625H32.0625V13.625H33.0625V12.625ZM33.0625 11.25H34.0625V10.25H33.0625V11.25ZM28.9375 11.25H27.9375V12.25H28.9375V11.25ZM28.9375 10.5625V9.5625H27.9375V10.5625H28.9375ZM38.5625 10.5625H39.5625V9.5625H38.5625V10.5625ZM30.3125 14.6875H31.3125V13.6875H30.3125V14.6875ZM29.625 14.6875H28.625V15.6875H29.625V14.6875ZM29.625 11.9375V10.9375H28.625V11.9375H29.625ZM31 11.9375H32V10.9375H31V11.9375ZM31 13.3125H30V14.3125H31V13.3125ZM36.5 13.3125V14.3125H37.5V13.3125H36.5ZM36.5 11.9375V10.9375H35.5V11.9375H36.5ZM37.875 11.9375H38.875V10.9375H37.875V11.9375ZM37.875 14.6875V15.6875H38.875V14.6875H37.875ZM37.1875 14.6875V13.6875H36.1875V14.6875H37.1875ZM37.1875 15.375V16.375H38.1875V15.375H37.1875ZM30.3125 15.375H29.3125V16.375H30.3125V15.375ZM36.5 14H37.5V13H36.5V14ZM31 14V13H30V14H31ZM31 14.6875H30V15.6875H31V14.6875ZM36.5 14.6875V15.6875H37.5V14.6875H36.5ZM29.625 8.8125H36.5V6.8125H29.625V8.8125ZM37.5 7.8125V7.125H35.5V7.8125H37.5ZM36.5 6.125H29.625V8.125H36.5V6.125ZM30.625 7.125V6.4375H28.625V7.125H30.625ZM29.625 7.4375H37.875V5.4375H29.625V7.4375ZM36.875 6.4375V8.5H38.875V6.4375H36.875ZM37.875 7.5H31V9.5H37.875V7.5ZM30 8.5V9.1875H32V8.5H30ZM31 10.1875H37.875V8.1875H31V10.1875ZM36.875 9.1875V9.875H38.875V9.1875H36.875ZM37.875 8.875H30.3125V10.875H37.875V8.875ZM31.3125 9.875V9.1875H29.3125V9.875H31.3125ZM30.3125 8.1875H29.625V10.1875H30.3125V8.1875ZM30.625 9.1875V7.8125H28.625V9.1875H30.625ZM38.5625 10.25H34.4375V12.25H38.5625V10.25ZM33.4375 11.25V12.625H35.4375V11.25H33.4375ZM34.4375 11.625H33.0625V13.625H34.4375V11.625ZM34.0625 12.625V11.25H32.0625V12.625H34.0625ZM33.0625 10.25H28.9375V12.25H33.0625V10.25ZM29.9375 11.25V10.5625H27.9375V11.25H29.9375ZM28.9375 11.5625H38.5625V9.5625H28.9375V11.5625ZM37.5625 10.5625V11.25H39.5625V10.5625H37.5625ZM30.3125 13.6875H29.625V15.6875H30.3125V13.6875ZM30.625 14.6875V11.9375H28.625V14.6875H30.625ZM29.625 12.9375H31V10.9375H29.625V12.9375ZM30 11.9375V13.3125H32V11.9375H30ZM31 14.3125H36.5V12.3125H31V14.3125ZM37.5 13.3125V11.9375H35.5V13.3125H37.5ZM36.5 12.9375H37.875V10.9375H36.5V12.9375ZM36.875 11.9375V14.6875H38.875V11.9375H36.875ZM37.875 13.6875H37.1875V15.6875H37.875V13.6875ZM36.1875 14.6875V15.375H38.1875V14.6875H36.1875ZM37.1875 14.375H30.3125V16.375H37.1875V14.375ZM31.3125 15.375V14.6875H29.3125V15.375H31.3125ZM36.5 13H31V15H36.5V13ZM30 14V14.6875H32V14H30ZM31 15.6875H36.5V13.6875H31V15.6875ZM37.5 14.6875V14H35.5V14.6875H37.5ZM53.6875 10.5625H52.6875V11.5625H53.6875V10.5625ZM55.75 10.5625H56.75V9.5625H55.75V10.5625ZM55.75 11.25V12.25H56.75V11.25H55.75ZM53.6875 11.25V10.25H52.6875V11.25H53.6875ZM53.6875 15.375V16.375H54.6875V15.375H53.6875ZM52.3125 15.375H51.3125V16.375H52.3125V15.375ZM52.3125 6.4375V5.4375H51.3125V6.4375H52.3125ZM53.6875 6.4375H54.6875V5.4375H53.6875V6.4375ZM47.5 13.3125V12.3125H46.5V13.3125H47.5ZM48.1875 13.3125V14.3125H49.1875V13.3125H48.1875ZM48.1875 7.8125H49.1875V6.8125H48.1875V7.8125ZM45.4375 7.8125H44.4375V8.8125H45.4375V7.8125ZM45.4375 7.125V6.125H44.4375V7.125H45.4375ZM49.5625 7.125H50.5625V6.125H49.5625V7.125ZM49.5625 13.3125V14.3125H50.5625V13.3125H49.5625ZM48.875 13.3125V12.3125H47.875V13.3125H48.875ZM48.875 14V15H49.875V14H48.875ZM48.1875 14V13H47.1875V14H48.1875ZM48.1875 14.6875V15.6875H49.1875V14.6875H48.1875ZM46.125 14.6875H45.125V15.6875H46.125V14.6875ZM46.125 14V13H45.125V14H46.125ZM47.5 14V15H48.5V14H47.5ZM53.6875 11.5625H55.75V9.5625H53.6875V11.5625ZM54.75 10.5625V11.25H56.75V10.5625H54.75ZM55.75 10.25H53.6875V12.25H55.75V10.25ZM52.6875 11.25V15.375H54.6875V11.25H52.6875ZM53.6875 14.375H52.3125V16.375H53.6875V14.375ZM53.3125 15.375V6.4375H51.3125V15.375H53.3125ZM52.3125 7.4375H53.6875V5.4375H52.3125V7.4375ZM52.6875 6.4375V10.5625H54.6875V6.4375H52.6875ZM47.5 14.3125H48.1875V12.3125H47.5V14.3125ZM49.1875 13.3125V7.8125H47.1875V13.3125H49.1875ZM48.1875 6.8125H45.4375V8.8125H48.1875V6.8125ZM46.4375 7.8125V7.125H44.4375V7.8125H46.4375ZM45.4375 8.125H49.5625V6.125H45.4375V8.125ZM48.5625 7.125V13.3125H50.5625V7.125H48.5625ZM49.5625 12.3125H48.875V14.3125H49.5625V12.3125ZM47.875 13.3125V14H49.875V13.3125H47.875ZM48.875 13H48.1875V15H48.875V13ZM47.1875 14V14.6875H49.1875V14H47.1875ZM48.1875 13.6875H46.125V15.6875H48.1875V13.6875ZM47.125 14.6875V14H45.125V14.6875H47.125ZM46.125 15H47.5V13H46.125V15ZM48.5 14V13.3125H46.5V14H48.5ZM60.5625 11.25V12.25H61.5625V11.25H60.5625ZM57.8125 11.25H56.8125V12.25H57.8125V11.25ZM57.8125 10.5625H58.8125V9.5625H57.8125V10.5625ZM57.125 10.5625H56.125V11.5625H57.125V10.5625ZM57.125 9.875H58.125V8.875H57.125V9.875ZM56.4375 9.875H55.4375V10.875H56.4375V9.875ZM56.4375 7.8125V6.8125H55.4375V7.8125H56.4375ZM57.125 7.8125V8.8125H58.125V7.8125H57.125ZM57.125 7.125V6.125H56.125V7.125H57.125ZM57.8125 7.125V8.125H58.8125V7.125H57.8125ZM57.8125 6.4375V5.4375H56.8125V6.4375H57.8125ZM60.5625 6.4375H61.5625V5.4375H60.5625V6.4375ZM60.5625 7.125H59.5625V8.125H60.5625V7.125ZM61.25 7.125H62.25V6.125H61.25V7.125ZM61.25 7.8125H60.25V8.8125H61.25V7.8125ZM61.9375 7.8125H62.9375V6.8125H61.9375V7.8125ZM61.9375 9.875V10.875H62.9375V9.875H61.9375ZM61.25 9.875V8.875H60.25V9.875H61.25ZM61.25 10.5625V11.5625H62.25V10.5625H61.25ZM60.5625 10.5625V9.5625H59.5625V10.5625H60.5625ZM65.375 11.25V12.25H66.375V11.25H65.375ZM64 11.25H63V12.25H64V11.25ZM64 6.4375V5.4375H63V6.4375H64ZM65.375 6.4375H66.375V5.4375H65.375V6.4375ZM58.5 7.8125V8.8125H59.5V7.8125H58.5ZM57.8125 7.8125V6.8125H56.8125V7.8125H57.8125ZM57.8125 9.875H56.8125V10.875H57.8125V9.875ZM58.5 9.875H59.5V8.875H58.5V9.875ZM58.5 10.5625H57.5V11.5625H58.5V10.5625ZM59.875 10.5625V11.5625H60.875V10.5625H59.875ZM59.875 9.875V8.875H58.875V9.875H59.875ZM60.5625 9.875V10.875H61.5625V9.875H60.5625ZM60.5625 7.8125H61.5625V6.8125H60.5625V7.8125ZM59.875 7.8125H58.875V8.8125H59.875V7.8125ZM59.875 7.125H60.875V6.125H59.875V7.125ZM58.5 7.125V6.125H57.5V7.125H58.5ZM57.8125 14.6875H58.8125V13.6875H57.8125V14.6875ZM57.125 14.6875H56.125V15.6875H57.125V14.6875ZM57.125 11.9375V10.9375H56.125V11.9375H57.125ZM58.5 11.9375H59.5V10.9375H58.5V11.9375ZM58.5 13.3125H57.5V14.3125H58.5V13.3125ZM64 13.3125V14.3125H65V13.3125H64ZM64 11.9375V10.9375H63V11.9375H64ZM65.375 11.9375H66.375V10.9375H65.375V11.9375ZM65.375 14.6875V15.6875H66.375V14.6875H65.375ZM64.6875 14.6875V13.6875H63.6875V14.6875H64.6875ZM64.6875 15.375V16.375H65.6875V15.375H64.6875ZM57.8125 15.375H56.8125V16.375H57.8125V15.375ZM64 14H65V13H64V14ZM58.5 14V13H57.5V14H58.5ZM58.5 14.6875H57.5V15.6875H58.5V14.6875ZM64 14.6875V15.6875H65V14.6875H64ZM60.5625 10.25H57.8125V12.25H60.5625V10.25ZM58.8125 11.25V10.5625H56.8125V11.25H58.8125ZM57.8125 9.5625H57.125V11.5625H57.8125V9.5625ZM58.125 10.5625V9.875H56.125V10.5625H58.125ZM57.125 8.875H56.4375V10.875H57.125V8.875ZM57.4375 9.875V7.8125H55.4375V9.875H57.4375ZM56.4375 8.8125H57.125V6.8125H56.4375V8.8125ZM58.125 7.8125V7.125H56.125V7.8125H58.125ZM57.125 8.125H57.8125V6.125H57.125V8.125ZM58.8125 7.125V6.4375H56.8125V7.125H58.8125ZM57.8125 7.4375H60.5625V5.4375H57.8125V7.4375ZM59.5625 6.4375V7.125H61.5625V6.4375H59.5625ZM60.5625 8.125H61.25V6.125H60.5625V8.125ZM60.25 7.125V7.8125H62.25V7.125H60.25ZM61.25 8.8125H61.9375V6.8125H61.25V8.8125ZM60.9375 7.8125V9.875H62.9375V7.8125H60.9375ZM61.9375 8.875H61.25V10.875H61.9375V8.875ZM60.25 9.875V10.5625H62.25V9.875H60.25ZM61.25 9.5625H60.5625V11.5625H61.25V9.5625ZM59.5625 10.5625V11.25H61.5625V10.5625H59.5625ZM65.375 10.25H64V12.25H65.375V10.25ZM65 11.25V6.4375H63V11.25H65ZM64 7.4375H65.375V5.4375H64V7.4375ZM64.375 6.4375V11.25H66.375V6.4375H64.375ZM58.5 6.8125H57.8125V8.8125H58.5V6.8125ZM56.8125 7.8125V9.875H58.8125V7.8125H56.8125ZM57.8125 10.875H58.5V8.875H57.8125V10.875ZM57.5 9.875V10.5625H59.5V9.875H57.5ZM58.5 11.5625H59.875V9.5625H58.5V11.5625ZM60.875 10.5625V9.875H58.875V10.5625H60.875ZM59.875 10.875H60.5625V8.875H59.875V10.875ZM61.5625 9.875V7.8125H59.5625V9.875H61.5625ZM60.5625 6.8125H59.875V8.8125H60.5625V6.8125ZM60.875 7.8125V7.125H58.875V7.8125H60.875ZM59.875 6.125H58.5V8.125H59.875V6.125ZM57.5 7.125V7.8125H59.5V7.125H57.5ZM57.8125 13.6875H57.125V15.6875H57.8125V13.6875ZM58.125 14.6875V11.9375H56.125V14.6875H58.125ZM57.125 12.9375H58.5V10.9375H57.125V12.9375ZM57.5 11.9375V13.3125H59.5V11.9375H57.5ZM58.5 14.3125H64V12.3125H58.5V14.3125ZM65 13.3125V11.9375H63V13.3125H65ZM64 12.9375H65.375V10.9375H64V12.9375ZM64.375 11.9375V14.6875H66.375V11.9375H64.375ZM65.375 13.6875H64.6875V15.6875H65.375V13.6875ZM63.6875 14.6875V15.375H65.6875V14.6875H63.6875ZM64.6875 14.375H57.8125V16.375H64.6875V14.375ZM58.8125 15.375V14.6875H56.8125V15.375H58.8125ZM64 13H58.5V15H64V13ZM57.5 14V14.6875H59.5V14H57.5ZM58.5 15.6875H64V13.6875H58.5V15.6875ZM65 14.6875V14H63V14.6875H65Z" fill="white" mask="url(#path-250-outside-1_1113_2352)"/>
</svg>
