<svg width="83" height="27" viewBox="0 0 83 27" fill="none" xmlns="http://www.w3.org/2000/svg">
<path d="M83.0001 17.1709H80.1377V20.0333H83.0001V17.1709Z" fill="#170F0C"/>
<path d="M83.0001 14.3105H80.1377V17.1715H83.0001V14.3105Z" fill="#933C3C"/>
<path d="M83.0001 11.4482H80.1377V14.3106H83.0001V11.4482Z" fill="#933C3C"/>
<path d="M83.0001 8.58594H80.1377V11.4483H83.0001V8.58594Z" fill="#933C3C"/>
<path d="M83.0001 5.72363H80.1377V8.586H83.0001V5.72363Z" fill="#933C3C"/>
<path d="M80.1375 20.0342H77.2766V22.8966H80.1375V20.0342Z" fill="#170F0C"/>
<path d="M80.1375 17.1709H77.2766V20.0333H80.1375V17.1709Z" fill="#933C3C"/>
<path d="M80.1375 14.3105H77.2766V17.1715H80.1375V14.3105Z" fill="#FE4F28"/>
<path d="M80.1375 11.4482H77.2766V14.3106H80.1375V11.4482Z" fill="#FE4F28"/>
<path d="M80.1375 8.58594H77.2766V11.4483H80.1375V8.58594Z" fill="#FE4F28"/>
<path d="M80.1375 5.72363H77.2766V8.586H80.1375V5.72363Z" fill="#FE4F28"/>
<path d="M80.1375 2.8623H77.2766V5.72322H80.1375V2.8623Z" fill="#933C3C"/>
<path d="M77.2767 22.8965H74.4143V25.7589H77.2767V22.8965Z" fill="#170F0C"/>
<path d="M77.2767 20.0342H74.4143V22.8966H77.2767V20.0342Z" fill="#933C3C"/>
<path d="M77.2767 17.1709H74.4143V20.0333H77.2767V17.1709Z" fill="#FE4F28"/>
<path d="M77.2767 14.3105H74.4143V17.1715H77.2767V14.3105Z" fill="#FE4F28"/>
<path d="M77.2767 11.4482H74.4143V14.3106H77.2767V11.4482Z" fill="#FE4F28"/>
<path d="M77.2767 8.58594H74.4143V11.4483H77.2767V8.58594Z" fill="#FE4F28"/>
<path d="M77.2767 5.72363H74.4143V8.586H77.2767V5.72363Z" fill="#FE4F28"/>
<path d="M77.2767 2.8623H74.4143V5.72322H77.2767V2.8623Z" fill="#FE4F28"/>
<path d="M77.2767 0H74.4143V2.86237H77.2767V0Z" fill="#933C3C"/>
<path d="M74.4142 22.8965H71.5519V25.7589H74.4142V22.8965Z" fill="#170F0C"/>
<path d="M74.4142 20.0342H71.5519V22.8966H74.4142V20.0342Z" fill="#933C3C"/>
<path d="M74.4142 17.1709H71.5519V20.0333H74.4142V17.1709Z" fill="#FE4F28"/>
<path d="M74.4142 14.3105H71.5519V17.1715H74.4142V14.3105Z" fill="#FE4F28"/>
<path d="M74.4142 11.4482H71.5519V14.3106H74.4142V11.4482Z" fill="#FE4F28"/>
<path d="M74.4142 8.58594H71.5519V11.4483H74.4142V8.58594Z" fill="#FE4F28"/>
<path d="M74.4142 5.72363H71.5519V8.586H74.4142V5.72363Z" fill="#FE4F28"/>
<path d="M74.4142 2.8623H71.5519V5.72322H74.4142V2.8623Z" fill="#FE4F28"/>
<path d="M74.4142 0H71.5519V2.86237H74.4142V0Z" fill="#933C3C"/>
<path d="M71.5519 22.8965H68.6896V25.7589H71.5519V22.8965Z" fill="#170F0C"/>
<path d="M71.5519 20.0342H68.6896V22.8966H71.5519V20.0342Z" fill="#933C3C"/>
<path d="M71.5519 17.1709H68.6896V20.0333H71.5519V17.1709Z" fill="#FE4F28"/>
<path d="M71.5519 14.3105H68.6896V17.1715H71.5519V14.3105Z" fill="#FE4F28"/>
<path d="M71.5519 11.4482H68.6896V14.3106H71.5519V11.4482Z" fill="#FE4F28"/>
<path d="M71.5519 8.58594H68.6896V11.4483H71.5519V8.58594Z" fill="#FE4F28"/>
<path d="M71.5519 5.72363H68.6896V8.586H71.5519V5.72363Z" fill="#FE4F28"/>
<path d="M71.5519 2.8623H68.6896V5.72322H71.5519V2.8623Z" fill="#FE4F28"/>
<path d="M71.5519 0H68.6896V2.86237H71.5519V0Z" fill="#933C3C"/>
<path d="M68.6896 22.8965H65.8273V25.7589H68.6896V22.8965Z" fill="#170F0C"/>
<path d="M68.6896 20.0342H65.8273V22.8966H68.6896V20.0342Z" fill="#933C3C"/>
<path d="M68.6896 17.1709H65.8273V20.0333H68.6896V17.1709Z" fill="#FE4F28"/>
<path d="M68.6896 14.3105H65.8273V17.1715H68.6896V14.3105Z" fill="#FE4F28"/>
<path d="M68.6896 11.4482H65.8273V14.3106H68.6896V11.4482Z" fill="#FE4F28"/>
<path d="M68.6896 8.58594H65.8273V11.4483H68.6896V8.58594Z" fill="#FE4F28"/>
<path d="M68.6896 5.72363H65.8273V8.586H68.6896V5.72363Z" fill="#FE4F28"/>
<path d="M68.6896 2.8623H65.8273V5.72322H68.6896V2.8623Z" fill="#FE4F28"/>
<path d="M68.6896 0H65.8273V2.86237H68.6896V0Z" fill="#933C3C"/>
<path d="M65.8273 22.8965H62.9664V25.7589H65.8273V22.8965Z" fill="#170F0C"/>
<path d="M65.8273 20.0342H62.9664V22.8966H65.8273V20.0342Z" fill="#933C3C"/>
<path d="M65.8273 17.1709H62.9664V20.0333H65.8273V17.1709Z" fill="#FE4F28"/>
<path d="M65.8273 14.3105H62.9664V17.1715H65.8273V14.3105Z" fill="#FE4F28"/>
<path d="M65.8273 11.4482H62.9664V14.3106H65.8273V11.4482Z" fill="#FE4F28"/>
<path d="M65.8273 8.58594H62.9664V11.4483H65.8273V8.58594Z" fill="#FE4F28"/>
<path d="M65.8273 5.72363H62.9664V8.586H65.8273V5.72363Z" fill="#FE4F28"/>
<path d="M65.8273 2.8623H62.9664V5.72322H65.8273V2.8623Z" fill="#FE4F28"/>
<path d="M65.8273 0H62.9664V2.86237H65.8273V0Z" fill="#933C3C"/>
<path d="M62.9663 22.8965H60.1039V25.7589H62.9663V22.8965Z" fill="#170F0C"/>
<path d="M62.9663 20.0342H60.1039V22.8966H62.9663V20.0342Z" fill="#933C3C"/>
<path d="M62.9663 17.1709H60.1039V20.0333H62.9663V17.1709Z" fill="#FE4F28"/>
<path d="M62.9663 14.3105H60.1039V17.1715H62.9663V14.3105Z" fill="#FE4F28"/>
<path d="M62.9663 11.4482H60.1039V14.3106H62.9663V11.4482Z" fill="#FE4F28"/>
<path d="M62.9663 8.58594H60.1039V11.4483H62.9663V8.58594Z" fill="#FE4F28"/>
<path d="M62.9663 5.72363H60.1039V8.586H62.9663V5.72363Z" fill="#FE4F28"/>
<path d="M62.9663 2.8623H60.1039V5.72322H62.9663V2.8623Z" fill="#FE4F28"/>
<path d="M62.9663 0H60.1039V2.86237H62.9663V0Z" fill="#933C3C"/>
<path d="M60.1038 22.8965H57.2415V25.7589H60.1038V22.8965Z" fill="#170F0C"/>
<path d="M60.1038 20.0342H57.2415V22.8966H60.1038V20.0342Z" fill="#933C3C"/>
<path d="M60.1038 17.1709H57.2415V20.0333H60.1038V17.1709Z" fill="#FE4F28"/>
<path d="M60.1038 14.3105H57.2415V17.1715H60.1038V14.3105Z" fill="#FE4F28"/>
<path d="M60.1038 11.4482H57.2415V14.3106H60.1038V11.4482Z" fill="#FE4F28"/>
<path d="M60.1038 8.58594H57.2415V11.4483H60.1038V8.58594Z" fill="#FE4F28"/>
<path d="M60.1038 5.72363H57.2415V8.586H60.1038V5.72363Z" fill="#FE4F28"/>
<path d="M60.1038 2.8623H57.2415V5.72322H60.1038V2.8623Z" fill="#FE4F28"/>
<path d="M60.1038 0H57.2415V2.86237H60.1038V0Z" fill="#933C3C"/>
<path d="M57.2415 22.8965H54.3792V25.7589H57.2415V22.8965Z" fill="#170F0C"/>
<path d="M57.2415 20.0342H54.3792V22.8966H57.2415V20.0342Z" fill="#933C3C"/>
<path d="M57.2415 17.1709H54.3792V20.0333H57.2415V17.1709Z" fill="#FE4F28"/>
<path d="M57.2415 14.3105H54.3792V17.1715H57.2415V14.3105Z" fill="#FE4F28"/>
<path d="M57.2415 11.4482H54.3792V14.3106H57.2415V11.4482Z" fill="#FE4F28"/>
<path d="M57.2415 8.58594H54.3792V11.4483H57.2415V8.58594Z" fill="#FE4F28"/>
<path d="M57.2415 5.72363H54.3792V8.586H57.2415V5.72363Z" fill="#FE4F28"/>
<path d="M57.2415 2.8623H54.3792V5.72322H57.2415V2.8623Z" fill="#FE4F28"/>
<path d="M57.2415 0H54.3792V2.86237H57.2415V0Z" fill="#933C3C"/>
<path d="M54.3792 22.8965H51.5183V25.7589H54.3792V22.8965Z" fill="#170F0C"/>
<path d="M54.3792 20.0342H51.5183V22.8966H54.3792V20.0342Z" fill="#933C3C"/>
<path d="M54.3792 17.1709H51.5183V20.0333H54.3792V17.1709Z" fill="#FE4F28"/>
<path d="M54.3792 14.3105H51.5183V17.1715H54.3792V14.3105Z" fill="#FE4F28"/>
<path d="M54.3792 11.4482H51.5183V14.3106H54.3792V11.4482Z" fill="#FE4F28"/>
<path d="M54.3792 8.58594H51.5183V11.4483H54.3792V8.58594Z" fill="#FE4F28"/>
<path d="M54.3792 5.72363H51.5183V8.586H54.3792V5.72363Z" fill="#FE4F28"/>
<path d="M54.3792 2.8623H51.5183V5.72322H54.3792V2.8623Z" fill="#FE4F28"/>
<path d="M54.3792 0H51.5183V2.86237H54.3792V0Z" fill="#933C3C"/>
<path d="M51.5184 22.8965H48.656V25.7589H51.5184V22.8965Z" fill="#170F0C"/>
<path d="M51.5184 20.0342H48.656V22.8966H51.5184V20.0342Z" fill="#933C3C"/>
<path d="M51.5184 17.1709H48.656V20.0333H51.5184V17.1709Z" fill="#FE4F28"/>
<path d="M51.5184 14.3105H48.656V17.1715H51.5184V14.3105Z" fill="#FE4F28"/>
<path d="M51.5184 11.4482H48.656V14.3106H51.5184V11.4482Z" fill="#FE4F28"/>
<path d="M51.5184 8.58594H48.656V11.4483H51.5184V8.58594Z" fill="#FE4F28"/>
<path d="M51.5184 5.72363H48.656V8.586H51.5184V5.72363Z" fill="#FE4F28"/>
<path d="M51.5184 2.8623H48.656V5.72322H51.5184V2.8623Z" fill="#FE4F28"/>
<path d="M51.5184 0H48.656V2.86237H51.5184V0Z" fill="#933C3C"/>
<path d="M48.6561 22.8965H45.7937V25.7589H48.6561V22.8965Z" fill="#170F0C"/>
<path d="M48.6561 20.0342H45.7937V22.8966H48.6561V20.0342Z" fill="#933C3C"/>
<path d="M48.6561 17.1709H45.7937V20.0333H48.6561V17.1709Z" fill="#FE4F28"/>
<path d="M48.6561 14.3105H45.7937V17.1715H48.6561V14.3105Z" fill="#FE4F28"/>
<path d="M48.6561 11.4482H45.7937V14.3106H48.6561V11.4482Z" fill="#FE4F28"/>
<path d="M48.6561 8.58594H45.7937V11.4483H48.6561V8.58594Z" fill="#FE4F28"/>
<path d="M48.6561 5.72363H45.7937V8.586H48.6561V5.72363Z" fill="#FE4F28"/>
<path d="M48.6561 2.8623H45.7937V5.72322H48.6561V2.8623Z" fill="#FE4F28"/>
<path d="M48.6561 0H45.7937V2.86237H48.6561V0Z" fill="#933C3C"/>
<path d="M45.7936 22.8965H42.9313V25.7589H45.7936V22.8965Z" fill="#170F0C"/>
<path d="M45.7936 20.0342H42.9313V22.8966H45.7936V20.0342Z" fill="#933C3C"/>
<path d="M45.7936 17.1709H42.9313V20.0333H45.7936V17.1709Z" fill="#FE4F28"/>
<path d="M45.7936 14.3105H42.9313V17.1715H45.7936V14.3105Z" fill="#FE4F28"/>
<path d="M45.7936 11.4482H42.9313V14.3106H45.7936V11.4482Z" fill="#FE4F28"/>
<path d="M45.7936 8.58594H42.9313V11.4483H45.7936V8.58594Z" fill="#FE4F28"/>
<path d="M45.7936 5.72363H42.9313V8.586H45.7936V5.72363Z" fill="#FE4F28"/>
<path d="M45.7936 2.8623H42.9313V5.72322H45.7936V2.8623Z" fill="#FE4F28"/>
<path d="M45.7936 0H42.9313V2.86237H45.7936V0Z" fill="#933C3C"/>
<path d="M42.9311 22.8965H40.0687V25.7589H42.9311V22.8965Z" fill="#170F0C"/>
<path d="M42.9311 20.0342H40.0687V22.8966H42.9311V20.0342Z" fill="#933C3C"/>
<path d="M42.9311 17.1709H40.0687V20.0333H42.9311V17.1709Z" fill="#FE4F28"/>
<path d="M42.9311 14.3105H40.0687V17.1715H42.9311V14.3105Z" fill="#FE4F28"/>
<path d="M42.9311 11.4482H40.0687V14.3106H42.9311V11.4482Z" fill="#FE4F28"/>
<path d="M42.9311 8.58594H40.0687V11.4483H42.9311V8.58594Z" fill="#FE4F28"/>
<path d="M42.9311 5.72363H40.0687V8.586H42.9311V5.72363Z" fill="#FE4F28"/>
<path d="M42.9311 2.8623H40.0687V5.72322H42.9311V2.8623Z" fill="#FE4F28"/>
<path d="M42.9311 0H40.0687V2.86237H42.9311V0Z" fill="#933C3C"/>
<path d="M40.0688 22.8965H37.2079V25.7589H40.0688V22.8965Z" fill="#170F0C"/>
<path d="M40.0688 20.0342H37.2079V22.8966H40.0688V20.0342Z" fill="#933C3C"/>
<path d="M40.0688 17.1709H37.2079V20.0333H40.0688V17.1709Z" fill="#FE4F28"/>
<path d="M40.0688 14.3105H37.2079V17.1715H40.0688V14.3105Z" fill="#FE4F28"/>
<path d="M40.0688 11.4482H37.2079V14.3106H40.0688V11.4482Z" fill="#FE4F28"/>
<path d="M40.0688 8.58594H37.2079V11.4483H40.0688V8.58594Z" fill="#FE4F28"/>
<path d="M40.0688 5.72363H37.2079V8.586H40.0688V5.72363Z" fill="#FE4F28"/>
<path d="M40.0688 2.8623H37.2079V5.72322H40.0688V2.8623Z" fill="#FE4F28"/>
<path d="M40.0688 0H37.2079V2.86237H40.0688V0Z" fill="#933C3C"/>
<path d="M37.208 22.8965H34.3456V25.7589H37.208V22.8965Z" fill="#170F0C"/>
<path d="M37.208 20.0342H34.3456V22.8966H37.208V20.0342Z" fill="#933C3C"/>
<path d="M37.208 17.1709H34.3456V20.0333H37.208V17.1709Z" fill="#FE4F28"/>
<path d="M37.208 14.3105H34.3456V17.1715H37.208V14.3105Z" fill="#FE4F28"/>
<path d="M37.208 11.4482H34.3456V14.3106H37.208V11.4482Z" fill="#FE4F28"/>
<path d="M37.208 8.58594H34.3456V11.4483H37.208V8.58594Z" fill="#FE4F28"/>
<path d="M37.208 5.72363H34.3456V8.586H37.208V5.72363Z" fill="#FE4F28"/>
<path d="M37.208 2.8623H34.3456V5.72322H37.208V2.8623Z" fill="#FE4F28"/>
<path d="M37.208 0H34.3456V2.86237H37.208V0Z" fill="#933C3C"/>
<path d="M34.3456 22.8965H31.4833V25.7589H34.3456V22.8965Z" fill="#170F0C"/>
<path d="M34.3456 20.0342H31.4833V22.8966H34.3456V20.0342Z" fill="#933C3C"/>
<path d="M34.3456 17.1709H31.4833V20.0333H34.3456V17.1709Z" fill="#FE4F28"/>
<path d="M34.3456 14.3105H31.4833V17.1715H34.3456V14.3105Z" fill="#FE4F28"/>
<path d="M34.3456 11.4482H31.4833V14.3106H34.3456V11.4482Z" fill="#FE4F28"/>
<path d="M34.3456 8.58594H31.4833V11.4483H34.3456V8.58594Z" fill="#FE4F28"/>
<path d="M34.3456 5.72363H31.4833V8.586H34.3456V5.72363Z" fill="#FE4F28"/>
<path d="M34.3456 2.8623H31.4833V5.72322H34.3456V2.8623Z" fill="#FE4F28"/>
<path d="M34.3456 0H31.4833V2.86237H34.3456V0Z" fill="#933C3C"/>
<path d="M31.4832 22.8965H28.6208V25.7589H31.4832V22.8965Z" fill="#170F0C"/>
<path d="M31.4832 20.0342H28.6208V22.8966H31.4832V20.0342Z" fill="#933C3C"/>
<path d="M31.4832 17.1709H28.6208V20.0333H31.4832V17.1709Z" fill="#FE4F28"/>
<path d="M31.4832 14.3105H28.6208V17.1715H31.4832V14.3105Z" fill="#FE4F28"/>
<path d="M31.4832 11.4482H28.6208V14.3106H31.4832V11.4482Z" fill="#FE4F28"/>
<path d="M31.4832 8.58594H28.6208V11.4483H31.4832V8.58594Z" fill="#FE4F28"/>
<path d="M31.4832 5.72363H28.6208V8.586H31.4832V5.72363Z" fill="#FE4F28"/>
<path d="M31.4832 2.8623H28.6208V5.72322H31.4832V2.8623Z" fill="#FE4F28"/>
<path d="M31.4832 0H28.6208V2.86237H31.4832V0Z" fill="#933C3C"/>
<path d="M28.6209 22.8965H25.7585V25.7589H28.6209V22.8965Z" fill="#170F0C"/>
<path d="M28.6209 20.0342H25.7585V22.8966H28.6209V20.0342Z" fill="#933C3C"/>
<path d="M28.6209 17.1709H25.7585V20.0333H28.6209V17.1709Z" fill="#FE4F28"/>
<path d="M28.6209 14.3105H25.7585V17.1715H28.6209V14.3105Z" fill="#FE4F28"/>
<path d="M28.6209 11.4482H25.7585V14.3106H28.6209V11.4482Z" fill="#FE4F28"/>
<path d="M28.6209 8.58594H25.7585V11.4483H28.6209V8.58594Z" fill="#FE4F28"/>
<path d="M28.6209 5.72363H25.7585V8.586H28.6209V5.72363Z" fill="#FE4F28"/>
<path d="M28.6209 2.8623H25.7585V5.72322H28.6209V2.8623Z" fill="#FE4F28"/>
<path d="M28.6209 0H25.7585V2.86237H28.6209V0Z" fill="#933C3C"/>
<path d="M25.7584 22.8965H22.8975V25.7589H25.7584V22.8965Z" fill="#170F0C"/>
<path d="M25.7584 20.0342H22.8975V22.8966H25.7584V20.0342Z" fill="#933C3C"/>
<path d="M25.7584 17.1709H22.8975V20.0333H25.7584V17.1709Z" fill="#FE4F28"/>
<path d="M25.7584 14.3105H22.8975V17.1715H25.7584V14.3105Z" fill="#FE4F28"/>
<path d="M25.7584 11.4482H22.8975V14.3106H25.7584V11.4482Z" fill="#FE4F28"/>
<path d="M25.7584 8.58594H22.8975V11.4483H25.7584V8.58594Z" fill="#FE4F28"/>
<path d="M25.7584 5.72363H22.8975V8.586H25.7584V5.72363Z" fill="#FE4F28"/>
<path d="M25.7584 2.8623H22.8975V5.72322H25.7584V2.8623Z" fill="#FE4F28"/>
<path d="M25.7584 0H22.8975V2.86237H25.7584V0Z" fill="#933C3C"/>
<path d="M22.8975 22.8965H20.0352V25.7589H22.8975V22.8965Z" fill="#170F0C"/>
<path d="M22.8975 20.0342H20.0352V22.8966H22.8975V20.0342Z" fill="#933C3C"/>
<path d="M22.8975 17.1709H20.0352V20.0333H22.8975V17.1709Z" fill="#FE4F28"/>
<path d="M22.8975 14.3105H20.0352V17.1715H22.8975V14.3105Z" fill="#FE4F28"/>
<path d="M22.8975 11.4482H20.0352V14.3106H22.8975V11.4482Z" fill="#FE4F28"/>
<path d="M22.8975 8.58594H20.0352V11.4483H22.8975V8.58594Z" fill="#FE4F28"/>
<path d="M22.8975 5.72363H20.0352V8.586H22.8975V5.72363Z" fill="#FE4F28"/>
<path d="M22.8975 2.8623H20.0352V5.72322H22.8975V2.8623Z" fill="#FE4F28"/>
<path d="M22.8975 0H20.0352V2.86237H22.8975V0Z" fill="#933C3C"/>
<path d="M20.0351 22.8965H17.1727V25.7589H20.0351V22.8965Z" fill="#170F0C"/>
<path d="M20.0351 20.0342H17.1727V22.8966H20.0351V20.0342Z" fill="#933C3C"/>
<path d="M20.0351 17.1709H17.1727V20.0333H20.0351V17.1709Z" fill="#FE4F28"/>
<path d="M20.0351 14.3105H17.1727V17.1715H20.0351V14.3105Z" fill="#FE4F28"/>
<path d="M20.0351 11.4482H17.1727V14.3106H20.0351V11.4482Z" fill="#FE4F28"/>
<path d="M20.0351 8.58594H17.1727V11.4483H20.0351V8.58594Z" fill="#FE4F28"/>
<path d="M20.0351 5.72363H17.1727V8.586H20.0351V5.72363Z" fill="#FE4F28"/>
<path d="M20.0351 2.8623H17.1727V5.72322H20.0351V2.8623Z" fill="#FE4F28"/>
<path d="M20.0351 0H17.1727V2.86237H20.0351V0Z" fill="#933C3C"/>
<path d="M17.1728 22.8965H14.3104V25.7589H17.1728V22.8965Z" fill="#170F0C"/>
<path d="M17.1728 20.0342H14.3104V22.8966H17.1728V20.0342Z" fill="#933C3C"/>
<path d="M17.1728 17.1709H14.3104V20.0333H17.1728V17.1709Z" fill="#FE4F28"/>
<path d="M17.1728 14.3105H14.3104V17.1715H17.1728V14.3105Z" fill="#FE4F28"/>
<path d="M17.1728 11.4482H14.3104V14.3106H17.1728V11.4482Z" fill="#FE4F28"/>
<path d="M17.1728 8.58594H14.3104V11.4483H17.1728V8.58594Z" fill="#FE4F28"/>
<path d="M17.1728 5.72363H14.3104V8.586H17.1728V5.72363Z" fill="#FE4F28"/>
<path d="M17.1728 2.8623H14.3104V5.72322H17.1728V2.8623Z" fill="#FE4F28"/>
<path d="M17.1728 0H14.3104V2.86237H17.1728V0Z" fill="#933C3C"/>
<path d="M14.3104 22.8965H11.4495V25.7589H14.3104V22.8965Z" fill="#170F0C"/>
<path d="M14.3104 20.0342H11.4495V22.8966H14.3104V20.0342Z" fill="#933C3C"/>
<path d="M14.3104 17.1709H11.4495V20.0333H14.3104V17.1709Z" fill="#FE4F28"/>
<path d="M14.3104 14.3105H11.4495V17.1715H14.3104V14.3105Z" fill="#FE4F28"/>
<path d="M14.3104 11.4482H11.4495V14.3106H14.3104V11.4482Z" fill="#FE4F28"/>
<path d="M14.3104 8.58594H11.4495V11.4483H14.3104V8.58594Z" fill="#FE4F28"/>
<path d="M14.3104 5.72363H11.4495V8.586H14.3104V5.72363Z" fill="#FE4F28"/>
<path d="M14.3104 2.8623H11.4495V5.72322H14.3104V2.8623Z" fill="#FE4F28"/>
<path d="M14.3104 0H11.4495V2.86237H14.3104V0Z" fill="#933C3C"/>
<path d="M11.4494 22.8965H8.58704V25.7589H11.4494V22.8965Z" fill="#170F0C"/>
<path d="M11.4494 20.0342H8.58704V22.8966H11.4494V20.0342Z" fill="#933C3C"/>
<path d="M11.4494 17.1709H8.58704V20.0333H11.4494V17.1709Z" fill="#FE4F28"/>
<path d="M11.4494 14.3105H8.58704V17.1715H11.4494V14.3105Z" fill="#FE4F28"/>
<path d="M11.4494 11.4482H8.58704V14.3106H11.4494V11.4482Z" fill="#FE4F28"/>
<path d="M11.4494 8.58594H8.58704V11.4483H11.4494V8.58594Z" fill="#FE4F28"/>
<path d="M11.4494 5.72363H8.58704V8.586H11.4494V5.72363Z" fill="#FE4F28"/>
<path d="M11.4494 2.8623H8.58704V5.72322H11.4494V2.8623Z" fill="#FE4F28"/>
<path d="M11.4494 0H8.58704V2.86237H11.4494V0Z" fill="#933C3C"/>
<path d="M8.5871 22.8965H5.72473V25.7589H8.5871V22.8965Z" fill="#170F0C"/>
<path d="M8.5871 20.0342H5.72473V22.8966H8.5871V20.0342Z" fill="#170F0C"/>
<path d="M8.5871 17.1709H5.72473V20.0333H8.5871V17.1709Z" fill="#933C3C"/>
<path d="M8.5871 14.3105H5.72473V17.1715H8.5871V14.3105Z" fill="#FE4F28"/>
<path d="M8.5871 11.4482H5.72473V14.3106H8.5871V11.4482Z" fill="#FE4F28"/>
<path d="M8.5871 8.58594H5.72473V11.4483H8.5871V8.58594Z" fill="#FE4F28"/>
<path d="M8.5871 5.72363H5.72473V8.586H8.5871V5.72363Z" fill="#FE4F28"/>
<path d="M8.5871 2.8623H5.72473V5.72322H8.5871V2.8623Z" fill="#933C3C"/>
<path d="M8.5871 0H5.72473V2.86237H8.5871V0Z" fill="#170F0C"/>
<path d="M5.72468 20.0342H2.8623V22.8966H5.72468V20.0342Z" fill="#170F0C"/>
<path d="M5.72468 17.1709H2.8623V20.0333H5.72468V17.1709Z" fill="#170F0C"/>
<path d="M5.72468 14.3105H2.8623V17.1715H5.72468V14.3105Z" fill="#933C3C"/>
<path d="M5.72468 11.4482H2.8623V14.3106H5.72468V11.4482Z" fill="#933C3C"/>
<path d="M5.72468 8.58594H2.8623V11.4483H5.72468V8.58594Z" fill="#933C3C"/>
<path d="M5.72468 5.72363H2.8623V8.586H5.72468V5.72363Z" fill="#933C3C"/>
<path d="M5.72468 2.8623H2.8623V5.72322H5.72468V2.8623Z" fill="#170F0C"/>
<path d="M2.86237 17.1709H0V20.0333H2.86237V17.1709Z" fill="#170F0C"/>
<path d="M2.86237 14.3105H0V17.1715H2.86237V14.3105Z" fill="#170F0C"/>
<path d="M2.86237 11.4482H0V14.3106H2.86237V11.4482Z" fill="#170F0C"/>
<path d="M2.86237 8.58594H0V11.4483H2.86237V8.58594Z" fill="#170F0C"/>
<path d="M2.86237 5.72363H0V8.586H2.86237V5.72363Z" fill="#170F0C"/>
<mask id="path-250-outside-1_1084_2310" maskUnits="userSpaceOnUse" x="10" y="5" width="62" height="12" fill="black">
<rect fill="white" x="10" y="5" width="62" height="12"/>
<path d="M12.625 7.125H20.875V11.25H20.1875V11.9375H18.8125V11.25H19.5V7.8125H12.625V7.125ZM21.5625 14.6875H11.9375V14H21.5625V14.6875ZM23.625 7.8125H30.5V7.125H23.625V6.4375H31.875V8.5H25V9.1875H31.875V9.875H24.3125V9.1875H23.625V7.8125ZM32.5625 11.25H28.4375V12.625H27.0625V11.25H22.9375V10.5625H32.5625V11.25ZM24.3125 14.6875H23.625V11.9375H25V13.3125H30.5V11.9375H31.875V14.6875H31.1875V15.375H24.3125V14.6875ZM30.5 14H25V14.6875H30.5V14ZM47.6875 10.5625H49.75V11.25H47.6875V15.375H46.3125V6.4375H47.6875V10.5625ZM40.125 14H39.4375V7.125H40.8125V14H43.5625V13.3125H44.9375V14H44.25V14.6875H40.125V14ZM58.6875 10.5625H60.75V11.25H58.6875V15.375H57.3125V6.4375H58.6875V10.5625ZM52.5 13.3125H53.1875V7.8125H50.4375V7.125H54.5625V13.3125H53.875V14H53.1875V14.6875H51.125V14H52.5V13.3125ZM70.375 15.375H69V6.4375H70.375V15.375ZM63.5 13.3125H64.1875V7.8125H61.4375V7.125H65.5625V13.3125H64.875V14H64.1875V14.6875H62.125V14H63.5V13.3125Z"/>
</mask>
<path d="M12.625 7.125H20.875V11.25H20.1875V11.9375H18.8125V11.25H19.5V7.8125H12.625V7.125ZM21.5625 14.6875H11.9375V14H21.5625V14.6875ZM23.625 7.8125H30.5V7.125H23.625V6.4375H31.875V8.5H25V9.1875H31.875V9.875H24.3125V9.1875H23.625V7.8125ZM32.5625 11.25H28.4375V12.625H27.0625V11.25H22.9375V10.5625H32.5625V11.25ZM24.3125 14.6875H23.625V11.9375H25V13.3125H30.5V11.9375H31.875V14.6875H31.1875V15.375H24.3125V14.6875ZM30.5 14H25V14.6875H30.5V14ZM47.6875 10.5625H49.75V11.25H47.6875V15.375H46.3125V6.4375H47.6875V10.5625ZM40.125 14H39.4375V7.125H40.8125V14H43.5625V13.3125H44.9375V14H44.25V14.6875H40.125V14ZM58.6875 10.5625H60.75V11.25H58.6875V15.375H57.3125V6.4375H58.6875V10.5625ZM52.5 13.3125H53.1875V7.8125H50.4375V7.125H54.5625V13.3125H53.875V14H53.1875V14.6875H51.125V14H52.5V13.3125ZM70.375 15.375H69V6.4375H70.375V15.375ZM63.5 13.3125H64.1875V7.8125H61.4375V7.125H65.5625V13.3125H64.875V14H64.1875V14.6875H62.125V14H63.5V13.3125Z" fill="black"/>
<path d="M12.625 7.125V6.125H11.625V7.125H12.625ZM20.875 7.125H21.875V6.125H20.875V7.125ZM20.875 11.25V12.25H21.875V11.25H20.875ZM20.1875 11.25V10.25H19.1875V11.25H20.1875ZM20.1875 11.9375V12.9375H21.1875V11.9375H20.1875ZM18.8125 11.9375H17.8125V12.9375H18.8125V11.9375ZM18.8125 11.25V10.25H17.8125V11.25H18.8125ZM19.5 11.25V12.25H20.5V11.25H19.5ZM19.5 7.8125H20.5V6.8125H19.5V7.8125ZM12.625 7.8125H11.625V8.8125H12.625V7.8125ZM21.5625 14.6875V15.6875H22.5625V14.6875H21.5625ZM11.9375 14.6875H10.9375V15.6875H11.9375V14.6875ZM11.9375 14V13H10.9375V14H11.9375ZM21.5625 14H22.5625V13H21.5625V14ZM12.625 8.125H20.875V6.125H12.625V8.125ZM19.875 7.125V11.25H21.875V7.125H19.875ZM20.875 10.25H20.1875V12.25H20.875V10.25ZM19.1875 11.25V11.9375H21.1875V11.25H19.1875ZM20.1875 10.9375H18.8125V12.9375H20.1875V10.9375ZM19.8125 11.9375V11.25H17.8125V11.9375H19.8125ZM18.8125 12.25H19.5V10.25H18.8125V12.25ZM20.5 11.25V7.8125H18.5V11.25H20.5ZM19.5 6.8125H12.625V8.8125H19.5V6.8125ZM13.625 7.8125V7.125H11.625V7.8125H13.625ZM21.5625 13.6875H11.9375V15.6875H21.5625V13.6875ZM12.9375 14.6875V14H10.9375V14.6875H12.9375ZM11.9375 15H21.5625V13H11.9375V15ZM20.5625 14V14.6875H22.5625V14H20.5625ZM23.625 7.8125V6.8125H22.625V7.8125H23.625ZM30.5 7.8125V8.8125H31.5V7.8125H30.5ZM30.5 7.125H31.5V6.125H30.5V7.125ZM23.625 7.125H22.625V8.125H23.625V7.125ZM23.625 6.4375V5.4375H22.625V6.4375H23.625ZM31.875 6.4375H32.875V5.4375H31.875V6.4375ZM31.875 8.5V9.5H32.875V8.5H31.875ZM25 8.5V7.5H24V8.5H25ZM25 9.1875H24V10.1875H25V9.1875ZM31.875 9.1875H32.875V8.1875H31.875V9.1875ZM31.875 9.875V10.875H32.875V9.875H31.875ZM24.3125 9.875H23.3125V10.875H24.3125V9.875ZM24.3125 9.1875H25.3125V8.1875H24.3125V9.1875ZM23.625 9.1875H22.625V10.1875H23.625V9.1875ZM32.5625 11.25V12.25H33.5625V11.25H32.5625ZM28.4375 11.25V10.25H27.4375V11.25H28.4375ZM28.4375 12.625V13.625H29.4375V12.625H28.4375ZM27.0625 12.625H26.0625V13.625H27.0625V12.625ZM27.0625 11.25H28.0625V10.25H27.0625V11.25ZM22.9375 11.25H21.9375V12.25H22.9375V11.25ZM22.9375 10.5625V9.5625H21.9375V10.5625H22.9375ZM32.5625 10.5625H33.5625V9.5625H32.5625V10.5625ZM24.3125 14.6875H25.3125V13.6875H24.3125V14.6875ZM23.625 14.6875H22.625V15.6875H23.625V14.6875ZM23.625 11.9375V10.9375H22.625V11.9375H23.625ZM25 11.9375H26V10.9375H25V11.9375ZM25 13.3125H24V14.3125H25V13.3125ZM30.5 13.3125V14.3125H31.5V13.3125H30.5ZM30.5 11.9375V10.9375H29.5V11.9375H30.5ZM31.875 11.9375H32.875V10.9375H31.875V11.9375ZM31.875 14.6875V15.6875H32.875V14.6875H31.875ZM31.1875 14.6875V13.6875H30.1875V14.6875H31.1875ZM31.1875 15.375V16.375H32.1875V15.375H31.1875ZM24.3125 15.375H23.3125V16.375H24.3125V15.375ZM30.5 14H31.5V13H30.5V14ZM25 14V13H24V14H25ZM25 14.6875H24V15.6875H25V14.6875ZM30.5 14.6875V15.6875H31.5V14.6875H30.5ZM23.625 8.8125H30.5V6.8125H23.625V8.8125ZM31.5 7.8125V7.125H29.5V7.8125H31.5ZM30.5 6.125H23.625V8.125H30.5V6.125ZM24.625 7.125V6.4375H22.625V7.125H24.625ZM23.625 7.4375H31.875V5.4375H23.625V7.4375ZM30.875 6.4375V8.5H32.875V6.4375H30.875ZM31.875 7.5H25V9.5H31.875V7.5ZM24 8.5V9.1875H26V8.5H24ZM25 10.1875H31.875V8.1875H25V10.1875ZM30.875 9.1875V9.875H32.875V9.1875H30.875ZM31.875 8.875H24.3125V10.875H31.875V8.875ZM25.3125 9.875V9.1875H23.3125V9.875H25.3125ZM24.3125 8.1875H23.625V10.1875H24.3125V8.1875ZM24.625 9.1875V7.8125H22.625V9.1875H24.625ZM32.5625 10.25H28.4375V12.25H32.5625V10.25ZM27.4375 11.25V12.625H29.4375V11.25H27.4375ZM28.4375 11.625H27.0625V13.625H28.4375V11.625ZM28.0625 12.625V11.25H26.0625V12.625H28.0625ZM27.0625 10.25H22.9375V12.25H27.0625V10.25ZM23.9375 11.25V10.5625H21.9375V11.25H23.9375ZM22.9375 11.5625H32.5625V9.5625H22.9375V11.5625ZM31.5625 10.5625V11.25H33.5625V10.5625H31.5625ZM24.3125 13.6875H23.625V15.6875H24.3125V13.6875ZM24.625 14.6875V11.9375H22.625V14.6875H24.625ZM23.625 12.9375H25V10.9375H23.625V12.9375ZM24 11.9375V13.3125H26V11.9375H24ZM25 14.3125H30.5V12.3125H25V14.3125ZM31.5 13.3125V11.9375H29.5V13.3125H31.5ZM30.5 12.9375H31.875V10.9375H30.5V12.9375ZM30.875 11.9375V14.6875H32.875V11.9375H30.875ZM31.875 13.6875H31.1875V15.6875H31.875V13.6875ZM30.1875 14.6875V15.375H32.1875V14.6875H30.1875ZM31.1875 14.375H24.3125V16.375H31.1875V14.375ZM25.3125 15.375V14.6875H23.3125V15.375H25.3125ZM30.5 13H25V15H30.5V13ZM24 14V14.6875H26V14H24ZM25 15.6875H30.5V13.6875H25V15.6875ZM31.5 14.6875V14H29.5V14.6875H31.5ZM47.6875 10.5625H46.6875V11.5625H47.6875V10.5625ZM49.75 10.5625H50.75V9.5625H49.75V10.5625ZM49.75 11.25V12.25H50.75V11.25H49.75ZM47.6875 11.25V10.25H46.6875V11.25H47.6875ZM47.6875 15.375V16.375H48.6875V15.375H47.6875ZM46.3125 15.375H45.3125V16.375H46.3125V15.375ZM46.3125 6.4375V5.4375H45.3125V6.4375H46.3125ZM47.6875 6.4375H48.6875V5.4375H47.6875V6.4375ZM40.125 14H41.125V13H40.125V14ZM39.4375 14H38.4375V15H39.4375V14ZM39.4375 7.125V6.125H38.4375V7.125H39.4375ZM40.8125 7.125H41.8125V6.125H40.8125V7.125ZM40.8125 14H39.8125V15H40.8125V14ZM43.5625 14V15H44.5625V14H43.5625ZM43.5625 13.3125V12.3125H42.5625V13.3125H43.5625ZM44.9375 13.3125H45.9375V12.3125H44.9375V13.3125ZM44.9375 14V15H45.9375V14H44.9375ZM44.25 14V13H43.25V14H44.25ZM44.25 14.6875V15.6875H45.25V14.6875H44.25ZM40.125 14.6875H39.125V15.6875H40.125V14.6875ZM47.6875 11.5625H49.75V9.5625H47.6875V11.5625ZM48.75 10.5625V11.25H50.75V10.5625H48.75ZM49.75 10.25H47.6875V12.25H49.75V10.25ZM46.6875 11.25V15.375H48.6875V11.25H46.6875ZM47.6875 14.375H46.3125V16.375H47.6875V14.375ZM47.3125 15.375V6.4375H45.3125V15.375H47.3125ZM46.3125 7.4375H47.6875V5.4375H46.3125V7.4375ZM46.6875 6.4375V10.5625H48.6875V6.4375H46.6875ZM40.125 13H39.4375V15H40.125V13ZM40.4375 14V7.125H38.4375V14H40.4375ZM39.4375 8.125H40.8125V6.125H39.4375V8.125ZM39.8125 7.125V14H41.8125V7.125H39.8125ZM40.8125 15H43.5625V13H40.8125V15ZM44.5625 14V13.3125H42.5625V14H44.5625ZM43.5625 14.3125H44.9375V12.3125H43.5625V14.3125ZM43.9375 13.3125V14H45.9375V13.3125H43.9375ZM44.9375 13H44.25V15H44.9375V13ZM43.25 14V14.6875H45.25V14H43.25ZM44.25 13.6875H40.125V15.6875H44.25V13.6875ZM41.125 14.6875V14H39.125V14.6875H41.125ZM58.6875 10.5625H57.6875V11.5625H58.6875V10.5625ZM60.75 10.5625H61.75V9.5625H60.75V10.5625ZM60.75 11.25V12.25H61.75V11.25H60.75ZM58.6875 11.25V10.25H57.6875V11.25H58.6875ZM58.6875 15.375V16.375H59.6875V15.375H58.6875ZM57.3125 15.375H56.3125V16.375H57.3125V15.375ZM57.3125 6.4375V5.4375H56.3125V6.4375H57.3125ZM58.6875 6.4375H59.6875V5.4375H58.6875V6.4375ZM52.5 13.3125V12.3125H51.5V13.3125H52.5ZM53.1875 13.3125V14.3125H54.1875V13.3125H53.1875ZM53.1875 7.8125H54.1875V6.8125H53.1875V7.8125ZM50.4375 7.8125H49.4375V8.8125H50.4375V7.8125ZM50.4375 7.125V6.125H49.4375V7.125H50.4375ZM54.5625 7.125H55.5625V6.125H54.5625V7.125ZM54.5625 13.3125V14.3125H55.5625V13.3125H54.5625ZM53.875 13.3125V12.3125H52.875V13.3125H53.875ZM53.875 14V15H54.875V14H53.875ZM53.1875 14V13H52.1875V14H53.1875ZM53.1875 14.6875V15.6875H54.1875V14.6875H53.1875ZM51.125 14.6875H50.125V15.6875H51.125V14.6875ZM51.125 14V13H50.125V14H51.125ZM52.5 14V15H53.5V14H52.5ZM58.6875 11.5625H60.75V9.5625H58.6875V11.5625ZM59.75 10.5625V11.25H61.75V10.5625H59.75ZM60.75 10.25H58.6875V12.25H60.75V10.25ZM57.6875 11.25V15.375H59.6875V11.25H57.6875ZM58.6875 14.375H57.3125V16.375H58.6875V14.375ZM58.3125 15.375V6.4375H56.3125V15.375H58.3125ZM57.3125 7.4375H58.6875V5.4375H57.3125V7.4375ZM57.6875 6.4375V10.5625H59.6875V6.4375H57.6875ZM52.5 14.3125H53.1875V12.3125H52.5V14.3125ZM54.1875 13.3125V7.8125H52.1875V13.3125H54.1875ZM53.1875 6.8125H50.4375V8.8125H53.1875V6.8125ZM51.4375 7.8125V7.125H49.4375V7.8125H51.4375ZM50.4375 8.125H54.5625V6.125H50.4375V8.125ZM53.5625 7.125V13.3125H55.5625V7.125H53.5625ZM54.5625 12.3125H53.875V14.3125H54.5625V12.3125ZM52.875 13.3125V14H54.875V13.3125H52.875ZM53.875 13H53.1875V15H53.875V13ZM52.1875 14V14.6875H54.1875V14H52.1875ZM53.1875 13.6875H51.125V15.6875H53.1875V13.6875ZM52.125 14.6875V14H50.125V14.6875H52.125ZM51.125 15H52.5V13H51.125V15ZM53.5 14V13.3125H51.5V14H53.5ZM70.375 15.375V16.375H71.375V15.375H70.375ZM69 15.375H68V16.375H69V15.375ZM69 6.4375V5.4375H68V6.4375H69ZM70.375 6.4375H71.375V5.4375H70.375V6.4375ZM63.5 13.3125V12.3125H62.5V13.3125H63.5ZM64.1875 13.3125V14.3125H65.1875V13.3125H64.1875ZM64.1875 7.8125H65.1875V6.8125H64.1875V7.8125ZM61.4375 7.8125H60.4375V8.8125H61.4375V7.8125ZM61.4375 7.125V6.125H60.4375V7.125H61.4375ZM65.5625 7.125H66.5625V6.125H65.5625V7.125ZM65.5625 13.3125V14.3125H66.5625V13.3125H65.5625ZM64.875 13.3125V12.3125H63.875V13.3125H64.875ZM64.875 14V15H65.875V14H64.875ZM64.1875 14V13H63.1875V14H64.1875ZM64.1875 14.6875V15.6875H65.1875V14.6875H64.1875ZM62.125 14.6875H61.125V15.6875H62.125V14.6875ZM62.125 14V13H61.125V14H62.125ZM63.5 14V15H64.5V14H63.5ZM70.375 14.375H69V16.375H70.375V14.375ZM70 15.375V6.4375H68V15.375H70ZM69 7.4375H70.375V5.4375H69V7.4375ZM69.375 6.4375V15.375H71.375V6.4375H69.375ZM63.5 14.3125H64.1875V12.3125H63.5V14.3125ZM65.1875 13.3125V7.8125H63.1875V13.3125H65.1875ZM64.1875 6.8125H61.4375V8.8125H64.1875V6.8125ZM62.4375 7.8125V7.125H60.4375V7.8125H62.4375ZM61.4375 8.125H65.5625V6.125H61.4375V8.125ZM64.5625 7.125V13.3125H66.5625V7.125H64.5625ZM65.5625 12.3125H64.875V14.3125H65.5625V12.3125ZM63.875 13.3125V14H65.875V13.3125H63.875ZM64.875 13H64.1875V15H64.875V13ZM63.1875 14V14.6875H65.1875V14H63.1875ZM64.1875 13.6875H62.125V15.6875H64.1875V13.6875ZM63.125 14.6875V14H61.125V14.6875H63.125ZM62.125 15H63.5V13H62.125V15ZM64.5 14V13.3125H62.5V14H64.5Z" fill="white" mask="url(#path-250-outside-1_1084_2310)"/>
</svg>
