<svg width="88" height="28" viewBox="0 0 88 28" fill="none" xmlns="http://www.w3.org/2000/svg">
<path d="M88.0001 18.2053H84.9653V21.2401H88.0001V18.2053Z" fill="#170F0C"/>
<path d="M88.0001 15.1726H84.9653V18.2059H88.0001V15.1726Z" fill="#24943D"/>
<path d="M88.0001 12.1382H84.9653V15.173H88.0001V12.1382Z" fill="#24943D"/>
<path d="M88.0001 9.10278H84.9653V12.1376H88.0001V9.10278Z" fill="#24943D"/>
<path d="M88.0001 6.06812H84.9653V9.10292H88.0001V6.06812Z" fill="#24943D"/>
<path d="M84.9651 21.2407H81.9319V24.2755H84.9651V21.2407Z" fill="#170F0C"/>
<path d="M84.9651 18.2053H81.9319V21.2401H84.9651V18.2053Z" fill="#24943D"/>
<path d="M84.9651 15.1726H81.9319V18.2059H84.9651V15.1726Z" fill="#95F2A9"/>
<path d="M84.9651 12.1382H81.9319V15.173H84.9651V12.1382Z" fill="#95F2A9"/>
<path d="M84.9651 9.10278H81.9319V12.1376H84.9651V9.10278Z" fill="#95F2A9"/>
<path d="M84.9651 6.06812H81.9319V9.10292H84.9651V6.06812Z" fill="#95F2A9"/>
<path d="M84.9651 3.03442H81.9319V6.06768H84.9651V3.03442Z" fill="#24943D"/>
<path d="M81.9319 24.2756H78.8971V27.3104H81.9319V24.2756Z" fill="#170F0C"/>
<path d="M81.9319 21.2407H78.8971V24.2755H81.9319V21.2407Z" fill="#24943D"/>
<path d="M81.9319 18.2053H78.8971V21.2401H81.9319V18.2053Z" fill="#95F2A9"/>
<path d="M81.9319 15.1726H78.8971V18.2059H81.9319V15.1726Z" fill="#95F2A9"/>
<path d="M81.9319 12.1382H78.8971V15.173H81.9319V12.1382Z" fill="#95F2A9"/>
<path d="M81.9319 9.10278H78.8971V12.1376H81.9319V9.10278Z" fill="#95F2A9"/>
<path d="M81.9319 6.06812H78.8971V9.10292H81.9319V6.06812Z" fill="#95F2A9"/>
<path d="M81.9319 3.03442H78.8971V6.06768H81.9319V3.03442Z" fill="#95F2A9"/>
<path d="M81.9319 0H78.8971V3.0348H81.9319V0Z" fill="#24943D"/>
<path d="M78.897 24.2756H75.8622V27.3104H78.897V24.2756Z" fill="#170F0C"/>
<path d="M78.897 21.2407H75.8622V24.2755H78.897V21.2407Z" fill="#24943D"/>
<path d="M78.897 18.2053H75.8622V21.2401H78.897V18.2053Z" fill="#95F2A9"/>
<path d="M78.897 15.1726H75.8622V18.2059H78.897V15.1726Z" fill="#95F2A9"/>
<path d="M78.897 12.1382H75.8622V15.173H78.897V12.1382Z" fill="#95F2A9"/>
<path d="M78.897 9.10278H75.8622V12.1376H78.897V9.10278Z" fill="#95F2A9"/>
<path d="M78.897 6.06812H75.8622V9.10292H78.897V6.06812Z" fill="#95F2A9"/>
<path d="M78.897 3.03442H75.8622V6.06768H78.897V3.03442Z" fill="#95F2A9"/>
<path d="M78.897 0H75.8622V3.0348H78.897V0Z" fill="#24943D"/>
<path d="M75.8623 24.2756H72.8275V27.3104H75.8623V24.2756Z" fill="#170F0C"/>
<path d="M75.8623 21.2407H72.8275V24.2755H75.8623V21.2407Z" fill="#24943D"/>
<path d="M75.8623 18.2053H72.8275V21.2401H75.8623V18.2053Z" fill="#95F2A9"/>
<path d="M75.8623 15.1726H72.8275V18.2059H75.8623V15.1726Z" fill="#95F2A9"/>
<path d="M75.8623 12.1382H72.8275V15.173H75.8623V12.1382Z" fill="#95F2A9"/>
<path d="M75.8623 9.10278H72.8275V12.1376H75.8623V9.10278Z" fill="#95F2A9"/>
<path d="M75.8623 6.06812H72.8275V9.10292H75.8623V6.06812Z" fill="#95F2A9"/>
<path d="M75.8623 3.03442H72.8275V6.06768H75.8623V3.03442Z" fill="#95F2A9"/>
<path d="M75.8623 0H72.8275V3.0348H75.8623V0Z" fill="#24943D"/>
<path d="M72.8275 24.2756H69.7927V27.3104H72.8275V24.2756Z" fill="#170F0C"/>
<path d="M72.8275 21.2407H69.7927V24.2755H72.8275V21.2407Z" fill="#24943D"/>
<path d="M72.8275 18.2053H69.7927V21.2401H72.8275V18.2053Z" fill="#95F2A9"/>
<path d="M72.8275 15.1726H69.7927V18.2059H72.8275V15.1726Z" fill="#95F2A9"/>
<path d="M72.8275 12.1382H69.7927V15.173H72.8275V12.1382Z" fill="#95F2A9"/>
<path d="M72.8275 9.10278H69.7927V12.1376H72.8275V9.10278Z" fill="#95F2A9"/>
<path d="M72.8275 6.06812H69.7927V9.10292H72.8275V6.06812Z" fill="#95F2A9"/>
<path d="M72.8275 3.03442H69.7927V6.06768H72.8275V3.03442Z" fill="#95F2A9"/>
<path d="M72.8275 0H69.7927V3.0348H72.8275V0Z" fill="#24943D"/>
<path d="M69.7929 24.2756H66.7596V27.3104H69.7929V24.2756Z" fill="#170F0C"/>
<path d="M69.7929 21.2407H66.7596V24.2755H69.7929V21.2407Z" fill="#24943D"/>
<path d="M69.7929 18.2053H66.7596V21.2401H69.7929V18.2053Z" fill="#95F2A9"/>
<path d="M69.7929 15.1726H66.7596V18.2059H69.7929V15.1726Z" fill="#95F2A9"/>
<path d="M69.7929 12.1382H66.7596V15.173H69.7929V12.1382Z" fill="#95F2A9"/>
<path d="M69.7929 9.10278H66.7596V12.1376H69.7929V9.10278Z" fill="#95F2A9"/>
<path d="M69.7929 6.06812H66.7596V9.10292H69.7929V6.06812Z" fill="#95F2A9"/>
<path d="M69.7929 3.03442H66.7596V6.06768H69.7929V3.03442Z" fill="#95F2A9"/>
<path d="M69.7929 0H66.7596V3.0348H69.7929V0Z" fill="#24943D"/>
<path d="M66.7594 24.2756H63.7246V27.3104H66.7594V24.2756Z" fill="#170F0C"/>
<path d="M66.7594 21.2407H63.7246V24.2755H66.7594V21.2407Z" fill="#24943D"/>
<path d="M66.7594 18.2053H63.7246V21.2401H66.7594V18.2053Z" fill="#95F2A9"/>
<path d="M66.7594 15.1726H63.7246V18.2059H66.7594V15.1726Z" fill="#95F2A9"/>
<path d="M66.7594 12.1382H63.7246V15.173H66.7594V12.1382Z" fill="#95F2A9"/>
<path d="M66.7594 9.10278H63.7246V12.1376H66.7594V9.10278Z" fill="#95F2A9"/>
<path d="M66.7594 6.06812H63.7246V9.10292H66.7594V6.06812Z" fill="#95F2A9"/>
<path d="M66.7594 3.03442H63.7246V6.06768H66.7594V3.03442Z" fill="#95F2A9"/>
<path d="M66.7594 0H63.7246V3.0348H66.7594V0Z" fill="#24943D"/>
<path d="M63.7245 24.2756H60.6897V27.3104H63.7245V24.2756Z" fill="#170F0C"/>
<path d="M63.7245 21.2407H60.6897V24.2755H63.7245V21.2407Z" fill="#24943D"/>
<path d="M63.7245 18.2053H60.6897V21.2401H63.7245V18.2053Z" fill="#95F2A9"/>
<path d="M63.7245 15.1726H60.6897V18.2059H63.7245V15.1726Z" fill="#95F2A9"/>
<path d="M63.7245 12.1382H60.6897V15.173H63.7245V12.1382Z" fill="#95F2A9"/>
<path d="M63.7245 9.10278H60.6897V12.1376H63.7245V9.10278Z" fill="#95F2A9"/>
<path d="M63.7245 6.06812H60.6897V9.10292H63.7245V6.06812Z" fill="#95F2A9"/>
<path d="M63.7245 3.03442H60.6897V6.06768H63.7245V3.03442Z" fill="#95F2A9"/>
<path d="M63.7245 0H60.6897V3.0348H63.7245V0Z" fill="#24943D"/>
<path d="M60.6898 24.2756H57.655V27.3104H60.6898V24.2756Z" fill="#170F0C"/>
<path d="M60.6898 21.2407H57.655V24.2755H60.6898V21.2407Z" fill="#24943D"/>
<path d="M60.6898 18.2053H57.655V21.2401H60.6898V18.2053Z" fill="#95F2A9"/>
<path d="M60.6898 15.1726H57.655V18.2059H60.6898V15.1726Z" fill="#95F2A9"/>
<path d="M60.6898 12.1382H57.655V15.173H60.6898V12.1382Z" fill="#95F2A9"/>
<path d="M60.6898 9.10278H57.655V12.1376H60.6898V9.10278Z" fill="#95F2A9"/>
<path d="M60.6898 6.06812H57.655V9.10292H60.6898V6.06812Z" fill="#95F2A9"/>
<path d="M60.6898 3.03442H57.655V6.06768H60.6898V3.03442Z" fill="#95F2A9"/>
<path d="M60.6898 0H57.655V3.0348H60.6898V0Z" fill="#24943D"/>
<path d="M57.6551 24.2756H54.6218V27.3104H57.6551V24.2756Z" fill="#170F0C"/>
<path d="M57.6551 21.2407H54.6218V24.2755H57.6551V21.2407Z" fill="#24943D"/>
<path d="M57.6551 18.2053H54.6218V21.2401H57.6551V18.2053Z" fill="#95F2A9"/>
<path d="M57.6551 15.1726H54.6218V18.2059H57.6551V15.1726Z" fill="#95F2A9"/>
<path d="M57.6551 12.1382H54.6218V15.173H57.6551V12.1382Z" fill="#95F2A9"/>
<path d="M57.6551 9.10278H54.6218V12.1376H57.6551V9.10278Z" fill="#95F2A9"/>
<path d="M57.6551 6.06812H54.6218V9.10292H57.6551V6.06812Z" fill="#95F2A9"/>
<path d="M57.6551 3.03442H54.6218V6.06768H57.6551V3.03442Z" fill="#95F2A9"/>
<path d="M57.6551 0H54.6218V3.0348H57.6551V0Z" fill="#24943D"/>
<path d="M54.6218 24.2756H51.587V27.3104H54.6218V24.2756Z" fill="#170F0C"/>
<path d="M54.6218 21.2407H51.587V24.2755H54.6218V21.2407Z" fill="#24943D"/>
<path d="M54.6218 18.2053H51.587V21.2401H54.6218V18.2053Z" fill="#95F2A9"/>
<path d="M54.6218 15.1726H51.587V18.2059H54.6218V15.1726Z" fill="#95F2A9"/>
<path d="M54.6218 12.1382H51.587V15.173H54.6218V12.1382Z" fill="#95F2A9"/>
<path d="M54.6218 9.10278H51.587V12.1376H54.6218V9.10278Z" fill="#95F2A9"/>
<path d="M54.6218 6.06812H51.587V9.10292H54.6218V6.06812Z" fill="#95F2A9"/>
<path d="M54.6218 3.03442H51.587V6.06768H54.6218V3.03442Z" fill="#95F2A9"/>
<path d="M54.6218 0H51.587V3.0348H54.6218V0Z" fill="#24943D"/>
<path d="M51.5872 24.2756H48.5524V27.3104H51.5872V24.2756Z" fill="#170F0C"/>
<path d="M51.5872 21.2407H48.5524V24.2755H51.5872V21.2407Z" fill="#24943D"/>
<path d="M51.5872 18.2053H48.5524V21.2401H51.5872V18.2053Z" fill="#95F2A9"/>
<path d="M51.5872 15.1726H48.5524V18.2059H51.5872V15.1726Z" fill="#95F2A9"/>
<path d="M51.5872 12.1382H48.5524V15.173H51.5872V12.1382Z" fill="#95F2A9"/>
<path d="M51.5872 9.10278H48.5524V12.1376H51.5872V9.10278Z" fill="#95F2A9"/>
<path d="M51.5872 6.06812H48.5524V9.10292H51.5872V6.06812Z" fill="#95F2A9"/>
<path d="M51.5872 3.03442H48.5524V6.06768H51.5872V3.03442Z" fill="#95F2A9"/>
<path d="M51.5872 0H48.5524V3.0348H51.5872V0Z" fill="#24943D"/>
<path d="M48.5523 24.2756H45.5175V27.3104H48.5523V24.2756Z" fill="#170F0C"/>
<path d="M48.5523 21.2407H45.5175V24.2755H48.5523V21.2407Z" fill="#24943D"/>
<path d="M48.5523 18.2053H45.5175V21.2401H48.5523V18.2053Z" fill="#95F2A9"/>
<path d="M48.5523 15.1726H45.5175V18.2059H48.5523V15.1726Z" fill="#95F2A9"/>
<path d="M48.5523 12.1382H45.5175V15.173H48.5523V12.1382Z" fill="#95F2A9"/>
<path d="M48.5523 9.10278H45.5175V12.1376H48.5523V9.10278Z" fill="#95F2A9"/>
<path d="M48.5523 6.06812H45.5175V9.10292H48.5523V6.06812Z" fill="#95F2A9"/>
<path d="M48.5523 3.03442H45.5175V6.06768H48.5523V3.03442Z" fill="#95F2A9"/>
<path d="M48.5523 0H45.5175V3.0348H48.5523V0Z" fill="#24943D"/>
<path d="M45.5173 24.2756H42.4825V27.3104H45.5173V24.2756Z" fill="#170F0C"/>
<path d="M45.5173 21.2407H42.4825V24.2755H45.5173V21.2407Z" fill="#24943D"/>
<path d="M45.5173 18.2053H42.4825V21.2401H45.5173V18.2053Z" fill="#95F2A9"/>
<path d="M45.5173 15.1726H42.4825V18.2059H45.5173V15.1726Z" fill="#95F2A9"/>
<path d="M45.5173 12.1382H42.4825V15.173H45.5173V12.1382Z" fill="#95F2A9"/>
<path d="M45.5173 9.10278H42.4825V12.1376H45.5173V9.10278Z" fill="#95F2A9"/>
<path d="M45.5173 6.06812H42.4825V9.10292H45.5173V6.06812Z" fill="#95F2A9"/>
<path d="M45.5173 3.03442H42.4825V6.06768H45.5173V3.03442Z" fill="#95F2A9"/>
<path d="M45.5173 0H42.4825V3.0348H45.5173V0Z" fill="#24943D"/>
<path d="M42.4826 24.2756H39.4493V27.3104H42.4826V24.2756Z" fill="#170F0C"/>
<path d="M42.4826 21.2407H39.4493V24.2755H42.4826V21.2407Z" fill="#24943D"/>
<path d="M42.4826 18.2053H39.4493V21.2401H42.4826V18.2053Z" fill="#95F2A9"/>
<path d="M42.4826 15.1726H39.4493V18.2059H42.4826V15.1726Z" fill="#95F2A9"/>
<path d="M42.4826 12.1382H39.4493V15.173H42.4826V12.1382Z" fill="#95F2A9"/>
<path d="M42.4826 9.10278H39.4493V12.1376H42.4826V9.10278Z" fill="#95F2A9"/>
<path d="M42.4826 6.06812H39.4493V9.10292H42.4826V6.06812Z" fill="#95F2A9"/>
<path d="M42.4826 3.03442H39.4493V6.06768H42.4826V3.03442Z" fill="#95F2A9"/>
<path d="M42.4826 0H39.4493V3.0348H42.4826V0Z" fill="#24943D"/>
<path d="M39.4494 24.2756H36.4146V27.3104H39.4494V24.2756Z" fill="#170F0C"/>
<path d="M39.4494 21.2407H36.4146V24.2755H39.4494V21.2407Z" fill="#24943D"/>
<path d="M39.4494 18.2053H36.4146V21.2401H39.4494V18.2053Z" fill="#95F2A9"/>
<path d="M39.4494 15.1726H36.4146V18.2059H39.4494V15.1726Z" fill="#95F2A9"/>
<path d="M39.4494 12.1382H36.4146V15.173H39.4494V12.1382Z" fill="#95F2A9"/>
<path d="M39.4494 9.10278H36.4146V12.1376H39.4494V9.10278Z" fill="#95F2A9"/>
<path d="M39.4494 6.06812H36.4146V9.10292H39.4494V6.06812Z" fill="#95F2A9"/>
<path d="M39.4494 3.03442H36.4146V6.06768H39.4494V3.03442Z" fill="#95F2A9"/>
<path d="M39.4494 0H36.4146V3.0348H39.4494V0Z" fill="#24943D"/>
<path d="M36.4147 24.2756H33.3799V27.3104H36.4147V24.2756Z" fill="#170F0C"/>
<path d="M36.4147 21.2407H33.3799V24.2755H36.4147V21.2407Z" fill="#24943D"/>
<path d="M36.4147 18.2053H33.3799V21.2401H36.4147V18.2053Z" fill="#95F2A9"/>
<path d="M36.4147 15.1726H33.3799V18.2059H36.4147V15.1726Z" fill="#95F2A9"/>
<path d="M36.4147 12.1382H33.3799V15.173H36.4147V12.1382Z" fill="#95F2A9"/>
<path d="M36.4147 9.10278H33.3799V12.1376H36.4147V9.10278Z" fill="#95F2A9"/>
<path d="M36.4147 6.06812H33.3799V9.10292H36.4147V6.06812Z" fill="#95F2A9"/>
<path d="M36.4147 3.03442H33.3799V6.06768H36.4147V3.03442Z" fill="#95F2A9"/>
<path d="M36.4147 0H33.3799V3.0348H36.4147V0Z" fill="#24943D"/>
<path d="M33.3798 24.2756H30.345V27.3104H33.3798V24.2756Z" fill="#170F0C"/>
<path d="M33.3798 21.2407H30.345V24.2755H33.3798V21.2407Z" fill="#24943D"/>
<path d="M33.3798 18.2053H30.345V21.2401H33.3798V18.2053Z" fill="#95F2A9"/>
<path d="M33.3798 15.1726H30.345V18.2059H33.3798V15.1726Z" fill="#95F2A9"/>
<path d="M33.3798 12.1382H30.345V15.173H33.3798V12.1382Z" fill="#95F2A9"/>
<path d="M33.3798 9.10278H30.345V12.1376H33.3798V9.10278Z" fill="#95F2A9"/>
<path d="M33.3798 6.06812H30.345V9.10292H33.3798V6.06812Z" fill="#95F2A9"/>
<path d="M33.3798 3.03442H30.345V6.06768H33.3798V3.03442Z" fill="#95F2A9"/>
<path d="M33.3798 0H30.345V3.0348H33.3798V0Z" fill="#24943D"/>
<path d="M30.3451 24.2756H27.3103V27.3104H30.3451V24.2756Z" fill="#170F0C"/>
<path d="M30.3451 21.2407H27.3103V24.2755H30.3451V21.2407Z" fill="#24943D"/>
<path d="M30.3451 18.2053H27.3103V21.2401H30.3451V18.2053Z" fill="#95F2A9"/>
<path d="M30.3451 15.1726H27.3103V18.2059H30.3451V15.1726Z" fill="#95F2A9"/>
<path d="M30.3451 12.1382H27.3103V15.173H30.3451V12.1382Z" fill="#95F2A9"/>
<path d="M30.3451 9.10278H27.3103V12.1376H30.3451V9.10278Z" fill="#95F2A9"/>
<path d="M30.3451 6.06812H27.3103V9.10292H30.3451V6.06812Z" fill="#95F2A9"/>
<path d="M30.3451 3.03442H27.3103V6.06768H30.3451V3.03442Z" fill="#95F2A9"/>
<path d="M30.3451 0H27.3103V3.0348H30.3451V0Z" fill="#24943D"/>
<path d="M27.3101 24.2756H24.2769V27.3104H27.3101V24.2756Z" fill="#170F0C"/>
<path d="M27.3101 21.2407H24.2769V24.2755H27.3101V21.2407Z" fill="#24943D"/>
<path d="M27.3101 18.2053H24.2769V21.2401H27.3101V18.2053Z" fill="#95F2A9"/>
<path d="M27.3101 15.1726H24.2769V18.2059H27.3101V15.1726Z" fill="#95F2A9"/>
<path d="M27.3101 12.1382H24.2769V15.173H27.3101V12.1382Z" fill="#95F2A9"/>
<path d="M27.3101 9.10278H24.2769V12.1376H27.3101V9.10278Z" fill="#95F2A9"/>
<path d="M27.3101 6.06812H24.2769V9.10292H27.3101V6.06812Z" fill="#95F2A9"/>
<path d="M27.3101 3.03442H24.2769V6.06768H27.3101V3.03442Z" fill="#95F2A9"/>
<path d="M27.3101 0H24.2769V3.0348H27.3101V0Z" fill="#24943D"/>
<path d="M24.2769 24.2756H21.2421V27.3104H24.2769V24.2756Z" fill="#170F0C"/>
<path d="M24.2769 21.2407H21.2421V24.2755H24.2769V21.2407Z" fill="#24943D"/>
<path d="M24.2769 18.2053H21.2421V21.2401H24.2769V18.2053Z" fill="#95F2A9"/>
<path d="M24.2769 15.1726H21.2421V18.2059H24.2769V15.1726Z" fill="#95F2A9"/>
<path d="M24.2769 12.1382H21.2421V15.173H24.2769V12.1382Z" fill="#95F2A9"/>
<path d="M24.2769 9.10278H21.2421V12.1376H24.2769V9.10278Z" fill="#95F2A9"/>
<path d="M24.2769 6.06812H21.2421V9.10292H24.2769V6.06812Z" fill="#95F2A9"/>
<path d="M24.2769 3.03442H21.2421V6.06768H24.2769V3.03442Z" fill="#95F2A9"/>
<path d="M24.2769 0H21.2421V3.0348H24.2769V0Z" fill="#24943D"/>
<path d="M21.2421 24.2756H18.2073V27.3104H21.2421V24.2756Z" fill="#170F0C"/>
<path d="M21.2421 21.2407H18.2073V24.2755H21.2421V21.2407Z" fill="#24943D"/>
<path d="M21.2421 18.2053H18.2073V21.2401H21.2421V18.2053Z" fill="#95F2A9"/>
<path d="M21.2421 15.1726H18.2073V18.2059H21.2421V15.1726Z" fill="#95F2A9"/>
<path d="M21.2421 12.1382H18.2073V15.173H21.2421V12.1382Z" fill="#95F2A9"/>
<path d="M21.2421 9.10278H18.2073V12.1376H21.2421V9.10278Z" fill="#95F2A9"/>
<path d="M21.2421 6.06812H18.2073V9.10292H21.2421V6.06812Z" fill="#95F2A9"/>
<path d="M21.2421 3.03442H18.2073V6.06768H21.2421V3.03442Z" fill="#95F2A9"/>
<path d="M21.2421 0H18.2073V3.0348H21.2421V0Z" fill="#24943D"/>
<path d="M18.2073 24.2756H15.1725V27.3104H18.2073V24.2756Z" fill="#170F0C"/>
<path d="M18.2073 21.2407H15.1725V24.2755H18.2073V21.2407Z" fill="#24943D"/>
<path d="M18.2073 18.2053H15.1725V21.2401H18.2073V18.2053Z" fill="#95F2A9"/>
<path d="M18.2073 15.1726H15.1725V18.2059H18.2073V15.1726Z" fill="#95F2A9"/>
<path d="M18.2073 12.1382H15.1725V15.173H18.2073V12.1382Z" fill="#95F2A9"/>
<path d="M18.2073 9.10278H15.1725V12.1376H18.2073V9.10278Z" fill="#95F2A9"/>
<path d="M18.2073 6.06812H15.1725V9.10292H18.2073V6.06812Z" fill="#95F2A9"/>
<path d="M18.2073 3.03442H15.1725V6.06768H18.2073V3.03442Z" fill="#95F2A9"/>
<path d="M18.2073 0H15.1725V3.0348H18.2073V0Z" fill="#24943D"/>
<path d="M15.1724 24.2756H12.1392V27.3104H15.1724V24.2756Z" fill="#170F0C"/>
<path d="M15.1724 21.2407H12.1392V24.2755H15.1724V21.2407Z" fill="#24943D"/>
<path d="M15.1724 18.2053H12.1392V21.2401H15.1724V18.2053Z" fill="#95F2A9"/>
<path d="M15.1724 15.1726H12.1392V18.2059H15.1724V15.1726Z" fill="#95F2A9"/>
<path d="M15.1724 12.1382H12.1392V15.173H15.1724V12.1382Z" fill="#95F2A9"/>
<path d="M15.1724 9.10278H12.1392V12.1376H15.1724V9.10278Z" fill="#95F2A9"/>
<path d="M15.1724 6.06812H12.1392V9.10292H15.1724V6.06812Z" fill="#95F2A9"/>
<path d="M15.1724 3.03442H12.1392V6.06768H15.1724V3.03442Z" fill="#95F2A9"/>
<path d="M15.1724 0H12.1392V3.0348H15.1724V0Z" fill="#24943D"/>
<path d="M12.1392 24.2756H9.10437V27.3104H12.1392V24.2756Z" fill="#170F0C"/>
<path d="M12.1392 21.2407H9.10437V24.2755H12.1392V21.2407Z" fill="#24943D"/>
<path d="M12.1392 18.2053H9.10437V21.2401H12.1392V18.2053Z" fill="#95F2A9"/>
<path d="M12.1392 15.1726H9.10437V18.2059H12.1392V15.1726Z" fill="#95F2A9"/>
<path d="M12.1392 12.1382H9.10437V15.173H12.1392V12.1382Z" fill="#95F2A9"/>
<path d="M12.1392 9.10278H9.10437V12.1376H12.1392V9.10278Z" fill="#95F2A9"/>
<path d="M12.1392 6.06812H9.10437V9.10292H12.1392V6.06812Z" fill="#95F2A9"/>
<path d="M12.1392 3.03442H9.10437V6.06768H12.1392V3.03442Z" fill="#95F2A9"/>
<path d="M12.1392 0H9.10437V3.0348H12.1392V0Z" fill="#24943D"/>
<path d="M9.10438 24.2756H6.06958V27.3104H9.10438V24.2756Z" fill="#170F0C"/>
<path d="M9.10438 21.2407H6.06958V24.2755H9.10438V21.2407Z" fill="#170F0C"/>
<path d="M9.10438 18.2053H6.06958V21.2401H9.10438V18.2053Z" fill="#24943D"/>
<path d="M9.10438 15.1726H6.06958V18.2059H9.10438V15.1726Z" fill="#95F2A9"/>
<path d="M9.10438 12.1382H6.06958V15.173H9.10438V12.1382Z" fill="#95F2A9"/>
<path d="M9.10438 9.10278H6.06958V12.1376H9.10438V9.10278Z" fill="#95F2A9"/>
<path d="M9.10438 6.06812H6.06958V9.10292H9.10438V6.06812Z" fill="#95F2A9"/>
<path d="M9.10438 3.03442H6.06958V6.06768H9.10438V3.03442Z" fill="#24943D"/>
<path d="M9.10438 0H6.06958V3.0348H9.10438V0Z" fill="#170F0C"/>
<path d="M6.06959 21.2407H3.03479V24.2755H6.06959V21.2407Z" fill="#170F0C"/>
<path d="M6.06959 18.2053H3.03479V21.2401H6.06959V18.2053Z" fill="#170F0C"/>
<path d="M6.06959 15.1726H3.03479V18.2059H6.06959V15.1726Z" fill="#24943D"/>
<path d="M6.06959 12.1382H3.03479V15.173H6.06959V12.1382Z" fill="#24943D"/>
<path d="M6.06959 9.10278H3.03479V12.1376H6.06959V9.10278Z" fill="#24943D"/>
<path d="M6.06959 6.06812H3.03479V9.10292H6.06959V6.06812Z" fill="#24943D"/>
<path d="M6.06959 3.03442H3.03479V6.06768H6.06959V3.03442Z" fill="#170F0C"/>
<path d="M3.0348 18.2053H0V21.2401H3.0348V18.2053Z" fill="#170F0C"/>
<path d="M3.0348 15.1726H0V18.2059H3.0348V15.1726Z" fill="#170F0C"/>
<path d="M3.0348 12.1382H0V15.173H3.0348V12.1382Z" fill="#170F0C"/>
<path d="M3.0348 9.10278H0V12.1376H3.0348V9.10278Z" fill="#170F0C"/>
<path d="M3.0348 6.06812H0V9.10292H3.0348V6.06812Z" fill="#170F0C"/>
<mask id="path-250-outside-1_1118_3706" maskUnits="userSpaceOnUse" x="13.4819" y="5.30127" width="61" height="12" fill="black">
<rect fill="white" x="13.4819" y="5.30127" width="61" height="12"/>
<path d="M15.6551 7.42627H23.9051V11.5513H23.2176V12.2388H21.8426V11.5513H22.5301V8.11377H15.6551V7.42627ZM24.5926 14.9888H14.9676V14.3013H24.5926V14.9888ZM26.6551 8.11377H33.5301V7.42627H26.6551V6.73877H34.9051V8.80127H28.0301V9.48877H34.9051V10.1763H27.3426V9.48877H26.6551V8.11377ZM35.5926 11.5513H31.4676V12.9263H30.0926V11.5513H25.9676V10.8638H35.5926V11.5513ZM27.3426 14.9888H26.6551V12.2388H28.0301V13.6138H33.5301V12.2388H34.9051V14.9888H34.2176V15.6763H27.3426V14.9888ZM33.5301 14.3013H28.0301V14.9888H33.5301V14.3013ZM47.9676 10.8638H47.2801V11.5513H43.1551V10.8638H42.4676V6.73877H47.9676V10.8638ZM50.7176 8.80127H52.7801V9.48877H50.7176V11.5513H49.3426V6.73877H50.7176V8.80127ZM46.5926 7.42627H43.8426V10.8638H46.5926V7.42627ZM44.5301 14.9888H50.7176V15.6763H43.8426V14.9888H43.1551V12.2388H44.5301V14.9888ZM54.1551 6.73877H62.4051V7.42627H55.5301V9.48877H62.4051V10.1763H54.8426V9.48877H54.1551V6.73877ZM63.0926 11.5513H53.4676V10.8638H63.0926V11.5513ZM54.1551 13.6138H61.0301V12.9263H54.1551V12.2388H62.4051V14.3013H55.5301V14.9888H62.4051V15.6763H54.8426V14.9888H54.1551V13.6138ZM73.4051 15.6763H72.0301V6.73877H73.4051V15.6763ZM66.5301 13.6138H67.2176V8.11377H64.4676V7.42627H68.5926V13.6138H67.9051V14.3013H67.2176V14.9888H65.1551V14.3013H66.5301V13.6138Z"/>
</mask>
<path d="M15.6551 7.42627H23.9051V11.5513H23.2176V12.2388H21.8426V11.5513H22.5301V8.11377H15.6551V7.42627ZM24.5926 14.9888H14.9676V14.3013H24.5926V14.9888ZM26.6551 8.11377H33.5301V7.42627H26.6551V6.73877H34.9051V8.80127H28.0301V9.48877H34.9051V10.1763H27.3426V9.48877H26.6551V8.11377ZM35.5926 11.5513H31.4676V12.9263H30.0926V11.5513H25.9676V10.8638H35.5926V11.5513ZM27.3426 14.9888H26.6551V12.2388H28.0301V13.6138H33.5301V12.2388H34.9051V14.9888H34.2176V15.6763H27.3426V14.9888ZM33.5301 14.3013H28.0301V14.9888H33.5301V14.3013ZM47.9676 10.8638H47.2801V11.5513H43.1551V10.8638H42.4676V6.73877H47.9676V10.8638ZM50.7176 8.80127H52.7801V9.48877H50.7176V11.5513H49.3426V6.73877H50.7176V8.80127ZM46.5926 7.42627H43.8426V10.8638H46.5926V7.42627ZM44.5301 14.9888H50.7176V15.6763H43.8426V14.9888H43.1551V12.2388H44.5301V14.9888ZM54.1551 6.73877H62.4051V7.42627H55.5301V9.48877H62.4051V10.1763H54.8426V9.48877H54.1551V6.73877ZM63.0926 11.5513H53.4676V10.8638H63.0926V11.5513ZM54.1551 13.6138H61.0301V12.9263H54.1551V12.2388H62.4051V14.3013H55.5301V14.9888H62.4051V15.6763H54.8426V14.9888H54.1551V13.6138ZM73.4051 15.6763H72.0301V6.73877H73.4051V15.6763ZM66.5301 13.6138H67.2176V8.11377H64.4676V7.42627H68.5926V13.6138H67.9051V14.3013H67.2176V14.9888H65.1551V14.3013H66.5301V13.6138Z" fill="black"/>
<path d="M15.6551 7.42627V6.42627H14.6551V7.42627H15.6551ZM23.9051 7.42627H24.9051V6.42627H23.9051V7.42627ZM23.9051 11.5513V12.5513H24.9051V11.5513H23.9051ZM23.2176 11.5513V10.5513H22.2176V11.5513H23.2176ZM23.2176 12.2388V13.2388H24.2176V12.2388H23.2176ZM21.8426 12.2388H20.8426V13.2388H21.8426V12.2388ZM21.8426 11.5513V10.5513H20.8426V11.5513H21.8426ZM22.5301 11.5513V12.5513H23.5301V11.5513H22.5301ZM22.5301 8.11377H23.5301V7.11377H22.5301V8.11377ZM15.6551 8.11377H14.6551V9.11377H15.6551V8.11377ZM24.5926 14.9888V15.9888H25.5926V14.9888H24.5926ZM14.9676 14.9888H13.9676V15.9888H14.9676V14.9888ZM14.9676 14.3013V13.3013H13.9676V14.3013H14.9676ZM24.5926 14.3013H25.5926V13.3013H24.5926V14.3013ZM15.6551 8.42627H23.9051V6.42627H15.6551V8.42627ZM22.9051 7.42627V11.5513H24.9051V7.42627H22.9051ZM23.9051 10.5513H23.2176V12.5513H23.9051V10.5513ZM22.2176 11.5513V12.2388H24.2176V11.5513H22.2176ZM23.2176 11.2388H21.8426V13.2388H23.2176V11.2388ZM22.8426 12.2388V11.5513H20.8426V12.2388H22.8426ZM21.8426 12.5513H22.5301V10.5513H21.8426V12.5513ZM23.5301 11.5513V8.11377H21.5301V11.5513H23.5301ZM22.5301 7.11377H15.6551V9.11377H22.5301V7.11377ZM16.6551 8.11377V7.42627H14.6551V8.11377H16.6551ZM24.5926 13.9888H14.9676V15.9888H24.5926V13.9888ZM15.9676 14.9888V14.3013H13.9676V14.9888H15.9676ZM14.9676 15.3013H24.5926V13.3013H14.9676V15.3013ZM23.5926 14.3013V14.9888H25.5926V14.3013H23.5926ZM26.6551 8.11377V7.11377H25.6551V8.11377H26.6551ZM33.5301 8.11377V9.11377H34.5301V8.11377H33.5301ZM33.5301 7.42627H34.5301V6.42627H33.5301V7.42627ZM26.6551 7.42627H25.6551V8.42627H26.6551V7.42627ZM26.6551 6.73877V5.73877H25.6551V6.73877H26.6551ZM34.9051 6.73877H35.9051V5.73877H34.9051V6.73877ZM34.9051 8.80127V9.80127H35.9051V8.80127H34.9051ZM28.0301 8.80127V7.80127H27.0301V8.80127H28.0301ZM28.0301 9.48877H27.0301V10.4888H28.0301V9.48877ZM34.9051 9.48877H35.9051V8.48877H34.9051V9.48877ZM34.9051 10.1763V11.1763H35.9051V10.1763H34.9051ZM27.3426 10.1763H26.3426V11.1763H27.3426V10.1763ZM27.3426 9.48877H28.3426V8.48877H27.3426V9.48877ZM26.6551 9.48877H25.6551V10.4888H26.6551V9.48877ZM35.5926 11.5513V12.5513H36.5926V11.5513H35.5926ZM31.4676 11.5513V10.5513H30.4676V11.5513H31.4676ZM31.4676 12.9263V13.9263H32.4676V12.9263H31.4676ZM30.0926 12.9263H29.0926V13.9263H30.0926V12.9263ZM30.0926 11.5513H31.0926V10.5513H30.0926V11.5513ZM25.9676 11.5513H24.9676V12.5513H25.9676V11.5513ZM25.9676 10.8638V9.86377H24.9676V10.8638H25.9676ZM35.5926 10.8638H36.5926V9.86377H35.5926V10.8638ZM27.3426 14.9888H28.3426V13.9888H27.3426V14.9888ZM26.6551 14.9888H25.6551V15.9888H26.6551V14.9888ZM26.6551 12.2388V11.2388H25.6551V12.2388H26.6551ZM28.0301 12.2388H29.0301V11.2388H28.0301V12.2388ZM28.0301 13.6138H27.0301V14.6138H28.0301V13.6138ZM33.5301 13.6138V14.6138H34.5301V13.6138H33.5301ZM33.5301 12.2388V11.2388H32.5301V12.2388H33.5301ZM34.9051 12.2388H35.9051V11.2388H34.9051V12.2388ZM34.9051 14.9888V15.9888H35.9051V14.9888H34.9051ZM34.2176 14.9888V13.9888H33.2176V14.9888H34.2176ZM34.2176 15.6763V16.6763H35.2176V15.6763H34.2176ZM27.3426 15.6763H26.3426V16.6763H27.3426V15.6763ZM33.5301 14.3013H34.5301V13.3013H33.5301V14.3013ZM28.0301 14.3013V13.3013H27.0301V14.3013H28.0301ZM28.0301 14.9888H27.0301V15.9888H28.0301V14.9888ZM33.5301 14.9888V15.9888H34.5301V14.9888H33.5301ZM26.6551 9.11377H33.5301V7.11377H26.6551V9.11377ZM34.5301 8.11377V7.42627H32.5301V8.11377H34.5301ZM33.5301 6.42627H26.6551V8.42627H33.5301V6.42627ZM27.6551 7.42627V6.73877H25.6551V7.42627H27.6551ZM26.6551 7.73877H34.9051V5.73877H26.6551V7.73877ZM33.9051 6.73877V8.80127H35.9051V6.73877H33.9051ZM34.9051 7.80127H28.0301V9.80127H34.9051V7.80127ZM27.0301 8.80127V9.48877H29.0301V8.80127H27.0301ZM28.0301 10.4888H34.9051V8.48877H28.0301V10.4888ZM33.9051 9.48877V10.1763H35.9051V9.48877H33.9051ZM34.9051 9.17627H27.3426V11.1763H34.9051V9.17627ZM28.3426 10.1763V9.48877H26.3426V10.1763H28.3426ZM27.3426 8.48877H26.6551V10.4888H27.3426V8.48877ZM27.6551 9.48877V8.11377H25.6551V9.48877H27.6551ZM35.5926 10.5513H31.4676V12.5513H35.5926V10.5513ZM30.4676 11.5513V12.9263H32.4676V11.5513H30.4676ZM31.4676 11.9263H30.0926V13.9263H31.4676V11.9263ZM31.0926 12.9263V11.5513H29.0926V12.9263H31.0926ZM30.0926 10.5513H25.9676V12.5513H30.0926V10.5513ZM26.9676 11.5513V10.8638H24.9676V11.5513H26.9676ZM25.9676 11.8638H35.5926V9.86377H25.9676V11.8638ZM34.5926 10.8638V11.5513H36.5926V10.8638H34.5926ZM27.3426 13.9888H26.6551V15.9888H27.3426V13.9888ZM27.6551 14.9888V12.2388H25.6551V14.9888H27.6551ZM26.6551 13.2388H28.0301V11.2388H26.6551V13.2388ZM27.0301 12.2388V13.6138H29.0301V12.2388H27.0301ZM28.0301 14.6138H33.5301V12.6138H28.0301V14.6138ZM34.5301 13.6138V12.2388H32.5301V13.6138H34.5301ZM33.5301 13.2388H34.9051V11.2388H33.5301V13.2388ZM33.9051 12.2388V14.9888H35.9051V12.2388H33.9051ZM34.9051 13.9888H34.2176V15.9888H34.9051V13.9888ZM33.2176 14.9888V15.6763H35.2176V14.9888H33.2176ZM34.2176 14.6763H27.3426V16.6763H34.2176V14.6763ZM28.3426 15.6763V14.9888H26.3426V15.6763H28.3426ZM33.5301 13.3013H28.0301V15.3013H33.5301V13.3013ZM27.0301 14.3013V14.9888H29.0301V14.3013H27.0301ZM28.0301 15.9888H33.5301V13.9888H28.0301V15.9888ZM34.5301 14.9888V14.3013H32.5301V14.9888H34.5301ZM47.9676 10.8638V11.8638H48.9676V10.8638H47.9676ZM47.2801 10.8638V9.86377H46.2801V10.8638H47.2801ZM47.2801 11.5513V12.5513H48.2801V11.5513H47.2801ZM43.1551 11.5513H42.1551V12.5513H43.1551V11.5513ZM43.1551 10.8638H44.1551V9.86377H43.1551V10.8638ZM42.4676 10.8638H41.4676V11.8638H42.4676V10.8638ZM42.4676 6.73877V5.73877H41.4676V6.73877H42.4676ZM47.9676 6.73877H48.9676V5.73877H47.9676V6.73877ZM50.7176 8.80127H49.7176V9.80127H50.7176V8.80127ZM52.7801 8.80127H53.7801V7.80127H52.7801V8.80127ZM52.7801 9.48877V10.4888H53.7801V9.48877H52.7801ZM50.7176 9.48877V8.48877H49.7176V9.48877H50.7176ZM50.7176 11.5513V12.5513H51.7176V11.5513H50.7176ZM49.3426 11.5513H48.3426V12.5513H49.3426V11.5513ZM49.3426 6.73877V5.73877H48.3426V6.73877H49.3426ZM50.7176 6.73877H51.7176V5.73877H50.7176V6.73877ZM46.5926 7.42627H47.5926V6.42627H46.5926V7.42627ZM43.8426 7.42627V6.42627H42.8426V7.42627H43.8426ZM43.8426 10.8638H42.8426V11.8638H43.8426V10.8638ZM46.5926 10.8638V11.8638H47.5926V10.8638H46.5926ZM44.5301 14.9888H43.5301V15.9888H44.5301V14.9888ZM50.7176 14.9888H51.7176V13.9888H50.7176V14.9888ZM50.7176 15.6763V16.6763H51.7176V15.6763H50.7176ZM43.8426 15.6763H42.8426V16.6763H43.8426V15.6763ZM43.8426 14.9888H44.8426V13.9888H43.8426V14.9888ZM43.1551 14.9888H42.1551V15.9888H43.1551V14.9888ZM43.1551 12.2388V11.2388H42.1551V12.2388H43.1551ZM44.5301 12.2388H45.5301V11.2388H44.5301V12.2388ZM47.9676 9.86377H47.2801V11.8638H47.9676V9.86377ZM46.2801 10.8638V11.5513H48.2801V10.8638H46.2801ZM47.2801 10.5513H43.1551V12.5513H47.2801V10.5513ZM44.1551 11.5513V10.8638H42.1551V11.5513H44.1551ZM43.1551 9.86377H42.4676V11.8638H43.1551V9.86377ZM43.4676 10.8638V6.73877H41.4676V10.8638H43.4676ZM42.4676 7.73877H47.9676V5.73877H42.4676V7.73877ZM46.9676 6.73877V10.8638H48.9676V6.73877H46.9676ZM50.7176 9.80127H52.7801V7.80127H50.7176V9.80127ZM51.7801 8.80127V9.48877H53.7801V8.80127H51.7801ZM52.7801 8.48877H50.7176V10.4888H52.7801V8.48877ZM49.7176 9.48877V11.5513H51.7176V9.48877H49.7176ZM50.7176 10.5513H49.3426V12.5513H50.7176V10.5513ZM50.3426 11.5513V6.73877H48.3426V11.5513H50.3426ZM49.3426 7.73877H50.7176V5.73877H49.3426V7.73877ZM49.7176 6.73877V8.80127H51.7176V6.73877H49.7176ZM46.5926 6.42627H43.8426V8.42627H46.5926V6.42627ZM42.8426 7.42627V10.8638H44.8426V7.42627H42.8426ZM43.8426 11.8638H46.5926V9.86377H43.8426V11.8638ZM47.5926 10.8638V7.42627H45.5926V10.8638H47.5926ZM44.5301 15.9888H50.7176V13.9888H44.5301V15.9888ZM49.7176 14.9888V15.6763H51.7176V14.9888H49.7176ZM50.7176 14.6763H43.8426V16.6763H50.7176V14.6763ZM44.8426 15.6763V14.9888H42.8426V15.6763H44.8426ZM43.8426 13.9888H43.1551V15.9888H43.8426V13.9888ZM44.1551 14.9888V12.2388H42.1551V14.9888H44.1551ZM43.1551 13.2388H44.5301V11.2388H43.1551V13.2388ZM43.5301 12.2388V14.9888H45.5301V12.2388H43.5301ZM54.1551 6.73877V5.73877H53.1551V6.73877H54.1551ZM62.4051 6.73877H63.4051V5.73877H62.4051V6.73877ZM62.4051 7.42627V8.42627H63.4051V7.42627H62.4051ZM55.5301 7.42627V6.42627H54.5301V7.42627H55.5301ZM55.5301 9.48877H54.5301V10.4888H55.5301V9.48877ZM62.4051 9.48877H63.4051V8.48877H62.4051V9.48877ZM62.4051 10.1763V11.1763H63.4051V10.1763H62.4051ZM54.8426 10.1763H53.8426V11.1763H54.8426V10.1763ZM54.8426 9.48877H55.8426V8.48877H54.8426V9.48877ZM54.1551 9.48877H53.1551V10.4888H54.1551V9.48877ZM63.0926 11.5513V12.5513H64.0926V11.5513H63.0926ZM53.4676 11.5513H52.4676V12.5513H53.4676V11.5513ZM53.4676 10.8638V9.86377H52.4676V10.8638H53.4676ZM63.0926 10.8638H64.0926V9.86377H63.0926V10.8638ZM54.1551 13.6138V12.6138H53.1551V13.6138H54.1551ZM61.0301 13.6138V14.6138H62.0301V13.6138H61.0301ZM61.0301 12.9263H62.0301V11.9263H61.0301V12.9263ZM54.1551 12.9263H53.1551V13.9263H54.1551V12.9263ZM54.1551 12.2388V11.2388H53.1551V12.2388H54.1551ZM62.4051 12.2388H63.4051V11.2388H62.4051V12.2388ZM62.4051 14.3013V15.3013H63.4051V14.3013H62.4051ZM55.5301 14.3013V13.3013H54.5301V14.3013H55.5301ZM55.5301 14.9888H54.5301V15.9888H55.5301V14.9888ZM62.4051 14.9888H63.4051V13.9888H62.4051V14.9888ZM62.4051 15.6763V16.6763H63.4051V15.6763H62.4051ZM54.8426 15.6763H53.8426V16.6763H54.8426V15.6763ZM54.8426 14.9888H55.8426V13.9888H54.8426V14.9888ZM54.1551 14.9888H53.1551V15.9888H54.1551V14.9888ZM54.1551 7.73877H62.4051V5.73877H54.1551V7.73877ZM61.4051 6.73877V7.42627H63.4051V6.73877H61.4051ZM62.4051 6.42627H55.5301V8.42627H62.4051V6.42627ZM54.5301 7.42627V9.48877H56.5301V7.42627H54.5301ZM55.5301 10.4888H62.4051V8.48877H55.5301V10.4888ZM61.4051 9.48877V10.1763H63.4051V9.48877H61.4051ZM62.4051 9.17627H54.8426V11.1763H62.4051V9.17627ZM55.8426 10.1763V9.48877H53.8426V10.1763H55.8426ZM54.8426 8.48877H54.1551V10.4888H54.8426V8.48877ZM55.1551 9.48877V6.73877H53.1551V9.48877H55.1551ZM63.0926 10.5513H53.4676V12.5513H63.0926V10.5513ZM54.4676 11.5513V10.8638H52.4676V11.5513H54.4676ZM53.4676 11.8638H63.0926V9.86377H53.4676V11.8638ZM62.0926 10.8638V11.5513H64.0926V10.8638H62.0926ZM54.1551 14.6138H61.0301V12.6138H54.1551V14.6138ZM62.0301 13.6138V12.9263H60.0301V13.6138H62.0301ZM61.0301 11.9263H54.1551V13.9263H61.0301V11.9263ZM55.1551 12.9263V12.2388H53.1551V12.9263H55.1551ZM54.1551 13.2388H62.4051V11.2388H54.1551V13.2388ZM61.4051 12.2388V14.3013H63.4051V12.2388H61.4051ZM62.4051 13.3013H55.5301V15.3013H62.4051V13.3013ZM54.5301 14.3013V14.9888H56.5301V14.3013H54.5301ZM55.5301 15.9888H62.4051V13.9888H55.5301V15.9888ZM61.4051 14.9888V15.6763H63.4051V14.9888H61.4051ZM62.4051 14.6763H54.8426V16.6763H62.4051V14.6763ZM55.8426 15.6763V14.9888H53.8426V15.6763H55.8426ZM54.8426 13.9888H54.1551V15.9888H54.8426V13.9888ZM55.1551 14.9888V13.6138H53.1551V14.9888H55.1551ZM73.4051 15.6763V16.6763H74.4051V15.6763H73.4051ZM72.0301 15.6763H71.0301V16.6763H72.0301V15.6763ZM72.0301 6.73877V5.73877H71.0301V6.73877H72.0301ZM73.4051 6.73877H74.4051V5.73877H73.4051V6.73877ZM66.5301 13.6138V12.6138H65.5301V13.6138H66.5301ZM67.2176 13.6138V14.6138H68.2176V13.6138H67.2176ZM67.2176 8.11377H68.2176V7.11377H67.2176V8.11377ZM64.4676 8.11377H63.4676V9.11377H64.4676V8.11377ZM64.4676 7.42627V6.42627H63.4676V7.42627H64.4676ZM68.5926 7.42627H69.5926V6.42627H68.5926V7.42627ZM68.5926 13.6138V14.6138H69.5926V13.6138H68.5926ZM67.9051 13.6138V12.6138H66.9051V13.6138H67.9051ZM67.9051 14.3013V15.3013H68.9051V14.3013H67.9051ZM67.2176 14.3013V13.3013H66.2176V14.3013H67.2176ZM67.2176 14.9888V15.9888H68.2176V14.9888H67.2176ZM65.1551 14.9888H64.1551V15.9888H65.1551V14.9888ZM65.1551 14.3013V13.3013H64.1551V14.3013H65.1551ZM66.5301 14.3013V15.3013H67.5301V14.3013H66.5301ZM73.4051 14.6763H72.0301V16.6763H73.4051V14.6763ZM73.0301 15.6763V6.73877H71.0301V15.6763H73.0301ZM72.0301 7.73877H73.4051V5.73877H72.0301V7.73877ZM72.4051 6.73877V15.6763H74.4051V6.73877H72.4051ZM66.5301 14.6138H67.2176V12.6138H66.5301V14.6138ZM68.2176 13.6138V8.11377H66.2176V13.6138H68.2176ZM67.2176 7.11377H64.4676V9.11377H67.2176V7.11377ZM65.4676 8.11377V7.42627H63.4676V8.11377H65.4676ZM64.4676 8.42627H68.5926V6.42627H64.4676V8.42627ZM67.5926 7.42627V13.6138H69.5926V7.42627H67.5926ZM68.5926 12.6138H67.9051V14.6138H68.5926V12.6138ZM66.9051 13.6138V14.3013H68.9051V13.6138H66.9051ZM67.9051 13.3013H67.2176V15.3013H67.9051V13.3013ZM66.2176 14.3013V14.9888H68.2176V14.3013H66.2176ZM67.2176 13.9888H65.1551V15.9888H67.2176V13.9888ZM66.1551 14.9888V14.3013H64.1551V14.9888H66.1551ZM65.1551 15.3013H66.5301V13.3013H65.1551V15.3013ZM67.5301 14.3013V13.6138H65.5301V14.3013H67.5301Z" fill="white" mask="url(#path-250-outside-1_1118_3706)"/>
</svg>
