<svg width="86" height="36" viewBox="0 0 86 36" fill="none" xmlns="http://www.w3.org/2000/svg">
<rect x="23.4097" y="28.313" width="2.91568" height="3.53911" fill="#663939"/>
<rect x="26.3254" y="28.313" width="2.91568" height="3.53911" fill="#663939"/>
<rect x="29.2411" y="28.313" width="2.91568" height="3.53911" fill="#663939"/>
<rect x="32.1567" y="28.313" width="2.91568" height="3.53911" fill="#663939"/>
<rect x="35.0725" y="28.313" width="2.91568" height="3.53911" fill="#663939"/>
<rect x="37.988" y="28.313" width="2.91568" height="3.53911" fill="#663939"/>
<rect x="40.9038" y="28.313" width="2.91568" height="3.53911" fill="#663939"/>
<rect x="43.8195" y="28.313" width="2.91568" height="3.53911" fill="#663939"/>
<rect x="46.7351" y="28.313" width="2.91568" height="3.53911" fill="#663939"/>
<rect x="49.6509" y="28.313" width="2.91568" height="3.53911" fill="#663939"/>
<rect x="52.5665" y="28.313" width="2.91568" height="3.53911" fill="#663939"/>
<rect x="55.4822" y="28.313" width="2.91568" height="3.53911" fill="#663939"/>
<rect x="58.3978" y="28.313" width="2.91568" height="3.53911" fill="#663939"/>
<rect x="61.3135" y="28.313" width="2.91568" height="3.53911" fill="#663939"/>
<rect x="64.2291" y="28.313" width="2.91568" height="3.53911" fill="#663939"/>
<rect x="67.1449" y="28.313" width="2.91568" height="3.53911" fill="#663939"/>
<rect x="70.0605" y="28.313" width="2.91568" height="3.53911" fill="#663939"/>
<rect x="72.9762" y="24.7734" width="2.91568" height="3.53911" fill="#663939"/>
<rect x="75.8918" y="21.2349" width="2.91568" height="3.53911" fill="#663939"/>
<rect x="75.8918" y="17.6953" width="2.91568" height="3.53911" fill="#663939"/>
<rect x="75.8918" y="14.1562" width="2.91568" height="3.53911" fill="#663939"/>
<rect x="75.8918" y="10.6167" width="2.91568" height="3.53911" fill="#663939"/>
<rect x="75.8918" y="7.07764" width="2.91568" height="3.53911" fill="#663939"/>
<rect x="72.9762" y="3.53955" width="2.91568" height="3.53911" fill="#663939"/>
<rect x="5.91565" y="7.07764" width="2.91568" height="3.53911" fill="#663939"/>
<path d="M5.91565 10.6167H8.83133V14.1558H5.91565V10.6167Z" fill="#663939"/>
<path d="M5.91565 14.1558H8.83133V17.6949H5.91565V14.1558Z" fill="#663939"/>
<path d="M5.91565 17.6949H8.83133V21.234H5.91565V17.6949Z" fill="#663939"/>
<path d="M5.91565 21.234H8.83133V24.7732H5.91565V21.234Z" fill="#663939"/>
<rect x="8.8313" y="3.53955" width="2.91568" height="3.53911" fill="#663939"/>
<path d="M11.7469 0H14.6626V3.53911H11.7469V0Z" fill="#663939"/>
<rect x="14.6627" width="2.91568" height="3.53911" fill="#663939"/>
<rect x="14.6627" y="28.313" width="2.91568" height="3.53911" fill="#663939"/>
<rect x="17.5784" y="28.313" width="2.91568" height="3.53911" fill="#663939"/>
<rect x="11.7469" y="28.313" width="2.91568" height="3.53911" fill="#663939"/>
<rect x="8.8313" y="24.7734" width="2.91568" height="3.53911" fill="#663939"/>
<rect x="20.4941" y="28.313" width="2.91568" height="3.53911" fill="#663939"/>
<rect x="23.4097" width="2.91568" height="3.53911" fill="#663939"/>
<rect x="26.3254" width="2.91568" height="3.53911" fill="#663939"/>
<rect x="29.2411" width="2.91568" height="3.53911" fill="#663939"/>
<rect x="32.1567" width="2.91568" height="3.53911" fill="#663939"/>
<rect x="35.0725" width="2.91568" height="3.53911" fill="#663939"/>
<rect x="37.988" width="2.91568" height="3.53911" fill="#663939"/>
<rect x="40.9038" width="2.91568" height="3.53911" fill="#663939"/>
<rect x="43.8195" width="2.91568" height="3.53911" fill="#663939"/>
<rect x="46.7351" width="2.91568" height="3.53911" fill="#663939"/>
<rect x="49.6509" width="2.91568" height="3.53911" fill="#663939"/>
<rect x="52.5665" width="2.91568" height="3.53911" fill="#663939"/>
<rect x="55.4822" width="2.91568" height="3.53911" fill="#663939"/>
<rect x="58.3978" width="2.91568" height="3.53911" fill="#663939"/>
<rect x="61.3135" width="2.91568" height="3.53911" fill="#663939"/>
<rect x="64.2291" width="2.91568" height="3.53911" fill="#663939"/>
<rect x="67.1449" width="2.91568" height="3.53911" fill="#663939"/>
<rect x="70.0605" width="2.91568" height="3.53911" fill="#663939"/>
<rect x="20.4941" width="2.91568" height="3.53911" fill="#663939"/>
<rect x="17.5784" width="2.91568" height="3.53911" fill="#663939"/>
<rect x="17.5784" y="10.6167" width="2.91568" height="3.53911" fill="#B79777"/>
<rect x="20.4941" y="10.6167" width="2.91568" height="3.53911" fill="#B79777"/>
<rect x="20.4941" y="7.07764" width="2.91568" height="3.53911" fill="#B79777"/>
<rect x="17.5784" y="7.07764" width="2.91568" height="3.53911" fill="#B79777"/>
<rect x="40.9038" y="10.6167" width="2.91568" height="3.53911" fill="#B79777"/>
<rect x="40.9038" y="14.1562" width="2.91568" height="3.53911" fill="#B79777"/>
<rect x="40.9038" y="21.2349" width="2.91568" height="3.53911" fill="#B79777"/>
<rect x="11.7469" y="3.53955" width="2.91568" height="3.53911" fill="#B79777"/>
<rect x="11.7469" y="24.7734" width="2.91568" height="3.53911" fill="#B79777"/>
<rect x="11.7469" y="21.2349" width="2.91568" height="3.53911" fill="#B79777"/>
<rect x="11.7469" y="17.6953" width="2.91568" height="3.53911" fill="#B79777"/>
<rect x="14.6627" y="17.6953" width="2.91568" height="3.53911" fill="#B79777"/>
<rect x="11.7469" y="14.1562" width="2.91568" height="3.53911" fill="#B79777"/>
<rect x="11.7469" y="10.6167" width="2.91568" height="3.53911" fill="#B79777"/>
<rect x="11.7469" y="7.07764" width="2.91568" height="3.53911" fill="#B79777"/>
<rect x="8.8313" y="21.2349" width="2.91568" height="3.53911" fill="#B79777"/>
<rect x="8.8313" y="17.6953" width="2.91568" height="3.53911" fill="#B79777"/>
<rect x="8.8313" y="14.1562" width="2.91568" height="3.53911" fill="#B79777"/>
<rect x="8.8313" y="10.6167" width="2.91568" height="3.53911" fill="#B79777"/>
<rect x="14.6627" y="7.07764" width="2.91568" height="3.53911" fill="#B79777"/>
<rect x="14.6627" y="10.6167" width="2.91568" height="3.53911" fill="#B79777"/>
<rect x="14.6627" y="14.1562" width="2.91568" height="3.53911" fill="#B79777"/>
<rect x="17.5784" y="14.1562" width="2.91568" height="3.53911" fill="#B79777"/>
<rect x="20.4941" y="14.1562" width="2.91568" height="3.53911" fill="#B79777"/>
<rect x="20.4941" y="17.6953" width="2.91568" height="3.53911" fill="#B79777"/>
<rect x="20.4941" y="21.2349" width="2.91568" height="3.53911" fill="#B79777"/>
<rect x="17.5784" y="21.2349" width="2.91568" height="3.53911" fill="#B79777"/>
<rect x="14.6627" y="21.2349" width="2.91568" height="3.53911" fill="#B79777"/>
<rect x="8.8313" y="7.07764" width="2.91568" height="3.53911" fill="#B79777"/>
<rect x="70.0605" y="21.2349" width="2.91568" height="3.53911" fill="#B79777"/>
<rect x="70.0605" y="17.6953" width="2.91568" height="3.53911" fill="#B79777"/>
<rect x="70.0605" y="14.1562" width="2.91568" height="3.53911" fill="#B79777"/>
<rect x="70.0605" y="10.6167" width="2.91568" height="3.53911" fill="#B79777"/>
<rect x="67.1449" y="21.2349" width="2.91568" height="3.53911" fill="#B79777"/>
<rect x="67.1449" y="17.6953" width="2.91568" height="3.53911" fill="#B79777"/>
<rect x="64.2291" y="14.1562" width="2.91568" height="3.53911" fill="#B79777"/>
<rect x="64.2291" y="17.6953" width="2.91568" height="3.53911" fill="#B79777"/>
<rect x="67.1449" y="14.1562" width="2.91568" height="3.53911" fill="#B79777"/>
<rect x="67.1449" y="7.07764" width="2.91568" height="3.53911" fill="#B79777"/>
<rect x="67.1449" y="10.6167" width="2.91568" height="3.53911" fill="#B79777"/>
<rect x="61.3135" y="21.2349" width="2.91568" height="3.53911" fill="#B79777"/>
<rect x="61.3135" y="17.6953" width="2.91568" height="3.53911" fill="#B79777"/>
<rect x="64.2291" y="21.2349" width="2.91568" height="3.53911" fill="#B79777"/>
<rect x="61.3135" y="14.1562" width="2.91568" height="3.53911" fill="#B79777"/>
<rect x="61.3135" y="10.6167" width="2.91568" height="3.53911" fill="#B79777"/>
<rect x="64.2291" y="7.07764" width="2.91568" height="3.53911" fill="#B79777"/>
<rect x="64.2291" y="10.6167" width="2.91568" height="3.53911" fill="#B79777"/>
<rect x="32.1567" y="21.2349" width="2.91568" height="3.53911" fill="#B79777"/>
<rect x="29.2411" y="21.2349" width="2.91568" height="3.53911" fill="#B79777"/>
<rect x="32.1567" y="17.6953" width="2.91568" height="3.53911" fill="#B79777"/>
<rect x="29.2411" y="17.6953" width="2.91568" height="3.53911" fill="#B79777"/>
<rect x="32.1567" y="14.1562" width="2.91568" height="3.53911" fill="#B79777"/>
<rect x="29.2411" y="14.1562" width="2.91568" height="3.53911" fill="#B79777"/>
<rect x="32.1567" y="10.6167" width="2.91568" height="3.53911" fill="#B79777"/>
<rect x="29.2411" y="10.6167" width="2.91568" height="3.53911" fill="#B79777"/>
<rect x="32.1567" y="7.07764" width="2.91568" height="3.53911" fill="#B79777"/>
<rect x="26.3254" y="21.2349" width="2.91568" height="3.53911" fill="#B79777"/>
<rect x="26.3254" y="17.6953" width="2.91568" height="3.53911" fill="#B79777"/>
<rect x="26.3254" y="14.1562" width="2.91568" height="3.53911" fill="#B79777"/>
<rect x="26.3254" y="10.6167" width="2.91568" height="3.53911" fill="#B79777"/>
<rect x="29.2411" y="7.07764" width="2.91568" height="3.53911" fill="#B79777"/>
<rect x="26.3254" y="7.07764" width="2.91568" height="3.53911" fill="#B79777"/>
<rect x="70.0605" y="7.07764" width="2.91568" height="3.53911" fill="#B79777"/>
<rect x="23.4097" y="21.2349" width="2.91568" height="3.53911" fill="#B79777"/>
<rect x="23.4097" y="17.6953" width="2.91568" height="3.53911" fill="#B79777"/>
<rect x="23.4097" y="14.1562" width="2.91568" height="3.53911" fill="#B79777"/>
<rect x="23.4097" y="10.6167" width="2.91568" height="3.53911" fill="#B79777"/>
<rect x="23.4097" y="7.07764" width="2.91568" height="3.53911" fill="#B79777"/>
<rect x="35.0725" y="21.2349" width="2.91568" height="3.53911" fill="#B79777"/>
<rect x="37.988" y="21.2349" width="2.91568" height="3.53911" fill="#B79777"/>
<rect x="35.0725" y="17.6953" width="2.91568" height="3.53911" fill="#B79777"/>
<rect x="37.988" y="17.6953" width="2.91568" height="3.53911" fill="#B79777"/>
<rect x="35.0725" y="14.1562" width="2.91568" height="3.53911" fill="#B79777"/>
<rect x="37.988" y="14.1562" width="2.91568" height="3.53911" fill="#B79777"/>
<rect x="35.0725" y="10.6167" width="2.91568" height="3.53911" fill="#B79777"/>
<rect x="37.988" y="10.6167" width="2.91568" height="3.53911" fill="#B79777"/>
<rect x="35.0725" y="7.07764" width="2.91568" height="3.53911" fill="#B79777"/>
<rect x="40.9038" y="7.07764" width="2.91568" height="3.53911" fill="#B79777"/>
<rect x="43.8195" y="7.07764" width="2.91568" height="3.53911" fill="#B79777"/>
<rect x="43.8195" y="10.6167" width="2.91568" height="3.53911" fill="#B79777"/>
<rect x="43.8195" y="14.1562" width="2.91568" height="3.53911" fill="#B79777"/>
<rect x="43.8195" y="17.6953" width="2.91568" height="3.53911" fill="#B79777"/>
<rect x="55.4822" y="21.2349" width="2.91568" height="3.53911" fill="#B79777"/>
<rect x="43.8195" y="21.2349" width="2.91568" height="3.53911" fill="#B79777"/>
<rect x="40.9038" y="17.6953" width="2.91568" height="3.53911" fill="#B79777"/>
<rect x="37.988" y="7.07764" width="2.91568" height="3.53911" fill="#B79777"/>
<rect x="46.7351" y="21.2349" width="2.91568" height="3.53911" fill="#B79777"/>
<rect x="46.7351" y="17.6953" width="2.91568" height="3.53911" fill="#B79777"/>
<rect x="46.7351" y="14.1562" width="2.91568" height="3.53911" fill="#B79777"/>
<rect x="46.7351" y="10.6167" width="2.91568" height="3.53911" fill="#B79777"/>
<rect x="49.6509" y="10.6167" width="2.91568" height="3.53911" fill="#B79777"/>
<rect x="49.6509" y="14.1562" width="2.91568" height="3.53911" fill="#B79777"/>
<rect x="49.6509" y="17.6953" width="2.91568" height="3.53911" fill="#B79777"/>
<rect x="49.6509" y="21.2349" width="2.91568" height="3.53911" fill="#B79777"/>
<rect x="49.6509" y="7.07764" width="2.91568" height="3.53911" fill="#B79777"/>
<rect x="52.5665" y="7.07764" width="2.91568" height="3.53911" fill="#B79777"/>
<rect x="55.4822" y="7.07764" width="2.91568" height="3.53911" fill="#B79777"/>
<rect x="55.4822" y="10.6167" width="2.91568" height="3.53911" fill="#B79777"/>
<rect x="55.4822" y="17.6953" width="2.91568" height="3.53911" fill="#B79777"/>
<rect x="61.3135" y="7.07764" width="2.91568" height="3.53911" fill="#B79777"/>
<rect x="52.5665" y="14.1562" width="2.91568" height="3.53911" fill="#B79777"/>
<rect x="46.7351" y="7.07764" width="2.91568" height="3.53911" fill="#B79777"/>
<rect x="52.5665" y="10.6167" width="2.91568" height="3.53911" fill="#B79777"/>
<rect x="52.5665" y="17.6953" width="2.91568" height="3.53911" fill="#B79777"/>
<rect x="52.5665" y="21.2349" width="2.91568" height="3.53911" fill="#B79777"/>
<rect x="58.3978" y="21.2349" width="2.91568" height="3.53911" fill="#B79777"/>
<rect x="55.4822" y="14.1562" width="2.91568" height="3.53911" fill="#B79777"/>
<rect x="58.3978" y="14.1562" width="2.91568" height="3.53911" fill="#B79777"/>
<rect x="58.3978" y="17.6953" width="2.91568" height="3.53911" fill="#B79777"/>
<rect x="58.3978" y="10.6167" width="2.91568" height="3.53911" fill="#B79777"/>
<rect x="58.3978" y="7.07764" width="2.91568" height="3.53911" fill="#B79777"/>
<rect x="72.9762" y="21.2349" width="2.91568" height="3.53911" fill="#B79777"/>
<rect x="72.9762" y="17.6953" width="2.91568" height="3.53911" fill="#B79777"/>
<rect x="72.9762" y="14.1562" width="2.91568" height="3.53911" fill="#B79777"/>
<rect x="72.9762" y="10.6167" width="2.91568" height="3.53911" fill="#B79777"/>
<rect x="72.9762" y="7.07764" width="2.91568" height="3.53911" fill="#B79777"/>
<rect x="17.5784" y="17.6953" width="2.91568" height="3.53911" fill="#B79777"/>
<rect x="14.6627" y="3.53955" width="2.91568" height="3.53911" fill="#B79777"/>
<rect x="17.5784" y="3.53955" width="2.91568" height="3.53911" fill="#B79777"/>
<rect x="20.4941" y="3.53955" width="2.91568" height="3.53911" fill="#B79777"/>
<rect x="23.4097" y="3.53955" width="2.91568" height="3.53911" fill="#B79777"/>
<rect x="26.3254" y="3.53955" width="2.91568" height="3.53911" fill="#B79777"/>
<rect x="29.2411" y="3.53955" width="2.91568" height="3.53911" fill="#B79777"/>
<rect x="32.1567" y="3.53955" width="2.91568" height="3.53911" fill="#B79777"/>
<rect x="35.0725" y="3.53955" width="2.91568" height="3.53911" fill="#B79777"/>
<rect x="37.988" y="3.53955" width="2.91568" height="3.53911" fill="#B79777"/>
<rect x="40.9038" y="3.53955" width="2.91568" height="3.53911" fill="#B79777"/>
<rect x="43.8195" y="3.53955" width="2.91568" height="3.53911" fill="#B79777"/>
<rect x="43.8195" y="3.53955" width="2.91568" height="3.53911" fill="#B79777"/>
<rect x="46.7351" y="3.53955" width="2.91568" height="3.53911" fill="#B79777"/>
<rect x="49.6509" y="3.53955" width="2.91568" height="3.53911" fill="#B79777"/>
<rect x="52.5665" y="3.53955" width="2.91568" height="3.53911" fill="#B79777"/>
<rect x="55.4822" y="3.53955" width="2.91568" height="3.53911" fill="#B79777"/>
<rect x="58.3978" y="3.53955" width="2.91568" height="3.53911" fill="#B79777"/>
<rect x="61.3135" y="3.53955" width="2.91568" height="3.53911" fill="#B79777"/>
<rect x="64.2291" y="3.53955" width="2.91568" height="3.53911" fill="#B79777"/>
<rect x="67.1449" y="3.53955" width="2.91568" height="3.53911" fill="#B79777"/>
<rect x="70.0605" y="3.53955" width="2.91568" height="3.53911" fill="#B79777"/>
<rect x="14.6627" y="24.7734" width="2.91568" height="3.53911" fill="#B79777"/>
<rect x="17.5784" y="24.7734" width="2.91568" height="3.53911" fill="#B79777"/>
<rect x="20.4941" y="24.7734" width="2.91568" height="3.53911" fill="#B79777"/>
<rect x="23.4097" y="24.7734" width="2.91568" height="3.53911" fill="#B79777"/>
<rect x="26.3254" y="24.7734" width="2.91568" height="3.53911" fill="#B79777"/>
<rect x="29.2411" y="24.7734" width="2.91568" height="3.53911" fill="#B79777"/>
<rect x="32.1567" y="24.7734" width="2.91568" height="3.53911" fill="#B79777"/>
<rect x="35.0725" y="24.7734" width="2.91568" height="3.53911" fill="#B79777"/>
<rect x="37.988" y="24.7734" width="2.91568" height="3.53911" fill="#B79777"/>
<rect x="40.9038" y="24.7734" width="2.91568" height="3.53911" fill="#B79777"/>
<rect x="43.8195" y="24.7734" width="2.91568" height="3.53911" fill="#B79777"/>
<rect x="43.8195" y="24.7734" width="2.91568" height="3.53911" fill="#B79777"/>
<rect x="46.7351" y="24.7734" width="2.91568" height="3.53911" fill="#B79777"/>
<rect x="49.6509" y="24.7734" width="2.91568" height="3.53911" fill="#B79777"/>
<rect x="52.5665" y="24.7734" width="2.91568" height="3.53911" fill="#B79777"/>
<rect x="55.4822" y="24.7734" width="2.91568" height="3.53911" fill="#B79777"/>
<rect x="58.3978" y="24.7734" width="2.91568" height="3.53911" fill="#B79777"/>
<rect x="61.3135" y="24.7734" width="2.91568" height="3.53911" fill="#B79777"/>
<rect x="64.2291" y="24.7734" width="2.91568" height="3.53911" fill="#B79777"/>
<rect x="67.1449" y="24.7734" width="2.91568" height="3.53911" fill="#B79777"/>
<rect x="70.0605" y="24.7734" width="2.91568" height="3.53911" fill="#B79777"/>
<rect x="5.91565" y="3.7749" width="2.91568" height="3.53911" fill="#451B0B"/>
<rect x="3" y="7.31445" width="2.91568" height="3.53911" fill="#451B0B"/>
<rect x="3" y="10.853" width="2.91568" height="3.53911" fill="#451B0B"/>
<rect x="3" y="14.3926" width="2.91568" height="3.53911" fill="#451B0B"/>
<rect x="3" y="17.9316" width="2.91568" height="3.53911" fill="#451B0B"/>
<rect x="3" y="21.2349" width="2.91568" height="3.53911" fill="#451B0B"/>
<rect x="5.91565" y="24.7734" width="2.91568" height="3.53911" fill="#451B0B"/>
<rect x="8.8313" y="28.313" width="2.91568" height="3.53911" fill="#451B0B"/>
<rect x="11.7469" y="31.8521" width="2.91568" height="3.53911" fill="#451B0B"/>
<rect x="8.8313" y="31.8521" width="2.91568" height="3.53911" fill="#451B0B"/>
<rect x="5.91565" y="28.313" width="2.91568" height="3.53911" fill="#451B0B"/>
<rect x="3" y="24.7734" width="2.91568" height="3.53911" fill="#451B0B"/>
<rect x="14.6627" y="31.8521" width="2.91568" height="3.53911" fill="#451B0B"/>
<rect x="17.5784" y="31.8521" width="2.91568" height="3.53911" fill="#451B0B"/>
<rect x="20.4941" y="31.8521" width="2.91568" height="3.53911" fill="#451B0B"/>
<rect x="23.4097" y="31.8521" width="2.91568" height="3.53911" fill="#451B0B"/>
<rect x="26.3254" y="31.8521" width="2.91568" height="3.53911" fill="#451B0B"/>
<rect x="29.2411" y="31.8521" width="2.91568" height="3.53911" fill="#451B0B"/>
<rect x="32.1567" y="31.8521" width="2.91568" height="3.53911" fill="#451B0B"/>
<rect x="35.0725" y="31.8521" width="2.91568" height="3.53911" fill="#451B0B"/>
<rect x="37.988" y="31.8521" width="2.91568" height="3.53911" fill="#451B0B"/>
<rect x="40.9038" y="31.8521" width="2.91568" height="3.53911" fill="#451B0B"/>
<rect x="43.8195" y="31.8521" width="2.91568" height="3.53911" fill="#451B0B"/>
<rect x="46.7351" y="31.8521" width="2.91568" height="3.53911" fill="#451B0B"/>
<rect x="49.6509" y="31.8521" width="2.91568" height="3.53911" fill="#451B0B"/>
<rect x="52.5665" y="31.8521" width="2.91568" height="3.53911" fill="#451B0B"/>
<rect x="55.4822" y="31.8521" width="2.91568" height="3.53911" fill="#451B0B"/>
<rect x="58.3978" y="31.8521" width="2.91568" height="3.53911" fill="#451B0B"/>
<rect x="61.3135" y="31.8521" width="2.91568" height="3.53911" fill="#451B0B"/>
<rect x="64.2291" y="31.8521" width="2.91568" height="3.53911" fill="#451B0B"/>
<rect x="67.1449" y="31.8521" width="2.91568" height="3.53911" fill="#451B0B"/>
<rect x="70.0605" y="31.8521" width="2.91568" height="3.53911" fill="#451B0B"/>
<rect x="72.9762" y="28.313" width="2.91568" height="3.53911" fill="#451B0B"/>
<rect x="75.8918" y="24.7734" width="2.91568" height="3.53911" fill="#451B0B"/>
<rect x="8.8313" y="0.23584" width="2.91568" height="3.53911" fill="#451B0B"/>
<mask id="path-248-outside-1_1051_2048" maskUnits="userSpaceOnUse" x="24" y="14.2344" width="38" height="15" fill="black">
<rect fill="white" x="24" y="14.2344" width="38" height="15"/>
<path d="M31.125 15.9219V17.1094H32.3125V23.0469H31.125V24.2344H26.375V23.0469H25.1875V17.1094H26.375V15.9219H31.125ZM29.9375 17.1094H27.5625V23.0469H29.9375V17.1094ZM41.8125 17.1094V23.0469H40.625V24.2344H37.0625V27.7969H34.6875V15.9219H40.625V17.1094H41.8125ZM39.4375 17.1094H37.0625V23.0469H39.4375V17.1094ZM45.375 17.1094V15.9219H50.125V17.1094H51.3125V20.6719H46.5625V23.0469H50.125V24.2344H45.375V23.0469H44.1875V17.1094H45.375ZM48.9375 17.1094H46.5625V19.4844H48.9375V17.1094ZM60.8125 17.1094V24.2344H58.4375V17.1094H56.0625V24.2344H53.6875V15.9219H59.625V17.1094H60.8125Z"/>
</mask>
<path d="M31.125 15.9219V17.1094H32.3125V23.0469H31.125V24.2344H26.375V23.0469H25.1875V17.1094H26.375V15.9219H31.125ZM29.9375 17.1094H27.5625V23.0469H29.9375V17.1094ZM41.8125 17.1094V23.0469H40.625V24.2344H37.0625V27.7969H34.6875V15.9219H40.625V17.1094H41.8125ZM39.4375 17.1094H37.0625V23.0469H39.4375V17.1094ZM45.375 17.1094V15.9219H50.125V17.1094H51.3125V20.6719H46.5625V23.0469H50.125V24.2344H45.375V23.0469H44.1875V17.1094H45.375ZM48.9375 17.1094H46.5625V19.4844H48.9375V17.1094ZM60.8125 17.1094V24.2344H58.4375V17.1094H56.0625V24.2344H53.6875V15.9219H59.625V17.1094H60.8125Z" fill="black"/>
<path d="M31.125 15.9219H32.125V14.9219H31.125V15.9219ZM31.125 17.1094H30.125V18.1094H31.125V17.1094ZM32.3125 17.1094H33.3125V16.1094H32.3125V17.1094ZM32.3125 23.0469V24.0469H33.3125V23.0469H32.3125ZM31.125 23.0469V22.0469H30.125V23.0469H31.125ZM31.125 24.2344V25.2344H32.125V24.2344H31.125ZM26.375 24.2344H25.375V25.2344H26.375V24.2344ZM26.375 23.0469H27.375V22.0469H26.375V23.0469ZM25.1875 23.0469H24.1875V24.0469H25.1875V23.0469ZM25.1875 17.1094V16.1094H24.1875V17.1094H25.1875ZM26.375 17.1094V18.1094H27.375V17.1094H26.375ZM26.375 15.9219V14.9219H25.375V15.9219H26.375ZM29.9375 17.1094H30.9375V16.1094H29.9375V17.1094ZM27.5625 17.1094V16.1094H26.5625V17.1094H27.5625ZM27.5625 23.0469H26.5625V24.0469H27.5625V23.0469ZM29.9375 23.0469V24.0469H30.9375V23.0469H29.9375ZM30.125 15.9219V17.1094H32.125V15.9219H30.125ZM31.125 18.1094H32.3125V16.1094H31.125V18.1094ZM31.3125 17.1094V23.0469H33.3125V17.1094H31.3125ZM32.3125 22.0469H31.125V24.0469H32.3125V22.0469ZM30.125 23.0469V24.2344H32.125V23.0469H30.125ZM31.125 23.2344H26.375V25.2344H31.125V23.2344ZM27.375 24.2344V23.0469H25.375V24.2344H27.375ZM26.375 22.0469H25.1875V24.0469H26.375V22.0469ZM26.1875 23.0469V17.1094H24.1875V23.0469H26.1875ZM25.1875 18.1094H26.375V16.1094H25.1875V18.1094ZM27.375 17.1094V15.9219H25.375V17.1094H27.375ZM26.375 16.9219H31.125V14.9219H26.375V16.9219ZM29.9375 16.1094H27.5625V18.1094H29.9375V16.1094ZM26.5625 17.1094V23.0469H28.5625V17.1094H26.5625ZM27.5625 24.0469H29.9375V22.0469H27.5625V24.0469ZM30.9375 23.0469V17.1094H28.9375V23.0469H30.9375ZM41.8125 17.1094H42.8125V16.1094H41.8125V17.1094ZM41.8125 23.0469V24.0469H42.8125V23.0469H41.8125ZM40.625 23.0469V22.0469H39.625V23.0469H40.625ZM40.625 24.2344V25.2344H41.625V24.2344H40.625ZM37.0625 24.2344V23.2344H36.0625V24.2344H37.0625ZM37.0625 27.7969V28.7969H38.0625V27.7969H37.0625ZM34.6875 27.7969H33.6875V28.7969H34.6875V27.7969ZM34.6875 15.9219V14.9219H33.6875V15.9219H34.6875ZM40.625 15.9219H41.625V14.9219H40.625V15.9219ZM40.625 17.1094H39.625V18.1094H40.625V17.1094ZM39.4375 17.1094H40.4375V16.1094H39.4375V17.1094ZM37.0625 17.1094V16.1094H36.0625V17.1094H37.0625ZM37.0625 23.0469H36.0625V24.0469H37.0625V23.0469ZM39.4375 23.0469V24.0469H40.4375V23.0469H39.4375ZM40.8125 17.1094V23.0469H42.8125V17.1094H40.8125ZM41.8125 22.0469H40.625V24.0469H41.8125V22.0469ZM39.625 23.0469V24.2344H41.625V23.0469H39.625ZM40.625 23.2344H37.0625V25.2344H40.625V23.2344ZM36.0625 24.2344V27.7969H38.0625V24.2344H36.0625ZM37.0625 26.7969H34.6875V28.7969H37.0625V26.7969ZM35.6875 27.7969V15.9219H33.6875V27.7969H35.6875ZM34.6875 16.9219H40.625V14.9219H34.6875V16.9219ZM39.625 15.9219V17.1094H41.625V15.9219H39.625ZM40.625 18.1094H41.8125V16.1094H40.625V18.1094ZM39.4375 16.1094H37.0625V18.1094H39.4375V16.1094ZM36.0625 17.1094V23.0469H38.0625V17.1094H36.0625ZM37.0625 24.0469H39.4375V22.0469H37.0625V24.0469ZM40.4375 23.0469V17.1094H38.4375V23.0469H40.4375ZM45.375 17.1094V18.1094H46.375V17.1094H45.375ZM45.375 15.9219V14.9219H44.375V15.9219H45.375ZM50.125 15.9219H51.125V14.9219H50.125V15.9219ZM50.125 17.1094H49.125V18.1094H50.125V17.1094ZM51.3125 17.1094H52.3125V16.1094H51.3125V17.1094ZM51.3125 20.6719V21.6719H52.3125V20.6719H51.3125ZM46.5625 20.6719V19.6719H45.5625V20.6719H46.5625ZM46.5625 23.0469H45.5625V24.0469H46.5625V23.0469ZM50.125 23.0469H51.125V22.0469H50.125V23.0469ZM50.125 24.2344V25.2344H51.125V24.2344H50.125ZM45.375 24.2344H44.375V25.2344H45.375V24.2344ZM45.375 23.0469H46.375V22.0469H45.375V23.0469ZM44.1875 23.0469H43.1875V24.0469H44.1875V23.0469ZM44.1875 17.1094V16.1094H43.1875V17.1094H44.1875ZM48.9375 17.1094H49.9375V16.1094H48.9375V17.1094ZM46.5625 17.1094V16.1094H45.5625V17.1094H46.5625ZM46.5625 19.4844H45.5625V20.4844H46.5625V19.4844ZM48.9375 19.4844V20.4844H49.9375V19.4844H48.9375ZM46.375 17.1094V15.9219H44.375V17.1094H46.375ZM45.375 16.9219H50.125V14.9219H45.375V16.9219ZM49.125 15.9219V17.1094H51.125V15.9219H49.125ZM50.125 18.1094H51.3125V16.1094H50.125V18.1094ZM50.3125 17.1094V20.6719H52.3125V17.1094H50.3125ZM51.3125 19.6719H46.5625V21.6719H51.3125V19.6719ZM45.5625 20.6719V23.0469H47.5625V20.6719H45.5625ZM46.5625 24.0469H50.125V22.0469H46.5625V24.0469ZM49.125 23.0469V24.2344H51.125V23.0469H49.125ZM50.125 23.2344H45.375V25.2344H50.125V23.2344ZM46.375 24.2344V23.0469H44.375V24.2344H46.375ZM45.375 22.0469H44.1875V24.0469H45.375V22.0469ZM45.1875 23.0469V17.1094H43.1875V23.0469H45.1875ZM44.1875 18.1094H45.375V16.1094H44.1875V18.1094ZM48.9375 16.1094H46.5625V18.1094H48.9375V16.1094ZM45.5625 17.1094V19.4844H47.5625V17.1094H45.5625ZM46.5625 20.4844H48.9375V18.4844H46.5625V20.4844ZM49.9375 19.4844V17.1094H47.9375V19.4844H49.9375ZM60.8125 17.1094H61.8125V16.1094H60.8125V17.1094ZM60.8125 24.2344V25.2344H61.8125V24.2344H60.8125ZM58.4375 24.2344H57.4375V25.2344H58.4375V24.2344ZM58.4375 17.1094H59.4375V16.1094H58.4375V17.1094ZM56.0625 17.1094V16.1094H55.0625V17.1094H56.0625ZM56.0625 24.2344V25.2344H57.0625V24.2344H56.0625ZM53.6875 24.2344H52.6875V25.2344H53.6875V24.2344ZM53.6875 15.9219V14.9219H52.6875V15.9219H53.6875ZM59.625 15.9219H60.625V14.9219H59.625V15.9219ZM59.625 17.1094H58.625V18.1094H59.625V17.1094ZM59.8125 17.1094V24.2344H61.8125V17.1094H59.8125ZM60.8125 23.2344H58.4375V25.2344H60.8125V23.2344ZM59.4375 24.2344V17.1094H57.4375V24.2344H59.4375ZM58.4375 16.1094H56.0625V18.1094H58.4375V16.1094ZM55.0625 17.1094V24.2344H57.0625V17.1094H55.0625ZM56.0625 23.2344H53.6875V25.2344H56.0625V23.2344ZM54.6875 24.2344V15.9219H52.6875V24.2344H54.6875ZM53.6875 16.9219H59.625V14.9219H53.6875V16.9219ZM58.625 15.9219V17.1094H60.625V15.9219H58.625ZM59.625 18.1094H60.8125V16.1094H59.625V18.1094Z" fill="#FAEAC0" mask="url(#path-248-outside-1_1051_2048)"/>
<g clip-path="url(#clip0_1051_2048)">
<path d="M31 7.9012V7.56787H30.6667V6.9012H30.3333V6.23454H30V5.56787H29.3333V6.23454H29V6.9012H28.6667V7.56787H28.3333V7.9012H26.3333V8.56787H26.6667V8.9012H27V9.23454H27.3333V9.56787H27.6667V10.9012H27.3333V11.5679H27V12.2345H28V11.9012H28.6667V11.5679H29L29.6667 10.9012L30 11.2345L30.3333 11.5679H30.6667V11.9012H31.3333V12.2345H32.3333V11.5679H32V10.9012H31.6667V9.56787H32V9.23454H32.3333V8.9012H32.6667V8.56787H33V7.9012H31Z" fill="#FF004C"/>
</g>
<g clip-path="url(#clip1_1051_2048)">
<path d="M49 7.9012V7.56787H48.6667V6.9012H48.3333V6.23454H48V5.56787H47.3333V6.23454H47V6.9012H46.6667V7.56787H46.3333V7.9012H44.3333V8.56787H44.6667V8.9012H45V9.23454H45.3333V9.56787H45.6667V10.9012H45.3333V11.5679H45V12.2345H46V11.9012H46.6667V11.5679H47L47.6667 10.9012L48 11.2345L48.3333 11.5679H48.6667V11.9012H49.3333V12.2345H50.3333V11.5679H50V10.9012H49.6667V9.56787H50V9.23454H50.3333V8.9012H50.6667V8.56787H51V7.9012H49Z" fill="#FF004C"/>
</g>
<g clip-path="url(#clip2_1051_2048)">
<path d="M57 7.9012V7.56787H56.6667V6.9012H56.3333V6.23454H56V5.56787H55.3333V6.23454H55V6.9012H54.6667V7.56787H54.3333V7.9012H52.3333V8.56787H52.6667V8.9012H53V9.23454H53.3333V9.56787H53.6667V10.9012H53.3333V11.5679H53V12.2345H54V11.9012H54.6667V11.5679H55L55.6667 10.9012L56 11.2345L56.3333 11.5679H56.6667V11.9012H57.3333V12.2345H58.3333V11.5679H58V10.9012H57.6667V9.56787H58V9.23454H58.3333V8.9012H58.6667V8.56787H59V7.9012H57Z" fill="#FF004C"/>
</g>
<rect x="37" y="9.23438" width="4" height="1" fill="black"/>
<defs>
<clipPath id="clip0_1051_2048">
<rect width="8" height="8" fill="white" transform="translate(25 5.23438)"/>
</clipPath>
<clipPath id="clip1_1051_2048">
<rect width="8" height="8" fill="white" transform="translate(43 5.23438)"/>
</clipPath>
<clipPath id="clip2_1051_2048">
<rect width="8" height="8" fill="white" transform="translate(51 5.23438)"/>
</clipPath>
</defs>
</svg>
