<?xml version="1.0" encoding="UTF-8"?>
<svg id="_레이어_2" data-name="레이어 2" xmlns="http://www.w3.org/2000/svg" viewBox="0 0 333.33 333.33">
  <defs>
    <style>
      .cls-1 {
        fill: #f7f8f8;
      }

      .cls-1, .cls-2, .cls-3, .cls-4 {
        stroke-width: 0px;
      }

      .cls-2 {
        fill: #268e3c;
      }

      .cls-3 {
        fill: #231815;
      }

      .cls-4 {
        fill: #9bcf9d;
      }
    </style>
  </defs>
  <g id="_레이어_1-2" data-name="레이어 1">
    <g>
      <rect class="cls-3" x="313.72" y="254.9" width="19.61" height="19.61"/>
      <rect class="cls-3" x="313.72" y="235.29" width="19.61" height="19.61"/>
      <rect class="cls-3" x="313.72" y="215.68" width="19.61" height="19.61"/>
      <rect class="cls-3" x="313.72" y="196.08" width="19.61" height="19.6"/>
      <rect class="cls-3" x="313.72" y="176.47" width="19.61" height="19.61"/>
      <rect class="cls-3" x="313.72" y="156.86" width="19.61" height="19.61"/>
      <rect class="cls-3" x="313.72" y="137.25" width="19.61" height="19.61"/>
      <rect class="cls-3" x="313.72" y="117.64" width="19.61" height="19.61"/>
      <rect class="cls-3" x="313.72" y="98.04" width="19.61" height="19.6"/>
      <rect class="cls-3" x="313.72" y="78.43" width="19.61" height="19.61"/>
      <rect class="cls-3" x="313.72" y="58.82" width="19.61" height="19.61"/>
      <rect class="cls-3" x="313.72" y="39.21" width="19.61" height="19.61"/>
      <rect class="cls-3" x="294.12" y="274.51" width="19.6" height="19.61"/>
      <rect class="cls-2" x="294.12" y="254.9" width="19.6" height="19.61"/>
      <rect class="cls-2" x="294.12" y="235.29" width="19.6" height="19.61"/>
      <rect class="cls-2" x="294.12" y="215.68" width="19.6" height="19.61"/>
      <rect class="cls-2" x="294.12" y="196.08" width="19.6" height="19.6"/>
      <rect class="cls-2" x="294.12" y="176.47" width="19.6" height="19.61"/>
      <rect class="cls-2" x="294.12" y="156.86" width="19.6" height="19.61"/>
      <rect class="cls-2" x="294.12" y="137.25" width="19.6" height="19.61"/>
      <rect class="cls-2" x="294.12" y="117.64" width="19.6" height="19.61"/>
      <rect class="cls-2" x="294.12" y="98.04" width="19.6" height="19.6"/>
      <rect class="cls-2" x="294.12" y="78.43" width="19.6" height="19.61"/>
      <rect class="cls-2" x="294.12" y="58.82" width="19.6" height="19.61"/>
      <rect class="cls-2" x="294.12" y="39.21" width="19.6" height="19.61"/>
      <rect class="cls-3" x="294.12" y="19.61" width="19.6" height="19.6"/>
      <rect class="cls-3" x="274.51" y="294.12" width="19.61" height="19.6"/>
      <rect class="cls-2" x="274.51" y="274.51" width="19.61" height="19.61"/>
      <rect class="cls-4" x="274.51" y="254.9" width="19.61" height="19.61"/>
      <rect class="cls-4" x="274.51" y="235.29" width="19.61" height="19.61"/>
      <rect class="cls-4" x="274.51" y="215.68" width="19.61" height="19.61"/>
      <rect class="cls-4" x="274.51" y="196.08" width="19.61" height="19.6"/>
      <rect class="cls-4" x="274.51" y="176.47" width="19.61" height="19.61"/>
      <rect class="cls-4" x="274.51" y="156.86" width="19.61" height="19.61"/>
      <rect class="cls-4" x="274.51" y="137.25" width="19.61" height="19.61"/>
      <rect class="cls-4" x="274.51" y="117.64" width="19.61" height="19.61"/>
      <rect class="cls-4" x="274.51" y="98.04" width="19.61" height="19.6"/>
      <rect class="cls-4" x="274.51" y="78.43" width="19.61" height="19.61"/>
      <rect class="cls-4" x="274.51" y="58.82" width="19.61" height="19.61"/>
      <rect class="cls-4" x="274.51" y="39.21" width="19.61" height="19.61"/>
      <rect class="cls-2" x="274.51" y="19.61" width="19.61" height="19.6"/>
      <rect class="cls-3" x="274.51" width="19.61" height="19.61"/>
      <rect class="cls-3" x="254.9" y="313.72" width="19.61" height="19.61"/>
      <rect class="cls-2" x="254.9" y="294.12" width="19.61" height="19.6"/>
      <rect class="cls-4" x="254.9" y="274.51" width="19.61" height="19.61"/>
      <rect class="cls-4" x="254.9" y="254.9" width="19.61" height="19.61"/>
      <rect class="cls-4" x="254.9" y="235.29" width="19.61" height="19.61"/>
      <rect class="cls-4" x="254.9" y="215.68" width="19.61" height="19.61"/>
      <rect class="cls-4" x="254.9" y="196.08" width="19.61" height="19.6"/>
      <rect class="cls-4" x="254.9" y="176.47" width="19.61" height="19.61"/>
      <rect class="cls-4" x="254.9" y="156.86" width="19.61" height="19.61"/>
      <rect class="cls-4" x="254.9" y="137.25" width="19.61" height="19.61"/>
      <rect class="cls-4" x="254.9" y="117.64" width="19.61" height="19.61"/>
      <rect class="cls-4" x="254.9" y="98.04" width="19.61" height="19.6"/>
      <rect class="cls-4" x="254.9" y="78.43" width="19.61" height="19.61"/>
      <rect class="cls-4" x="254.9" y="58.82" width="19.61" height="19.61"/>
      <rect class="cls-4" x="254.9" y="39.21" width="19.61" height="19.61"/>
      <rect class="cls-4" x="254.9" y="19.61" width="19.61" height="19.6"/>
      <rect class="cls-2" x="254.9" width="19.61" height="19.61"/>
      <rect class="cls-3" x="235.29" y="313.72" width="19.61" height="19.61"/>
      <rect class="cls-2" x="235.29" y="294.12" width="19.61" height="19.6"/>
      <rect class="cls-4" x="235.29" y="274.51" width="19.61" height="19.61"/>
      <rect class="cls-4" x="235.29" y="254.9" width="19.61" height="19.61"/>
      <rect class="cls-4" x="235.29" y="235.29" width="19.61" height="19.61"/>
      <rect class="cls-4" x="235.29" y="215.68" width="19.61" height="19.61"/>
      <rect class="cls-4" x="235.29" y="196.08" width="19.61" height="19.6"/>
      <rect class="cls-4" x="235.29" y="176.47" width="19.61" height="19.61"/>
      <rect class="cls-4" x="235.29" y="156.86" width="19.61" height="19.61"/>
      <rect class="cls-4" x="235.29" y="137.25" width="19.61" height="19.61"/>
      <rect class="cls-4" x="235.29" y="117.64" width="19.61" height="19.61"/>
      <rect class="cls-4" x="235.29" y="98.04" width="19.61" height="19.6"/>
      <rect class="cls-4" x="235.29" y="78.43" width="19.61" height="19.61"/>
      <rect class="cls-4" x="235.29" y="58.82" width="19.61" height="19.61"/>
      <rect class="cls-4" x="235.29" y="39.21" width="19.61" height="19.61"/>
      <rect class="cls-4" x="235.29" y="19.61" width="19.61" height="19.6"/>
      <rect class="cls-2" x="235.29" width="19.61" height="19.61"/>
      <rect class="cls-3" x="215.68" y="313.72" width="19.61" height="19.61"/>
      <rect class="cls-2" x="215.68" y="294.12" width="19.61" height="19.6"/>
      <rect class="cls-4" x="215.68" y="274.51" width="19.61" height="19.61"/>
      <rect class="cls-4" x="215.68" y="254.9" width="19.61" height="19.61"/>
      <rect class="cls-3" x="215.68" y="235.29" width="19.61" height="19.61"/>
      <rect class="cls-3" x="215.68" y="215.68" width="19.61" height="19.61"/>
      <rect class="cls-4" x="215.68" y="196.08" width="19.61" height="19.6"/>
      <rect class="cls-4" x="215.68" y="176.47" width="19.61" height="19.61"/>
      <rect class="cls-4" x="215.68" y="156.86" width="19.61" height="19.61"/>
      <rect class="cls-4" x="215.68" y="137.25" width="19.61" height="19.61"/>
      <rect class="cls-4" x="215.68" y="117.64" width="19.61" height="19.61"/>
      <rect class="cls-4" x="215.68" y="98.04" width="19.61" height="19.6"/>
      <rect class="cls-4" x="215.68" y="78.43" width="19.61" height="19.61"/>
      <rect class="cls-4" x="215.68" y="58.82" width="19.61" height="19.61"/>
      <rect class="cls-4" x="215.68" y="39.21" width="19.61" height="19.61"/>
      <rect class="cls-4" x="215.68" y="19.61" width="19.61" height="19.6"/>
      <rect class="cls-2" x="215.68" width="19.61" height="19.61"/>
      <rect class="cls-3" x="196.08" y="313.72" width="19.6" height="19.61"/>
      <rect class="cls-2" x="196.08" y="294.12" width="19.6" height="19.6"/>
      <rect class="cls-4" x="196.08" y="274.51" width="19.6" height="19.61"/>
      <rect class="cls-4" x="196.08" y="254.9" width="19.6" height="19.61"/>
      <rect class="cls-3" x="196.08" y="235.29" width="19.6" height="19.61"/>
      <rect class="cls-3" x="196.08" y="215.68" width="19.6" height="19.61"/>
      <rect class="cls-3" x="196.08" y="196.08" width="19.6" height="19.6"/>
      <rect class="cls-4" x="196.08" y="176.47" width="19.6" height="19.61"/>
      <rect class="cls-4" x="196.08" y="156.86" width="19.6" height="19.61"/>
      <rect class="cls-4" x="196.08" y="137.25" width="19.6" height="19.61"/>
      <rect class="cls-4" x="196.08" y="117.64" width="19.6" height="19.61"/>
      <rect class="cls-4" x="196.08" y="98.04" width="19.6" height="19.6"/>
      <rect class="cls-4" x="196.08" y="78.43" width="19.6" height="19.61"/>
      <rect class="cls-4" x="196.08" y="58.82" width="19.6" height="19.61"/>
      <rect class="cls-4" x="196.08" y="39.21" width="19.6" height="19.61"/>
      <rect class="cls-4" x="196.08" y="19.61" width="19.6" height="19.6"/>
      <rect class="cls-2" x="196.08" width="19.6" height="19.61"/>
      <rect class="cls-3" x="176.47" y="313.72" width="19.61" height="19.61"/>
      <rect class="cls-2" x="176.47" y="294.12" width="19.61" height="19.6"/>
      <rect class="cls-4" x="176.47" y="274.51" width="19.61" height="19.61"/>
      <rect class="cls-4" x="176.47" y="254.9" width="19.61" height="19.61"/>
      <rect class="cls-4" x="176.47" y="235.29" width="19.61" height="19.61"/>
      <rect class="cls-3" x="176.47" y="215.68" width="19.61" height="19.61"/>
      <rect class="cls-3" x="176.47" y="196.08" width="19.61" height="19.6"/>
      <rect class="cls-3" x="176.47" y="176.47" width="19.61" height="19.61"/>
      <rect class="cls-4" x="176.47" y="156.86" width="19.61" height="19.61"/>
      <rect class="cls-3" x="176.47" y="137.25" width="19.61" height="19.61"/>
      <rect class="cls-3" x="176.47" y="117.64" width="19.61" height="19.61"/>
      <rect class="cls-3" x="176.47" y="98.04" width="19.61" height="19.6"/>
      <rect class="cls-3" x="176.47" y="78.43" width="19.61" height="19.61"/>
      <rect class="cls-4" x="176.47" y="58.82" width="19.61" height="19.61"/>
      <rect class="cls-4" x="176.47" y="39.21" width="19.61" height="19.61"/>
      <rect class="cls-4" x="176.47" y="19.61" width="19.61" height="19.6"/>
      <rect class="cls-2" x="176.47" width="19.61" height="19.61"/>
      <rect class="cls-3" x="156.86" y="313.72" width="19.61" height="19.61"/>
      <rect class="cls-2" x="156.86" y="294.12" width="19.61" height="19.6"/>
      <rect class="cls-4" x="156.86" y="274.51" width="19.61" height="19.61"/>
      <rect class="cls-4" x="156.86" y="254.9" width="19.61" height="19.61"/>
      <rect class="cls-4" x="156.86" y="235.29" width="19.61" height="19.61"/>
      <rect class="cls-4" x="156.86" y="215.68" width="19.61" height="19.61"/>
      <rect class="cls-3" x="156.86" y="196.08" width="19.61" height="19.6"/>
      <rect class="cls-3" x="156.86" y="176.47" width="19.61" height="19.61"/>
      <rect class="cls-3" x="156.86" y="156.86" width="19.61" height="19.61"/>
      <rect class="cls-1" x="156.86" y="137.25" width="19.61" height="19.61"/>
      <rect class="cls-1" x="156.86" y="117.64" width="19.61" height="19.61"/>
      <rect class="cls-1" x="156.86" y="98.04" width="19.61" height="19.6"/>
      <rect class="cls-1" x="156.86" y="78.43" width="19.61" height="19.61"/>
      <rect class="cls-3" x="156.86" y="58.82" width="19.61" height="19.61"/>
      <rect class="cls-4" x="156.86" y="39.21" width="19.61" height="19.61"/>
      <rect class="cls-4" x="156.86" y="19.61" width="19.61" height="19.6"/>
      <rect class="cls-2" x="156.86" width="19.61" height="19.61"/>
      <rect class="cls-3" x="137.25" y="313.72" width="19.61" height="19.61"/>
      <rect class="cls-2" x="137.25" y="294.12" width="19.61" height="19.6"/>
      <rect class="cls-4" x="137.25" y="274.51" width="19.61" height="19.61"/>
      <rect class="cls-4" x="137.25" y="254.9" width="19.61" height="19.61"/>
      <rect class="cls-4" x="137.25" y="235.29" width="19.61" height="19.61"/>
      <rect class="cls-4" x="137.25" y="215.68" width="19.61" height="19.61"/>
      <rect class="cls-4" x="137.25" y="196.08" width="19.61" height="19.6"/>
      <rect class="cls-3" x="137.25" y="176.47" width="19.61" height="19.61"/>
      <rect class="cls-1" x="137.25" y="156.86" width="19.61" height="19.61"/>
      <rect class="cls-1" x="137.25" y="137.25" width="19.61" height="19.61"/>
      <rect class="cls-1" x="137.25" y="117.64" width="19.61" height="19.61"/>
      <rect class="cls-3" x="137.25" y="98.04" width="19.61" height="19.6"/>
      <rect class="cls-3" x="137.25" y="78.43" width="19.61" height="19.61"/>
      <rect class="cls-1" x="137.25" y="58.82" width="19.61" height="19.61"/>
      <rect class="cls-3" x="137.25" y="39.21" width="19.61" height="19.61"/>
      <rect class="cls-4" x="137.25" y="19.61" width="19.61" height="19.6"/>
      <rect class="cls-2" x="137.25" width="19.61" height="19.61"/>
      <rect class="cls-3" x="117.64" y="313.72" width="19.61" height="19.61"/>
      <rect class="cls-2" x="117.64" y="294.12" width="19.61" height="19.6"/>
      <rect class="cls-4" x="117.64" y="274.51" width="19.61" height="19.61"/>
      <rect class="cls-4" x="117.64" y="254.9" width="19.61" height="19.61"/>
      <rect class="cls-4" x="117.64" y="235.29" width="19.61" height="19.61"/>
      <rect class="cls-4" x="117.64" y="215.68" width="19.61" height="19.61"/>
      <rect class="cls-4" x="117.64" y="196.08" width="19.61" height="19.6"/>
      <rect class="cls-3" x="117.64" y="176.47" width="19.61" height="19.61"/>
      <rect class="cls-1" x="117.64" y="156.86" width="19.61" height="19.61"/>
      <rect class="cls-1" x="117.64" y="137.25" width="19.61" height="19.61"/>
      <rect class="cls-1" x="117.64" y="117.64" width="19.61" height="19.61"/>
      <rect class="cls-1" x="117.64" y="98.04" width="19.61" height="19.6"/>
      <rect class="cls-3" x="117.64" y="78.43" width="19.61" height="19.61"/>
      <rect class="cls-1" x="117.64" y="58.82" width="19.61" height="19.61"/>
      <rect class="cls-3" x="117.64" y="39.21" width="19.61" height="19.61"/>
      <rect class="cls-4" x="117.64" y="19.61" width="19.61" height="19.6"/>
      <rect class="cls-2" x="117.64" width="19.61" height="19.61"/>
      <rect class="cls-3" x="98.04" y="313.72" width="19.6" height="19.61"/>
      <rect class="cls-2" x="98.04" y="294.12" width="19.6" height="19.6"/>
      <rect class="cls-4" x="98.04" y="274.51" width="19.6" height="19.61"/>
      <rect class="cls-4" x="98.04" y="254.9" width="19.6" height="19.61"/>
      <rect class="cls-4" x="98.04" y="235.29" width="19.6" height="19.61"/>
      <rect class="cls-4" x="98.04" y="215.68" width="19.6" height="19.61"/>
      <rect class="cls-4" x="98.04" y="196.08" width="19.6" height="19.6"/>
      <rect class="cls-3" x="98.04" y="176.47" width="19.6" height="19.61"/>
      <rect class="cls-1" x="98.04" y="156.86" width="19.6" height="19.61"/>
      <rect class="cls-1" x="98.04" y="137.25" width="19.6" height="19.61"/>
      <rect class="cls-1" x="98.04" y="117.64" width="19.6" height="19.61"/>
      <rect class="cls-1" x="98.04" y="98.04" width="19.6" height="19.6"/>
      <rect class="cls-1" x="98.04" y="78.43" width="19.6" height="19.61"/>
      <rect class="cls-1" x="98.04" y="58.82" width="19.6" height="19.61"/>
      <rect class="cls-3" x="98.04" y="39.21" width="19.6" height="19.61"/>
      <rect class="cls-4" x="98.04" y="19.61" width="19.6" height="19.6"/>
      <rect class="cls-2" x="98.04" width="19.6" height="19.61"/>
      <rect class="cls-3" x="78.43" y="313.72" width="19.61" height="19.61"/>
      <rect class="cls-2" x="78.43" y="294.12" width="19.61" height="19.6"/>
      <rect class="cls-4" x="78.43" y="274.51" width="19.61" height="19.61"/>
      <rect class="cls-4" x="78.43" y="254.9" width="19.61" height="19.61"/>
      <rect class="cls-4" x="78.43" y="235.29" width="19.61" height="19.61"/>
      <rect class="cls-4" x="78.43" y="215.68" width="19.61" height="19.61"/>
      <rect class="cls-4" x="78.43" y="196.08" width="19.61" height="19.6"/>
      <rect class="cls-3" x="78.43" y="176.47" width="19.61" height="19.61"/>
      <rect class="cls-1" x="78.43" y="156.86" width="19.61" height="19.61"/>
      <rect class="cls-1" x="78.43" y="137.25" width="19.61" height="19.61"/>
      <rect class="cls-1" x="78.43" y="117.64" width="19.61" height="19.61"/>
      <rect class="cls-1" x="78.43" y="98.04" width="19.61" height="19.6"/>
      <rect class="cls-1" x="78.43" y="78.43" width="19.61" height="19.61"/>
      <rect class="cls-1" x="78.43" y="58.82" width="19.61" height="19.61"/>
      <rect class="cls-3" x="78.43" y="39.21" width="19.61" height="19.61"/>
      <rect class="cls-4" x="78.43" y="19.61" width="19.61" height="19.6"/>
      <rect class="cls-2" x="78.43" width="19.61" height="19.61"/>
      <rect class="cls-3" x="58.82" y="313.72" width="19.61" height="19.61"/>
      <rect class="cls-2" x="58.82" y="294.12" width="19.61" height="19.6"/>
      <rect class="cls-4" x="58.82" y="274.51" width="19.61" height="19.61"/>
      <rect class="cls-4" x="58.82" y="254.9" width="19.61" height="19.61"/>
      <rect class="cls-4" x="58.82" y="235.29" width="19.61" height="19.61"/>
      <rect class="cls-4" x="58.82" y="215.68" width="19.61" height="19.61"/>
      <rect class="cls-4" x="58.82" y="196.08" width="19.61" height="19.6"/>
      <rect class="cls-4" x="58.82" y="176.47" width="19.61" height="19.61"/>
      <rect class="cls-3" x="58.82" y="156.86" width="19.61" height="19.61"/>
      <rect class="cls-1" x="58.82" y="137.25" width="19.61" height="19.61"/>
      <rect class="cls-1" x="58.82" y="117.64" width="19.61" height="19.61"/>
      <rect class="cls-1" x="58.82" y="98.04" width="19.61" height="19.6"/>
      <rect class="cls-1" x="58.82" y="78.43" width="19.61" height="19.61"/>
      <rect class="cls-3" x="58.82" y="58.82" width="19.61" height="19.61"/>
      <rect class="cls-4" x="58.82" y="39.21" width="19.61" height="19.61"/>
      <rect class="cls-4" x="58.82" y="19.61" width="19.61" height="19.6"/>
      <rect class="cls-2" x="58.82" width="19.61" height="19.61"/>
      <rect class="cls-3" x="39.21" y="313.72" width="19.61" height="19.61"/>
      <rect class="cls-2" x="39.21" y="294.12" width="19.61" height="19.6"/>
      <rect class="cls-4" x="39.21" y="274.51" width="19.61" height="19.61"/>
      <rect class="cls-4" x="39.21" y="254.9" width="19.61" height="19.61"/>
      <rect class="cls-4" x="39.21" y="235.29" width="19.61" height="19.61"/>
      <rect class="cls-4" x="39.21" y="215.68" width="19.61" height="19.61"/>
      <rect class="cls-4" x="39.21" y="196.08" width="19.61" height="19.6"/>
      <rect class="cls-4" x="39.21" y="176.47" width="19.61" height="19.61"/>
      <rect class="cls-4" x="39.21" y="156.86" width="19.61" height="19.61"/>
      <rect class="cls-3" x="39.21" y="137.25" width="19.61" height="19.61"/>
      <rect class="cls-3" x="39.21" y="117.64" width="19.61" height="19.61"/>
      <rect class="cls-3" x="39.21" y="98.04" width="19.61" height="19.6"/>
      <rect class="cls-3" x="39.21" y="78.43" width="19.61" height="19.61"/>
      <rect class="cls-4" x="39.21" y="58.82" width="19.61" height="19.61"/>
      <rect class="cls-4" x="39.21" y="39.21" width="19.61" height="19.61"/>
      <rect class="cls-4" x="39.21" y="19.61" width="19.61" height="19.6"/>
      <rect class="cls-2" x="39.21" width="19.61" height="19.61"/>
      <rect class="cls-2" x="19.61" y="274.51" width="19.6" height="19.61"/>
      <rect class="cls-4" x="19.61" y="254.9" width="19.6" height="19.61"/>
      <rect class="cls-4" x="19.61" y="235.29" width="19.6" height="19.61"/>
      <rect class="cls-4" x="19.61" y="215.68" width="19.6" height="19.61"/>
      <rect class="cls-4" x="19.61" y="196.08" width="19.6" height="19.6"/>
      <rect class="cls-4" x="19.61" y="176.47" width="19.6" height="19.61"/>
      <rect class="cls-4" x="19.61" y="156.86" width="19.6" height="19.61"/>
      <rect class="cls-4" x="19.61" y="137.25" width="19.6" height="19.61"/>
      <rect class="cls-4" x="19.61" y="117.64" width="19.6" height="19.61"/>
      <rect class="cls-4" x="19.61" y="98.04" width="19.6" height="19.6"/>
      <rect class="cls-4" x="19.61" y="78.43" width="19.6" height="19.61"/>
      <rect class="cls-4" x="19.61" y="58.82" width="19.6" height="19.61"/>
      <rect class="cls-4" x="19.61" y="39.21" width="19.6" height="19.61"/>
      <rect class="cls-2" x="19.61" y="19.61" width="19.6" height="19.6"/>
      <rect class="cls-2" y="254.9" width="19.61" height="19.61"/>
      <rect class="cls-2" y="235.29" width="19.61" height="19.61"/>
      <rect class="cls-2" y="215.68" width="19.61" height="19.61"/>
      <rect class="cls-2" y="196.08" width="19.61" height="19.6"/>
      <rect class="cls-2" y="176.47" width="19.61" height="19.61"/>
      <rect class="cls-2" y="156.86" width="19.61" height="19.61"/>
      <rect class="cls-2" y="137.25" width="19.61" height="19.61"/>
      <rect class="cls-2" y="117.64" width="19.61" height="19.61"/>
      <rect class="cls-2" y="98.04" width="19.61" height="19.6"/>
      <rect class="cls-2" y="78.43" width="19.61" height="19.61"/>
      <rect class="cls-2" y="58.82" width="19.61" height="19.61"/>
      <rect class="cls-2" y="39.21" width="19.61" height="19.61"/>
    </g>
  </g>
</svg>