<svg width="64" height="26" viewBox="0 0 64 26" fill="none" xmlns="http://www.w3.org/2000/svg">
<rect x="17.1692" y="20.8003" width="2.45276" height="2.59994" fill="#787878"/>
<rect x="19.6221" y="20.8003" width="2.45276" height="2.59994" fill="#787878"/>
<rect x="22.0748" y="20.8003" width="2.45276" height="2.59994" fill="#787878"/>
<rect x="24.5275" y="20.8003" width="2.45276" height="2.59994" fill="#787878"/>
<rect x="26.9804" y="20.8003" width="2.45276" height="2.59994" fill="#787878"/>
<rect x="29.433" y="20.8003" width="2.45276" height="2.59994" fill="#787878"/>
<rect x="31.8858" y="20.8003" width="2.45276" height="2.59994" fill="#787878"/>
<rect x="34.3386" y="20.8003" width="2.45276" height="2.59994" fill="#787878"/>
<rect x="36.7913" y="20.8003" width="2.45276" height="2.59994" fill="#787878"/>
<rect x="39.2441" y="20.8003" width="2.45276" height="2.59994" fill="#787878"/>
<rect x="41.6969" y="20.8003" width="2.45276" height="2.59994" fill="#787878"/>
<rect x="44.1496" y="20.8003" width="2.45276" height="2.59994" fill="#787878"/>
<rect x="46.6024" y="20.8003" width="2.45276" height="2.59994" fill="#787878"/>
<rect x="49.0551" y="20.8003" width="2.45276" height="2.59994" fill="#787878"/>
<rect x="51.5078" y="20.8003" width="2.45276" height="2.59994" fill="#787878"/>
<rect x="53.9606" y="20.8003" width="2.45276" height="2.59994" fill="#787878"/>
<rect x="56.4134" y="20.8003" width="2.45276" height="2.59994" fill="#787878"/>
<rect x="58.8661" y="18.1997" width="2.45276" height="2.59994" fill="#787878"/>
<rect x="61.3188" y="15.5991" width="2.45276" height="2.59994" fill="#787878"/>
<rect x="61.3188" y="13" width="2.45276" height="2.59994" fill="#787878"/>
<rect x="61.3188" y="10.3994" width="2.45276" height="2.59994" fill="#787878"/>
<rect x="61.3188" y="7.79932" width="2.45276" height="2.59994" fill="#787878"/>
<rect x="61.3188" y="5.19971" width="2.45276" height="2.59994" fill="#787878"/>
<rect x="58.8661" y="2.59912" width="2.45276" height="2.59994" fill="#787878"/>
<rect x="2.45274" y="5.19971" width="2.45276" height="2.59994" fill="#787878"/>
<path d="M2.45274 7.79932H4.9055V10.3993H2.45274V7.79932Z" fill="#787878"/>
<path d="M2.45274 10.3993H4.9055V12.9992H2.45274V10.3993Z" fill="#787878"/>
<path d="M2.45274 12.9992H4.9055V15.5991H2.45274V12.9992Z" fill="#787878"/>
<path d="M2.45274 15.5991H4.9055V18.1991H2.45274V15.5991Z" fill="#787878"/>
<rect x="4.90548" y="2.59912" width="2.45276" height="2.59994" fill="#787878"/>
<path d="M7.3582 0H9.81096V2.59994H7.3582V0Z" fill="#787878"/>
<rect x="9.81104" width="2.45276" height="2.59994" fill="#787878"/>
<rect x="9.81102" y="20.8003" width="2.45276" height="2.59994" fill="#787878"/>
<rect x="12.2638" y="20.8003" width="2.45276" height="2.59994" fill="#787878"/>
<rect x="7.35818" y="20.8003" width="2.45276" height="2.59994" fill="#787878"/>
<rect x="4.90548" y="18.1997" width="2.45276" height="2.59994" fill="#787878"/>
<rect x="14.7166" y="20.8003" width="2.45276" height="2.59994" fill="#787878"/>
<rect x="17.1692" width="2.45276" height="2.59994" fill="#787878"/>
<rect x="19.6221" width="2.45276" height="2.59994" fill="#787878"/>
<rect x="22.0748" width="2.45276" height="2.59994" fill="#787878"/>
<rect x="24.5275" width="2.45276" height="2.59994" fill="#787878"/>
<rect x="26.9804" width="2.45276" height="2.59994" fill="#787878"/>
<rect x="29.433" width="2.45276" height="2.59994" fill="#787878"/>
<rect x="31.8858" width="2.45276" height="2.59994" fill="#787878"/>
<rect x="34.3386" width="2.45276" height="2.59994" fill="#787878"/>
<rect x="36.7913" width="2.45276" height="2.59994" fill="#787878"/>
<rect x="39.2441" width="2.45276" height="2.59994" fill="#787878"/>
<rect x="41.6969" width="2.45276" height="2.59994" fill="#787878"/>
<rect x="44.1496" width="2.45276" height="2.59994" fill="#787878"/>
<rect x="46.6024" width="2.45276" height="2.59994" fill="#787878"/>
<rect x="49.0551" width="2.45276" height="2.59994" fill="#787878"/>
<rect x="51.5078" width="2.45276" height="2.59994" fill="#787878"/>
<rect x="53.9607" width="2.45276" height="2.59994" fill="#787878"/>
<rect x="56.4134" width="2.45276" height="2.59994" fill="#787878"/>
<rect x="14.7166" width="2.45276" height="2.59994" fill="#787878"/>
<rect x="12.2638" width="2.45276" height="2.59994" fill="#787878"/>
<rect x="12.2638" y="7.79932" width="2.45276" height="2.59994" fill="white"/>
<rect x="14.7166" y="7.79932" width="2.45276" height="2.59994" fill="white"/>
<rect x="14.7166" y="5.19971" width="2.45276" height="2.59994" fill="white"/>
<rect x="12.2638" y="5.19971" width="2.45276" height="2.59994" fill="white"/>
<rect x="31.8858" y="7.79932" width="2.45276" height="2.59994" fill="white"/>
<rect x="31.8858" y="10.3994" width="2.45276" height="2.59994" fill="white"/>
<rect x="31.8858" y="15.5991" width="2.45276" height="2.59994" fill="white"/>
<rect x="7.35818" y="2.59912" width="2.45276" height="2.59994" fill="white"/>
<rect x="7.35818" y="18.1997" width="2.45276" height="2.59994" fill="white"/>
<rect x="7.35818" y="15.5991" width="2.45276" height="2.59994" fill="white"/>
<rect x="7.35818" y="13" width="2.45276" height="2.59994" fill="white"/>
<rect x="9.81102" y="13" width="2.45276" height="2.59994" fill="white"/>
<rect x="7.35818" y="10.3994" width="2.45276" height="2.59994" fill="white"/>
<rect x="7.35818" y="7.79932" width="2.45276" height="2.59994" fill="white"/>
<rect x="7.35818" y="5.19971" width="2.45276" height="2.59994" fill="white"/>
<rect x="4.90548" y="15.5991" width="2.45276" height="2.59994" fill="white"/>
<rect x="4.90548" y="13" width="2.45276" height="2.59994" fill="white"/>
<rect x="4.90548" y="10.3994" width="2.45276" height="2.59994" fill="white"/>
<rect x="4.90548" y="7.79932" width="2.45276" height="2.59994" fill="white"/>
<rect x="9.81102" y="5.19971" width="2.45276" height="2.59994" fill="white"/>
<rect x="9.81102" y="7.79932" width="2.45276" height="2.59994" fill="white"/>
<rect x="9.81102" y="10.3994" width="2.45276" height="2.59994" fill="white"/>
<rect x="12.2638" y="10.3994" width="2.45276" height="2.59994" fill="white"/>
<rect x="14.7166" y="10.3994" width="2.45276" height="2.59994" fill="white"/>
<rect x="14.7166" y="13" width="2.45276" height="2.59994" fill="white"/>
<rect x="14.7166" y="15.5991" width="2.45276" height="2.59994" fill="white"/>
<rect x="12.2638" y="15.5991" width="2.45276" height="2.59994" fill="white"/>
<rect x="9.81102" y="15.5991" width="2.45276" height="2.59994" fill="white"/>
<rect x="4.90548" y="5.19971" width="2.45276" height="2.59994" fill="white"/>
<rect x="56.4134" y="15.5991" width="2.45276" height="2.59994" fill="white"/>
<rect x="56.4134" y="13" width="2.45276" height="2.59994" fill="white"/>
<rect x="56.4134" y="10.3994" width="2.45276" height="2.59994" fill="white"/>
<rect x="56.4134" y="7.79932" width="2.45276" height="2.59994" fill="white"/>
<rect x="53.9606" y="15.5991" width="2.45276" height="2.59994" fill="white"/>
<rect x="53.9606" y="13" width="2.45276" height="2.59994" fill="white"/>
<rect x="51.5078" y="10.3994" width="2.45276" height="2.59994" fill="white"/>
<rect x="51.5078" y="13" width="2.45276" height="2.59994" fill="white"/>
<rect x="53.9606" y="10.3994" width="2.45276" height="2.59994" fill="white"/>
<rect x="53.9606" y="5.19971" width="2.45276" height="2.59994" fill="white"/>
<rect x="53.9606" y="7.79932" width="2.45276" height="2.59994" fill="white"/>
<rect x="49.0551" y="15.5991" width="2.45276" height="2.59994" fill="white"/>
<rect x="49.0551" y="13" width="2.45276" height="2.59994" fill="white"/>
<rect x="51.5078" y="15.5991" width="2.45276" height="2.59994" fill="white"/>
<rect x="49.0551" y="10.3994" width="2.45276" height="2.59994" fill="white"/>
<rect x="49.0551" y="7.79932" width="2.45276" height="2.59994" fill="white"/>
<rect x="51.5078" y="5.19971" width="2.45276" height="2.59994" fill="white"/>
<rect x="51.5078" y="7.79932" width="2.45276" height="2.59994" fill="white"/>
<rect x="24.5275" y="15.5991" width="2.45276" height="2.59994" fill="white"/>
<rect x="22.0748" y="15.5991" width="2.45276" height="2.59994" fill="white"/>
<rect x="24.5275" y="13" width="2.45276" height="2.59994" fill="white"/>
<rect x="22.0748" y="13" width="2.45276" height="2.59994" fill="white"/>
<rect x="24.5275" y="10.3994" width="2.45276" height="2.59994" fill="white"/>
<rect x="22.0748" y="10.3994" width="2.45276" height="2.59994" fill="white"/>
<rect x="24.5275" y="7.79932" width="2.45276" height="2.59994" fill="white"/>
<rect x="22.0748" y="7.79932" width="2.45276" height="2.59994" fill="white"/>
<rect x="24.5275" y="5.19971" width="2.45276" height="2.59994" fill="white"/>
<rect x="19.6221" y="15.5991" width="2.45276" height="2.59994" fill="white"/>
<rect x="19.6221" y="13" width="2.45276" height="2.59994" fill="white"/>
<rect x="19.6221" y="10.3994" width="2.45276" height="2.59994" fill="white"/>
<rect x="19.6221" y="7.79932" width="2.45276" height="2.59994" fill="white"/>
<rect x="22.0748" y="5.19971" width="2.45276" height="2.59994" fill="white"/>
<rect x="19.6221" y="5.19971" width="2.45276" height="2.59994" fill="white"/>
<rect x="56.4134" y="5.19971" width="2.45276" height="2.59994" fill="white"/>
<rect x="17.1692" y="15.5991" width="2.45276" height="2.59994" fill="white"/>
<rect x="17.1692" y="13" width="2.45276" height="2.59994" fill="white"/>
<rect x="17.1692" y="10.3994" width="2.45276" height="2.59994" fill="white"/>
<rect x="17.1692" y="7.79932" width="2.45276" height="2.59994" fill="white"/>
<rect x="17.1692" y="5.19971" width="2.45276" height="2.59994" fill="white"/>
<rect x="26.9804" y="15.5991" width="2.45276" height="2.59994" fill="white"/>
<rect x="29.433" y="15.5991" width="2.45276" height="2.59994" fill="white"/>
<rect x="26.9804" y="13" width="2.45276" height="2.59994" fill="white"/>
<rect x="29.433" y="13" width="2.45276" height="2.59994" fill="white"/>
<rect x="26.9804" y="10.3994" width="2.45276" height="2.59994" fill="white"/>
<rect x="29.433" y="10.3994" width="2.45276" height="2.59994" fill="white"/>
<rect x="26.9804" y="7.79932" width="2.45276" height="2.59994" fill="white"/>
<rect x="29.433" y="7.79932" width="2.45276" height="2.59994" fill="white"/>
<rect x="26.9804" y="5.19971" width="2.45276" height="2.59994" fill="white"/>
<rect x="31.8858" y="5.19971" width="2.45276" height="2.59994" fill="white"/>
<rect x="34.3386" y="5.19971" width="2.45276" height="2.59994" fill="white"/>
<rect x="34.3386" y="7.79932" width="2.45276" height="2.59994" fill="white"/>
<rect x="34.3386" y="10.3994" width="2.45276" height="2.59994" fill="white"/>
<rect x="34.3386" y="13" width="2.45276" height="2.59994" fill="white"/>
<rect x="44.1496" y="15.5991" width="2.45276" height="2.59994" fill="white"/>
<rect x="34.3386" y="15.5991" width="2.45276" height="2.59994" fill="white"/>
<rect x="31.8858" y="13" width="2.45276" height="2.59994" fill="white"/>
<rect x="29.433" y="5.19971" width="2.45276" height="2.59994" fill="white"/>
<rect x="36.7913" y="15.5991" width="2.45276" height="2.59994" fill="white"/>
<rect x="36.7913" y="13" width="2.45276" height="2.59994" fill="white"/>
<rect x="36.7913" y="10.3994" width="2.45276" height="2.59994" fill="white"/>
<rect x="36.7913" y="7.79932" width="2.45276" height="2.59994" fill="white"/>
<rect x="39.2441" y="7.79932" width="2.45276" height="2.59994" fill="white"/>
<rect x="39.2441" y="10.3994" width="2.45276" height="2.59994" fill="white"/>
<rect x="39.2441" y="13" width="2.45276" height="2.59994" fill="white"/>
<rect x="39.2441" y="15.5991" width="2.45276" height="2.59994" fill="white"/>
<rect x="39.2441" y="5.19971" width="2.45276" height="2.59994" fill="white"/>
<rect x="41.6969" y="5.19971" width="2.45276" height="2.59994" fill="white"/>
<rect x="44.1496" y="5.19971" width="2.45276" height="2.59994" fill="white"/>
<rect x="44.1496" y="7.79932" width="2.45276" height="2.59994" fill="white"/>
<rect x="44.1496" y="13" width="2.45276" height="2.59994" fill="white"/>
<rect x="49.0551" y="5.19971" width="2.45276" height="2.59994" fill="white"/>
<rect x="41.6969" y="10.3994" width="2.45276" height="2.59994" fill="white"/>
<rect x="36.7913" y="5.19971" width="2.45276" height="2.59994" fill="white"/>
<rect x="41.6969" y="7.79932" width="2.45276" height="2.59994" fill="white"/>
<rect x="41.6969" y="13" width="2.45276" height="2.59994" fill="white"/>
<rect x="41.6969" y="15.5991" width="2.45276" height="2.59994" fill="white"/>
<rect x="46.6024" y="15.5991" width="2.45276" height="2.59994" fill="white"/>
<rect x="44.1496" y="10.3994" width="2.45276" height="2.59994" fill="white"/>
<rect x="46.6024" y="10.3994" width="2.45276" height="2.59994" fill="white"/>
<rect x="46.6024" y="13" width="2.45276" height="2.59994" fill="white"/>
<rect x="46.6024" y="7.79932" width="2.45276" height="2.59994" fill="white"/>
<rect x="46.6024" y="5.19971" width="2.45276" height="2.59994" fill="white"/>
<rect x="58.8661" y="15.5991" width="2.45276" height="2.59994" fill="white"/>
<rect x="58.8661" y="13" width="2.45276" height="2.59994" fill="white"/>
<rect x="58.8661" y="10.3994" width="2.45276" height="2.59994" fill="white"/>
<rect x="58.8661" y="7.79932" width="2.45276" height="2.59994" fill="white"/>
<rect x="58.8661" y="5.19971" width="2.45276" height="2.59994" fill="white"/>
<rect x="12.2638" y="13" width="2.45276" height="2.59994" fill="white"/>
<rect x="9.81102" y="2.59912" width="2.45276" height="2.59994" fill="white"/>
<rect x="12.2638" y="2.59912" width="2.45276" height="2.59994" fill="white"/>
<rect x="14.7166" y="2.59912" width="2.45276" height="2.59994" fill="white"/>
<rect x="17.1692" y="2.59912" width="2.45276" height="2.59994" fill="white"/>
<rect x="19.6221" y="2.59912" width="2.45276" height="2.59994" fill="white"/>
<rect x="22.0748" y="2.59912" width="2.45276" height="2.59994" fill="white"/>
<rect x="24.5275" y="2.59912" width="2.45276" height="2.59994" fill="white"/>
<rect x="26.9804" y="2.59912" width="2.45276" height="2.59994" fill="white"/>
<rect x="29.433" y="2.59912" width="2.45276" height="2.59994" fill="white"/>
<rect x="31.8858" y="2.59912" width="2.45276" height="2.59994" fill="white"/>
<rect x="34.3386" y="2.59912" width="2.45276" height="2.59994" fill="white"/>
<rect x="34.3386" y="2.59912" width="2.45276" height="2.59994" fill="white"/>
<rect x="36.7913" y="2.59912" width="2.45276" height="2.59994" fill="white"/>
<rect x="39.2441" y="2.59912" width="2.45276" height="2.59994" fill="white"/>
<rect x="41.6969" y="2.59912" width="2.45276" height="2.59994" fill="white"/>
<rect x="44.1496" y="2.59912" width="2.45276" height="2.59994" fill="white"/>
<rect x="46.6024" y="2.59912" width="2.45276" height="2.59994" fill="white"/>
<rect x="49.0551" y="2.59912" width="2.45276" height="2.59994" fill="white"/>
<rect x="51.5078" y="2.59912" width="2.45276" height="2.59994" fill="white"/>
<rect x="53.9606" y="2.59912" width="2.45276" height="2.59994" fill="white"/>
<rect x="56.4134" y="2.59912" width="2.45276" height="2.59994" fill="white"/>
<rect x="9.81102" y="18.1997" width="2.45276" height="2.59994" fill="white"/>
<rect x="12.2638" y="18.1997" width="2.45276" height="2.59994" fill="white"/>
<rect x="14.7166" y="18.1997" width="2.45276" height="2.59994" fill="white"/>
<rect x="17.1692" y="18.1997" width="2.45276" height="2.59994" fill="white"/>
<rect x="19.6221" y="18.1997" width="2.45276" height="2.59994" fill="white"/>
<rect x="22.0748" y="18.1997" width="2.45276" height="2.59994" fill="white"/>
<rect x="24.5275" y="18.1997" width="2.45276" height="2.59994" fill="white"/>
<rect x="26.9804" y="18.1997" width="2.45276" height="2.59994" fill="white"/>
<rect x="29.433" y="18.1997" width="2.45276" height="2.59994" fill="white"/>
<rect x="31.8858" y="18.1997" width="2.45276" height="2.59994" fill="white"/>
<rect x="34.3386" y="18.1997" width="2.45276" height="2.59994" fill="white"/>
<rect x="34.3386" y="18.1997" width="2.45276" height="2.59994" fill="white"/>
<rect x="36.7913" y="18.1997" width="2.45276" height="2.59994" fill="white"/>
<rect x="39.2441" y="18.1997" width="2.45276" height="2.59994" fill="white"/>
<rect x="41.6969" y="18.1997" width="2.45276" height="2.59994" fill="white"/>
<rect x="44.1496" y="18.1997" width="2.45276" height="2.59994" fill="white"/>
<rect x="46.6024" y="18.1997" width="2.45276" height="2.59994" fill="white"/>
<rect x="49.0551" y="18.1997" width="2.45276" height="2.59994" fill="white"/>
<rect x="51.5078" y="18.1997" width="2.45276" height="2.59994" fill="white"/>
<rect x="53.9606" y="18.1997" width="2.45276" height="2.59994" fill="white"/>
<rect x="56.4134" y="18.1997" width="2.45276" height="2.59994" fill="white"/>
<rect x="2.45274" y="2.77295" width="2.45276" height="2.59994" fill="#9D9D9D"/>
<rect y="5.37305" width="2.45276" height="2.59994" fill="#9D9D9D"/>
<rect y="7.97363" width="2.45276" height="2.59994" fill="#9D9D9D"/>
<rect y="10.5732" width="2.45276" height="2.59994" fill="#9D9D9D"/>
<rect y="13.1733" width="2.45276" height="2.59994" fill="#9D9D9D"/>
<rect y="15.5991" width="2.45276" height="2.59994" fill="#9D9D9D"/>
<rect x="2.45274" y="18.1997" width="2.45276" height="2.59994" fill="#9D9D9D"/>
<rect x="4.90548" y="20.8003" width="2.45276" height="2.59994" fill="#9D9D9D"/>
<rect x="7.35818" y="23.4004" width="2.45276" height="2.59994" fill="#9D9D9D"/>
<rect x="4.90548" y="23.4004" width="2.45276" height="2.59994" fill="#9D9D9D"/>
<rect x="2.45274" y="20.8003" width="2.45276" height="2.59994" fill="#9D9D9D"/>
<rect y="18.1997" width="2.45276" height="2.59994" fill="#9D9D9D"/>
<rect x="9.81102" y="23.4004" width="2.45276" height="2.59994" fill="#9D9D9D"/>
<rect x="12.2638" y="23.4004" width="2.45276" height="2.59994" fill="#9D9D9D"/>
<rect x="14.7166" y="23.4004" width="2.45276" height="2.59994" fill="#9D9D9D"/>
<rect x="17.1692" y="23.4004" width="2.45276" height="2.59994" fill="#9D9D9D"/>
<rect x="19.6221" y="23.4004" width="2.45276" height="2.59994" fill="#9D9D9D"/>
<rect x="22.0748" y="23.4004" width="2.45276" height="2.59994" fill="#9D9D9D"/>
<rect x="24.5275" y="23.4004" width="2.45276" height="2.59994" fill="#9D9D9D"/>
<rect x="26.9804" y="23.4004" width="2.45276" height="2.59994" fill="#9D9D9D"/>
<rect x="29.433" y="23.4004" width="2.45276" height="2.59994" fill="#9D9D9D"/>
<rect x="31.8858" y="23.4004" width="2.45276" height="2.59994" fill="#9D9D9D"/>
<rect x="34.3386" y="23.4004" width="2.45276" height="2.59994" fill="#9D9D9D"/>
<rect x="36.7913" y="23.4004" width="2.45276" height="2.59994" fill="#9D9D9D"/>
<rect x="39.2441" y="23.4004" width="2.45276" height="2.59994" fill="#9D9D9D"/>
<rect x="41.6969" y="23.4004" width="2.45276" height="2.59994" fill="#9D9D9D"/>
<rect x="44.1496" y="23.4004" width="2.45276" height="2.59994" fill="#9D9D9D"/>
<rect x="46.6024" y="23.4004" width="2.45276" height="2.59994" fill="#9D9D9D"/>
<rect x="49.0551" y="23.4004" width="2.45276" height="2.59994" fill="#9D9D9D"/>
<rect x="51.5078" y="23.4004" width="2.45276" height="2.59994" fill="#9D9D9D"/>
<rect x="53.9606" y="23.4004" width="2.45276" height="2.59994" fill="#9D9D9D"/>
<rect x="56.4134" y="23.4004" width="2.45276" height="2.59994" fill="#9D9D9D"/>
<rect x="58.8661" y="20.8003" width="2.45276" height="2.59994" fill="#9D9D9D"/>
<rect x="61.3188" y="18.1997" width="2.45276" height="2.59994" fill="#9D9D9D"/>
<rect x="4.90548" y="0.17334" width="2.45276" height="2.59994" fill="#9D9D9D"/>
<mask id="path-248-outside-1_656_1753" maskUnits="userSpaceOnUse" x="19.25" y="5.3335" width="26" height="13" fill="black">
<rect fill="white" x="19.25" y="5.3335" width="26" height="13"/>
<path d="M21.125 13.7085V12.896H28.4375V12.0835H20.3125V11.271H22.75V10.4585H21.125V9.646H20.3125V8.8335H21.125V8.021H20.3125V7.2085H22.75V6.396H24.375V7.2085H26.8125V8.021H26V8.8335H26.8125V9.646H26V10.4585H24.375V11.271H28.4375V6.396H30.0625V8.8335H32.5V9.646H30.0625V16.146H29.25V16.9585H28.4375V13.7085H21.125ZM25.1875 9.646V8.8335H21.9375V9.646H25.1875ZM38.1875 12.0835H34.9375V11.271H34.125V10.4585H33.3125V8.021H34.125V7.2085H34.9375V6.396H38.1875V7.2085H39V8.021H39.8125V10.4585H39V11.271H38.1875V12.0835ZM43.875 12.0835H42.25V6.396H43.875V12.0835ZM35.75 8.021H34.9375V10.4585H35.75V11.271H37.375V10.4585H38.1875V8.021H37.375V7.2085H35.75V8.021ZM35.75 16.146H43.875V16.9585H34.9375V16.146H34.125V12.896H35.75V16.146Z"/>
</mask>
<path d="M21.125 13.7085V12.896H28.4375V12.0835H20.3125V11.271H22.75V10.4585H21.125V9.646H20.3125V8.8335H21.125V8.021H20.3125V7.2085H22.75V6.396H24.375V7.2085H26.8125V8.021H26V8.8335H26.8125V9.646H26V10.4585H24.375V11.271H28.4375V6.396H30.0625V8.8335H32.5V9.646H30.0625V16.146H29.25V16.9585H28.4375V13.7085H21.125ZM25.1875 9.646V8.8335H21.9375V9.646H25.1875ZM38.1875 12.0835H34.9375V11.271H34.125V10.4585H33.3125V8.021H34.125V7.2085H34.9375V6.396H38.1875V7.2085H39V8.021H39.8125V10.4585H39V11.271H38.1875V12.0835ZM43.875 12.0835H42.25V6.396H43.875V12.0835ZM35.75 8.021H34.9375V10.4585H35.75V11.271H37.375V10.4585H38.1875V8.021H37.375V7.2085H35.75V8.021ZM35.75 16.146H43.875V16.9585H34.9375V16.146H34.125V12.896H35.75V16.146Z" fill="black"/>
<path d="M21.125 13.7085H20.125V14.7085H21.125V13.7085ZM21.125 12.896V11.896H20.125V12.896H21.125ZM28.4375 12.896V13.896H29.4375V12.896H28.4375ZM28.4375 12.0835H29.4375V11.0835H28.4375V12.0835ZM20.3125 12.0835H19.3125V13.0835H20.3125V12.0835ZM20.3125 11.271V10.271H19.3125V11.271H20.3125ZM22.75 11.271V12.271H23.75V11.271H22.75ZM22.75 10.4585H23.75V9.4585H22.75V10.4585ZM21.125 10.4585H20.125V11.4585H21.125V10.4585ZM21.125 9.646H22.125V8.646H21.125V9.646ZM20.3125 9.646H19.3125V10.646H20.3125V9.646ZM20.3125 8.8335V7.8335H19.3125V8.8335H20.3125ZM21.125 8.8335V9.8335H22.125V8.8335H21.125ZM21.125 8.021H22.125V7.021H21.125V8.021ZM20.3125 8.021H19.3125V9.021H20.3125V8.021ZM20.3125 7.2085V6.2085H19.3125V7.2085H20.3125ZM22.75 7.2085V8.2085H23.75V7.2085H22.75ZM22.75 6.396V5.396H21.75V6.396H22.75ZM24.375 6.396H25.375V5.396H24.375V6.396ZM24.375 7.2085H23.375V8.2085H24.375V7.2085ZM26.8125 7.2085H27.8125V6.2085H26.8125V7.2085ZM26.8125 8.021V9.021H27.8125V8.021H26.8125ZM26 8.021V7.021H25V8.021H26ZM26 8.8335H25V9.8335H26V8.8335ZM26.8125 8.8335H27.8125V7.8335H26.8125V8.8335ZM26.8125 9.646V10.646H27.8125V9.646H26.8125ZM26 9.646V8.646H25V9.646H26ZM26 10.4585V11.4585H27V10.4585H26ZM24.375 10.4585V9.4585H23.375V10.4585H24.375ZM24.375 11.271H23.375V12.271H24.375V11.271ZM28.4375 11.271V12.271H29.4375V11.271H28.4375ZM28.4375 6.396V5.396H27.4375V6.396H28.4375ZM30.0625 6.396H31.0625V5.396H30.0625V6.396ZM30.0625 8.8335H29.0625V9.8335H30.0625V8.8335ZM32.5 8.8335H33.5V7.8335H32.5V8.8335ZM32.5 9.646V10.646H33.5V9.646H32.5ZM30.0625 9.646V8.646H29.0625V9.646H30.0625ZM30.0625 16.146V17.146H31.0625V16.146H30.0625ZM29.25 16.146V15.146H28.25V16.146H29.25ZM29.25 16.9585V17.9585H30.25V16.9585H29.25ZM28.4375 16.9585H27.4375V17.9585H28.4375V16.9585ZM28.4375 13.7085H29.4375V12.7085H28.4375V13.7085ZM25.1875 9.646V10.646H26.1875V9.646H25.1875ZM25.1875 8.8335H26.1875V7.8335H25.1875V8.8335ZM21.9375 8.8335V7.8335H20.9375V8.8335H21.9375ZM21.9375 9.646H20.9375V10.646H21.9375V9.646ZM22.125 13.7085V12.896H20.125V13.7085H22.125ZM21.125 13.896H28.4375V11.896H21.125V13.896ZM29.4375 12.896V12.0835H27.4375V12.896H29.4375ZM28.4375 11.0835H20.3125V13.0835H28.4375V11.0835ZM21.3125 12.0835V11.271H19.3125V12.0835H21.3125ZM20.3125 12.271H22.75V10.271H20.3125V12.271ZM23.75 11.271V10.4585H21.75V11.271H23.75ZM22.75 9.4585H21.125V11.4585H22.75V9.4585ZM22.125 10.4585V9.646H20.125V10.4585H22.125ZM21.125 8.646H20.3125V10.646H21.125V8.646ZM21.3125 9.646V8.8335H19.3125V9.646H21.3125ZM20.3125 9.8335H21.125V7.8335H20.3125V9.8335ZM22.125 8.8335V8.021H20.125V8.8335H22.125ZM21.125 7.021H20.3125V9.021H21.125V7.021ZM21.3125 8.021V7.2085H19.3125V8.021H21.3125ZM20.3125 8.2085H22.75V6.2085H20.3125V8.2085ZM23.75 7.2085V6.396H21.75V7.2085H23.75ZM22.75 7.396H24.375V5.396H22.75V7.396ZM23.375 6.396V7.2085H25.375V6.396H23.375ZM24.375 8.2085H26.8125V6.2085H24.375V8.2085ZM25.8125 7.2085V8.021H27.8125V7.2085H25.8125ZM26.8125 7.021H26V9.021H26.8125V7.021ZM25 8.021V8.8335H27V8.021H25ZM26 9.8335H26.8125V7.8335H26V9.8335ZM25.8125 8.8335V9.646H27.8125V8.8335H25.8125ZM26.8125 8.646H26V10.646H26.8125V8.646ZM25 9.646V10.4585H27V9.646H25ZM26 9.4585H24.375V11.4585H26V9.4585ZM23.375 10.4585V11.271H25.375V10.4585H23.375ZM24.375 12.271H28.4375V10.271H24.375V12.271ZM29.4375 11.271V6.396H27.4375V11.271H29.4375ZM28.4375 7.396H30.0625V5.396H28.4375V7.396ZM29.0625 6.396V8.8335H31.0625V6.396H29.0625ZM30.0625 9.8335H32.5V7.8335H30.0625V9.8335ZM31.5 8.8335V9.646H33.5V8.8335H31.5ZM32.5 8.646H30.0625V10.646H32.5V8.646ZM29.0625 9.646V16.146H31.0625V9.646H29.0625ZM30.0625 15.146H29.25V17.146H30.0625V15.146ZM28.25 16.146V16.9585H30.25V16.146H28.25ZM29.25 15.9585H28.4375V17.9585H29.25V15.9585ZM29.4375 16.9585V13.7085H27.4375V16.9585H29.4375ZM28.4375 12.7085H21.125V14.7085H28.4375V12.7085ZM26.1875 9.646V8.8335H24.1875V9.646H26.1875ZM25.1875 7.8335H21.9375V9.8335H25.1875V7.8335ZM20.9375 8.8335V9.646H22.9375V8.8335H20.9375ZM21.9375 10.646H25.1875V8.646H21.9375V10.646ZM38.1875 12.0835V13.0835H39.1875V12.0835H38.1875ZM34.9375 12.0835H33.9375V13.0835H34.9375V12.0835ZM34.9375 11.271H35.9375V10.271H34.9375V11.271ZM34.125 11.271H33.125V12.271H34.125V11.271ZM34.125 10.4585H35.125V9.4585H34.125V10.4585ZM33.3125 10.4585H32.3125V11.4585H33.3125V10.4585ZM33.3125 8.021V7.021H32.3125V8.021H33.3125ZM34.125 8.021V9.021H35.125V8.021H34.125ZM34.125 7.2085V6.2085H33.125V7.2085H34.125ZM34.9375 7.2085V8.2085H35.9375V7.2085H34.9375ZM34.9375 6.396V5.396H33.9375V6.396H34.9375ZM38.1875 6.396H39.1875V5.396H38.1875V6.396ZM38.1875 7.2085H37.1875V8.2085H38.1875V7.2085ZM39 7.2085H40V6.2085H39V7.2085ZM39 8.021H38V9.021H39V8.021ZM39.8125 8.021H40.8125V7.021H39.8125V8.021ZM39.8125 10.4585V11.4585H40.8125V10.4585H39.8125ZM39 10.4585V9.4585H38V10.4585H39ZM39 11.271V12.271H40V11.271H39ZM38.1875 11.271V10.271H37.1875V11.271H38.1875ZM43.875 12.0835V13.0835H44.875V12.0835H43.875ZM42.25 12.0835H41.25V13.0835H42.25V12.0835ZM42.25 6.396V5.396H41.25V6.396H42.25ZM43.875 6.396H44.875V5.396H43.875V6.396ZM35.75 8.021V9.021H36.75V8.021H35.75ZM34.9375 8.021V7.021H33.9375V8.021H34.9375ZM34.9375 10.4585H33.9375V11.4585H34.9375V10.4585ZM35.75 10.4585H36.75V9.4585H35.75V10.4585ZM35.75 11.271H34.75V12.271H35.75V11.271ZM37.375 11.271V12.271H38.375V11.271H37.375ZM37.375 10.4585V9.4585H36.375V10.4585H37.375ZM38.1875 10.4585V11.4585H39.1875V10.4585H38.1875ZM38.1875 8.021H39.1875V7.021H38.1875V8.021ZM37.375 8.021H36.375V9.021H37.375V8.021ZM37.375 7.2085H38.375V6.2085H37.375V7.2085ZM35.75 7.2085V6.2085H34.75V7.2085H35.75ZM35.75 16.146H34.75V17.146H35.75V16.146ZM43.875 16.146H44.875V15.146H43.875V16.146ZM43.875 16.9585V17.9585H44.875V16.9585H43.875ZM34.9375 16.9585H33.9375V17.9585H34.9375V16.9585ZM34.9375 16.146H35.9375V15.146H34.9375V16.146ZM34.125 16.146H33.125V17.146H34.125V16.146ZM34.125 12.896V11.896H33.125V12.896H34.125ZM35.75 12.896H36.75V11.896H35.75V12.896ZM38.1875 11.0835H34.9375V13.0835H38.1875V11.0835ZM35.9375 12.0835V11.271H33.9375V12.0835H35.9375ZM34.9375 10.271H34.125V12.271H34.9375V10.271ZM35.125 11.271V10.4585H33.125V11.271H35.125ZM34.125 9.4585H33.3125V11.4585H34.125V9.4585ZM34.3125 10.4585V8.021H32.3125V10.4585H34.3125ZM33.3125 9.021H34.125V7.021H33.3125V9.021ZM35.125 8.021V7.2085H33.125V8.021H35.125ZM34.125 8.2085H34.9375V6.2085H34.125V8.2085ZM35.9375 7.2085V6.396H33.9375V7.2085H35.9375ZM34.9375 7.396H38.1875V5.396H34.9375V7.396ZM37.1875 6.396V7.2085H39.1875V6.396H37.1875ZM38.1875 8.2085H39V6.2085H38.1875V8.2085ZM38 7.2085V8.021H40V7.2085H38ZM39 9.021H39.8125V7.021H39V9.021ZM38.8125 8.021V10.4585H40.8125V8.021H38.8125ZM39.8125 9.4585H39V11.4585H39.8125V9.4585ZM38 10.4585V11.271H40V10.4585H38ZM39 10.271H38.1875V12.271H39V10.271ZM37.1875 11.271V12.0835H39.1875V11.271H37.1875ZM43.875 11.0835H42.25V13.0835H43.875V11.0835ZM43.25 12.0835V6.396H41.25V12.0835H43.25ZM42.25 7.396H43.875V5.396H42.25V7.396ZM42.875 6.396V12.0835H44.875V6.396H42.875ZM35.75 7.021H34.9375V9.021H35.75V7.021ZM33.9375 8.021V10.4585H35.9375V8.021H33.9375ZM34.9375 11.4585H35.75V9.4585H34.9375V11.4585ZM34.75 10.4585V11.271H36.75V10.4585H34.75ZM35.75 12.271H37.375V10.271H35.75V12.271ZM38.375 11.271V10.4585H36.375V11.271H38.375ZM37.375 11.4585H38.1875V9.4585H37.375V11.4585ZM39.1875 10.4585V8.021H37.1875V10.4585H39.1875ZM38.1875 7.021H37.375V9.021H38.1875V7.021ZM38.375 8.021V7.2085H36.375V8.021H38.375ZM37.375 6.2085H35.75V8.2085H37.375V6.2085ZM34.75 7.2085V8.021H36.75V7.2085H34.75ZM35.75 17.146H43.875V15.146H35.75V17.146ZM42.875 16.146V16.9585H44.875V16.146H42.875ZM43.875 15.9585H34.9375V17.9585H43.875V15.9585ZM35.9375 16.9585V16.146H33.9375V16.9585H35.9375ZM34.9375 15.146H34.125V17.146H34.9375V15.146ZM35.125 16.146V12.896H33.125V16.146H35.125ZM34.125 13.896H35.75V11.896H34.125V13.896ZM34.75 12.896V16.146H36.75V12.896H34.75Z" fill="white" mask="url(#path-248-outside-1_656_1753)"/>
</svg>
