<svg width="36" height="36" viewBox="0 0 36 36" fill="none" xmlns="http://www.w3.org/2000/svg">
<path d="M27 23V26H13.5V24.5H12V9.5H10.5V12.5H9V8H22.5V9.5H24V21.5H15V23H27Z" fill="white"/>
<path d="M24.0005 8L22.5005 8L22.5005 9.5L24.0005 9.5V8Z" fill="black"/>
<path d="M12.0005 24.5L13.5005 24.5V26L12.0005 26V24.5Z" fill="black"/>
<path d="M22.5005 8V6.5L9.00049 6.5V8L22.5005 8Z" fill="black"/>
<path d="M9.00049 8L7.50049 8L7.50049 12.5L9.00049 12.5L9.00049 8Z" fill="black"/>
<path d="M12.0005 9.5L10.5005 9.5L10.5005 12.5L9.00049 12.5L9.00049 14H10.5005L10.5005 24.5H12.0005L12.0005 9.5Z" fill="black"/>
<path d="M21.0005 14V12.5H15.0005V14L21.0005 14Z" fill="black"/>
<path d="M18.0005 18.5V17H15.0005V18.5L18.0005 18.5Z" fill="black"/>
<path d="M15.0005 21.5L15.0005 23H27.0005V21.5H25.5005L25.5005 9.5L24.0005 9.5L24.0005 21.5L15.0005 21.5Z" fill="black"/>
<path d="M28.5005 23H27.0005V26L28.5005 26V23Z" fill="black"/>
<path d="M13.5005 26V27.5L27.0005 27.5V26H13.5005Z" fill="black"/>
</svg>
