<svg width="17" height="17" viewBox="0 0 17 17" fill="none" xmlns="http://www.w3.org/2000/svg">
<g clip-path="url(#clip0_931_2046)">
<path d="M5.73229 16.2678L16.7258 5.27435L14.2258 2.77442L11.7258 0.274479L1.01898 10.9813L5.73229 16.2678Z" fill="white"/>
<path d="M15.7689 4.91565L16.9155 3.76904L15.031 1.88452L13.1465 6.81582e-06L12.0298 1.11671L15.7689 4.91565Z" fill="white"/>
<path d="M17.0001 3.24072H16.1873V5.66854H17.0001V3.24072Z" fill="#000001"/>
<path d="M16.1871 5.66846H15.3796V6.47596H16.1871V5.66846Z" fill="#000001"/>
<path d="M16.1871 2.42773H15.3796V3.24055H16.1871V2.42773Z" fill="#000001"/>
<path d="M15.3798 6.47607H14.5723V7.28357H15.3798V6.47607Z" fill="#000001"/>
<path d="M15.3798 1.62012H14.5723V2.42762H15.3798V1.62012Z" fill="#000001"/>
<path d="M14.5721 7.2832H13.7593V8.09602H14.5721V7.2832Z" fill="#000001"/>
<path d="M14.5721 5.66846H13.7593V6.47596H14.5721V5.66846Z" fill="#000001"/>
<path d="M14.5721 0.807617H13.7593V1.62043H14.5721V0.807617Z" fill="#000001"/>
<path d="M13.7594 8.09619H12.9519V8.90369H13.7594V8.09619Z" fill="#000001"/>
<path d="M13.7594 4.85547H12.9519V5.66828H13.7594V4.85547Z" fill="#000001"/>
<path d="M12.952 8.90381H12.1392V9.71662H12.952V8.90381Z" fill="#000001"/>
<path d="M12.952 5.66846H12.1392V6.47596H12.952V5.66846Z" fill="#000001"/>
<path d="M12.952 4.04834H12.1392V4.85584H12.952V4.04834Z" fill="#000001"/>
<path d="M13.7594 0H11.3315V0.8075H13.7594V0Z" fill="#000001"/>
<path d="M12.139 9.7168H11.3315V10.5243H12.139V9.7168Z" fill="#000001"/>
<path d="M12.139 6.47607H11.3315V7.28357H12.139V6.47607Z" fill="#000001"/>
<path d="M12.139 3.24072H11.3315V4.04822H12.139V3.24072Z" fill="#000001"/>
<path d="M11.3317 10.5239H10.5242V11.3314H11.3317V10.5239Z" fill="#000001"/>
<path d="M11.3317 7.2832H10.5242V8.09602H11.3317V7.2832Z" fill="#000001"/>
<path d="M11.3317 4.04834H10.5242V4.85584H11.3317V4.04834Z" fill="#000001"/>
<path d="M11.3317 2.42773H10.5242V3.24055H11.3317V2.42773Z" fill="#000001"/>
<path d="M11.3317 0.807617H10.5242V1.62043H11.3317V0.807617Z" fill="#000001"/>
<path d="M10.524 11.3315H9.71118V12.1444H10.524V11.3315Z" fill="#000001"/>
<path d="M10.524 8.09619H9.71118V8.90369H10.524V8.09619Z" fill="#000001"/>
<path d="M10.524 4.85547H9.71118V5.66828H10.524V4.85547Z" fill="#000001"/>
<path d="M10.524 1.62012H9.71118V2.42762H10.524V1.62012Z" fill="#000001"/>
<path d="M9.71131 12.1445H8.90381V12.952H9.71131V12.1445Z" fill="#000001"/>
<path d="M9.71131 8.90381H8.90381V9.71662H9.71131V8.90381Z" fill="#000001"/>
<path d="M9.71131 5.66846H8.90381V6.47596H9.71131V5.66846Z" fill="#000001"/>
<path d="M9.71131 2.42773H8.90381V3.24055H9.71131V2.42773Z" fill="#000001"/>
<path d="M8.90369 12.9517H8.09619V13.7592H8.90369V12.9517Z" fill="#000001"/>
<path d="M8.90369 9.7168H8.09619V10.5243H8.90369V9.7168Z" fill="#000001"/>
<path d="M8.90369 6.47607H8.09619V7.28357H8.90369V6.47607Z" fill="#000001"/>
<path d="M8.90369 3.24072H8.09619V4.04822H8.90369V3.24072Z" fill="#000001"/>
<path d="M8.09626 13.7593H7.28345V14.5721H8.09626V13.7593Z" fill="#000001"/>
<path d="M8.09626 10.5239H7.28345V11.3314H8.09626V10.5239Z" fill="#000001"/>
<path d="M8.09626 7.2832H7.28345V8.09602H8.09626V7.2832Z" fill="#000001"/>
<path d="M8.09626 4.04834H7.28345V4.85584H8.09626V4.04834Z" fill="#000001"/>
<path d="M7.28333 14.5723H6.47583V15.3798H7.28333V14.5723Z" fill="#000001"/>
<path d="M7.28333 11.3315H6.47583V12.1444H7.28333V11.3315Z" fill="#000001"/>
<path d="M7.28333 8.09619H6.47583V8.90369H7.28333V8.09619Z" fill="#000001"/>
<path d="M7.28333 4.85547H6.47583V5.66828H7.28333V4.85547Z" fill="#000001"/>
<path d="M6.4759 12.1445H5.66309V12.952H6.4759V12.1445Z" fill="#000001"/>
<path d="M6.4759 8.90381H5.66309V9.71662H6.4759V8.90381Z" fill="#000001"/>
<path d="M4 12H0V16H4V12Z" fill="white"/>
<path d="M5 13H1V17H5V13Z" fill="white"/>
<path d="M6.4759 5.66846H5.66309V6.47596H6.4759V5.66846Z" fill="#000001"/>
<path d="M5.66313 16.1924H6.47594V15.3796H5.66313V12.9517H4.04812V11.3314H1.62031V10.5239H0.8075V11.3314H0V16.9999H5.66313V16.1924ZM4.85563 16.1924H2.42781V15.3796H1.62031V14.5721H0.8075V12.1442H3.23531V13.7592H4.85563V16.1924Z" fill="#000001"/>
<path d="M5.66321 9.7168H4.85571V10.5243H5.66321V9.7168Z" fill="#000001"/>
<path d="M5.66321 6.47607H4.85571V7.28357H5.66321V6.47607Z" fill="#000001"/>
<path d="M4.8556 10.5239H4.0481V11.3314H4.8556V10.5239Z" fill="#000001"/>
<path d="M4.8556 7.2832H4.0481V8.09602H4.8556V7.2832Z" fill="#000001"/>
<path d="M4.04816 8.09619H3.23535V8.90369H4.04816V8.09619Z" fill="#000001"/>
<path d="M3.23523 8.90381H2.42773V9.71662H3.23523V8.90381Z" fill="#000001"/>
<path d="M2.42786 9.7168H1.62036V10.5243H2.42786V9.7168Z" fill="#000001"/>
</g>
<defs>
<clipPath id="clip0_931_2046">
<rect width="17" height="17" fill="white"/>
</clipPath>
</defs>
</svg>
