<svg width="144" height="112" viewBox="0 0 144 112" fill="none" xmlns="http://www.w3.org/2000/svg">
<rect width="16" height="16" fill="#1E1E1E"/>
<rect x="16" width="16" height="16" fill="#1E1E1E"/>
<rect x="32" width="16" height="16" fill="#1E1E1E"/>
<rect x="48" width="16" height="16" fill="#1E1E1E"/>
<rect x="64" width="16" height="16" fill="#1E1E1E"/>
<rect x="80" width="16" height="16" fill="#1E1E1E"/>
<rect x="96" width="16" height="16" fill="#1E1E1E"/>
<rect x="112" width="16" height="16" fill="#1E1E1E"/>
<rect x="128" width="16" height="16" fill="#1E1E1E"/>
<rect x="128" y="16" width="16" height="16" fill="#1E1E1E"/>
<rect x="128" y="32" width="16" height="16" fill="#1E1E1E"/>
<rect x="128" y="48" width="16" height="16" fill="#1E1E1E"/>
<rect x="128" y="64" width="16" height="16" fill="#1E1E1E"/>
<rect x="128" y="80" width="16" height="16" fill="#1E1E1E"/>
<rect x="128" y="96" width="16" height="16" fill="#1E1E1E"/>
<rect x="112" y="96" width="16" height="16" fill="#1E1E1E"/>
<rect x="96" y="96" width="16" height="16" fill="#1E1E1E"/>
<rect x="80" y="96" width="16" height="16" fill="#1E1E1E"/>
<rect x="64" y="96" width="16" height="16" fill="#1E1E1E"/>
<rect x="48" y="96" width="16" height="16" fill="#1E1E1E"/>
<rect x="32" y="96" width="16" height="16" fill="#1E1E1E"/>
<rect x="16" y="96" width="16" height="16" fill="#1E1E1E"/>
<rect y="96" width="16" height="16" fill="#1E1E1E"/>
<rect y="80" width="16" height="16" fill="#1E1E1E"/>
<rect y="64" width="16" height="16" fill="#1E1E1E"/>
<rect y="48" width="16" height="16" fill="#1E1E1E"/>
<rect y="32" width="16" height="16" fill="#1E1E1E"/>
<rect y="16" width="16" height="16" fill="#1E1E1E"/>
<rect x="16" y="16" width="16" height="16" fill="#1E1E1E"/>
<rect x="32" y="32" width="16" height="16" fill="#1E1E1E"/>
<rect x="48" y="48" width="16" height="16" fill="#1E1E1E"/>
<rect x="64" y="64" width="16" height="16" fill="#1E1E1E"/>
<rect x="80" y="48" width="16" height="16" fill="#1E1E1E"/>
<rect x="96" y="32" width="16" height="16" fill="#1E1E1E"/>
<rect x="112" y="16" width="16" height="16" fill="#1E1E1E"/>
</svg>
